;TYPE=PLATED
;Layer: PTH_Through
;EasyEDA Pro v3.2.69, 2026-02-24 21:35:43
;Gerber Generator version 0.3
M48
METRIC,LZ,0000.00000
;Hole size 1 = 0.20320 METRIC
T01C0.20320
;Hole size 2 = 0.25400 METRIC
T02C0.25400
;Hole size 3 = 0.30480 METRIC
T03C0.30480
;Hole size 4 = 1.00000 METRIC
T04C1.00000
;Hole size 5 = 1.10002 METRIC
T05C1.10002
;Hole size 6 = 1.80000 METRIC
T06C1.80000
;Hole size 7 = 3.10000 METRIC
T07C3.10000
%
G05
G90
T01
X-18.669Y-4.064
T02
X-17.66697Y15.51703
X-17.6022Y-15.59558
X-17.06316Y16.9886
X-17.05341Y14.04952
X-16.99834Y-14.12401
X-16.98864Y-17.06315
X-15.5956Y17.60222
X-15.58183Y13.44566
X-15.53083Y-13.51045
X-15.51701Y-17.66695
X-14.12402Y16.99836
X-14.11427Y14.05922
X-14.05925Y-14.11426
X-14.0495Y-17.05339
X-13.51041Y15.53085
X-13.44564Y-15.58182
X13.44564Y15.5818
X13.51041Y-15.53081
X14.0495Y17.05337
X14.05926Y14.11429
X14.11427Y-14.05924
X14.12403Y-16.99838
X15.51701Y17.66699
X15.53083Y13.51043
X15.58178Y-13.44563
X15.5956Y-17.60218
X16.98859Y17.06313
X16.99834Y14.12404
X17.05341Y-14.04949
X17.06316Y-16.98862
X17.6022Y15.59562
X17.66697Y-15.51705
X-15.748Y-6.6294
X-20.193Y-5.969
X-16.14892Y-6.09161
X-17.15694Y-6.096
X-12.827Y-4.826
X-18.161Y-4.953
X5.461Y15.113
X5.461Y14.351
X5.461Y13.589
X5.461Y12.827
X5.461Y12.065
X6.223Y15.113
X6.223Y13.589
X6.223Y12.065
X6.223Y14.351
X6.223Y12.827
X-0.75019Y2.413
X2.159Y0.25006
X1.27Y-1.5
X2.286Y-0.74993
X-20.193Y8.001
X-20.193Y11.557
X-11.811Y3.50139
X-12.319Y4.02006
X-12.446Y3.00939
X-9.398Y2.51206
X-9.5262Y3.175
X-9.79134Y3.937
X-9.017Y8.255
X-10.29251Y7.75251
X-6.096Y8.255
X-5.588Y7.75251
X-20.193Y2.51993
X-7.112Y7.239
X-11.43Y7.239
X-20.574Y-0.635
X-20.04381Y-1.16519
X-18.81774Y1.12126
X-18.25024Y0.67276
X-17.67893Y2.13307
X-17.03455Y1.76145
X-17.653Y6.731
X-16.90755Y7.366
X-12.6488Y12.58112
X-10.922Y12.58112
X-8.92146Y12.58112
X-4.064Y12.58112
X-9.398Y15.367
X-8.59367Y15.367
X-7.78933Y15.367
X-6.985Y15.367
X-9.398Y14.732
X-6.985Y14.732
X-8.59367Y14.732
X-7.78933Y14.732
X-0.03948Y16.764
X3.429Y16.764
X-15.03332Y10.922
X-17.75821Y10.922
X-19.558Y10.922
X-4.191Y-1.397
X-21.463Y-7.366
X20.955Y10.795
X12.91699Y8.001
X13.716Y8.001
X12.91699Y7.239
X13.716Y7.239
X12.91699Y6.47003
X-21.336Y10.287
X-18.923Y10.287
X-17.22398Y9.906
X-14.478Y8.90041
X-20.65706Y6.477
X-18.78406Y6.731
X-16.13746Y6.45752
X-15.113Y-3.81
X-20.193Y-8.636
X-19.05Y-8.636
X-15.875Y-8.12394
X-2.794Y-2.032
X-2.794Y2.286
X0.254Y2.286
X1.778Y1.524
X14.986Y-3.81
X16.891Y-2.159
X23.22726Y-7.366
X23.84853Y-7.366
X24.46979Y-7.366
X23.22726Y-8.001
X23.84853Y-8.001
X24.46979Y-8.001
X24.13Y-2.794
X24.765Y-2.794
X24.765Y-3.429
X24.13Y-4.572
X24.72701Y-4.572
X18.161Y-6.35
X18.78226Y-6.35
X19.40353Y-6.35
X18.161Y-6.985
X18.78226Y-6.985
X19.40353Y-6.985
X18.923Y-3.429
X19.558Y-3.429
X20.41953Y-12.954
X20.41953Y-12.319
X19.79826Y-12.319
X19.79826Y-12.954
X19.177Y-12.954
X19.177Y-12.319
X18.55574Y-12.319
X18.55574Y-12.954
X17.93447Y-12.319
X6.42518Y5.461
X24.73063Y9.78322
X3.302Y15.91412
X8.09803Y18.288
X-2.19875Y18.4662
X-5.588Y-0.381
X-4.064Y1.68538
X-3.37201Y12.00801
X-3.37201Y11.43
X-2.794Y11.43
X-2.794Y12.00801
X-2.21599Y11.43
X-2.21599Y12.00801
X-1.63798Y11.43
X-1.63798Y12.00801
X0.91681Y16.18599
X1.49482Y16.18599
X2.07283Y16.18599
X0.91681Y15.60798
X2.07283Y15.60798
X1.49482Y15.60798
X1.49482Y12.597
X2.07283Y12.597
X0.91681Y12.01899
X2.07283Y12.01899
X1.49482Y12.01899
X0.91681Y12.597
X1.49482Y14.351
X2.07283Y14.351
X0.91681Y13.77299
X2.07283Y13.77299
X1.49482Y13.77299
X0.91681Y14.351
X0.381Y9.271
X9.017Y5.08
X13.97Y11.28786
X14.59126Y11.28786
X15.21253Y11.28786
X19.05Y12.319
X19.05Y12.954
X19.67126Y12.954
X19.67126Y12.319
X20.29253Y12.319
X20.29253Y12.954
X17.76626Y12.319
X18.38753Y12.319
X12.00921Y11.28786
X12.63047Y11.28786
X13.25174Y11.28786
X12.00921Y11.90912
X14.59126Y11.90912
X13.97Y11.90912
X13.25174Y11.90912
X12.63047Y11.90912
X12.00921Y12.53039
X12.63047Y12.53039
X12.00921Y13.15165
X12.00921Y13.77292
X-10.541Y10.287
X-10.541Y9.525
X-9.779Y9.525
X-9.779Y10.287
X-9.779Y11.049
X-7.747Y10.668
X-7.747Y9.906
X-6.985Y9.906
X-6.985Y10.668
X-6.985Y11.43
X-7.747Y11.43
X-6.985Y13.462
X-7.747Y13.462
X-10.795Y14.732
X-10.795Y13.97
X-10.795Y15.494
X-10.795Y16.891
X-10.795Y16.129
X-14.224Y10.033
X-14.224Y10.795
X-18.415Y-0.762
X-17.45739Y-0.762
X-15.621Y0.889
X-15.621Y1.67881
X-15.621Y2.49273
X-20.10748Y-11.176
X-20.955Y-11.176
X-20.955Y-10.46934
X-20.10748Y-10.46934
X-20.10748Y-9.76268
X-20.955Y-9.76268
X2.921Y3.81
X3.937Y0.635
X20.701Y-1.016
X20.701Y8.636
X-15.494Y-10.414
X-17.03469Y-12.08169
X-11.84904Y-13.462
X5.207Y-13.462
X5.08Y-6.477
X-2.54Y-6.37388
X5.969Y-7.44278
X-4.47Y-8.3566
X-4.445Y-6.477
X-3.048Y-8.636
X-3.556Y-10.16
X-3.81Y-6.858
X-11.04901Y-14.351
X-6.47542Y-11.684
X-15.621Y3.81
X-12.573Y8.128
X-9.017Y9.017
X-3.937Y8.382
X4.572Y5.588
X-13.29588Y-2.159
X-8.001Y-1.397
X-11.557Y-4.064
X7.76762Y3.429
X-2.667Y-13.589
X-8.77124Y-19.26212
X-7.32853Y-19.26212
X-5.88583Y-19.26212
X-4.44312Y-19.26212
X-3.0004Y-19.26212
X-1.55769Y-19.26212
X-0.11498Y-19.26212
X1.32773Y-19.26212
X2.77044Y-19.26212
X4.21315Y-19.26212
X5.65586Y-19.26212
X7.09857Y-19.26212
X8.54128Y-19.26212
X9.98399Y-19.26212
X-7.32853Y-17.81941
X-8.77124Y-17.81941
X-5.88583Y-17.81941
X-4.44312Y-17.81941
X2.77044Y-17.81941
X-3.0004Y-17.81941
X-1.55769Y-17.81941
X-0.11498Y-17.81941
X1.32773Y-17.81941
X4.21315Y-17.81941
X5.65586Y-17.81941
X7.09857Y-17.81941
X8.54128Y-17.81941
X9.98399Y-17.81941
X-13.843Y-9.144
X-12.85729Y-9.144
X-13.843Y-8.255
X-12.85729Y-8.255
X-7.27697Y3.9112
X7.19811Y-2.794
X-8.763Y-2.57912
X-8.255Y-3.302
X9.525Y-0.381
X6.69188Y4.064
X5.969Y4.699
X-3.683Y-2.286
X-8.128Y21.717
X-6.858Y21.717
X-5.588Y21.717
X-4.318Y21.717
X-3.048Y21.717
X-1.778Y21.717
X-0.508Y21.717
X4.572Y21.717
X5.842Y21.717
X7.112Y21.717
X8.382Y21.717
X-11.938Y20.447
X-8.128Y20.447
X-6.858Y20.447
X-5.588Y20.447
X-4.318Y20.447
X-3.048Y20.447
X-1.778Y20.447
X-0.508Y20.447
X4.572Y20.447
X5.842Y20.447
X7.112Y20.447
X8.382Y20.447
X10.922Y20.447
X12.192Y20.447
X-13.208Y19.177
X-11.938Y19.177
X7.112Y19.177
X8.382Y19.177
X10.922Y19.177
X12.192Y19.177
X-9.398Y17.907
X9.652Y17.907
X10.922Y17.907
X12.192Y17.907
X10.922Y16.637
X9.652Y15.367
X9.652Y14.097
X-19.558Y12.827
X-18.288Y12.827
X9.652Y12.827
X-9.398Y11.557
X3.302Y11.557
X-18.288Y10.287
X-22.098Y9.017
X-3.048Y9.017
X-1.778Y9.017
X-0.508Y9.017
X2.032Y9.017
X3.302Y9.017
X4.572Y9.017
X-3.048Y7.747
X-1.778Y7.747
X-0.508Y7.747
X0.762Y7.747
X3.302Y7.747
X4.572Y7.747
X-5.588Y6.477
X-4.318Y6.477
X-3.048Y6.477
X-0.508Y6.477
X0.762Y6.477
X2.032Y6.477
X4.572Y6.477
X5.842Y6.477
X9.652Y6.477
X22.352Y6.477
X23.622Y6.477
X24.892Y6.477
X0.762Y5.207
X2.032Y5.207
X3.302Y5.207
X22.352Y5.207
X23.622Y5.207
X24.892Y5.207
X-19.558Y3.937
X-4.318Y3.937
X-3.048Y3.937
X10.922Y3.937
X-1.778Y2.667
X8.382Y2.667
X9.652Y2.667
X3.302Y1.397
X8.382Y1.397
X24.892Y1.397
X5.842Y0.127
X13.462Y0.127
X24.892Y0.127
X4.572Y-1.143
X5.842Y-1.143
X7.112Y-1.143
X14.732Y-1.143
X16.002Y-1.143
X24.892Y-1.143
X-22.098Y-2.413
X-8.128Y-2.413
X-1.778Y-2.413
X4.572Y-2.413
X5.842Y-2.413
X10.922Y-2.413
X14.732Y-2.413
X16.002Y-2.413
X-22.098Y-3.683
X3.302Y-3.683
X4.572Y-3.683
X13.462Y-3.683
X-22.098Y-4.953
X-20.828Y-4.953
X-1.778Y-4.953
X-0.508Y-4.953
X7.112Y-4.953
X-22.098Y-6.223
X-22.098Y-8.763
X-20.828Y-8.763
X-18.288Y-8.763
X23.622Y-8.763
X24.892Y-8.763
X-19.558Y-10.033
X-19.558Y-11.303
X13.462Y-11.303
X14.732Y-11.303
X16.002Y-11.303
X17.272Y-11.303
X21.082Y-11.303
X-19.558Y-12.573
X-18.288Y-12.573
X11.43Y-17.78
T03
X-4.318Y-5.588
X-3.556Y-3.699
T04
X10.541Y0.97574
X10.541Y-4.02425
T05
X22.39902Y-9.69086
X22.39902Y1.30912
T06
X12.39901Y-1.69088
X12.39901Y-6.69087
T07
X-15.58869Y15.52394
X-15.52392Y-15.58873
X15.52392Y15.58871
X15.58869Y-15.52391
M30