G04 Layer: InnerLayer1*
G04 EasyEDA Pro v3.2.69, 2026-02-24 21:35:43*
G04 Gerber Generator version 0.3*
G04 Scale: 100 percent, Rotated: No, Reflected: No*
G04 Dimensions in millimeters*
G04 Leading zeros omitted, absolute positions, 4 integers and 5 decimals*
G04 Generated by one-click*
%FSLAX45Y45*%
%MOMM*%
%ADD10C,0.2032*%
%ADD11C,5.5*%
%ADD12C,2.49999*%
%ADD13C,1.8*%
%ADD14C,1.6*%
%ADD15C,0.508*%
%ADD16C,0.4064*%
%ADD17C,0.6196*%
%ADD18C,0.6096*%
G75*


G04 Copper Start*
G36*
G01X-1725677Y-1156615D02*
G01X-1737480Y-1163511D01*
G01X-1747266Y-1173057D01*
G01X-1754454Y-1184684D01*
G01X-1758619Y-1197705D01*
G01X-1759513Y-1211346D01*
G01X-1757083Y-1224798D01*
G01X-1751473Y-1237264D01*
G01X-1743017Y-1248005D01*
G01X-1732215Y-1256383D01*
G01X-1756503Y-1272212D01*
G01X-1779406Y-1289985D01*
G01X-1800769Y-1309584D01*
G01X-1821457Y-1326310D01*
G01X-1844281Y-1339976D01*
G01X-1868794Y-1350315D01*
G01X-1894512Y-1357121D01*
G01X-1920929Y-1360263D01*
G01X-1947526Y-1359677D01*
G01X-1973779Y-1355375D01*
G01X-1999173Y-1347442D01*
G01X-2023206Y-1336034D01*
G01X-2045407Y-1321376D01*
G01X-2065338Y-1303755D01*
G01X-2113342Y-1224413D01*
G01X-2158299Y-1143305D01*
G01X-2200144Y-1060549D01*
G01X-2208931Y-1041400D01*
G01X-1605534Y-1041400D01*
G01X-1603621Y-1055929D01*
G01X-1598013Y-1069467D01*
G01X-1589093Y-1081093D01*
G01X-1577467Y-1090013D01*
G01X-1563929Y-1095621D01*
G01X-1549400Y-1097534D01*
G01X-1534871Y-1095621D01*
G01X-1521333Y-1090013D01*
G01X-1509707Y-1081093D01*
G01X-1500787Y-1069467D01*
G01X-1495179Y-1055929D01*
G01X-1493266Y-1041400D01*
G01X-1495179Y-1026871D01*
G01X-1499682Y-1016000D01*
G01X-411734Y-1016000D01*
G01X-409821Y-1030529D01*
G01X-404213Y-1044067D01*
G01X-395293Y-1055693D01*
G01X-383667Y-1064613D01*
G01X-370129Y-1070221D01*
G01X-355600Y-1072134D01*
G01X-341071Y-1070221D01*
G01X-327533Y-1064613D01*
G01X-315907Y-1055693D01*
G01X-306987Y-1044067D01*
G01X-301379Y-1030529D01*
G01X-299466Y-1016000D01*
G01X-301379Y-1001471D01*
G01X-306987Y-987933D01*
G01X-315907Y-976307D01*
G01X-327533Y-967387D01*
G01X-341071Y-961779D01*
G01X-355600Y-959866D01*
G01X-370129Y-961779D01*
G01X-383667Y-967387D01*
G01X-395293Y-976307D01*
G01X-404213Y-987933D01*
G01X-409821Y-1001471D01*
G01X-411734Y-1016000D01*
G01X-411734Y-1016000D01*
G01X-1499682Y-1016000D01*
G01X-1500787Y-1013333D01*
G01X-1509707Y-1001707D01*
G01X-1521333Y-992787D01*
G01X-1534871Y-987179D01*
G01X-1549400Y-985266D01*
G01X-1563929Y-987179D01*
G01X-1577467Y-992787D01*
G01X-1589093Y-1001707D01*
G01X-1598013Y-1013333D01*
G01X-1603621Y-1026871D01*
G01X-1605534Y-1041400D01*
G01X-1605534Y-1041400D01*
G01X-2208931Y-1041400D01*
G01X-2238818Y-976265D01*
G01X-2274265Y-890572D01*
G01X-2294574Y-835660D01*
G01X-503134Y-835660D01*
G01X-501221Y-850189D01*
G01X-495614Y-863727D01*
G01X-486693Y-875353D01*
G01X-475067Y-884273D01*
G01X-461529Y-889881D01*
G01X-447000Y-891794D01*
G01X-432472Y-889881D01*
G01X-418933Y-884273D01*
G01X-407307Y-875353D01*
G01X-398387Y-863727D01*
G01X-398334Y-863600D01*
G01X-360934Y-863600D01*
G01X-359021Y-878129D01*
G01X-353413Y-891667D01*
G01X-344493Y-903293D01*
G01X-332867Y-912213D01*
G01X-319329Y-917821D01*
G01X-304800Y-919734D01*
G01X-290271Y-917821D01*
G01X-276733Y-912213D01*
G01X-265107Y-903293D01*
G01X-256187Y-891667D01*
G01X-250579Y-878129D01*
G01X-248666Y-863600D01*
G01X-250579Y-849071D01*
G01X-256187Y-835533D01*
G01X-265107Y-823907D01*
G01X-276733Y-814987D01*
G01X-290271Y-809379D01*
G01X-304800Y-807466D01*
G01X-319329Y-809379D01*
G01X-332867Y-814987D01*
G01X-344493Y-823907D01*
G01X-353413Y-835533D01*
G01X-359021Y-849071D01*
G01X-360934Y-863600D01*
G01X-360934Y-863600D01*
G01X-398334Y-863600D01*
G01X-392779Y-850189D01*
G01X-390866Y-835660D01*
G01X-392779Y-821131D01*
G01X-398387Y-807593D01*
G01X-407307Y-795967D01*
G01X-418933Y-787047D01*
G01X-432472Y-781439D01*
G01X-447000Y-779526D01*
G01X-461529Y-781439D01*
G01X-475067Y-787047D01*
G01X-486693Y-795967D01*
G01X-495614Y-807593D01*
G01X-501221Y-821131D01*
G01X-503134Y-835660D01*
G01X-503134Y-835660D01*
G01X-2294574Y-835660D01*
G01X-2306433Y-803597D01*
G01X-2328358Y-736600D01*
G01X-2202434Y-736600D01*
G01X-2200521Y-751129D01*
G01X-2194913Y-764667D01*
G01X-2185993Y-776293D01*
G01X-2174367Y-785213D01*
G01X-2160829Y-790821D01*
G01X-2146300Y-792734D01*
G01X-2131771Y-790821D01*
G01X-2118233Y-785213D01*
G01X-2106607Y-776293D01*
G01X-2097687Y-764667D01*
G01X-2092079Y-751129D01*
G01X-2091177Y-744278D01*
G01X540766Y-744278D01*
G01X542679Y-758807D01*
G01X548287Y-772345D01*
G01X557207Y-783971D01*
G01X568833Y-792892D01*
G01X582371Y-798499D01*
G01X596900Y-800412D01*
G01X611429Y-798499D01*
G01X624967Y-792892D01*
G01X636593Y-783971D01*
G01X645513Y-772345D01*
G01X651121Y-758807D01*
G01X653034Y-744278D01*
G01X651121Y-729750D01*
G01X645513Y-716211D01*
G01X636593Y-704585D01*
G01X624967Y-695665D01*
G01X611429Y-690057D01*
G01X596900Y-688144D01*
G01X582371Y-690057D01*
G01X568833Y-695665D01*
G01X557207Y-704585D01*
G01X548287Y-716211D01*
G01X542679Y-729750D01*
G01X540766Y-744278D01*
G01X540766Y-744278D01*
G01X-2091177Y-744278D01*
G01X-2090166Y-736600D01*
G01X-2092079Y-722071D01*
G01X-2097687Y-708533D01*
G01X-2106607Y-696907D01*
G01X-2118233Y-687987D01*
G01X-2131771Y-682379D01*
G01X-2146300Y-680466D01*
G01X-2160829Y-682379D01*
G01X-2174367Y-687987D01*
G01X-2185993Y-696907D01*
G01X-2194913Y-708533D01*
G01X-2200521Y-722071D01*
G01X-2202434Y-736600D01*
G01X-2202434Y-736600D01*
G01X-2328358Y-736600D01*
G01X-2335276Y-715462D01*
G01X-2335276Y-715462D01*
G01X-2335276Y-596900D01*
G01X-2075434Y-596900D01*
G01X-2073521Y-611429D01*
G01X-2067913Y-624967D01*
G01X-2058993Y-636593D01*
G01X-2047367Y-645513D01*
G01X-2033829Y-651121D01*
G01X-2019300Y-653034D01*
G01X-2004771Y-651121D01*
G01X-1991233Y-645513D01*
G01X-1979607Y-636593D01*
G01X-1970687Y-624967D01*
G01X-1965079Y-611429D01*
G01X-1964870Y-609845D01*
G01X-1771827Y-609845D01*
G01X-1769750Y-624731D01*
G01X-1763797Y-638533D01*
G01X-1754395Y-650260D01*
G01X-1742218Y-659072D01*
G01X-1728140Y-664337D01*
G01X-1713169Y-665677D01*
G01X-1698379Y-662997D01*
G01X-1684831Y-656488D01*
G01X-1673495Y-646618D01*
G01X-1665185Y-634093D01*
G01X-1659050Y-643817D01*
G01X-1651063Y-652088D01*
G01X-1641558Y-658557D01*
G01X-1630934Y-662954D01*
G01X-1629245Y-676606D01*
G01X-1624286Y-689438D01*
G01X-1616355Y-700678D01*
G01X-1605929Y-709652D01*
G01X-1593633Y-715821D01*
G01X-1580205Y-718813D01*
G01X-1566453Y-718450D01*
G01X-1553203Y-714753D01*
G01X-1541249Y-707944D01*
G01X-1531311Y-698433D01*
G01X-1523984Y-686789D01*
G01X-1519710Y-673714D01*
G01X-1518744Y-659991D01*
G01X-1521144Y-646446D01*
G01X-1522270Y-643932D01*
G01X-500507Y-643932D01*
G01X-499917Y-656646D01*
G01X-496477Y-668900D01*
G01X-496477Y-668900D01*
G01X-490364Y-680065D01*
G01X-481894Y-689565D01*
G01X-471501Y-696913D01*
G01X-459721Y-701731D01*
G01X-447157Y-703771D01*
G01X-434457Y-702928D01*
G01X-428421Y-715838D01*
G01X-419328Y-726812D01*
G01X-407765Y-735142D01*
G01X-394477Y-740292D01*
G01X-380320Y-741930D01*
G01X-366207Y-739950D01*
G01X-353048Y-734479D01*
G01X-341690Y-725871D01*
G01X-332865Y-714681D01*
G01X-327144Y-701628D01*
G01X-324893Y-687556D01*
G01X-326259Y-673370D01*
G01X-331154Y-659986D01*
G01X-339261Y-648265D01*
G01X-350058Y-638964D01*
G01X-353267Y-637388D01*
G01X-310134Y-637388D01*
G01X-308221Y-651916D01*
G01X-302613Y-665455D01*
G01X-293693Y-677080D01*
G01X-282067Y-686001D01*
G01X-268529Y-691609D01*
G01X-254000Y-693522D01*
G01X-239471Y-691609D01*
G01X-225933Y-686001D01*
G01X-214307Y-677080D01*
G01X-205387Y-665455D01*
G01X-199779Y-651916D01*
G01X-199224Y-647700D01*
G01X451866Y-647700D01*
G01X453779Y-662229D01*
G01X459387Y-675767D01*
G01X468307Y-687393D01*
G01X479933Y-696313D01*
G01X493471Y-701921D01*
G01X508000Y-703834D01*
G01X522529Y-701921D01*
G01X536067Y-696313D01*
G01X547693Y-687393D01*
G01X556613Y-675767D01*
G01X559375Y-669099D01*
G01X1084167Y-669099D01*
G01X1086085Y-693462D01*
G01X1091789Y-717224D01*
G01X1101141Y-739801D01*
G01X1113910Y-760638D01*
G01X1129781Y-779220D01*
G01X1148363Y-795091D01*
G01X1169199Y-807859D01*
G01X1191777Y-817211D01*
G01X1215539Y-822916D01*
G01X1239901Y-824833D01*
G01X1264263Y-822916D01*
G01X1288025Y-817211D01*
G01X1310603Y-807859D01*
G01X1331439Y-795091D01*
G01X1350021Y-779220D01*
G01X1365892Y-760638D01*
G01X1378661Y-739801D01*
G01X1388013Y-717224D01*
G01X1393717Y-693462D01*
G01X1395635Y-669099D01*
G01X1393717Y-644737D01*
G01X1388013Y-620975D01*
G01X1378661Y-598398D01*
G01X1365892Y-577561D01*
G01X1350021Y-558979D01*
G01X1331439Y-543108D01*
G01X1310603Y-530340D01*
G01X1288025Y-520988D01*
G01X1264263Y-515283D01*
G01X1239901Y-513366D01*
G01X1239901Y-513366D01*
G01X1215539Y-515283D01*
G01X1191777Y-520988D01*
G01X1169199Y-530340D01*
G01X1148363Y-543108D01*
G01X1129781Y-558979D01*
G01X1113910Y-577561D01*
G01X1101141Y-598398D01*
G01X1091789Y-620975D01*
G01X1086085Y-644737D01*
G01X1084167Y-669099D01*
G01X559375Y-669099D01*
G01X562221Y-662229D01*
G01X564134Y-647700D01*
G01X562221Y-633171D01*
G01X556613Y-619633D01*
G01X547693Y-608007D01*
G01X536067Y-599087D01*
G01X522529Y-593479D01*
G01X508000Y-591566D01*
G01X493471Y-593479D01*
G01X479933Y-599087D01*
G01X468307Y-608007D01*
G01X459387Y-619633D01*
G01X453779Y-633171D01*
G01X451866Y-647700D01*
G01X451866Y-647700D01*
G01X-199224Y-647700D01*
G01X-197866Y-637388D01*
G01X-199779Y-622859D01*
G01X-205387Y-609321D01*
G01X-214307Y-597695D01*
G01X-225933Y-588774D01*
G01X-239471Y-583166D01*
G01X-254000Y-581254D01*
G01X-268529Y-583166D01*
G01X-282067Y-588774D01*
G01X-293693Y-597695D01*
G01X-302613Y-609321D01*
G01X-308221Y-622859D01*
G01X-310134Y-637388D01*
G01X-310134Y-637388D01*
G01X-353267Y-637388D01*
G01X-362850Y-632681D01*
G01X-376811Y-629822D01*
G01X-391043Y-630572D01*
G01X-395270Y-620729D01*
G01X-401290Y-611869D01*
G01X-389206Y-602765D01*
G01X-379724Y-590975D01*
G01X-373423Y-577220D01*
G01X-370688Y-562339D01*
G01X-371687Y-547243D01*
G01X-376358Y-532852D01*
G01X-384415Y-520047D01*
G01X-395367Y-509609D01*
G01X-408545Y-502175D01*
G01X-423143Y-498201D01*
G01X-438270Y-497929D01*
G01X-453002Y-501375D01*
G01X-466439Y-508329D01*
G01X-477759Y-518366D01*
G01X-486273Y-530873D01*
G01X-491458Y-545087D01*
G01X-492999Y-560137D01*
G01X-490802Y-575107D01*
G01X-485001Y-589080D01*
G01X-475949Y-601203D01*
G01X-485616Y-609483D01*
G01X-493168Y-619728D01*
G01X-498219Y-631411D01*
G01X-500507Y-643932D01*
G01X-1522270Y-643932D01*
G01X-1526767Y-633891D01*
G01X-1535275Y-623080D01*
G01X-1546156Y-614664D01*
G01X-1558758Y-609147D01*
G01X-1560780Y-594230D01*
G01X-1566694Y-580386D01*
G01X-1576074Y-568612D01*
G01X-1588246Y-559754D01*
G01X-1602333Y-554450D01*
G01X-1617325Y-553079D01*
G01X-1632141Y-555742D01*
G01X-1645717Y-562247D01*
G01X-1657076Y-572125D01*
G01X-1665401Y-584667D01*
G01X-1673820Y-572216D01*
G01X-1685241Y-562444D01*
G01X-1698846Y-556054D01*
G01X-1713658Y-553503D01*
G01X-1728617Y-554974D01*
G01X-1742649Y-560361D01*
G01X-1754748Y-569279D01*
G01X-1764047Y-581088D01*
G01X-1769880Y-594941D01*
G01X-1771827Y-609845D01*
G01X-1771827Y-609845D01*
G01X-1964870Y-609845D01*
G01X-1963166Y-596900D01*
G01X-1965079Y-582371D01*
G01X-1970687Y-568833D01*
G01X-1979607Y-557207D01*
G01X-1991233Y-548287D01*
G01X-2004771Y-542679D01*
G01X-2019300Y-540766D01*
G01X-2033829Y-542679D01*
G01X-2047367Y-548287D01*
G01X-2058993Y-557207D01*
G01X-2067913Y-568833D01*
G01X-2073521Y-582371D01*
G01X-2075434Y-596900D01*
G01X-2075434Y-596900D01*
G01X-2335276Y-596900D01*
G01X-2335276Y-495300D01*
G01X-1872234Y-495300D01*
G01X-1870321Y-509829D01*
G01X-1864713Y-523367D01*
G01X-1855793Y-534993D01*
G01X-1844167Y-543913D01*
G01X-1830629Y-549521D01*
G01X-1816100Y-551434D01*
G01X-1801571Y-549521D01*
G01X-1788033Y-543913D01*
G01X-1776407Y-534993D01*
G01X-1767487Y-523367D01*
G01X-1761879Y-509829D01*
G01X-1759966Y-495300D01*
G01X-1761638Y-482600D01*
G01X-1338834Y-482600D01*
G01X-1336921Y-497129D01*
G01X-1331313Y-510667D01*
G01X-1322393Y-522293D01*
G01X-1310767Y-531213D01*
G01X-1297229Y-536821D01*
G01X-1282700Y-538734D01*
G01X-1268171Y-536821D01*
G01X-1254633Y-531213D01*
G01X-1243007Y-522293D01*
G01X-1234087Y-510667D01*
G01X-1228479Y-497129D01*
G01X-1226566Y-482600D01*
G01X-1228479Y-468071D01*
G01X-1234087Y-454533D01*
G01X-1243007Y-442907D01*
G01X-1254633Y-433987D01*
G01X-1268171Y-428379D01*
G01X-1282700Y-426466D01*
G01X-1297229Y-428379D01*
G01X-1310767Y-433987D01*
G01X-1322393Y-442907D01*
G01X-1331313Y-454533D01*
G01X-1336921Y-468071D01*
G01X-1338834Y-482600D01*
G01X-1338834Y-482600D01*
G01X-1761638Y-482600D01*
G01X-1761879Y-480771D01*
G01X-1767487Y-467233D01*
G01X-1776407Y-455607D01*
G01X-1788033Y-446687D01*
G01X-1801571Y-441079D01*
G01X-1816100Y-439166D01*
G01X-1830629Y-441079D01*
G01X-1844167Y-446687D01*
G01X-1855793Y-455607D01*
G01X-1864713Y-467233D01*
G01X-1870321Y-480771D01*
G01X-1872234Y-495300D01*
G01X-1872234Y-495300D01*
G01X-2335276Y-495300D01*
G01X-2335276Y-406400D01*
G01X-1211834Y-406400D01*
G01X-1209921Y-420929D01*
G01X-1204313Y-434467D01*
G01X-1195393Y-446093D01*
G01X-1183767Y-455013D01*
G01X-1170229Y-460621D01*
G01X-1155700Y-462534D01*
G01X-1141171Y-460621D01*
G01X-1127633Y-455013D01*
G01X-1116007Y-446093D01*
G01X-1107087Y-434467D01*
G01X-1101479Y-420929D01*
G01X-1099566Y-406400D01*
G01X-1101438Y-392182D01*
G01X943839Y-392182D01*
G01X943839Y-412617D01*
G01X947593Y-432703D01*
G01X954975Y-451758D01*
G01X965732Y-469132D01*
G01X979499Y-484233D01*
G01X995806Y-496547D01*
G01X1014098Y-505656D01*
G01X1033753Y-511248D01*
G01X1054100Y-513133D01*
G01X1054100Y-513133D01*
G01X1074447Y-511248D01*
G01X1094102Y-505656D01*
G01X1112394Y-496547D01*
G01X1128701Y-484233D01*
G01X1142468Y-469132D01*
G01X1153225Y-451758D01*
G01X1160607Y-432703D01*
G01X1164361Y-412617D01*
G01X1164361Y-392182D01*
G01X1160607Y-372096D01*
G01X1153225Y-353041D01*
G01X1142468Y-335667D01*
G01X1128701Y-320566D01*
G01X1112394Y-308252D01*
G01X1094102Y-299143D01*
G01X1074447Y-293551D01*
G01X1054100Y-291666D01*
G01X1033753Y-293551D01*
G01X1014098Y-299143D01*
G01X995806Y-308252D01*
G01X979499Y-320566D01*
G01X965732Y-335667D01*
G01X954975Y-353041D01*
G01X947593Y-372096D01*
G01X943839Y-392182D01*
G01X-1101438Y-392182D01*
G01X-1101479Y-391871D01*
G01X-1107087Y-378333D01*
G01X-1116007Y-366707D01*
G01X-1127633Y-357787D01*
G01X-1141171Y-352179D01*
G01X-1155700Y-350266D01*
G01X-1170229Y-352179D01*
G01X-1183767Y-357787D01*
G01X-1195393Y-366707D01*
G01X-1204313Y-378333D01*
G01X-1209921Y-391871D01*
G01X-1211834Y-406400D01*
G01X-1211834Y-406400D01*
G01X-2335276Y-406400D01*
G01X-2335276Y-62489D01*
G01X-2113525Y-62489D01*
G01X-2111955Y-76722D01*
G01X-2106834Y-90095D01*
G01X-2098497Y-101737D01*
G01X-2087485Y-110891D01*
G01X-2074516Y-116961D01*
G01X-2060433Y-119552D01*
G01X-2057842Y-133635D01*
G01X-2051772Y-146605D01*
G01X-2042618Y-157616D01*
G01X-2030975Y-165953D01*
G01X-2017603Y-171074D01*
G01X-2003369Y-172644D01*
G01X-1989202Y-170562D01*
G01X-1976022Y-164963D01*
G01X-1964688Y-156212D01*
G01X-1955937Y-144878D01*
G01X-1953737Y-139700D01*
G01X-856234Y-139700D01*
G01X-854321Y-154229D01*
G01X-848713Y-167767D01*
G01X-839793Y-179393D01*
G01X-828167Y-188313D01*
G01X-814629Y-193921D01*
G01X-800100Y-195834D01*
G01X-785571Y-193921D01*
G01X-772033Y-188313D01*
G01X-760407Y-179393D01*
G01X-751487Y-167767D01*
G01X-745879Y-154229D01*
G01X-743966Y-139700D01*
G01X-475234Y-139700D01*
G01X-473321Y-154229D01*
G01X-467713Y-167767D01*
G01X-458793Y-179393D01*
G01X-447167Y-188313D01*
G01X-433629Y-193921D01*
G01X-419100Y-195834D01*
G01X-404571Y-193921D01*
G01X-391033Y-188313D01*
G01X-379407Y-179393D01*
G01X-370487Y-167767D01*
G01X-364879Y-154229D01*
G01X-364322Y-150000D01*
G01X70866Y-150000D01*
G01X72779Y-164528D01*
G01X78387Y-178067D01*
G01X87307Y-189692D01*
G01X98933Y-198613D01*
G01X112471Y-204221D01*
G01X127000Y-206134D01*
G01X141529Y-204221D01*
G01X155067Y-198613D01*
G01X166693Y-189692D01*
G01X175613Y-178067D01*
G01X181221Y-164528D01*
G01X183134Y-150000D01*
G01X181221Y-135471D01*
G01X175613Y-121933D01*
G01X166693Y-110307D01*
G01X155067Y-101386D01*
G01X141529Y-95778D01*
G01X127000Y-93866D01*
G01X112471Y-95778D01*
G01X98933Y-101386D01*
G01X87307Y-110307D01*
G01X78387Y-121933D01*
G01X72779Y-135471D01*
G01X70866Y-150000D01*
G01X70866Y-150000D01*
G01X-364322Y-150000D01*
G01X-362966Y-139700D01*
G01X-364879Y-125171D01*
G01X-370487Y-111633D01*
G01X-379407Y-100007D01*
G01X-391033Y-91087D01*
G01X-404571Y-85479D01*
G01X-419100Y-83566D01*
G01X-433629Y-85479D01*
G01X-447167Y-91087D01*
G01X-458793Y-100007D01*
G01X-467713Y-111633D01*
G01X-473321Y-125171D01*
G01X-475234Y-139700D01*
G01X-475234Y-139700D01*
G01X-743966Y-139700D01*
G01X-745879Y-125171D01*
G01X-751487Y-111633D01*
G01X-760407Y-100007D01*
G01X-772033Y-91087D01*
G01X-785571Y-85479D01*
G01X-800100Y-83566D01*
G01X-814629Y-85479D01*
G01X-828167Y-91087D01*
G01X-839793Y-100007D01*
G01X-848713Y-111633D01*
G01X-854321Y-125171D01*
G01X-856234Y-139700D01*
G01X-856234Y-139700D01*
G01X-1953737Y-139700D01*
G01X-1950338Y-131698D01*
G01X-1948256Y-117531D01*
G01X-1949826Y-103297D01*
G01X-1954947Y-89925D01*
G01X-1963284Y-78282D01*
G01X-1974295Y-69128D01*
G01X-1987265Y-63058D01*
G01X-2001348Y-60467D01*
G01X-2003939Y-46384D01*
G01X-2010009Y-33415D01*
G01X-2019163Y-22403D01*
G01X-2030805Y-14066D01*
G01X-2044178Y-8945D01*
G01X-2058411Y-7375D01*
G01X-2072579Y-9457D01*
G01X-2085758Y-15056D01*
G01X-2097093Y-23807D01*
G01X-2097093Y-23807D01*
G01X-2105844Y-35142D01*
G01X-2111443Y-48321D01*
G01X-2113525Y-62489D01*
G01X-2335276Y-62489D01*
G01X-2335276Y107183D01*
G01X-1937690Y107183D01*
G01X-1934685Y93380D01*
G01X-1928330Y80764D01*
G01X-1919026Y70135D01*
G01X-1907364Y62164D01*
G01X-1894080Y57358D01*
G01X-1880018Y56020D01*
G01X-1875466Y42647D01*
G01X-1867720Y30834D01*
G01X-1857270Y21328D01*
G01X-1844778Y14733D01*
G01X-1831035Y11465D01*
G01X-1816911Y11732D01*
G01X-1803301Y15516D01*
G01X-1791067Y22578D01*
G01X-1782787Y30700D01*
G01X160056Y30700D01*
G01X160547Y15678D01*
G01X165006Y1324D01*
G01X173115Y-11332D01*
G01X184292Y-21383D01*
G01X197734Y-28107D01*
G01X186399Y-37978D01*
G01X178090Y-50503D01*
G01X173402Y-64785D01*
G01X172672Y-79798D01*
G01X175952Y-94466D01*
G01X183006Y-107739D01*
G01X193330Y-118663D01*
G01X206182Y-126457D01*
G01X220642Y-130561D01*
G01X235672Y-130680D01*
G01X235672Y-130680D01*
G01X250195Y-126807D01*
G01X263170Y-119219D01*
G01X273667Y-108460D01*
G01X277454Y-101600D01*
G01X2013966Y-101600D01*
G01X2015879Y-116129D01*
G01X2021487Y-129667D01*
G01X2030407Y-141293D01*
G01X2042033Y-150213D01*
G01X2055571Y-155821D01*
G01X2070100Y-157734D01*
G01X2084629Y-155821D01*
G01X2098167Y-150213D01*
G01X2109793Y-141293D01*
G01X2118713Y-129667D01*
G01X2124321Y-116129D01*
G01X2126234Y-101600D01*
G01X2124321Y-87071D01*
G01X2118713Y-73533D01*
G01X2109793Y-61907D01*
G01X2098167Y-52987D01*
G01X2084629Y-47379D01*
G01X2070100Y-45466D01*
G01X2055571Y-47379D01*
G01X2042033Y-52987D01*
G01X2030407Y-61907D01*
G01X2021487Y-73533D01*
G01X2015879Y-87071D01*
G01X2013966Y-101600D01*
G01X2013966Y-101600D01*
G01X277454Y-101600D01*
G01X280932Y-95302D01*
G01X284444Y-80688D01*
G01X283953Y-65665D01*
G01X279494Y-51311D01*
G01X271385Y-38655D01*
G01X260208Y-28605D01*
G01X246766Y-21880D01*
G01X258101Y-12009D01*
G01X266410Y516D01*
G01X271098Y14797D01*
G01X271828Y29810D01*
G01X268548Y44479D01*
G01X261494Y57751D01*
G01X256061Y63500D01*
G01X337566Y63500D01*
G01X339479Y48971D01*
G01X345087Y35433D01*
G01X354007Y23807D01*
G01X365633Y14887D01*
G01X379171Y9279D01*
G01X393700Y7366D01*
G01X408229Y9279D01*
G01X421767Y14887D01*
G01X433393Y23807D01*
G01X442313Y35433D01*
G01X447921Y48971D01*
G01X449834Y63500D01*
G01X447921Y78029D01*
G01X442313Y91567D01*
G01X433393Y103193D01*
G01X421767Y112113D01*
G01X408229Y117721D01*
G01X393700Y119634D01*
G01X379171Y117721D01*
G01X365633Y112113D01*
G01X354007Y103193D01*
G01X345087Y91567D01*
G01X339479Y78029D01*
G01X337566Y63500D01*
G01X337566Y63500D01*
G01X256061Y63500D01*
G01X251170Y68676D01*
G01X238318Y76470D01*
G01X223858Y80573D01*
G01X208828Y80693D01*
G01X194305Y76820D01*
G01X181330Y69232D01*
G01X170833Y58473D01*
G01X163568Y45315D01*
G01X160056Y30700D01*
G01X-1782787Y30700D01*
G01X-1780983Y32471D01*
G01X-1773688Y44568D01*
G01X-1769644Y58103D01*
G01X-1769108Y72219D01*
G01X-1772112Y86022D01*
G01X-1778468Y98638D01*
G01X-1787771Y109268D01*
G01X-1799434Y117238D01*
G01X-1812717Y122045D01*
G01X-1826780Y123383D01*
G01X-1831332Y136756D01*
G01X-1839078Y148569D01*
G01X-1849528Y158074D01*
G01X-1862020Y164669D01*
G01X-1875763Y167937D01*
G01X-1889887Y167671D01*
G01X-1903497Y163887D01*
G01X-1915731Y156824D01*
G01X-1925815Y146932D01*
G01X-1925815Y146932D01*
G01X-1933110Y134835D01*
G01X-1937153Y121299D01*
G01X-1937690Y107183D01*
G01X-2335276Y107183D01*
G01X-2335276Y251993D01*
G01X-2075434Y251993D01*
G01X-2073521Y237465D01*
G01X-2067913Y223926D01*
G01X-2058993Y212301D01*
G01X-2047367Y203380D01*
G01X-2033829Y197772D01*
G01X-2019300Y195859D01*
G01X-2004771Y197772D01*
G01X-1991233Y203380D01*
G01X-1979607Y212301D01*
G01X-1978270Y214043D01*
G01X-1824022Y214043D01*
G01X-1822393Y199861D01*
G01X-1817238Y186548D01*
G01X-1808893Y174966D01*
G01X-1797895Y165864D01*
G01X-1784958Y159830D01*
G01X-1770916Y157255D01*
G01X-1756679Y158305D01*
G01X-1750458Y145456D01*
G01X-1741196Y134592D01*
G01X-1729494Y126415D01*
G01X-1716108Y121455D01*
G01X-1701903Y120032D01*
G01X-1687799Y122238D01*
G01X-1674708Y127931D01*
G01X-1670924Y130899D01*
G01X2119165Y130899D01*
G01X2120999Y109934D01*
G01X2126446Y89606D01*
G01X2135340Y70532D01*
G01X2147412Y53293D01*
G01X2162293Y38411D01*
G01X2179532Y26340D01*
G01X2198606Y17446D01*
G01X2218934Y11999D01*
G01X2239899Y10165D01*
G01X2260864Y11999D01*
G01X2281192Y17446D01*
G01X2300266Y26340D01*
G01X2317505Y38411D01*
G01X2332386Y53293D01*
G01X2344458Y70532D01*
G01X2353352Y89606D01*
G01X2358799Y109934D01*
G01X2360633Y130899D01*
G01X2358799Y151864D01*
G01X2353352Y172192D01*
G01X2344458Y191266D01*
G01X2332386Y208505D01*
G01X2317505Y223386D01*
G01X2300266Y235457D01*
G01X2281192Y244352D01*
G01X2260864Y249799D01*
G01X2239899Y251633D01*
G01X2239899Y251633D01*
G01X2218934Y249799D01*
G01X2198606Y244352D01*
G01X2179532Y235457D01*
G01X2162293Y223386D01*
G01X2147412Y208505D01*
G01X2135340Y191266D01*
G01X2126446Y172192D01*
G01X2120999Y151864D01*
G01X2119165Y130899D01*
G01X-1670924Y130899D01*
G01X-1663475Y136741D01*
G01X-1654829Y148101D01*
G01X-1649327Y161274D01*
G01X-1647326Y175408D01*
G01X-1648956Y189591D01*
G01X-1654110Y202904D01*
G01X-1662455Y214486D01*
G01X-1673453Y223588D01*
G01X-1686391Y229622D01*
G01X-1700432Y232197D01*
G01X-1714669Y231147D01*
G01X-1720890Y243996D01*
G01X-1730152Y254860D01*
G01X-1741854Y263036D01*
G01X-1755240Y267997D01*
G01X-1769445Y269420D01*
G01X-1783549Y267214D01*
G01X-1796641Y261521D01*
G01X-1807873Y252710D01*
G01X-1816520Y241351D01*
G01X-1816520Y241351D01*
G01X-1822021Y228178D01*
G01X-1824022Y214043D01*
G01X-1978270Y214043D01*
G01X-1970687Y223926D01*
G01X-1965079Y237465D01*
G01X-1963166Y251993D01*
G01X-1965079Y266522D01*
G01X-1970687Y280060D01*
G01X-1979607Y291686D01*
G01X-1985927Y296535D01*
G01X-1300561Y296535D01*
G01X-1297396Y281870D01*
G01X-1290459Y268567D01*
G01X-1280247Y257576D01*
G01X-1280247Y257576D01*
G01X-1267488Y249683D01*
G01X-1253094Y245452D01*
G01X-1238093Y245184D01*
G01X-1223557Y248899D01*
G01X-1210525Y256331D01*
G01X-1199926Y266950D01*
G01X-1192519Y279997D01*
G01X-1188832Y294540D01*
G01X-1173967Y294460D01*
G01X-1159602Y298285D01*
G01X-1146745Y305746D01*
G01X-1136297Y316321D01*
G01X-1128991Y329267D01*
G01X-1125339Y343677D01*
G01X-1125598Y358540D01*
G01X-1129749Y372814D01*
G01X-1137502Y385498D01*
G01X-1141309Y389091D01*
G01X-1035078Y389091D01*
G01X-1031945Y374672D01*
G01X-1025162Y361568D01*
G01X-1015198Y350684D01*
G01X-1002743Y342772D01*
G01X-1007563Y329001D01*
G01X-1008671Y314452D01*
G01X-1005992Y300109D01*
G01X-999707Y286942D01*
G01X-990241Y275839D01*
G01X-994724Y262800D01*
G01X-995893Y249063D01*
G01X-993679Y235455D01*
G01X-988214Y222797D01*
G01X-979829Y211853D01*
G01X-969029Y203282D01*
G01X-956466Y197603D01*
G01X-942898Y195158D01*
G01X-929142Y196093D01*
G01X-929142Y196093D01*
G01X-916030Y200353D01*
G01X-904352Y207681D01*
G01X-894811Y217634D01*
G01X-887985Y229613D01*
G01X-884729Y241300D01*
G01X-131153Y241300D01*
G01X-129240Y226771D01*
G01X-123632Y213233D01*
G01X-114712Y201607D01*
G01X-103086Y192687D01*
G01X-89547Y187079D01*
G01X-75019Y185166D01*
G01X-60490Y187079D01*
G01X-46952Y192687D01*
G01X-35326Y201607D01*
G01X-26405Y213233D01*
G01X-20798Y226771D01*
G01X-18885Y241300D01*
G01X-20798Y255829D01*
G01X-26405Y269367D01*
G01X-35326Y280993D01*
G01X-46952Y289913D01*
G01X-60490Y295521D01*
G01X-75019Y297434D01*
G01X-89547Y295521D01*
G01X-103086Y289913D01*
G01X-114712Y280993D01*
G01X-123632Y269367D01*
G01X-129240Y255829D01*
G01X-131153Y241300D01*
G01X-131153Y241300D01*
G01X-884729Y241300D01*
G01X-884285Y242894D01*
G01X-883933Y256677D01*
G01X-886952Y270130D01*
G01X-893159Y282441D01*
G01X-902179Y292867D01*
G01X-897486Y306947D01*
G01X-896648Y321765D01*
G01X-899722Y336284D01*
G01X-906493Y349491D01*
G01X-916489Y360461D01*
G01X-929011Y368428D01*
G01X-924631Y381000D01*
G01X235966Y381000D01*
G01X237879Y366471D01*
G01X243487Y352933D01*
G01X252407Y341307D01*
G01X264033Y332387D01*
G01X277571Y326779D01*
G01X292100Y324866D01*
G01X306629Y326779D01*
G01X320167Y332387D01*
G01X331793Y341307D01*
G01X333015Y342900D01*
G01X720628Y342900D01*
G01X722541Y328371D01*
G01X728149Y314833D01*
G01X737069Y303207D01*
G01X748695Y294287D01*
G01X762234Y288679D01*
G01X776762Y286766D01*
G01X791291Y288679D01*
G01X804829Y294287D01*
G01X816455Y303207D01*
G01X825376Y314833D01*
G01X830984Y328371D01*
G01X832896Y342900D01*
G01X830984Y357429D01*
G01X825376Y370967D01*
G01X816455Y382593D01*
G01X804829Y391513D01*
G01X791291Y397121D01*
G01X776762Y399034D01*
G01X762234Y397121D01*
G01X748695Y391513D01*
G01X737069Y382593D01*
G01X728149Y370967D01*
G01X722541Y357429D01*
G01X720628Y342900D01*
G01X720628Y342900D01*
G01X333015Y342900D01*
G01X340713Y352933D01*
G01X346321Y366471D01*
G01X348234Y381000D01*
G01X346321Y395529D01*
G01X340713Y409067D01*
G01X331793Y420693D01*
G01X320167Y429613D01*
G01X306629Y435221D01*
G01X292100Y437134D01*
G01X277571Y435221D01*
G01X264033Y429613D01*
G01X252407Y420693D01*
G01X243487Y409067D01*
G01X237879Y395529D01*
G01X235966Y381000D01*
G01X235966Y381000D01*
G01X-924631Y381000D01*
G01X-924157Y382362D01*
G01X-923102Y397080D01*
G01X-925918Y411565D01*
G01X-932412Y424815D01*
G01X-942134Y435914D01*
G01X-954413Y444098D01*
G01X-968400Y448798D01*
G01X-983129Y449692D01*
G01X-997581Y446716D01*
G01X-1010759Y440077D01*
G01X-1021752Y430234D01*
G01X-1029800Y417866D01*
G01X-1034347Y403829D01*
G01X-1035078Y389091D01*
G01X-1141309Y389091D01*
G01X-1148312Y395702D01*
G01X-1161421Y402711D01*
G01X-1175911Y406033D01*
G01X-1178739Y420031D01*
G01X-1185008Y432862D01*
G01X-1194312Y443697D01*
G01X-1206049Y451833D01*
G01X-1219459Y456744D01*
G01X-1233674Y458112D01*
G01X-1247775Y455848D01*
G01X-1260848Y450100D01*
G01X-1272047Y441239D01*
G01X-1280648Y429838D01*
G01X-1286094Y416636D01*
G01X-1288032Y402487D01*
G01X-1286337Y388307D01*
G01X-1281118Y375014D01*
G01X-1272714Y363467D01*
G01X-1261669Y354415D01*
G01X-1275223Y347984D01*
G01X-1286591Y338193D01*
G01X-1294958Y325740D01*
G01X-1299729Y311515D01*
G01X-1300561Y296535D01*
G01X-1985927Y296535D01*
G01X-1991233Y300607D01*
G01X-2004771Y306215D01*
G01X-2019300Y308127D01*
G01X-2033829Y306215D01*
G01X-2047367Y300607D01*
G01X-2058993Y291686D01*
G01X-2067913Y280060D01*
G01X-2073521Y266522D01*
G01X-2075434Y251993D01*
G01X-2075434Y251993D01*
G01X-2335276Y251993D01*
G01X-2335276Y381000D01*
G01X-1618234Y381000D01*
G01X-1616321Y366471D01*
G01X-1610713Y352933D01*
G01X-1601793Y341307D01*
G01X-1590167Y332387D01*
G01X-1576629Y326779D01*
G01X-1562100Y324866D01*
G01X-1547571Y326779D01*
G01X-1534033Y332387D01*
G01X-1522407Y341307D01*
G01X-1513487Y352933D01*
G01X-1507879Y366471D01*
G01X-1505966Y381000D01*
G01X-1507879Y395529D01*
G01X-1513487Y409067D01*
G01X-1522407Y420693D01*
G01X-1534033Y429613D01*
G01X-1547571Y435221D01*
G01X-1562100Y437134D01*
G01X-1576629Y435221D01*
G01X-1590167Y429613D01*
G01X-1601793Y420693D01*
G01X-1610713Y409067D01*
G01X-1616321Y395529D01*
G01X-1618234Y381000D01*
G01X-1618234Y381000D01*
G01X-2335276Y381000D01*
G01X-2335276Y558800D01*
G01X401066Y558800D01*
G01X402979Y544271D01*
G01X408587Y530733D01*
G01X417507Y519107D01*
G01X429133Y510187D01*
G01X442671Y504579D01*
G01X457200Y502666D01*
G01X471729Y504579D01*
G01X485267Y510187D01*
G01X496893Y519107D01*
G01X505813Y530733D01*
G01X511421Y544271D01*
G01X513334Y558800D01*
G01X511421Y573329D01*
G01X505813Y586867D01*
G01X496893Y598493D01*
G01X485267Y607413D01*
G01X471729Y613021D01*
G01X457200Y614934D01*
G01X442671Y613021D01*
G01X429133Y607413D01*
G01X417507Y598493D01*
G01X408587Y586867D01*
G01X402979Y573329D01*
G01X401066Y558800D01*
G01X401066Y558800D01*
G01X-2335276Y558800D01*
G01X-2335276Y677788D01*
G01X-1821238Y677788D01*
G01X-1820533Y663081D01*
G01X-1816027Y649063D01*
G01X-1808032Y636699D01*
G01X-1797097Y626840D01*
G01X-1783974Y620163D01*
G01X-1769566Y617128D01*
G01X-1754865Y617944D01*
G01X-1740882Y622555D01*
G01X-1728578Y630644D01*
G01X-1718802Y641653D01*
G01X-1716030Y647203D01*
G01X1235566Y647203D01*
G01X1237265Y633292D01*
G01X1242358Y620235D01*
G01X1250526Y608847D01*
G01X1261261Y599837D01*
G01X1273893Y593767D01*
G01X1287635Y591016D01*
G01X1287635Y591016D01*
G01X1301630Y591754D01*
G01X1315007Y595936D01*
G01X1326930Y603301D01*
G01X1336657Y613390D01*
G01X1343582Y625574D01*
G01X1347273Y639094D01*
G01X1347500Y653107D01*
G01X1344249Y666740D01*
G01X1337722Y679142D01*
G01X1349697Y672216D01*
G01X1363002Y668428D01*
G01X1376828Y668010D01*
G01X1390338Y670986D01*
G01X1402709Y677175D01*
G01X1413192Y686202D01*
G01X1421148Y697518D01*
G01X1426095Y710436D01*
G01X1427733Y724172D01*
G01X1425962Y737892D01*
G01X1420890Y750762D01*
G01X1412824Y762000D01*
G01X1421209Y773832D01*
G01X1426282Y787417D01*
G01X1427707Y801848D01*
G01X1425387Y816163D01*
G01X1419477Y829406D01*
G01X1410372Y840693D01*
G01X1398679Y849270D01*
G01X1385180Y854567D01*
G01X1370773Y856228D01*
G01X1356423Y854143D01*
G01X1343085Y848452D01*
G01X1331650Y839533D01*
G01X1320215Y848452D01*
G01X1306877Y854143D01*
G01X1292526Y856228D01*
G01X1278120Y854567D01*
G01X1264620Y849270D01*
G01X1252927Y840693D01*
G01X1243822Y829406D01*
G01X1237913Y816163D01*
G01X1235592Y801848D01*
G01X1237017Y787417D01*
G01X1242091Y773832D01*
G01X1250475Y762000D01*
G01X1242328Y750612D01*
G01X1237253Y737562D01*
G01X1235566Y723662D01*
G01X1237371Y709776D01*
G01X1242557Y696770D01*
G01X1250800Y685451D01*
G01X1242551Y674122D01*
G01X1237365Y661102D01*
G01X1235566Y647203D01*
G01X-1716030Y647203D01*
G01X-1712224Y654826D01*
G01X-1709298Y669256D01*
G01X-1710225Y683950D01*
G01X-1695864Y680699D01*
G01X-1681153Y681293D01*
G01X-1667101Y685693D01*
G01X-1654678Y693595D01*
G01X-1644736Y704456D01*
G01X-1637961Y717528D01*
G01X-1636568Y723900D01*
G01X-1199134Y723900D01*
G01X-1197221Y709371D01*
G01X-1191613Y695833D01*
G01X-1182693Y684207D01*
G01X-1171067Y675287D01*
G01X-1157529Y669679D01*
G01X-1143000Y667766D01*
G01X-1128471Y669679D01*
G01X-1114933Y675287D01*
G01X-1103307Y684207D01*
G01X-1094387Y695833D01*
G01X-1088779Y709371D01*
G01X-1086866Y723900D01*
G01X-1088779Y738429D01*
G01X-1094387Y751967D01*
G01X-1103307Y763593D01*
G01X-1114933Y772513D01*
G01X-1121541Y775251D01*
G01X-1085385Y775251D01*
G01X-1083472Y760722D01*
G01X-1077864Y747184D01*
G01X-1068943Y735558D01*
G01X-1057318Y726637D01*
G01X-1043779Y721029D01*
G01X-1029251Y719117D01*
G01X-1014722Y721029D01*
G01X-1007792Y723900D01*
G01X-767334Y723900D01*
G01X-765421Y709371D01*
G01X-759813Y695833D01*
G01X-750893Y684207D01*
G01X-739267Y675287D01*
G01X-725729Y669679D01*
G01X-711200Y667766D01*
G01X-696671Y669679D01*
G01X-683133Y675287D01*
G01X-671507Y684207D01*
G01X-662587Y695833D01*
G01X-656979Y709371D01*
G01X-655066Y723900D01*
G01X-656979Y738429D01*
G01X-662587Y751967D01*
G01X-671507Y763593D01*
G01X-683133Y772513D01*
G01X-696671Y778121D01*
G01X-711200Y780034D01*
G01X-725729Y778121D01*
G01X-739267Y772513D01*
G01X-750893Y763593D01*
G01X-759813Y751967D01*
G01X-765421Y738429D01*
G01X-767334Y723900D01*
G01X-767334Y723900D01*
G01X-1007792Y723900D01*
G01X-1001184Y726637D01*
G01X-989558Y735558D01*
G01X-980637Y747184D01*
G01X-975029Y760722D01*
G01X-973117Y775251D01*
G01X-975029Y789779D01*
G01X-980637Y803318D01*
G01X-989558Y814943D01*
G01X-1001184Y823864D01*
G01X-1014722Y829472D01*
G01X-1029251Y831385D01*
G01X-1043779Y829472D01*
G01X-1057318Y823864D01*
G01X-1068943Y814943D01*
G01X-1077864Y803318D01*
G01X-1083472Y789779D01*
G01X-1085385Y775251D01*
G01X-1085385Y775251D01*
G01X-1121541Y775251D01*
G01X-1128471Y778121D01*
G01X-1143000Y780034D01*
G01X-1157529Y778121D01*
G01X-1171067Y772513D01*
G01X-1182693Y763593D01*
G01X-1191613Y751967D01*
G01X-1197221Y738429D01*
G01X-1199134Y723900D01*
G01X-1199134Y723900D01*
G01X-1636568Y723900D01*
G01X-1634817Y731912D01*
G01X-1635523Y746619D01*
G01X-1640028Y760637D01*
G01X-1648023Y773001D01*
G01X-1648023Y773001D01*
G01X-1658959Y782860D01*
G01X-1672082Y789537D01*
G01X-1686489Y792572D01*
G01X-1701190Y791756D01*
G01X-1715174Y787145D01*
G01X-1727477Y779056D01*
G01X-1737254Y768047D01*
G01X-1743831Y754874D01*
G01X-1746758Y740444D01*
G01X-1745831Y725750D01*
G01X-1760191Y729001D01*
G01X-1774903Y728407D01*
G01X-1788954Y724007D01*
G01X-1801378Y716105D01*
G01X-1811319Y705244D01*
G01X-1818095Y692172D01*
G01X-1821238Y677788D01*
G01X-2335276Y677788D01*
G01X-2335276Y716551D01*
G01X-2307901Y800100D01*
G01X-2075434Y800100D01*
G01X-2073521Y785571D01*
G01X-2067913Y772033D01*
G01X-2058993Y760407D01*
G01X-2047367Y751487D01*
G01X-2033829Y745879D01*
G01X-2019300Y743966D01*
G01X-2004771Y745879D01*
G01X-1991233Y751487D01*
G01X-1979607Y760407D01*
G01X-1970687Y772033D01*
G01X-1965079Y785571D01*
G01X-1963166Y800100D01*
G01X-1964838Y812800D01*
G01X-1313434Y812800D01*
G01X-1311521Y798271D01*
G01X-1305913Y784733D01*
G01X-1296993Y773107D01*
G01X-1285367Y764187D01*
G01X-1271829Y758579D01*
G01X-1257300Y756666D01*
G01X-1242771Y758579D01*
G01X-1229233Y764187D01*
G01X-1217607Y773107D01*
G01X-1208687Y784733D01*
G01X-1203079Y798271D01*
G01X-1201166Y812800D01*
G01X-1203079Y827329D01*
G01X-1208687Y840867D01*
G01X-1217607Y852493D01*
G01X-1229233Y861413D01*
G01X-1242771Y867021D01*
G01X-1257300Y868934D01*
G01X-1271829Y867021D01*
G01X-1285367Y861413D01*
G01X-1296993Y852493D01*
G01X-1305913Y840867D01*
G01X-1311521Y827329D01*
G01X-1313434Y812800D01*
G01X-1313434Y812800D01*
G01X-1964838Y812800D01*
G01X-1965079Y814629D01*
G01X-1970687Y828167D01*
G01X-1979607Y839793D01*
G01X-1991233Y848713D01*
G01X-2004771Y854321D01*
G01X-2019300Y856234D01*
G01X-2033829Y854321D01*
G01X-2047367Y848713D01*
G01X-2058993Y839793D01*
G01X-2067913Y828167D01*
G01X-2073521Y814629D01*
G01X-2075434Y800100D01*
G01X-2075434Y800100D01*
G01X-2307901Y800100D01*
G01X-2306523Y804306D01*
G01X-2274475Y890911D01*
G01X-2269402Y903173D01*
G01X-957815Y903173D01*
G01X-956341Y888838D01*
G01X-951266Y875351D01*
G01X-942924Y863600D01*
G01X-951266Y851849D01*
G01X-956341Y838362D01*
G01X-957815Y824027D01*
G01X-955591Y809789D01*
G01X-949815Y796587D01*
G01X-940869Y785290D01*
G01X-929341Y776643D01*
G01X-915991Y771216D01*
G01X-901700Y769366D01*
G01X-901700Y769366D01*
G01X-887409Y771216D01*
G01X-874059Y776643D01*
G01X-862531Y785290D01*
G01X-853585Y796587D01*
G01X-847809Y809789D01*
G01X-845585Y824027D01*
G01X-845889Y826981D01*
G01X-665714Y826981D01*
G01X-664322Y812987D01*
G01X-659494Y799778D01*
G01X-651535Y788184D01*
G01X-640944Y778932D01*
G01X-628386Y772603D01*
G01X-614648Y769593D01*
G01X-611489Y755890D01*
G01X-605024Y743401D01*
G01X-595657Y732911D01*
G01X-583976Y725079D01*
G01X-570716Y720396D01*
G01X-556708Y719156D01*
G01X-542831Y721436D01*
G01X-529956Y727094D01*
G01X-518892Y735775D01*
G01X-510332Y746933D01*
G01X-504815Y759869D01*
G01X-502686Y773770D01*
G01X-504078Y787764D01*
G01X-508906Y800972D01*
G01X-516865Y812567D01*
G01X-527456Y821819D01*
G01X-540014Y828148D01*
G01X-553752Y831157D01*
G01X-555375Y838200D01*
G01X-449834Y838200D01*
G01X-447921Y823671D01*
G01X-442313Y810133D01*
G01X-433393Y798507D01*
G01X-421767Y789587D01*
G01X-408229Y783979D01*
G01X-393700Y782066D01*
G01X-379171Y783979D01*
G01X-365633Y789587D01*
G01X-354007Y798507D01*
G01X-345087Y810133D01*
G01X-339479Y823671D01*
G01X-337566Y838200D01*
G01X-339479Y852729D01*
G01X-343982Y863600D01*
G01X2013966Y863600D01*
G01X2015879Y849071D01*
G01X2021487Y835533D01*
G01X2030407Y823907D01*
G01X2042033Y814987D01*
G01X2055571Y809379D01*
G01X2070100Y807466D01*
G01X2084629Y809379D01*
G01X2098167Y814987D01*
G01X2109793Y823907D01*
G01X2118713Y835533D01*
G01X2124321Y849071D01*
G01X2126234Y863600D01*
G01X2124321Y878129D01*
G01X2118713Y891667D01*
G01X2109793Y903293D01*
G01X2098167Y912213D01*
G01X2084629Y917821D01*
G01X2070100Y919734D01*
G01X2055571Y917821D01*
G01X2042033Y912213D01*
G01X2030407Y903293D01*
G01X2021487Y891667D01*
G01X2015879Y878129D01*
G01X2013966Y863600D01*
G01X2013966Y863600D01*
G01X-343982Y863600D01*
G01X-345087Y866267D01*
G01X-354007Y877893D01*
G01X-365633Y886813D01*
G01X-379171Y892421D01*
G01X-393700Y894334D01*
G01X-408229Y892421D01*
G01X-421767Y886813D01*
G01X-433393Y877893D01*
G01X-442313Y866267D01*
G01X-447921Y852729D01*
G01X-449834Y838200D01*
G01X-449834Y838200D01*
G01X-555375Y838200D01*
G01X-556911Y844861D01*
G01X-563376Y857350D01*
G01X-572743Y867839D01*
G01X-584424Y875671D01*
G01X-597684Y880355D01*
G01X-611692Y881595D01*
G01X-625569Y879315D01*
G01X-638444Y873656D01*
G01X-649508Y864976D01*
G01X-649508Y864976D01*
G01X-658068Y853818D01*
G01X-663585Y840882D01*
G01X-665714Y826981D01*
G01X-845889Y826981D01*
G01X-847059Y838362D01*
G01X-852134Y851849D01*
G01X-860476Y863600D01*
G01X-852134Y875351D01*
G01X-847059Y888838D01*
G01X-845585Y903173D01*
G01X-847809Y917411D01*
G01X-853585Y930613D01*
G01X-862531Y941910D01*
G01X-874059Y950557D01*
G01X-887409Y955984D01*
G01X-901700Y957834D01*
G01X-915991Y955984D01*
G01X-929341Y950557D01*
G01X-940869Y941910D01*
G01X-949815Y930613D01*
G01X-955591Y917411D01*
G01X-957815Y903173D01*
G01X-2269402Y903173D01*
G01X-2239176Y976243D01*
G01X-2200676Y1060180D01*
G01X-2159032Y1142602D01*
G01X-2150661Y1157722D01*
G01X-2075398Y1157722D01*
G01X-2074156Y1143792D01*
G01X-2069510Y1130601D01*
G01X-2061747Y1118968D01*
G01X-2051349Y1109615D01*
G01X-2038962Y1103122D01*
G01X-2025355Y1099893D01*
G01X-2011371Y1100129D01*
G01X-2011607Y1086145D01*
G01X-2008378Y1072538D01*
G01X-2001885Y1060151D01*
G01X-1992532Y1049753D01*
G01X-1980899Y1041990D01*
G01X-1967708Y1037344D01*
G01X-1953778Y1036102D01*
G01X-1939974Y1038343D01*
G01X-1927151Y1043927D01*
G01X-1916107Y1052507D01*
G01X-1916107Y1052507D01*
G01X-1907527Y1063551D01*
G01X-1901943Y1076374D01*
G01X-1899702Y1090178D01*
G01X-1899883Y1092200D01*
G01X-1831955Y1092200D01*
G01X-1830042Y1077671D01*
G01X-1824434Y1064133D01*
G01X-1815514Y1052507D01*
G01X-1803888Y1043587D01*
G01X-1790349Y1037979D01*
G01X-1775821Y1036066D01*
G01X-1761292Y1037979D01*
G01X-1747754Y1043587D01*
G01X-1736128Y1052507D01*
G01X-1727207Y1064133D01*
G01X-1721600Y1077671D01*
G01X-1719687Y1092200D01*
G01X-1559466Y1092200D01*
G01X-1557553Y1077671D01*
G01X-1551945Y1064133D01*
G01X-1543024Y1052507D01*
G01X-1531399Y1043587D01*
G01X-1517860Y1037979D01*
G01X-1503332Y1036066D01*
G01X-1488803Y1037979D01*
G01X-1475265Y1043587D01*
G01X-1463639Y1052507D01*
G01X-1454718Y1064133D01*
G01X-1449110Y1077671D01*
G01X-1448869Y1079500D01*
G01X2039366Y1079500D01*
G01X2041279Y1064971D01*
G01X2046887Y1051433D01*
G01X2055807Y1039807D01*
G01X2067433Y1030887D01*
G01X2080971Y1025279D01*
G01X2095500Y1023366D01*
G01X2110029Y1025279D01*
G01X2123567Y1030887D01*
G01X2135193Y1039807D01*
G01X2144113Y1051433D01*
G01X2149721Y1064971D01*
G01X2151634Y1079500D01*
G01X2149721Y1094029D01*
G01X2144113Y1107567D01*
G01X2135193Y1119193D01*
G01X2123567Y1128113D01*
G01X2110029Y1133721D01*
G01X2095500Y1135634D01*
G01X2080971Y1133721D01*
G01X2067433Y1128113D01*
G01X2055807Y1119193D01*
G01X2046887Y1107567D01*
G01X2041279Y1094029D01*
G01X2039366Y1079500D01*
G01X2039366Y1079500D01*
G01X-1448869Y1079500D01*
G01X-1447198Y1092200D01*
G01X-1449110Y1106729D01*
G01X-1454718Y1120267D01*
G01X-1463639Y1131893D01*
G01X-1475265Y1140813D01*
G01X-1488803Y1146421D01*
G01X-1503332Y1148334D01*
G01X-1517860Y1146421D01*
G01X-1531399Y1140813D01*
G01X-1543024Y1131893D01*
G01X-1551945Y1120267D01*
G01X-1557553Y1106729D01*
G01X-1559466Y1092200D01*
G01X-1559466Y1092200D01*
G01X-1719687Y1092200D01*
G01X-1721600Y1106729D01*
G01X-1727207Y1120267D01*
G01X-1736128Y1131893D01*
G01X-1747754Y1140813D01*
G01X-1761292Y1146421D01*
G01X-1775821Y1148334D01*
G01X-1790349Y1146421D01*
G01X-1803888Y1140813D01*
G01X-1815514Y1131893D01*
G01X-1824434Y1120267D01*
G01X-1830042Y1106729D01*
G01X-1831955Y1092200D01*
G01X-1831955Y1092200D01*
G01X-1899883Y1092200D01*
G01X-1900944Y1104108D01*
G01X-1905590Y1117299D01*
G01X-1913353Y1128932D01*
G01X-1923751Y1138285D01*
G01X-1936138Y1144778D01*
G01X-1949745Y1148007D01*
G01X-1963729Y1147771D01*
G01X-1963493Y1161755D01*
G01X-1966722Y1175362D01*
G01X-1973215Y1187749D01*
G01X-1982568Y1198147D01*
G01X-1994201Y1205910D01*
G01X-2007392Y1210556D01*
G01X-2021322Y1211798D01*
G01X-2035126Y1209557D01*
G01X-2047949Y1203973D01*
G01X-2058993Y1195393D01*
G01X-2067573Y1184349D01*
G01X-2073157Y1171526D01*
G01X-2075398Y1157722D01*
G01X-2150661Y1157722D01*
G01X-2114302Y1223391D01*
G01X-2066550Y1302432D01*
G01X-2046496Y1318878D01*
G01X-2024386Y1332434D01*
G01X-2000633Y1342847D01*
G01X-1975681Y1349922D01*
G01X-1949998Y1353527D01*
G01X-1924063Y1353594D01*
G01X-1898361Y1350123D01*
G01X-1873373Y1343178D01*
G01X-1849566Y1332888D01*
G01X-1827386Y1319448D01*
G01X-1807246Y1303106D01*
G01X-1779862Y1278537D01*
G01X-1750062Y1256960D01*
G01X-1718172Y1238613D01*
G01X-1684541Y1223696D01*
G01X-1649536Y1212372D01*
G01X-1613540Y1204764D01*
G01X-1576947Y1200956D01*
G01X-1540156Y1200990D01*
G01X-1503569Y1204864D01*
G01X-1467587Y1212537D01*
G01X-1432603Y1223925D01*
G01X-1398999Y1238903D01*
G01X-1367142Y1257308D01*
G01X-1366037Y1258112D01*
G01X-1321014Y1258112D01*
G01X-1319101Y1243583D01*
G01X-1313494Y1230045D01*
G01X-1304573Y1218419D01*
G01X-1292947Y1209499D01*
G01X-1279409Y1203891D01*
G01X-1264880Y1201978D01*
G01X-1250352Y1203891D01*
G01X-1236813Y1209499D01*
G01X-1225187Y1218419D01*
G01X-1216267Y1230045D01*
G01X-1210659Y1243583D01*
G01X-1208746Y1258112D01*
G01X-1148334Y1258112D01*
G01X-1146421Y1243583D01*
G01X-1140813Y1230045D01*
G01X-1131893Y1218419D01*
G01X-1120267Y1209499D01*
G01X-1106729Y1203891D01*
G01X-1092200Y1201978D01*
G01X-1077671Y1203891D01*
G01X-1064133Y1209499D01*
G01X-1052507Y1218419D01*
G01X-1043587Y1230045D01*
G01X-1037979Y1243583D01*
G01X-1036066Y1258112D01*
G01X-948280Y1258112D01*
G01X-946367Y1243583D01*
G01X-940760Y1230045D01*
G01X-931839Y1218419D01*
G01X-920213Y1209499D01*
G01X-906675Y1203891D01*
G01X-892146Y1201978D01*
G01X-877617Y1203891D01*
G01X-864079Y1209499D01*
G01X-852453Y1218419D01*
G01X-843533Y1230045D01*
G01X-837925Y1243583D01*
G01X-836012Y1258112D01*
G01X-462534Y1258112D01*
G01X-460621Y1243583D01*
G01X-455013Y1230045D01*
G01X-446093Y1218419D01*
G01X-434467Y1209499D01*
G01X-420929Y1203891D01*
G01X-406400Y1201978D01*
G01X-391871Y1203891D01*
G01X-378333Y1209499D01*
G01X-366707Y1218419D01*
G01X-357787Y1230045D01*
G01X-352179Y1243583D01*
G01X-350266Y1258112D01*
G01X-352179Y1272641D01*
G01X-356345Y1282700D01*
G01X489966Y1282700D01*
G01X491693Y1268884D01*
G01X496767Y1255918D01*
G01X504876Y1244600D01*
G01X496592Y1232958D01*
G01X491516Y1219601D01*
G01X489977Y1205395D01*
G01X492074Y1191261D01*
G01X497672Y1178115D01*
G01X506407Y1166807D01*
G01X517715Y1158072D01*
G01X530861Y1152474D01*
G01X544995Y1150377D01*
G01X559201Y1151916D01*
G01X572558Y1156992D01*
G01X584200Y1165276D01*
G01X595842Y1156992D01*
G01X609199Y1151916D01*
G01X623405Y1150377D01*
G01X637539Y1152474D01*
G01X650685Y1158072D01*
G01X661993Y1166807D01*
G01X670728Y1178115D01*
G01X676326Y1191261D01*
G01X678423Y1205395D01*
G01X676884Y1219601D01*
G01X671808Y1232958D01*
G01X663524Y1244600D01*
G01X671633Y1255918D01*
G01X676707Y1268884D01*
G01X678434Y1282700D01*
G01X676707Y1296516D01*
G01X671633Y1309482D01*
G01X663524Y1320800D01*
G01X671633Y1332118D01*
G01X676707Y1345084D01*
G01X678434Y1358900D01*
G01X676707Y1372716D01*
G01X671633Y1385682D01*
G01X663524Y1397000D01*
G01X671633Y1408318D01*
G01X676707Y1421284D01*
G01X678434Y1435100D01*
G01X676707Y1448916D01*
G01X671633Y1461882D01*
G01X663524Y1473200D01*
G01X671808Y1484842D01*
G01X676884Y1498199D01*
G01X678423Y1512405D01*
G01X676326Y1526539D01*
G01X670728Y1539685D01*
G01X661993Y1550993D01*
G01X650685Y1559728D01*
G01X637539Y1565326D01*
G01X623405Y1567423D01*
G01X609199Y1565884D01*
G01X595842Y1560808D01*
G01X584200Y1552524D01*
G01X572558Y1560808D01*
G01X559201Y1565884D01*
G01X544995Y1567423D01*
G01X530861Y1565326D01*
G01X517715Y1559728D01*
G01X506407Y1550993D01*
G01X497672Y1539685D01*
G01X492074Y1526539D01*
G01X489977Y1512405D01*
G01X491516Y1498199D01*
G01X496592Y1484842D01*
G01X504876Y1473200D01*
G01X496767Y1461882D01*
G01X491693Y1448916D01*
G01X489966Y1435100D01*
G01X491693Y1421284D01*
G01X496767Y1408318D01*
G01X504876Y1397000D01*
G01X496767Y1385682D01*
G01X491693Y1372716D01*
G01X489966Y1358900D01*
G01X491693Y1345084D01*
G01X496767Y1332118D01*
G01X504876Y1320800D01*
G01X504876Y1320800D01*
G01X496767Y1309482D01*
G01X491693Y1296516D01*
G01X489966Y1282700D01*
G01X-356345Y1282700D01*
G01X-357787Y1286179D01*
G01X-366707Y1297805D01*
G01X-378333Y1306726D01*
G01X-391871Y1312333D01*
G01X-406400Y1314246D01*
G01X-420929Y1312333D01*
G01X-434467Y1306726D01*
G01X-446093Y1297805D01*
G01X-455013Y1286179D01*
G01X-460621Y1272641D01*
G01X-462534Y1258112D01*
G01X-462534Y1258112D01*
G01X-836012Y1258112D01*
G01X-837925Y1272641D01*
G01X-843533Y1286179D01*
G01X-852453Y1297805D01*
G01X-864079Y1306726D01*
G01X-877617Y1312333D01*
G01X-892146Y1314246D01*
G01X-906675Y1312333D01*
G01X-920213Y1306726D01*
G01X-931839Y1297805D01*
G01X-940760Y1286179D01*
G01X-946367Y1272641D01*
G01X-948280Y1258112D01*
G01X-948280Y1258112D01*
G01X-1036066Y1258112D01*
G01X-1037979Y1272641D01*
G01X-1043587Y1286179D01*
G01X-1052507Y1297805D01*
G01X-1064133Y1306726D01*
G01X-1077671Y1312333D01*
G01X-1092200Y1314246D01*
G01X-1106729Y1312333D01*
G01X-1120267Y1306726D01*
G01X-1131893Y1297805D01*
G01X-1140813Y1286179D01*
G01X-1146421Y1272641D01*
G01X-1148334Y1258112D01*
G01X-1148334Y1258112D01*
G01X-1208746Y1258112D01*
G01X-1210659Y1272641D01*
G01X-1216267Y1286179D01*
G01X-1225187Y1297805D01*
G01X-1236813Y1306726D01*
G01X-1250352Y1312333D01*
G01X-1264880Y1314246D01*
G01X-1279409Y1312333D01*
G01X-1292947Y1306726D01*
G01X-1304573Y1297805D01*
G01X-1313494Y1286179D01*
G01X-1319101Y1272641D01*
G01X-1321014Y1258112D01*
G01X-1321014Y1258112D01*
G01X-1366037Y1258112D01*
G01X-1337382Y1278939D01*
G01X-1310042Y1303558D01*
G01X-1285422Y1330897D01*
G01X-1263791Y1360658D01*
G01X-1245385Y1392514D01*
G01X-1230406Y1426117D01*
G01X-1219017Y1461101D01*
G01X-1211343Y1497083D01*
G01X-1207776Y1530757D01*
G01X-995619Y1530757D01*
G01X-992461Y1517261D01*
G01X-986092Y1504950D01*
G01X-992461Y1492639D01*
G01X-995619Y1479143D01*
G01X-995373Y1465284D01*
G01X-991739Y1451908D01*
G01X-984939Y1439830D01*
G01X-975386Y1429787D01*
G01X-963663Y1422391D01*
G01X-950486Y1418092D01*
G01X-936657Y1417154D01*
G01X-923020Y1419633D01*
G01X-910405Y1425378D01*
G01X-899583Y1434038D01*
G01X-887863Y1424837D01*
G01X-874135Y1419044D01*
G01X-859367Y1417066D01*
G01X-844598Y1419044D01*
G01X-830870Y1424837D01*
G01X-819150Y1434038D01*
G01X-807430Y1424837D01*
G01X-793702Y1419044D01*
G01X-778933Y1417066D01*
G01X-764165Y1419044D01*
G01X-750437Y1424837D01*
G01X-738717Y1434038D01*
G01X-727895Y1425378D01*
G01X-715280Y1419633D01*
G01X-701643Y1417154D01*
G01X-687814Y1418092D01*
G01X-674637Y1422391D01*
G01X-662914Y1429787D01*
G01X-653361Y1439830D01*
G01X-646561Y1451908D01*
G01X-642927Y1465284D01*
G01X-642681Y1479143D01*
G01X-645839Y1492639D01*
G01X-652208Y1504950D01*
G01X-645839Y1517261D01*
G01X-642681Y1530757D01*
G01X-642927Y1544616D01*
G01X-646561Y1557992D01*
G01X-653361Y1570070D01*
G01X-662914Y1580113D01*
G01X-674637Y1587509D01*
G01X-687814Y1591808D01*
G01X-701643Y1592746D01*
G01X-715280Y1590267D01*
G01X-727895Y1584522D01*
G01X-738717Y1575862D01*
G01X-750437Y1585063D01*
G01X-764165Y1590856D01*
G01X-778933Y1592834D01*
G01X-778933Y1592834D01*
G01X-793702Y1590856D01*
G01X-807430Y1585063D01*
G01X-819150Y1575862D01*
G01X-830870Y1585063D01*
G01X-844598Y1590856D01*
G01X-859367Y1592834D01*
G01X-874135Y1590856D01*
G01X-887863Y1585063D01*
G01X-899583Y1575862D01*
G01X-910405Y1584522D01*
G01X-923020Y1590267D01*
G01X-936657Y1592746D01*
G01X-950486Y1591808D01*
G01X-963663Y1587509D01*
G01X-975386Y1580113D01*
G01X-984939Y1570070D01*
G01X-991739Y1557992D01*
G01X-995373Y1544616D01*
G01X-995619Y1530757D01*
G01X-1207776Y1530757D01*
G01X-1207468Y1533669D01*
G01X-1207433Y1570460D01*
G01X-1211240Y1607054D01*
G01X-1218847Y1643050D01*
G01X-1229635Y1676400D01*
G01X-60082Y1676400D01*
G01X-58169Y1661871D01*
G01X-52562Y1648333D01*
G01X-43641Y1636707D01*
G01X-32015Y1627787D01*
G01X-18477Y1622179D01*
G01X-3948Y1620266D01*
G01X10580Y1622179D01*
G01X24119Y1627787D01*
G01X35745Y1636707D01*
G01X44665Y1648333D01*
G01X50273Y1661871D01*
G01X52186Y1676400D01*
G01X286766Y1676400D01*
G01X288679Y1661871D01*
G01X294287Y1648333D01*
G01X303207Y1636707D01*
G01X314833Y1627787D01*
G01X328371Y1622179D01*
G01X342900Y1620266D01*
G01X357429Y1622179D01*
G01X370967Y1627787D01*
G01X382593Y1636707D01*
G01X391513Y1648333D01*
G01X397121Y1661871D01*
G01X399034Y1676400D01*
G01X397121Y1690929D01*
G01X391513Y1704467D01*
G01X382593Y1716093D01*
G01X370967Y1725013D01*
G01X357429Y1730621D01*
G01X342900Y1732534D01*
G01X328371Y1730621D01*
G01X314833Y1725013D01*
G01X303207Y1716093D01*
G01X294287Y1704467D01*
G01X288679Y1690929D01*
G01X286766Y1676400D01*
G01X286766Y1676400D01*
G01X52186Y1676400D01*
G01X50273Y1690929D01*
G01X44665Y1704467D01*
G01X35745Y1716093D01*
G01X24119Y1725013D01*
G01X10580Y1730621D01*
G01X-3948Y1732534D01*
G01X-18477Y1730621D01*
G01X-32015Y1725013D01*
G01X-43641Y1716093D01*
G01X-52562Y1704467D01*
G01X-58169Y1690929D01*
G01X-60082Y1676400D01*
G01X-60082Y1676400D01*
G01X-1229635Y1676400D01*
G01X-1230171Y1678055D01*
G01X-1245087Y1711686D01*
G01X-1263433Y1743577D01*
G01X-1285009Y1773378D01*
G01X-1309578Y1800763D01*
G01X-1326368Y1821564D01*
G01X-1340069Y1844518D01*
G01X-1350408Y1869169D01*
G01X-1357182Y1895029D01*
G01X-1360255Y1921584D01*
G01X-1359567Y1948307D01*
G01X-1355131Y1974668D01*
G01X-1347035Y2000145D01*
G01X-1335439Y2024231D01*
G01X-1320575Y2046449D01*
G01X-1302736Y2066359D01*
G01X-1218369Y2117200D01*
G01X-1132021Y2164599D01*
G01X-1043833Y2208477D01*
G01X-953947Y2248765D01*
G01X953946Y2248765D01*
G01X1043751Y2208516D01*
G01X1131862Y2164681D01*
G01X1218136Y2117334D01*
G01X1302433Y2066549D01*
G01X1318878Y2046495D01*
G01X1332434Y2024385D01*
G01X1342847Y2000632D01*
G01X1349922Y1975681D01*
G01X1353527Y1949997D01*
G01X1353594Y1924062D01*
G01X1350123Y1898361D01*
G01X1343177Y1873373D01*
G01X1332888Y1849566D01*
G01X1319447Y1827386D01*
G01X1303106Y1807247D01*
G01X1278536Y1779862D01*
G01X1256960Y1750062D01*
G01X1238613Y1718172D01*
G01X1223696Y1684541D01*
G01X1212372Y1649536D01*
G01X1204764Y1613540D01*
G01X1200956Y1576947D01*
G01X1200989Y1540156D01*
G01X1204864Y1503569D01*
G01X1212537Y1467587D01*
G01X1223925Y1432603D01*
G01X1238903Y1398999D01*
G01X1257308Y1367143D01*
G01X1278939Y1337382D01*
G01X1303558Y1310042D01*
G01X1330897Y1285422D01*
G01X1360657Y1263791D01*
G01X1392514Y1245385D01*
G01X1426117Y1230406D01*
G01X1461101Y1219017D01*
G01X1497083Y1211343D01*
G01X1533669Y1207468D01*
G01X1570460Y1207433D01*
G01X1607054Y1211240D01*
G01X1643050Y1218847D01*
G01X1678055Y1230171D01*
G01X1711687Y1245087D01*
G01X1743577Y1263433D01*
G01X1773378Y1285009D01*
G01X1800763Y1309578D01*
G01X1821564Y1326368D01*
G01X1844518Y1340069D01*
G01X1869169Y1350409D01*
G01X1895028Y1357183D01*
G01X1921583Y1360256D01*
G01X1948306Y1359567D01*
G01X1974668Y1355131D01*
G01X2000144Y1347035D01*
G01X2024230Y1335440D01*
G01X2046448Y1320576D01*
G01X2066358Y1302737D01*
G01X2109825Y1231095D01*
G01X2150810Y1158004D01*
G01X2189264Y1083550D01*
G01X2195072Y1075041D01*
G01X2202998Y1068458D01*
G01X2212429Y1064310D01*
G01X2222637Y1062916D01*
G01X2399986Y1062916D01*
G01X2419596Y1061203D01*
G01X2438610Y1056110D01*
G01X2456450Y1047793D01*
G01X2472575Y1036504D01*
G01X2486495Y1022586D01*
G01X2497786Y1006462D01*
G01X2506105Y988623D01*
G01X2511200Y969609D01*
G01X2512916Y950000D01*
G01X2512916Y-949986D01*
G01X2511202Y-969595D01*
G01X2506110Y-988609D01*
G01X2497792Y-1006450D01*
G01X2486503Y-1022575D01*
G01X2472585Y-1036494D01*
G01X2456462Y-1047785D01*
G01X2438622Y-1056105D01*
G01X2419609Y-1061200D01*
G01X2400000Y-1062915D01*
G01X2315893Y-1062916D01*
G01X2330911Y-1048431D01*
G01X2343210Y-1031576D01*
G01X2352424Y-1012856D01*
G01X2358278Y-992829D01*
G01X2360596Y-972093D01*
G01X2359309Y-951268D01*
G01X2354456Y-930975D01*
G01X2346181Y-911821D01*
G01X2334733Y-894378D01*
G01X2320452Y-879166D01*
G01X2303765Y-866640D01*
G01X2285171Y-857174D01*
G01X2265224Y-851051D01*
G01X2244522Y-848454D01*
G01X2223681Y-849459D01*
G01X2203325Y-854038D01*
G01X2184061Y-862053D01*
G01X2166464Y-873266D01*
G01X2151061Y-887340D01*
G01X2138311Y-903856D01*
G01X2128595Y-922321D01*
G01X2122204Y-942183D01*
G01X2119327Y-962849D01*
G01X2120051Y-983701D01*
G01X2124355Y-1004117D01*
G01X2132110Y-1023488D01*
G01X2143084Y-1041234D01*
G01X2156949Y-1056825D01*
G01X2173291Y-1069797D01*
G01X2191623Y-1079761D01*
G01X2189124Y-1084233D01*
G01X2150921Y-1158174D01*
G01X2110220Y-1230771D01*
G01X2067071Y-1301940D01*
G01X2067071Y-1301940D01*
G01X2047026Y-1318499D01*
G01X2024905Y-1332161D01*
G01X2001123Y-1342670D01*
G01X1976127Y-1349827D01*
G01X1950388Y-1353499D01*
G01X1924388Y-1353615D01*
G01X1898616Y-1350175D01*
G01X1873558Y-1343242D01*
G01X1849682Y-1332948D01*
G01X1827439Y-1319485D01*
G01X1807247Y-1303106D01*
G01X1779862Y-1278536D01*
G01X1750062Y-1256960D01*
G01X1718171Y-1238613D01*
G01X1684540Y-1223696D01*
G01X1649535Y-1212371D01*
G01X1613539Y-1204764D01*
G01X1576945Y-1200956D01*
G01X1540154Y-1200990D01*
G01X1503567Y-1204864D01*
G01X1467585Y-1212538D01*
G01X1432600Y-1223926D01*
G01X1398996Y-1238905D01*
G01X1367140Y-1257310D01*
G01X1337379Y-1278941D01*
G01X1310039Y-1303561D01*
G01X1285419Y-1330901D01*
G01X1263788Y-1360661D01*
G01X1245383Y-1392518D01*
G01X1230404Y-1426122D01*
G01X1219016Y-1461107D01*
G01X1211342Y-1497089D01*
G01X1207468Y-1533675D01*
G01X1207434Y-1570467D01*
G01X1211242Y-1607061D01*
G01X1218849Y-1643057D01*
G01X1230174Y-1678062D01*
G01X1245091Y-1711693D01*
G01X1263438Y-1743584D01*
G01X1285014Y-1773384D01*
G01X1309584Y-1800769D01*
G01X1325383Y-1820142D01*
G01X1338497Y-1841425D01*
G01X1348698Y-1864248D01*
G01X1355809Y-1888214D01*
G01X1359706Y-1912907D01*
G01X1360321Y-1937898D01*
G01X1357644Y-1962753D01*
G01X1041011Y-1962753D01*
G01X1048808Y-1950909D01*
G01X1053389Y-1937488D01*
G01X1054460Y-1923348D01*
G01X1051954Y-1909391D01*
G01X1046030Y-1896507D01*
G01X1037066Y-1885519D01*
G01X1025635Y-1877128D01*
G01X1012466Y-1871869D01*
G01X998399Y-1870078D01*
G01X984332Y-1871869D01*
G01X971163Y-1877128D01*
G01X959732Y-1885519D01*
G01X950768Y-1896507D01*
G01X944844Y-1909391D01*
G01X942338Y-1923348D01*
G01X943409Y-1937488D01*
G01X947990Y-1950909D01*
G01X955787Y-1962753D01*
G01X896740Y-1962753D01*
G01X904537Y-1950909D01*
G01X909118Y-1937488D01*
G01X910189Y-1923348D01*
G01X907683Y-1909391D01*
G01X901759Y-1896507D01*
G01X892795Y-1885519D01*
G01X881364Y-1877128D01*
G01X868195Y-1871869D01*
G01X854128Y-1870078D01*
G01X840061Y-1871869D01*
G01X826892Y-1877128D01*
G01X815461Y-1885519D01*
G01X806497Y-1896507D01*
G01X800573Y-1909391D01*
G01X798067Y-1923348D01*
G01X799138Y-1937488D01*
G01X803719Y-1950909D01*
G01X811516Y-1962753D01*
G01X752468Y-1962753D01*
G01X760266Y-1950909D01*
G01X764846Y-1937488D01*
G01X765918Y-1923348D01*
G01X763412Y-1909391D01*
G01X757488Y-1896507D01*
G01X748524Y-1885519D01*
G01X737093Y-1877128D01*
G01X723924Y-1871869D01*
G01X709857Y-1870078D01*
G01X695790Y-1871869D01*
G01X682621Y-1877128D01*
G01X671190Y-1885519D01*
G01X662226Y-1896507D01*
G01X656302Y-1909391D01*
G01X653796Y-1923348D01*
G01X654867Y-1937488D01*
G01X659448Y-1950909D01*
G01X667245Y-1962753D01*
G01X608197Y-1962753D01*
G01X615995Y-1950909D01*
G01X620575Y-1937488D01*
G01X621647Y-1923348D01*
G01X619141Y-1909391D01*
G01X613217Y-1896507D01*
G01X604253Y-1885519D01*
G01X592822Y-1877128D01*
G01X579653Y-1871869D01*
G01X565586Y-1870078D01*
G01X551519Y-1871869D01*
G01X538350Y-1877128D01*
G01X526919Y-1885519D01*
G01X517955Y-1896507D01*
G01X512031Y-1909391D01*
G01X509525Y-1923348D01*
G01X510596Y-1937488D01*
G01X515177Y-1950909D01*
G01X522974Y-1962753D01*
G01X463926Y-1962753D01*
G01X471724Y-1950909D01*
G01X476304Y-1937488D01*
G01X477376Y-1923348D01*
G01X474870Y-1909391D01*
G01X468946Y-1896507D01*
G01X459982Y-1885519D01*
G01X448551Y-1877128D01*
G01X435382Y-1871869D01*
G01X421315Y-1870078D01*
G01X407248Y-1871869D01*
G01X394079Y-1877128D01*
G01X382648Y-1885519D01*
G01X373684Y-1896507D01*
G01X367760Y-1909391D01*
G01X365254Y-1923348D01*
G01X366325Y-1937488D01*
G01X370906Y-1950909D01*
G01X378703Y-1962753D01*
G01X319655Y-1962753D01*
G01X327453Y-1950909D01*
G01X332034Y-1937488D01*
G01X333105Y-1923348D01*
G01X330599Y-1909391D01*
G01X324675Y-1896507D01*
G01X315711Y-1885519D01*
G01X304280Y-1877128D01*
G01X291111Y-1871869D01*
G01X277044Y-1870078D01*
G01X262977Y-1871869D01*
G01X249808Y-1877128D01*
G01X238377Y-1885519D01*
G01X229413Y-1896507D01*
G01X223489Y-1909391D01*
G01X220983Y-1923348D01*
G01X222054Y-1937488D01*
G01X226635Y-1950909D01*
G01X234432Y-1962753D01*
G01X175384Y-1962753D01*
G01X183182Y-1950909D01*
G01X187762Y-1937488D01*
G01X188834Y-1923348D01*
G01X186327Y-1909391D01*
G01X180403Y-1896507D01*
G01X171440Y-1885519D01*
G01X160009Y-1877128D01*
G01X146840Y-1871869D01*
G01X132773Y-1870078D01*
G01X118706Y-1871869D01*
G01X105537Y-1877128D01*
G01X94105Y-1885519D01*
G01X85142Y-1896507D01*
G01X79218Y-1909391D01*
G01X76712Y-1923348D01*
G01X77783Y-1937488D01*
G01X82364Y-1950909D01*
G01X90161Y-1962753D01*
G01X31113Y-1962753D01*
G01X38911Y-1950909D01*
G01X43491Y-1937488D01*
G01X44563Y-1923348D01*
G01X42056Y-1909391D01*
G01X36132Y-1896507D01*
G01X27169Y-1885519D01*
G01X15738Y-1877128D01*
G01X2569Y-1871869D01*
G01X-11498Y-1870078D01*
G01X-25565Y-1871869D01*
G01X-38734Y-1877128D01*
G01X-50166Y-1885519D01*
G01X-59129Y-1896507D01*
G01X-65053Y-1909391D01*
G01X-67559Y-1923348D01*
G01X-66488Y-1937488D01*
G01X-61907Y-1950909D01*
G01X-54110Y-1962753D01*
G01X-113158Y-1962753D01*
G01X-105360Y-1950909D01*
G01X-100780Y-1937488D01*
G01X-99708Y-1923348D01*
G01X-102215Y-1909391D01*
G01X-108139Y-1896507D01*
G01X-117102Y-1885519D01*
G01X-128533Y-1877128D01*
G01X-141702Y-1871869D01*
G01X-155769Y-1870078D01*
G01X-169836Y-1871869D01*
G01X-183005Y-1877128D01*
G01X-194437Y-1885519D01*
G01X-203400Y-1896507D01*
G01X-209324Y-1909391D01*
G01X-211830Y-1923348D01*
G01X-210759Y-1937488D01*
G01X-206178Y-1950909D01*
G01X-198381Y-1962753D01*
G01X-257429Y-1962753D01*
G01X-249631Y-1950909D01*
G01X-245051Y-1937488D01*
G01X-243979Y-1923348D01*
G01X-246486Y-1909391D01*
G01X-252410Y-1896507D01*
G01X-261373Y-1885519D01*
G01X-272804Y-1877128D01*
G01X-285973Y-1871869D01*
G01X-300040Y-1870078D01*
G01X-314107Y-1871869D01*
G01X-327276Y-1877128D01*
G01X-338708Y-1885519D01*
G01X-347671Y-1896507D01*
G01X-353595Y-1909391D01*
G01X-356101Y-1923348D01*
G01X-355030Y-1937488D01*
G01X-350449Y-1950909D01*
G01X-342652Y-1962753D01*
G01X-401700Y-1962753D01*
G01X-393902Y-1950909D01*
G01X-389322Y-1937488D01*
G01X-388251Y-1923348D01*
G01X-390757Y-1909391D01*
G01X-396681Y-1896507D01*
G01X-405644Y-1885519D01*
G01X-417075Y-1877128D01*
G01X-430245Y-1871869D01*
G01X-444312Y-1870078D01*
G01X-458378Y-1871869D01*
G01X-471548Y-1877128D01*
G01X-482979Y-1885519D01*
G01X-491942Y-1896507D01*
G01X-497866Y-1909391D01*
G01X-500372Y-1923348D01*
G01X-499301Y-1937488D01*
G01X-494721Y-1950909D01*
G01X-486923Y-1962753D01*
G01X-545971Y-1962753D01*
G01X-538173Y-1950909D01*
G01X-533593Y-1937488D01*
G01X-532522Y-1923348D01*
G01X-535028Y-1909391D01*
G01X-540952Y-1896507D01*
G01X-549915Y-1885519D01*
G01X-561346Y-1877128D01*
G01X-574516Y-1871869D01*
G01X-588583Y-1870078D01*
G01X-602649Y-1871869D01*
G01X-615819Y-1877128D01*
G01X-627250Y-1885519D01*
G01X-636213Y-1896507D01*
G01X-642137Y-1909391D01*
G01X-644643Y-1923348D01*
G01X-643572Y-1937488D01*
G01X-638992Y-1950909D01*
G01X-631194Y-1962753D01*
G01X-690242Y-1962753D01*
G01X-682444Y-1950909D01*
G01X-677864Y-1937488D01*
G01X-676793Y-1923348D01*
G01X-679299Y-1909391D01*
G01X-685223Y-1896507D01*
G01X-694186Y-1885519D01*
G01X-705617Y-1877128D01*
G01X-718787Y-1871869D01*
G01X-732853Y-1870078D01*
G01X-746920Y-1871869D01*
G01X-760090Y-1877128D01*
G01X-771521Y-1885519D01*
G01X-780484Y-1896507D01*
G01X-786408Y-1909391D01*
G01X-788914Y-1923348D01*
G01X-787843Y-1937488D01*
G01X-783263Y-1950909D01*
G01X-775465Y-1962753D01*
G01X-834513Y-1962753D01*
G01X-826715Y-1950909D01*
G01X-822135Y-1937488D01*
G01X-821064Y-1923348D01*
G01X-823570Y-1909391D01*
G01X-829494Y-1896507D01*
G01X-838457Y-1885519D01*
G01X-849888Y-1877128D01*
G01X-863058Y-1871869D01*
G01X-877124Y-1870078D01*
G01X-891191Y-1871869D01*
G01X-904361Y-1877128D01*
G01X-915792Y-1885519D01*
G01X-924755Y-1896507D01*
G01X-930679Y-1909391D01*
G01X-933185Y-1923348D01*
G01X-932114Y-1937488D01*
G01X-927534Y-1950909D01*
G01X-919736Y-1962753D01*
G01X-1352184Y-1962753D01*
G01X-1353992Y-1938757D01*
G01X-1352746Y-1914726D01*
G01X-1348468Y-1891045D01*
G01X-1341225Y-1868097D01*
G01X-1331135Y-1846251D01*
G01X-1318360Y-1825858D01*
G01X-1303106Y-1807247D01*
G01X-1280416Y-1781941D01*
G01X-933258Y-1781941D01*
G01X-931346Y-1796469D01*
G01X-925738Y-1810008D01*
G01X-916817Y-1821633D01*
G01X-905191Y-1830554D01*
G01X-891653Y-1836162D01*
G01X-877124Y-1838075D01*
G01X-862596Y-1836162D01*
G01X-849057Y-1830554D01*
G01X-837432Y-1821633D01*
G01X-828511Y-1810008D01*
G01X-822903Y-1796469D01*
G01X-820990Y-1781941D01*
G01X-788987Y-1781941D01*
G01X-787075Y-1796469D01*
G01X-781467Y-1810008D01*
G01X-772546Y-1821633D01*
G01X-760920Y-1830554D01*
G01X-747382Y-1836162D01*
G01X-732853Y-1838075D01*
G01X-718325Y-1836162D01*
G01X-704786Y-1830554D01*
G01X-693161Y-1821633D01*
G01X-684240Y-1810008D01*
G01X-678632Y-1796469D01*
G01X-676719Y-1781941D01*
G01X-644717Y-1781941D01*
G01X-642804Y-1796469D01*
G01X-637196Y-1810008D01*
G01X-628275Y-1821633D01*
G01X-616650Y-1830554D01*
G01X-603111Y-1836162D01*
G01X-588583Y-1838075D01*
G01X-574054Y-1836162D01*
G01X-560516Y-1830554D01*
G01X-548890Y-1821633D01*
G01X-539969Y-1810008D01*
G01X-534361Y-1796469D01*
G01X-532449Y-1781941D01*
G01X-500446Y-1781941D01*
G01X-498533Y-1796469D01*
G01X-492925Y-1810008D01*
G01X-484004Y-1821633D01*
G01X-472379Y-1830554D01*
G01X-458840Y-1836162D01*
G01X-444312Y-1838075D01*
G01X-429783Y-1836162D01*
G01X-416245Y-1830554D01*
G01X-404619Y-1821633D01*
G01X-395698Y-1810008D01*
G01X-390090Y-1796469D01*
G01X-388178Y-1781941D01*
G01X-356174Y-1781941D01*
G01X-354262Y-1796469D01*
G01X-348654Y-1810008D01*
G01X-339733Y-1821633D01*
G01X-328107Y-1830554D01*
G01X-314569Y-1836162D01*
G01X-300040Y-1838075D01*
G01X-285512Y-1836162D01*
G01X-271973Y-1830554D01*
G01X-260348Y-1821633D01*
G01X-251427Y-1810008D01*
G01X-245819Y-1796469D01*
G01X-243906Y-1781941D01*
G01X-211903Y-1781941D01*
G01X-209991Y-1796469D01*
G01X-204383Y-1810008D01*
G01X-195462Y-1821633D01*
G01X-183836Y-1830554D01*
G01X-170298Y-1836162D01*
G01X-155769Y-1838075D01*
G01X-141241Y-1836162D01*
G01X-127702Y-1830554D01*
G01X-116077Y-1821633D01*
G01X-107156Y-1810008D01*
G01X-101548Y-1796469D01*
G01X-99635Y-1781941D01*
G01X-67632Y-1781941D01*
G01X-65720Y-1796469D01*
G01X-60112Y-1810008D01*
G01X-51191Y-1821633D01*
G01X-39565Y-1830554D01*
G01X-26027Y-1836162D01*
G01X-11498Y-1838075D01*
G01X3030Y-1836162D01*
G01X16569Y-1830554D01*
G01X28194Y-1821633D01*
G01X37115Y-1810008D01*
G01X42723Y-1796469D01*
G01X44636Y-1781941D01*
G01X76639Y-1781941D01*
G01X78551Y-1796469D01*
G01X84159Y-1810008D01*
G01X93080Y-1821633D01*
G01X104706Y-1830554D01*
G01X118244Y-1836162D01*
G01X132773Y-1838075D01*
G01X147301Y-1836162D01*
G01X160840Y-1830554D01*
G01X172465Y-1821633D01*
G01X181386Y-1810008D01*
G01X186994Y-1796469D01*
G01X188907Y-1781941D01*
G01X220910Y-1781941D01*
G01X222823Y-1796469D01*
G01X228430Y-1810008D01*
G01X237351Y-1821633D01*
G01X248977Y-1830554D01*
G01X262515Y-1836162D01*
G01X277044Y-1838075D01*
G01X291572Y-1836162D01*
G01X305111Y-1830554D01*
G01X316737Y-1821633D01*
G01X325657Y-1810008D01*
G01X331265Y-1796469D01*
G01X333178Y-1781941D01*
G01X365181Y-1781941D01*
G01X367094Y-1796469D01*
G01X372701Y-1810008D01*
G01X381622Y-1821633D01*
G01X393248Y-1830554D01*
G01X406786Y-1836162D01*
G01X421315Y-1838075D01*
G01X435843Y-1836162D01*
G01X449382Y-1830554D01*
G01X461008Y-1821633D01*
G01X469928Y-1810008D01*
G01X475536Y-1796469D01*
G01X477449Y-1781941D01*
G01X509452Y-1781941D01*
G01X511365Y-1796469D01*
G01X516972Y-1810008D01*
G01X525893Y-1821633D01*
G01X537519Y-1830554D01*
G01X551057Y-1836162D01*
G01X565586Y-1838075D01*
G01X580114Y-1836162D01*
G01X593653Y-1830554D01*
G01X605279Y-1821633D01*
G01X614199Y-1810008D01*
G01X619807Y-1796469D01*
G01X621720Y-1781941D01*
G01X653723Y-1781941D01*
G01X655636Y-1796469D01*
G01X661243Y-1810008D01*
G01X670164Y-1821633D01*
G01X681790Y-1830554D01*
G01X695328Y-1836162D01*
G01X709857Y-1838075D01*
G01X724385Y-1836162D01*
G01X737924Y-1830554D01*
G01X749550Y-1821633D01*
G01X758470Y-1810008D01*
G01X764078Y-1796469D01*
G01X765991Y-1781941D01*
G01X797994Y-1781941D01*
G01X799907Y-1796469D01*
G01X805515Y-1810008D01*
G01X814435Y-1821633D01*
G01X826061Y-1830554D01*
G01X839600Y-1836162D01*
G01X854128Y-1838075D01*
G01X868657Y-1836162D01*
G01X882195Y-1830554D01*
G01X893821Y-1821633D01*
G01X902742Y-1810008D01*
G01X908349Y-1796469D01*
G01X910262Y-1781941D01*
G01X942265Y-1781941D01*
G01X944178Y-1796469D01*
G01X949786Y-1810008D01*
G01X958706Y-1821633D01*
G01X970332Y-1830554D01*
G01X983871Y-1836162D01*
G01X998399Y-1838075D01*
G01X1012928Y-1836162D01*
G01X1026466Y-1830554D01*
G01X1038092Y-1821633D01*
G01X1047013Y-1810008D01*
G01X1052620Y-1796469D01*
G01X1054533Y-1781941D01*
G01X1054014Y-1778000D01*
G01X1086866Y-1778000D01*
G01X1088779Y-1792529D01*
G01X1094387Y-1806067D01*
G01X1103307Y-1817693D01*
G01X1114933Y-1826613D01*
G01X1128471Y-1832221D01*
G01X1143000Y-1834134D01*
G01X1157529Y-1832221D01*
G01X1171067Y-1826613D01*
G01X1182693Y-1817693D01*
G01X1191613Y-1806067D01*
G01X1197221Y-1792529D01*
G01X1199134Y-1778000D01*
G01X1197221Y-1763471D01*
G01X1191613Y-1749933D01*
G01X1182693Y-1738307D01*
G01X1171067Y-1729387D01*
G01X1157529Y-1723779D01*
G01X1143000Y-1721866D01*
G01X1128471Y-1723779D01*
G01X1114933Y-1729387D01*
G01X1103307Y-1738307D01*
G01X1094387Y-1749933D01*
G01X1088779Y-1763471D01*
G01X1086866Y-1778000D01*
G01X1086866Y-1778000D01*
G01X1054014Y-1778000D01*
G01X1052620Y-1767412D01*
G01X1047013Y-1753874D01*
G01X1038092Y-1742248D01*
G01X1026466Y-1733327D01*
G01X1012928Y-1727719D01*
G01X998399Y-1725807D01*
G01X983871Y-1727719D01*
G01X970332Y-1733327D01*
G01X958706Y-1742248D01*
G01X949786Y-1753874D01*
G01X944178Y-1767412D01*
G01X942265Y-1781941D01*
G01X942265Y-1781941D01*
G01X910262Y-1781941D01*
G01X908349Y-1767412D01*
G01X902742Y-1753874D01*
G01X893821Y-1742248D01*
G01X882195Y-1733327D01*
G01X868657Y-1727719D01*
G01X854128Y-1725807D01*
G01X839600Y-1727719D01*
G01X826061Y-1733327D01*
G01X814435Y-1742248D01*
G01X805515Y-1753874D01*
G01X799907Y-1767412D01*
G01X797994Y-1781941D01*
G01X797994Y-1781941D01*
G01X765991Y-1781941D01*
G01X764078Y-1767412D01*
G01X758470Y-1753874D01*
G01X749550Y-1742248D01*
G01X737924Y-1733327D01*
G01X724385Y-1727719D01*
G01X709857Y-1725807D01*
G01X695328Y-1727719D01*
G01X681790Y-1733327D01*
G01X670164Y-1742248D01*
G01X661243Y-1753874D01*
G01X655636Y-1767412D01*
G01X653723Y-1781941D01*
G01X653723Y-1781941D01*
G01X621720Y-1781941D01*
G01X619807Y-1767412D01*
G01X614199Y-1753874D01*
G01X605279Y-1742248D01*
G01X593653Y-1733327D01*
G01X580114Y-1727719D01*
G01X565586Y-1725807D01*
G01X551057Y-1727719D01*
G01X537519Y-1733327D01*
G01X525893Y-1742248D01*
G01X516972Y-1753874D01*
G01X511365Y-1767412D01*
G01X509452Y-1781941D01*
G01X509452Y-1781941D01*
G01X477449Y-1781941D01*
G01X475536Y-1767412D01*
G01X469928Y-1753874D01*
G01X461008Y-1742248D01*
G01X449382Y-1733327D01*
G01X435843Y-1727719D01*
G01X421315Y-1725807D01*
G01X406786Y-1727719D01*
G01X393248Y-1733327D01*
G01X381622Y-1742248D01*
G01X372701Y-1753874D01*
G01X367094Y-1767412D01*
G01X365181Y-1781941D01*
G01X365181Y-1781941D01*
G01X333178Y-1781941D01*
G01X331265Y-1767412D01*
G01X325657Y-1753874D01*
G01X316737Y-1742248D01*
G01X305111Y-1733327D01*
G01X291572Y-1727719D01*
G01X277044Y-1725807D01*
G01X262515Y-1727719D01*
G01X248977Y-1733327D01*
G01X237351Y-1742248D01*
G01X228430Y-1753874D01*
G01X222823Y-1767412D01*
G01X220910Y-1781941D01*
G01X220910Y-1781941D01*
G01X188907Y-1781941D01*
G01X186994Y-1767412D01*
G01X181386Y-1753874D01*
G01X172465Y-1742248D01*
G01X160840Y-1733327D01*
G01X147301Y-1727719D01*
G01X132773Y-1725807D01*
G01X118244Y-1727719D01*
G01X104706Y-1733327D01*
G01X93080Y-1742248D01*
G01X84159Y-1753874D01*
G01X78551Y-1767412D01*
G01X76639Y-1781941D01*
G01X76639Y-1781941D01*
G01X44636Y-1781941D01*
G01X42723Y-1767412D01*
G01X37115Y-1753874D01*
G01X28194Y-1742248D01*
G01X16569Y-1733327D01*
G01X3030Y-1727719D01*
G01X-11498Y-1725807D01*
G01X-26027Y-1727719D01*
G01X-39565Y-1733327D01*
G01X-51191Y-1742248D01*
G01X-60112Y-1753874D01*
G01X-65720Y-1767412D01*
G01X-67632Y-1781941D01*
G01X-67632Y-1781941D01*
G01X-99635Y-1781941D01*
G01X-101548Y-1767412D01*
G01X-107156Y-1753874D01*
G01X-116077Y-1742248D01*
G01X-127702Y-1733327D01*
G01X-141241Y-1727719D01*
G01X-155769Y-1725807D01*
G01X-170298Y-1727719D01*
G01X-183836Y-1733327D01*
G01X-195462Y-1742248D01*
G01X-204383Y-1753874D01*
G01X-209991Y-1767412D01*
G01X-211903Y-1781941D01*
G01X-211903Y-1781941D01*
G01X-243906Y-1781941D01*
G01X-245819Y-1767412D01*
G01X-251427Y-1753874D01*
G01X-260348Y-1742248D01*
G01X-271973Y-1733327D01*
G01X-285512Y-1727719D01*
G01X-300040Y-1725807D01*
G01X-314569Y-1727719D01*
G01X-328107Y-1733327D01*
G01X-339733Y-1742248D01*
G01X-348654Y-1753874D01*
G01X-354262Y-1767412D01*
G01X-356174Y-1781941D01*
G01X-356174Y-1781941D01*
G01X-388178Y-1781941D01*
G01X-390090Y-1767412D01*
G01X-395698Y-1753874D01*
G01X-404619Y-1742248D01*
G01X-416245Y-1733327D01*
G01X-429783Y-1727719D01*
G01X-444312Y-1725807D01*
G01X-458840Y-1727719D01*
G01X-472379Y-1733327D01*
G01X-484004Y-1742248D01*
G01X-492925Y-1753874D01*
G01X-498533Y-1767412D01*
G01X-500446Y-1781941D01*
G01X-500446Y-1781941D01*
G01X-532449Y-1781941D01*
G01X-534361Y-1767412D01*
G01X-539969Y-1753874D01*
G01X-548890Y-1742248D01*
G01X-560516Y-1733327D01*
G01X-574054Y-1727719D01*
G01X-588583Y-1725807D01*
G01X-603111Y-1727719D01*
G01X-616650Y-1733327D01*
G01X-628275Y-1742248D01*
G01X-637196Y-1753874D01*
G01X-642804Y-1767412D01*
G01X-644717Y-1781941D01*
G01X-644717Y-1781941D01*
G01X-676719Y-1781941D01*
G01X-678632Y-1767412D01*
G01X-684240Y-1753874D01*
G01X-693161Y-1742248D01*
G01X-704786Y-1733327D01*
G01X-718325Y-1727719D01*
G01X-732853Y-1725807D01*
G01X-747382Y-1727719D01*
G01X-760920Y-1733327D01*
G01X-772546Y-1742248D01*
G01X-781467Y-1753874D01*
G01X-787075Y-1767412D01*
G01X-788987Y-1781941D01*
G01X-788987Y-1781941D01*
G01X-820990Y-1781941D01*
G01X-822903Y-1767412D01*
G01X-828511Y-1753874D01*
G01X-837432Y-1742248D01*
G01X-849057Y-1733327D01*
G01X-862596Y-1727719D01*
G01X-877124Y-1725807D01*
G01X-891653Y-1727719D01*
G01X-905191Y-1733327D01*
G01X-916817Y-1742248D01*
G01X-925738Y-1753874D01*
G01X-931346Y-1767412D01*
G01X-933258Y-1781941D01*
G01X-933258Y-1781941D01*
G01X-1280416Y-1781941D01*
G01X-1278390Y-1779680D01*
G01X-1256706Y-1749669D01*
G01X-1238296Y-1717547D01*
G01X-1223363Y-1683667D01*
G01X-1212072Y-1648406D01*
G01X-1204549Y-1612154D01*
G01X-1200876Y-1575313D01*
G01X-1201094Y-1538289D01*
G01X-1205201Y-1501493D01*
G01X-1213151Y-1465332D01*
G01X-1223225Y-1435100D01*
G01X-1161035Y-1435100D01*
G01X-1159123Y-1449629D01*
G01X-1153515Y-1463167D01*
G01X-1144594Y-1474793D01*
G01X-1132968Y-1483713D01*
G01X-1119430Y-1489321D01*
G01X-1104901Y-1491234D01*
G01X-1090373Y-1489321D01*
G01X-1076834Y-1483713D01*
G01X-1065209Y-1474793D01*
G01X-1056288Y-1463167D01*
G01X-1050680Y-1449629D01*
G01X-1048767Y-1435100D01*
G01X-1050680Y-1420571D01*
G01X-1056288Y-1407033D01*
G01X-1065209Y-1395407D01*
G01X-1076834Y-1386487D01*
G01X-1090373Y-1380879D01*
G01X-1104901Y-1378966D01*
G01X-1119430Y-1380879D01*
G01X-1132968Y-1386487D01*
G01X-1144594Y-1395407D01*
G01X-1153515Y-1407033D01*
G01X-1159123Y-1420571D01*
G01X-1161035Y-1435100D01*
G01X-1161035Y-1435100D01*
G01X-1223225Y-1435100D01*
G01X-1224856Y-1430207D01*
G01X-1240187Y-1396505D01*
G01X-1258975Y-1364602D01*
G01X-1272603Y-1346200D01*
G01X-1241038Y-1346200D01*
G01X-1239125Y-1360729D01*
G01X-1233517Y-1374267D01*
G01X-1224597Y-1385893D01*
G01X-1212971Y-1394813D01*
G01X-1199432Y-1400421D01*
G01X-1184904Y-1402334D01*
G01X-1170375Y-1400421D01*
G01X-1156837Y-1394813D01*
G01X-1145211Y-1385893D01*
G01X-1136290Y-1374267D01*
G01X-1130683Y-1360729D01*
G01X-1130442Y-1358900D01*
G01X-322834Y-1358900D01*
G01X-320921Y-1373429D01*
G01X-315313Y-1386967D01*
G01X-306393Y-1398593D01*
G01X-294767Y-1407513D01*
G01X-281229Y-1413121D01*
G01X-266700Y-1415034D01*
G01X-252171Y-1413121D01*
G01X-238633Y-1407513D01*
G01X-227007Y-1398593D01*
G01X-218087Y-1386967D01*
G01X-212479Y-1373429D01*
G01X-210566Y-1358900D01*
G01X-212238Y-1346200D01*
G01X464566Y-1346200D01*
G01X466479Y-1360729D01*
G01X472087Y-1374267D01*
G01X481007Y-1385893D01*
G01X492633Y-1394813D01*
G01X506171Y-1400421D01*
G01X520700Y-1402334D01*
G01X535229Y-1400421D01*
G01X548767Y-1394813D01*
G01X560393Y-1385893D01*
G01X569313Y-1374267D01*
G01X574921Y-1360729D01*
G01X576834Y-1346200D01*
G01X574921Y-1331671D01*
G01X569313Y-1318133D01*
G01X560393Y-1306507D01*
G01X548767Y-1297587D01*
G01X535229Y-1291979D01*
G01X520700Y-1290066D01*
G01X506171Y-1291979D01*
G01X492633Y-1297587D01*
G01X481007Y-1306507D01*
G01X472087Y-1318133D01*
G01X466479Y-1331671D01*
G01X464566Y-1346200D01*
G01X464566Y-1346200D01*
G01X-212238Y-1346200D01*
G01X-212479Y-1344371D01*
G01X-218087Y-1330833D01*
G01X-227007Y-1319207D01*
G01X-238633Y-1310287D01*
G01X-252171Y-1304679D01*
G01X-266700Y-1302766D01*
G01X-281229Y-1304679D01*
G01X-294767Y-1310287D01*
G01X-306393Y-1319207D01*
G01X-315313Y-1330833D01*
G01X-320921Y-1344371D01*
G01X-322834Y-1358900D01*
G01X-322834Y-1358900D01*
G01X-1130442Y-1358900D01*
G01X-1128770Y-1346200D01*
G01X-1130683Y-1331671D01*
G01X-1136290Y-1318133D01*
G01X-1145211Y-1306507D01*
G01X-1156837Y-1297587D01*
G01X-1170375Y-1291979D01*
G01X-1184904Y-1290066D01*
G01X-1199432Y-1291979D01*
G01X-1212971Y-1297587D01*
G01X-1224597Y-1306507D01*
G01X-1233517Y-1318133D01*
G01X-1239125Y-1331671D01*
G01X-1241038Y-1346200D01*
G01X-1241038Y-1346200D01*
G01X-1272603Y-1346200D01*
G01X-1281010Y-1334848D01*
G01X-1306049Y-1307575D01*
G01X-1333815Y-1283083D01*
G01X-1364001Y-1261645D01*
G01X-1396273Y-1243496D01*
G01X-1430272Y-1228838D01*
G01X-1465624Y-1217834D01*
G01X-1501935Y-1210605D01*
G01X-1538806Y-1207232D01*
G01X-1575827Y-1207750D01*
G01X-1612588Y-1212156D01*
G01X-1648683Y-1220399D01*
G01X-1648683Y-1220399D01*
G01X-1647351Y-1206794D01*
G01X-1649348Y-1193271D01*
G01X-1654553Y-1180630D01*
G01X-1662660Y-1169624D01*
G01X-1664137Y-1168400D01*
G01X-703676Y-1168400D01*
G01X-701763Y-1182929D01*
G01X-696155Y-1196467D01*
G01X-687234Y-1208093D01*
G01X-675609Y-1217013D01*
G01X-662070Y-1222621D01*
G01X-647542Y-1224534D01*
G01X-633013Y-1222621D01*
G01X-619475Y-1217013D01*
G01X-607849Y-1208093D01*
G01X-598928Y-1196467D01*
G01X-593320Y-1182929D01*
G01X-591408Y-1168400D01*
G01X-593320Y-1153871D01*
G01X-598928Y-1140333D01*
G01X-607849Y-1128707D01*
G01X-619475Y-1119787D01*
G01X-633013Y-1114179D01*
G01X-647542Y-1112266D01*
G01X-662070Y-1114179D01*
G01X-675609Y-1119787D01*
G01X-687234Y-1128707D01*
G01X-696155Y-1140333D01*
G01X-701763Y-1153871D01*
G01X-703676Y-1168400D01*
G01X-703676Y-1168400D01*
G01X-1664137Y-1168400D01*
G01X-1673187Y-1160903D01*
G01X-1685510Y-1154985D01*
G01X-1698898Y-1152221D01*
G01X-1712557Y-1152775D01*
G01X-1725677Y-1156615D01*
G37*
G54D10*
G01X-1725677Y-1156615D02*
G03X-1732215Y-1256383I22208J-51554D01*
G03X-1800769Y-1309584I179822J-302487D01*
G02X-2065338Y-1303755I-129292J138762D01*
G02X-2335276Y-715462I2065336J1303754D01*
G01X-2335276Y716551D01*
G02X-2066550Y1302432I2335275J-716550D01*
G02X-1807246Y1303106I130012J-138088D01*
G03X-1309578Y1800763I248376J249287D01*
G02X-1302736Y2066359I138919J129308D01*
G02X-953947Y2248765I1302735J-2066358D01*
G01X953946Y2248765D01*
G02X1302433Y2066549I-953946J-2248765D01*
G02X1303106Y1807247I-138089J-130011D01*
G03X1800763Y1309578I249287J-248376D01*
G02X2066358Y1302737I129307J-138918D01*
G02X2189264Y1083550I-2066358J-1302737D01*
G03X2222637Y1062916I33236J16450D01*
G01X2399986Y1062916D01*
G02X2512916Y950000I14J-112916D01*
G01X2512916Y-949986D01*
G02X2400000Y-1062915I-112916J-14D01*
G01X2315893Y-1062916D01*
G03X2223681Y-849459I-75994J93817D01*
G03X2191623Y-1079761I16218J-119640D01*
G03X2189124Y-1084233I31124J-20329D01*
G02X2067071Y-1301940I-2189127J1084227D01*
G02X1807247Y-1303106I-130532J137596D01*
G03X1309584Y-1800769I-248376J-249287D01*
G02X1357644Y-1962753I-138762J-129292D01*
G01X1041011Y-1962753D01*
G03X998399Y-1870078I-42612J36541D01*
G03X955787Y-1962753I0J-56134D01*
G01X896740Y-1962753D01*
G03X854128Y-1870078I-42612J36541D01*
G03X811516Y-1962753I0J-56134D01*
G01X752468Y-1962753D01*
G03X709857Y-1870078I-42612J36541D01*
G03X667245Y-1962753I0J-56134D01*
G01X608197Y-1962753D01*
G03X565586Y-1870078I-42612J36541D01*
G03X522974Y-1962753I0J-56134D01*
G01X463926Y-1962753D01*
G03X421315Y-1870078I-42612J36541D01*
G03X378703Y-1962753I0J-56134D01*
G01X319655Y-1962753D01*
G03X277044Y-1870078I-42612J36541D01*
G03X234432Y-1962753I0J-56134D01*
G01X175384Y-1962753D01*
G03X132773Y-1870078I-42612J36541D01*
G03X90161Y-1962753I0J-56134D01*
G01X31113Y-1962753D01*
G03X-11498Y-1870078I-42612J36541D01*
G03X-54110Y-1962753I0J-56134D01*
G01X-113158Y-1962753D01*
G03X-155769Y-1870078I-42612J36541D01*
G03X-198381Y-1962753I0J-56134D01*
G01X-257429Y-1962753D01*
G03X-300040Y-1870078I-42612J36541D01*
G03X-342652Y-1962753I0J-56134D01*
G01X-401700Y-1962753D01*
G03X-444312Y-1870078I-42612J36541D01*
G03X-486923Y-1962753I0J-56134D01*
G01X-545971Y-1962753D01*
G03X-588583Y-1870078I-42612J36541D01*
G03X-631194Y-1962753I0J-56134D01*
G01X-690242Y-1962753D01*
G03X-732853Y-1870078I-42612J36541D01*
G03X-775465Y-1962753I0J-56134D01*
G01X-834513Y-1962753D01*
G03X-877124Y-1870078I-42612J36541D01*
G03X-919736Y-1962753I0J-56134D01*
G01X-1352184Y-1962753D01*
G02X-1303106Y-1807247I187841J26214D01*
G03X-1648683Y-1220399I-249287J248376D01*
G03X-1725677Y-1156615I-54785J12231D01*
G01X-2202434Y-736600D02*
G03X-2090166Y-736600I56134J0D01*
G03X-2202434Y-736600I-56134J0D01*
G01X-2097093Y-23807D02*
G03X-2060433Y-119552I39693J-39693D01*
G03X-1964688Y-156212I56052J3033D01*
G03X-2001348Y-60467I-39693J39693D01*
G03X-2097093Y-23807I-56052J-3033D01*
G01X-1916107Y1052507D02*
G03X-1963729Y1147771I-39693J39693D01*
G03X-2058993Y1195393I-55571J7929D01*
G03X-2011371Y1100129I39693J-39693D01*
G03X-1916107Y1052507I55571J-7929D01*
G01X-2075434Y251993D02*
G03X-1963166Y251993I56134J0D01*
G03X-2075434Y251993I-56134J0D01*
G01X-2075434Y800100D02*
G03X-1963166Y800100I56134J0D01*
G03X-2075434Y800100I-56134J0D01*
G01X-2075434Y-596900D02*
G03X-1963166Y-596900I56134J0D01*
G03X-2075434Y-596900I-56134J0D01*
G01X-1925815Y146932D02*
G03X-1880018Y56020I44041J-34806D01*
G03X-1780983Y32471I54994J11257D01*
G03X-1826780Y123383I-44041J34806D01*
G03X-1925815Y146932I-54994J-11257D01*
G01X-1872234Y-495300D02*
G03X-1759966Y-495300I56134J0D01*
G03X-1872234Y-495300I-56134J0D01*
G01X-1831955Y1092200D02*
G03X-1719687Y1092200I56134J0D01*
G03X-1831955Y1092200I-56134J0D01*
G01X-1816520Y241351D02*
G03X-1756679Y158305I48627J-28044D01*
G03X-1654829Y148101I53224J17840D01*
G03X-1714669Y231147I-48627J28044D01*
G03X-1816520Y241351I-53224J-17840D01*
G01X-1648023Y773001D02*
G03X-1745831Y725750I-42732J-36401D01*
G03X-1808032Y636699I-19469J-52650D01*
G03X-1710225Y683950I42732J36401D01*
G03X-1648023Y773001I19469J52650D01*
G01X-1771827Y-609845D02*
G03X-1665185Y-634093I56133J245D01*
G03X-1630934Y-662954I50293J24933D01*
G03X-1541249Y-707944I56134J14D01*
G03X-1558758Y-609147I-33551J45004D01*
G03X-1602333Y-554450I-56134J-14D01*
G03X-1665401Y-584667I-12559J-54711D01*
G03X-1771827Y-609845I-50293J-24933D01*
G01X-1618234Y381000D02*
G03X-1505966Y381000I56134J0D01*
G03X-1618234Y381000I-56134J0D01*
G01X-1605534Y-1041400D02*
G03X-1493266Y-1041400I56134J0D01*
G03X-1605534Y-1041400I-56134J0D01*
G01X-1559466Y1092200D02*
G03X-1447198Y1092200I56134J0D01*
G03X-1559466Y1092200I-56134J0D01*
G01X-1338834Y-482600D02*
G03X-1226566Y-482600I56134J0D01*
G03X-1338834Y-482600I-56134J0D01*
G01X-1321014Y1258112D02*
G03X-1208746Y1258112I56134J0D01*
G03X-1321014Y1258112I-56134J0D01*
G01X-1313434Y812800D02*
G03X-1201166Y812800I56134J0D01*
G03X-1313434Y812800I-56134J0D01*
G01X-1280247Y257576D02*
G03X-1188832Y294540I35647J43363D01*
G03X-1125339Y343677I7732J55599D01*
G03X-1175911Y406033I-55761J6462D01*
G03X-1260848Y450100I-55989J-4027D01*
G03X-1261669Y354415I28948J-48094D01*
G03X-1280247Y257576I17069J-53476D01*
G01X-1241038Y-1346200D02*
G03X-1128770Y-1346200I56134J0D01*
G03X-1241038Y-1346200I-56134J0D01*
G01X-1211834Y-406400D02*
G03X-1099566Y-406400I56134J0D01*
G03X-1211834Y-406400I-56134J0D01*
G01X-1199134Y723900D02*
G03X-1086866Y723900I56134J0D01*
G03X-1199134Y723900I-56134J0D01*
G01X-1161035Y-1435100D02*
G03X-1048767Y-1435100I56134J0D01*
G03X-1161035Y-1435100I-56134J0D01*
G01X-1148334Y1258112D02*
G03X-1036066Y1258112I56134J0D01*
G03X-1148334Y1258112I-56134J0D01*
G01X-1085385Y775251D02*
G03X-973117Y775251I56134J0D01*
G03X-1085385Y775251I-56134J0D01*
G01X-929142Y196093D02*
G03X-902179Y292867I-10658J55113D01*
G03X-929011Y368428I-50441J24633D01*
G03X-997581Y446716I-50123J25272D01*
G03X-1002743Y342772I18447J-53016D01*
G03X-990241Y275839I50123J-25272D01*
G03X-929142Y196093I50441J-24633D01*
G01X-778933Y1592834D02*
G03X-819150Y1575862I0J-56134D01*
G03X-899583Y1575862I-40217J-39162D01*
G03X-975386Y1580113I-40217J-39162D01*
G03X-986092Y1504950I35586J-43413D01*
G03X-975386Y1429787I46292J-31750D01*
G03X-899583Y1434038I35586J43413D01*
G03X-819150Y1434038I40217J39162D01*
G03X-778933Y1417066I40217J39162D01*
G03X-738717Y1434038I0J56134D01*
G03X-662914Y1429787I40217J39162D01*
G03X-652208Y1504950I-35586J43413D01*
G03X-662914Y1580113I-46292J31750D01*
G03X-738717Y1575862I-35586J-43413D01*
G03X-778933Y1592834I-40217J-39162D01*
G01X-901700Y769366D02*
G03X-860476Y863600I0J56134D01*
G03X-901700Y957834I-41224J38100D01*
G03X-942924Y863600I0J-56134D01*
G03X-901700Y769366I41224J-38100D01*
G01X-948280Y1258112D02*
G03X-836012Y1258112I56134J0D01*
G03X-948280Y1258112I-56134J0D01*
G01X-933258Y-1781941D02*
G03X-820990Y-1781941I56134J0D01*
G03X-933258Y-1781941I-56134J0D01*
G01X-856234Y-139700D02*
G03X-743966Y-139700I56134J0D01*
G03X-856234Y-139700I-56134J0D01*
G01X-788987Y-1781941D02*
G03X-676719Y-1781941I56134J0D01*
G03X-788987Y-1781941I-56134J0D01*
G01X-767334Y723900D02*
G03X-655066Y723900I56134J0D01*
G03X-767334Y723900I-56134J0D01*
G01X-703676Y-1168400D02*
G03X-591408Y-1168400I56134J0D01*
G03X-703676Y-1168400I-56134J0D01*
G01X-649508Y864976D02*
G03X-614648Y769593I39908J-39476D01*
G03X-518892Y735775I55848J5657D01*
G03X-553752Y831157I-39908J39476D01*
G03X-649508Y864976I-55848J-5657D01*
G01X-644717Y-1781941D02*
G03X-532449Y-1781941I56134J0D01*
G03X-644717Y-1781941I-56134J0D01*
G01X-503134Y-835660D02*
G03X-390866Y-835660I56134J0D01*
G03X-503134Y-835660I-56134J0D01*
G01X-496477Y-668900D02*
G03X-434457Y-702928I51977J21200D01*
G03X-332865Y-714681I53457J17128D01*
G03X-391043Y-630572I-48135J28881D01*
G03X-401290Y-611869I-53457J-17128D01*
G03X-423143Y-498201I-30510J53069D01*
G03X-475949Y-601203I-8657J-60599D01*
G03X-496477Y-668900I31449J-46497D01*
G01X-500446Y-1781941D02*
G03X-388178Y-1781941I56134J0D01*
G03X-500446Y-1781941I-56134J0D01*
G01X-475234Y-139700D02*
G03X-362966Y-139700I56134J0D01*
G03X-475234Y-139700I-56134J0D01*
G01X-462534Y1258112D02*
G03X-350266Y1258112I56134J0D01*
G03X-462534Y1258112I-56134J0D01*
G01X-449834Y838200D02*
G03X-337566Y838200I56134J0D01*
G03X-449834Y838200I-56134J0D01*
G01X-411734Y-1016000D02*
G03X-299466Y-1016000I56134J0D01*
G03X-411734Y-1016000I-56134J0D01*
G01X-360934Y-863600D02*
G03X-248666Y-863600I56134J0D01*
G03X-360934Y-863600I-56134J0D01*
G01X-356174Y-1781941D02*
G03X-243906Y-1781941I56134J0D01*
G03X-356174Y-1781941I-56134J0D01*
G01X-322834Y-1358900D02*
G03X-210566Y-1358900I56134J0D01*
G03X-322834Y-1358900I-56134J0D01*
G01X-310134Y-637388D02*
G03X-197866Y-637388I56134J0D01*
G03X-310134Y-637388I-56134J0D01*
G01X-211903Y-1781941D02*
G03X-99635Y-1781941I56134J0D01*
G03X-211903Y-1781941I-56134J0D01*
G01X-131153Y241300D02*
G03X-18885Y241300I56134J0D01*
G03X-131153Y241300I-56134J0D01*
G01X-67632Y-1781941D02*
G03X44636Y-1781941I56134J0D01*
G03X-67632Y-1781941I-56134J0D01*
G01X-60082Y1676400D02*
G03X52186Y1676400I56134J0D01*
G03X-60082Y1676400I-56134J0D01*
G01X70866Y-150000D02*
G03X183134Y-150000I56134J0D01*
G03X70866Y-150000I-56134J0D01*
G01X76639Y-1781941D02*
G03X188907Y-1781941I56134J0D01*
G03X76639Y-1781941I-56134J0D01*
G01X235672Y-130680D02*
G03X246766Y-21880I-7072J55687D01*
G03X208828Y80693I-30866J46886D01*
G03X197734Y-28107I7072J-55687D01*
G03X235672Y-130680I30866J-46886D01*
G01X220910Y-1781941D02*
G03X333178Y-1781941I56134J0D01*
G03X220910Y-1781941I-56134J0D01*
G01X235966Y381000D02*
G03X348234Y381000I56134J0D01*
G03X235966Y381000I-56134J0D01*
G01X286766Y1676400D02*
G03X399034Y1676400I56134J0D01*
G03X286766Y1676400I-56134J0D01*
G01X337566Y63500D02*
G03X449834Y63500I56134J0D01*
G03X337566Y63500I-56134J0D01*
G01X365181Y-1781941D02*
G03X477449Y-1781941I56134J0D01*
G03X365181Y-1781941I-56134J0D01*
G01X401066Y558800D02*
G03X513334Y558800I56134J0D01*
G03X401066Y558800I-56134J0D01*
G01X451866Y-647700D02*
G03X564134Y-647700I56134J0D01*
G03X451866Y-647700I-56134J0D01*
G01X464566Y-1346200D02*
G03X576834Y-1346200I56134J0D01*
G03X464566Y-1346200I-56134J0D01*
G01X504876Y1320800D02*
G03X504876Y1244600I41224J-38100D01*
G03X506407Y1166807I41224J-38100D01*
G03X584200Y1165276I39693J39693D01*
G03X661993Y1166807I38100J41224D01*
G03X663524Y1244600I-39693J39693D01*
G03X663524Y1320800I-41224J38100D01*
G03X663524Y1397000I-41224J38100D01*
G03X663524Y1473200I-41224J38100D01*
G03X661993Y1550993I-41224J38100D01*
G03X584200Y1552524I-39693J-39693D01*
G03X506407Y1550993I-38100J-41224D01*
G03X504876Y1473200I39693J-39693D01*
G03X504876Y1397000I41224J-38100D01*
G03X504876Y1320800I41224J-38100D01*
G01X509452Y-1781941D02*
G03X621720Y-1781941I56134J0D01*
G03X509452Y-1781941I-56134J0D01*
G01X540766Y-744278D02*
G03X653034Y-744278I56134J0D01*
G03X540766Y-744278I-56134J0D01*
G01X653723Y-1781941D02*
G03X765991Y-1781941I56134J0D01*
G03X653723Y-1781941I-56134J0D01*
G01X720628Y342900D02*
G03X832896Y342900I56134J0D01*
G03X720628Y342900I-56134J0D01*
G01X797994Y-1781941D02*
G03X910262Y-1781941I56134J0D01*
G03X797994Y-1781941I-56134J0D01*
G01X942265Y-1781941D02*
G03X1054533Y-1781941I56134J0D01*
G03X942265Y-1781941I-56134J0D01*
G01X1054100Y-513133D02*
G03X1054100Y-291666I0J110734D01*
G03X1054100Y-513133I0J-110734D01*
G01X1239901Y-513366D02*
G03X1239901Y-824833I0J-155734D01*
G03X1239901Y-513366I0J155734D01*
G01X1086866Y-1778000D02*
G03X1199134Y-1778000I56134J0D01*
G03X1086866Y-1778000I-56134J0D01*
G01X1287635Y591016D02*
G03X1337722Y679142I4064J55987D01*
G03X1413192Y686202I33878J44758D01*
G03X1412824Y762000I-41592J37698D01*
G03X1410372Y840693I-41224J38100D01*
G03X1331650Y839533I-38772J-40593D01*
G03X1252927Y840693I-39950J-39433D01*
G03X1250475Y762000I38772J-40593D01*
G03X1250800Y685451I41224J-38100D01*
G03X1287635Y591016I40899J-38449D01*
G01X2013966Y863600D02*
G03X2126234Y863600I56134J0D01*
G03X2013966Y863600I-56134J0D01*
G01X2013966Y-101600D02*
G03X2126234Y-101600I56134J0D01*
G03X2013966Y-101600I-56134J0D01*
G01X2039366Y1079500D02*
G03X2151634Y1079500I56134J0D01*
G03X2039366Y1079500I-56134J0D01*
G01X2239899Y251633D02*
G03X2239899Y10165I0J-120734D01*
G03X2239899Y251633I0J120734D01*
G04 Copper End*

G04 Pad Start*
G54D11*
G01X-1558869Y1552394D03*
G01X-1552392Y-1558873D03*
G01X1552392Y1558871D03*
G01X1558869Y-1552391D03*
G54D12*
G01X1239901Y-169100D03*
G01X1239901Y-669099D03*
G54D13*
G01X2239899Y-969099D03*
G01X2239899Y130899D03*
G54D14*
G01X1054100Y97600D03*
G01X1054100Y-402399D03*
G04 Pad End*

G04 Via Start*
G54D15*
G01X-1766697Y1551703D03*
G01X-1760220Y-1559558D03*
G01X-1706316Y1698860D03*
G01X-1705341Y1404952D03*
G01X-1699834Y-1412401D03*
G01X-1698864Y-1706315D03*
G01X-1559560Y1760222D03*
G01X-1558183Y1344566D03*
G01X-1553083Y-1351045D03*
G01X-1551701Y-1766695D03*
G01X-1412402Y1699836D03*
G01X-1411427Y1405922D03*
G01X-1405925Y-1411426D03*
G01X-1404950Y-1705339D03*
G01X-1351041Y1553085D03*
G01X-1344564Y-1558182D03*
G01X1344564Y1558180D03*
G01X1351041Y-1553081D03*
G01X1404950Y1705337D03*
G01X1405926Y1411429D03*
G01X1411427Y-1405924D03*
G01X1412403Y-1699838D03*
G01X1551701Y1766699D03*
G01X1553083Y1351043D03*
G01X1558178Y-1344563D03*
G01X1559560Y-1760218D03*
G01X1698859Y1706313D03*
G01X1699834Y1412404D03*
G01X1705341Y-1404949D03*
G01X1706316Y-1698862D03*
G01X1760220Y1559562D03*
G01X1766697Y-1551705D03*
G01X-1574800Y-662940D03*
G01X-2019300Y-596900D03*
G01X-1614892Y-609161D03*
G01X-1715694Y-609600D03*
G01X-1282700Y-482600D03*
G01X-1816100Y-495300D03*
G01X546100Y1511300D03*
G01X546100Y1435100D03*
G01X546100Y1358900D03*
G01X546100Y1282700D03*
G01X546100Y1206500D03*
G01X622300Y1511300D03*
G01X622300Y1358900D03*
G01X622300Y1206500D03*
G01X622300Y1435100D03*
G01X622300Y1282700D03*
G01X-75019Y241300D03*
G01X215900Y25006D03*
G01X127000Y-150000D03*
G01X228600Y-74993D03*
G01X-2019300Y800100D03*
G01X-2019300Y1155700D03*
G01X-1181100Y350139D03*
G01X-1231900Y402006D03*
G01X-1244600Y300939D03*
G01X-939800Y251206D03*
G01X-952620Y317500D03*
G01X-979134Y393700D03*
G01X-901700Y825500D03*
G01X-1029251Y775251D03*
G01X-609600Y825500D03*
G01X-558800Y775251D03*
G01X-2019300Y251993D03*
G01X-711200Y723900D03*
G01X-1143000Y723900D03*
G01X-2057400Y-63500D03*
G01X-2004381Y-116519D03*
G01X-1881774Y112126D03*
G01X-1825024Y67276D03*
G01X-1767893Y213307D03*
G01X-1703455Y176145D03*
G01X-1765300Y673100D03*
G01X-1690755Y736600D03*
G01X-1264880Y1258112D03*
G01X-1092200Y1258112D03*
G01X-892146Y1258112D03*
G01X-406400Y1258112D03*
G01X-939800Y1536700D03*
G01X-859367Y1536700D03*
G01X-778933Y1536700D03*
G01X-698500Y1536700D03*
G01X-939800Y1473200D03*
G01X-698500Y1473200D03*
G01X-859367Y1473200D03*
G01X-778933Y1473200D03*
G01X-3948Y1676400D03*
G01X342900Y1676400D03*
G01X-1503332Y1092200D03*
G01X-1775821Y1092200D03*
G01X-1955800Y1092200D03*
G01X-419100Y-139700D03*
G01X-2146300Y-736600D03*
G01X2095500Y1079500D03*
G01X1291699Y800100D03*
G01X1371600Y800100D03*
G01X1291699Y723900D03*
G01X1371600Y723900D03*
G01X1291699Y647003D03*
G01X-2133600Y1028700D03*
G01X-1892300Y1028700D03*
G01X-1722398Y990600D03*
G01X-1447800Y890041D03*
G01X-2065706Y647700D03*
G01X-1878406Y673100D03*
G01X-1613746Y645752D03*
G01X-1511300Y-381000D03*
G01X-2019300Y-863600D03*
G01X-1905000Y-863600D03*
G01X-1587500Y-812394D03*
G01X-279400Y-203200D03*
G01X-279400Y228600D03*
G01X25400Y228600D03*
G01X177800Y152400D03*
G01X1498600Y-381000D03*
G01X1689100Y-215900D03*
G01X2322726Y-736600D03*
G01X2384853Y-736600D03*
G01X2446979Y-736600D03*
G01X2322726Y-800100D03*
G01X2384853Y-800100D03*
G01X2446979Y-800100D03*
G01X2413000Y-279400D03*
G01X2476500Y-279400D03*
G01X2476500Y-342900D03*
G01X2413000Y-457200D03*
G01X2472701Y-457200D03*
G01X1816100Y-635000D03*
G01X1878226Y-635000D03*
G01X1940353Y-635000D03*
G01X1816100Y-698500D03*
G01X1878226Y-698500D03*
G01X1940353Y-698500D03*
G01X1892300Y-342900D03*
G01X1955800Y-342900D03*
G01X2041953Y-1295400D03*
G01X2041953Y-1231900D03*
G01X1979826Y-1231900D03*
G01X1979826Y-1295400D03*
G01X1917700Y-1295400D03*
G01X1917700Y-1231900D03*
G01X1855574Y-1231900D03*
G01X1855574Y-1295400D03*
G01X1793447Y-1231900D03*
G01X642518Y546100D03*
G01X2473063Y978322D03*
G01X330200Y1591412D03*
G01X809803Y1828800D03*
G01X-219875Y1846620D03*
G01X-558800Y-38100D03*
G01X-406400Y168538D03*
G01X-337201Y1200801D03*
G01X-337201Y1143000D03*
G01X-279400Y1143000D03*
G01X-279400Y1200801D03*
G01X-221599Y1143000D03*
G01X-221599Y1200801D03*
G01X-163798Y1143000D03*
G01X-163798Y1200801D03*
G01X91681Y1618599D03*
G01X149482Y1618599D03*
G01X207283Y1618599D03*
G01X91681Y1560798D03*
G01X207283Y1560798D03*
G01X149482Y1560798D03*
G01X149482Y1259700D03*
G01X207283Y1259700D03*
G01X91681Y1201899D03*
G01X207283Y1201899D03*
G01X149482Y1201899D03*
G01X91681Y1259700D03*
G01X149482Y1435100D03*
G01X207283Y1435100D03*
G01X91681Y1377299D03*
G01X207283Y1377299D03*
G01X149482Y1377299D03*
G01X91681Y1435100D03*
G01X38100Y927100D03*
G01X901700Y508000D03*
G01X1397000Y1128786D03*
G01X1459126Y1128786D03*
G01X1521253Y1128786D03*
G01X1905000Y1231900D03*
G01X1905000Y1295400D03*
G01X1967126Y1295400D03*
G01X1967126Y1231900D03*
G01X2029253Y1231900D03*
G01X2029253Y1295400D03*
G01X1776626Y1231900D03*
G01X1838753Y1231900D03*
G01X1200921Y1128786D03*
G01X1263047Y1128786D03*
G01X1325174Y1128786D03*
G01X1200921Y1190912D03*
G01X1459126Y1190912D03*
G01X1397000Y1190912D03*
G01X1325174Y1190912D03*
G01X1263047Y1190912D03*
G01X1200921Y1253039D03*
G01X1263047Y1253039D03*
G01X1200921Y1315165D03*
G01X1200921Y1377292D03*
G01X-1054100Y1028700D03*
G01X-1054100Y952500D03*
G01X-977900Y952500D03*
G01X-977900Y1028700D03*
G01X-977900Y1104900D03*
G01X-774700Y1066800D03*
G01X-774700Y990600D03*
G01X-698500Y990600D03*
G01X-698500Y1066800D03*
G01X-698500Y1143000D03*
G01X-774700Y1143000D03*
G01X-698500Y1346200D03*
G01X-774700Y1346200D03*
G01X-1079500Y1473200D03*
G01X-1079500Y1397000D03*
G01X-1079500Y1549400D03*
G01X-1079500Y1689100D03*
G01X-1079500Y1612900D03*
G01X-1422400Y1003300D03*
G01X-1422400Y1079500D03*
G01X-1841500Y-76200D03*
G01X-1745739Y-76200D03*
G01X-1562100Y88900D03*
G01X-1562100Y167881D03*
G01X-1562100Y249273D03*
G01X-2010748Y-1117600D03*
G01X-2095500Y-1117600D03*
G01X-2095500Y-1046934D03*
G01X-2010748Y-1046934D03*
G01X-2010748Y-976268D03*
G01X-2095500Y-976268D03*
G01X292100Y381000D03*
G54D16*
G01X-1866900Y-406400D03*
G54D18*
G01X-431800Y-558800D03*
G54D15*
G01X393700Y63500D03*
G01X2070100Y-101600D03*
G01X2070100Y863600D03*
G01X-1549400Y-1041400D03*
G01X-1703469Y-1208169D03*
G01X-1184904Y-1346200D03*
G01X520700Y-1346200D03*
G01X508000Y-647700D03*
G01X-254000Y-637388D03*
G01X596900Y-744278D03*
G01X-447000Y-835660D03*
G01X-444500Y-647700D03*
G01X-304800Y-863600D03*
G01X-355600Y-1016000D03*
G01X-381000Y-685800D03*
G01X-1104901Y-1435100D03*
G01X-647542Y-1168400D03*
G01X-1562100Y381000D03*
G01X-1257300Y812800D03*
G01X-901700Y901700D03*
G01X-393700Y838200D03*
G01X457200Y558800D03*
G01X-1329588Y-215900D03*
G01X-800100Y-139700D03*
G01X-1155700Y-406400D03*
G01X776762Y342900D03*
G01X-266700Y-1358900D03*
G01X-877124Y-1926212D03*
G01X-732853Y-1926212D03*
G01X-588583Y-1926212D03*
G01X-444312Y-1926212D03*
G01X-300040Y-1926212D03*
G01X-155769Y-1926212D03*
G01X-11498Y-1926212D03*
G01X132773Y-1926212D03*
G01X277044Y-1926212D03*
G01X421315Y-1926212D03*
G01X565586Y-1926212D03*
G01X709857Y-1926212D03*
G01X854128Y-1926212D03*
G01X998399Y-1926212D03*
G01X-732853Y-1781941D03*
G01X-877124Y-1781941D03*
G01X-588583Y-1781941D03*
G01X-444312Y-1781941D03*
G01X277044Y-1781941D03*
G01X-300040Y-1781941D03*
G01X-155769Y-1781941D03*
G01X-11498Y-1781941D03*
G01X132773Y-1781941D03*
G01X421315Y-1781941D03*
G01X565586Y-1781941D03*
G01X709857Y-1781941D03*
G01X854128Y-1781941D03*
G01X998399Y-1781941D03*
G01X-1384300Y-914400D03*
G01X-1285729Y-914400D03*
G01X-1384300Y-825500D03*
G01X-1285729Y-825500D03*
G01X-727697Y391120D03*
G01X719811Y-279400D03*
G01X-876300Y-257912D03*
G01X-825500Y-330200D03*
G54D18*
G01X-355600Y-369900D03*
G54D15*
G01X952500Y-38100D03*
G01X669188Y406400D03*
G01X596900Y469900D03*
G01X-368300Y-228600D03*
G01X-812800Y2171700D03*
G01X-685800Y2171700D03*
G01X-558800Y2171700D03*
G01X-431800Y2171700D03*
G01X-304800Y2171700D03*
G01X-177800Y2171700D03*
G01X-50800Y2171700D03*
G01X457200Y2171700D03*
G01X584200Y2171700D03*
G01X711200Y2171700D03*
G01X838200Y2171700D03*
G01X-1193800Y2044700D03*
G01X-812800Y2044700D03*
G01X-685800Y2044700D03*
G01X-558800Y2044700D03*
G01X-431800Y2044700D03*
G01X-304800Y2044700D03*
G01X-177800Y2044700D03*
G01X-50800Y2044700D03*
G01X457200Y2044700D03*
G01X584200Y2044700D03*
G01X711200Y2044700D03*
G01X838200Y2044700D03*
G01X1092200Y2044700D03*
G01X1219200Y2044700D03*
G01X-1320800Y1917700D03*
G01X-1193800Y1917700D03*
G01X711200Y1917700D03*
G01X838200Y1917700D03*
G01X1092200Y1917700D03*
G01X1219200Y1917700D03*
G01X-939800Y1790700D03*
G01X965200Y1790700D03*
G01X1092200Y1790700D03*
G01X1219200Y1790700D03*
G01X1092200Y1663700D03*
G01X965200Y1536700D03*
G01X965200Y1409700D03*
G01X-1955800Y1282700D03*
G01X-1828800Y1282700D03*
G01X965200Y1282700D03*
G01X-939800Y1155700D03*
G01X330200Y1155700D03*
G01X-1828800Y1028700D03*
G01X-2209800Y901700D03*
G01X-304800Y901700D03*
G01X-177800Y901700D03*
G01X-50800Y901700D03*
G01X203200Y901700D03*
G01X330200Y901700D03*
G01X457200Y901700D03*
G01X-304800Y774700D03*
G01X-177800Y774700D03*
G01X-50800Y774700D03*
G01X76200Y774700D03*
G01X330200Y774700D03*
G01X457200Y774700D03*
G01X-558800Y647700D03*
G01X-431800Y647700D03*
G01X-304800Y647700D03*
G01X-50800Y647700D03*
G01X76200Y647700D03*
G01X203200Y647700D03*
G01X457200Y647700D03*
G01X584200Y647700D03*
G01X965200Y647700D03*
G01X2235200Y647700D03*
G01X2362200Y647700D03*
G01X2489200Y647700D03*
G01X76200Y520700D03*
G01X203200Y520700D03*
G01X330200Y520700D03*
G01X2235200Y520700D03*
G01X2362200Y520700D03*
G01X2489200Y520700D03*
G01X-1955800Y393700D03*
G01X-431800Y393700D03*
G01X-304800Y393700D03*
G01X1092200Y393700D03*
G01X-177800Y266700D03*
G01X838200Y266700D03*
G01X965200Y266700D03*
G01X330200Y139700D03*
G01X838200Y139700D03*
G01X2489200Y139700D03*
G01X584200Y12700D03*
G01X1346200Y12700D03*
G01X2489200Y12700D03*
G01X457200Y-114300D03*
G01X584200Y-114300D03*
G01X711200Y-114300D03*
G01X1473200Y-114300D03*
G01X1600200Y-114300D03*
G01X2489200Y-114300D03*
G01X-2209800Y-241300D03*
G01X-812800Y-241300D03*
G01X-177800Y-241300D03*
G01X457200Y-241300D03*
G01X584200Y-241300D03*
G01X1092200Y-241300D03*
G01X1473200Y-241300D03*
G01X1600200Y-241300D03*
G01X-2209800Y-368300D03*
G01X330200Y-368300D03*
G01X457200Y-368300D03*
G01X1346200Y-368300D03*
G01X-2209800Y-495300D03*
G01X-2082800Y-495300D03*
G01X-177800Y-495300D03*
G01X-50800Y-495300D03*
G01X711200Y-495300D03*
G01X-2209800Y-622300D03*
G01X-2209800Y-876300D03*
G01X-2082800Y-876300D03*
G01X-1828800Y-876300D03*
G01X2362200Y-876300D03*
G01X2489200Y-876300D03*
G01X-1955800Y-1003300D03*
G01X-1955800Y-1130300D03*
G01X1346200Y-1130300D03*
G01X1473200Y-1130300D03*
G01X1600200Y-1130300D03*
G01X1727200Y-1130300D03*
G01X2108200Y-1130300D03*
G01X-1955800Y-1257300D03*
G01X-1828800Y-1257300D03*
G01X1143000Y-1778000D03*
G04 Via End*

M02*

