G04 Layer: TopPasteMaskLayer*
G04 EasyEDA Pro v3.2.69, 2026-02-24 21:35:43*
G04 Gerber Generator version 0.3*
G04 Scale: 100 percent, Rotated: No, Reflected: No*
G04 Dimensions in millimeters*
G04 Leading zeros omitted, absolute positions, 4 integers and 5 decimals*
G04 Generated by one-click*
%FSLAX45Y45*%
%MOMM*%
%AMPolygonMacro1*4,1,8,0.39999,0.45,0.50001,0.45,0.50001,-0.45,0.10001,-0.45,0.10001,0.15,-0.50001,0.15,-0.50001,0.45,0.10001,0.45,0.39999,0.45,0*%
%AMPolygonMacro2*4,1,8,-0.5,-0.15,0.1,-0.15,0.1,0.45,0.5,0.45,0.5,-0.45,0.4,-0.45,0.1,-0.45,-0.5,-0.45,-0.5,-0.15,0*%
%AMPolygonMacro3*4,1,12,0.45001,0.1,-0.15001,0.1,-0.15001,-0.1,0.45001,-0.1,0.45001,-0.4,-0.44999,-0.4,-0.44999,-0.32901,-0.45001,-0.32901,-0.45001,0.32098,-0.44999,0.32098,-0.44999,0.4,0.45001,0.4,0.45001,0.1,0*%
%AMPolygonMacro4*4,1,8,-0.1,-0.45,-0.4,-0.45,-0.5,-0.45,-0.5,0.45,-0.1,0.45,-0.1,-0.15,0.5,-0.15,0.5,-0.45,-0.1,-0.45,0*%
%AMPolygonMacro5*4,1,8,0.5,0.15,-0.1,0.15,-0.1,-0.45,-0.5,-0.45,-0.5,0.45,-0.4,0.45,-0.1,0.45,0.5,0.45,0.5,0.15,0*%
%AMPolygonMacro6*4,1,16,2.28001,1.84,2.775,1.84,2.775,0.935,2.28001,0.935,2.28001,-2.26499,1.52999,-2.26499,1.52999,-1.765,-1.52999,-1.765,-1.52999,-2.26499,-2.28001,-2.26499,-2.28001,0.935,-2.775,0.935,-2.775,1.84,-2.28001,1.84,-2.28001,2.26499,2.28001,2.26499,2.28001,1.84,0*%
%ADD10R,0.25001X0.9*%
%ADD11R,0.25001X1.65001*%
%ADD12R,0.23X0.9*%
%ADD13R,0.9X0.25001*%
%ADD14R,0.65001X0.3*%
%ADD15PolygonMacro1*%
%ADD16PolygonMacro2*%
%ADD17PolygonMacro3*%
%ADD18C,0.3321*%
%ADD19PolygonMacro4*%
%ADD20PolygonMacro5*%
%ADD21R,0.7X0.35001*%
%ADD22R,0.35001X0.7*%
%ADD23R,1.7X2.49999*%
%ADD24R,0.62499X0.35001*%
%ADD25R,5.72X2.2*%
%ADD26R,0.5X0.54*%
%ADD27R,0.54X0.5*%
%ADD28R,0.78001X0.5*%
%ADD29R,0.75001X1.0*%
%ADD30PolygonMacro6*%
%ADD31O,1.454X0.35301*%
%ADD32O,0.35301X1.454*%
G75*


G04 PolygonModel Start*
G36*
G01X2006801Y1062901D02*
G01X1969775Y1062901D01*
G01X1959775Y1072901D01*
G01X1959775Y1103391D01*
G01X1949775Y1113391D01*
G01X1911025Y1113391D01*
G01X1901025Y1103391D01*
G01X1901025Y1072901D01*
G01X1891025Y1062901D01*
G01X1853999Y1062901D01*
G01X1843999Y1072901D01*
G01X1843999Y1201400D01*
G01X1853999Y1211400D01*
G01X2006801Y1211400D01*
G01X2016801Y1201400D01*
G01X2016801Y1072901D01*
G01X2006801Y1062901D01*
G37*
G36*
G01X2006801Y892899D02*
G01X2016801Y882899D01*
G01X2016801Y754400D01*
G01X2006801Y744400D01*
G01X1853999Y744400D01*
G01X1843999Y754400D01*
G01X1843999Y882899D01*
G01X1853999Y892899D01*
G01X1891025Y892899D01*
G01X1901025Y882899D01*
G01X1901025Y852409D01*
G01X1911025Y842409D01*
G01X1949775Y842409D01*
G01X1959775Y852409D01*
G01X1959775Y882899D01*
G01X1969775Y892899D01*
G01X2006801Y892899D01*
G37*
G36*
G01X1742203Y1062901D02*
G01X1705177Y1062901D01*
G01X1695177Y1072901D01*
G01X1695177Y1103391D01*
G01X1685177Y1113391D01*
G01X1646427Y1113391D01*
G01X1636427Y1103391D01*
G01X1636427Y1072901D01*
G01X1626427Y1062901D01*
G01X1589401Y1062901D01*
G01X1579401Y1072901D01*
G01X1579401Y1201400D01*
G01X1589401Y1211400D01*
G01X1742203Y1211400D01*
G01X1752202Y1201400D01*
G01X1752202Y1072901D01*
G01X1742203Y1062901D01*
G37*
G36*
G01X1742203Y892899D02*
G01X1752202Y882899D01*
G01X1752202Y754400D01*
G01X1742203Y744400D01*
G01X1589401Y744400D01*
G01X1579401Y754400D01*
G01X1579401Y882899D01*
G01X1589401Y892899D01*
G01X1626427Y892899D01*
G01X1636427Y882899D01*
G01X1636427Y852409D01*
G01X1646427Y842409D01*
G01X1685177Y842409D01*
G01X1695177Y852409D01*
G01X1695177Y882899D01*
G01X1705177Y892899D01*
G01X1742203Y892899D01*
G37*
G36*
G01X859560Y1321540D02*
G01X859560Y1284515D01*
G01X849560Y1274515D01*
G01X819070Y1274515D01*
G01X809070Y1264515D01*
G01X809070Y1225765D01*
G01X819070Y1215765D01*
G01X849560Y1215765D01*
G01X859560Y1205765D01*
G01X859560Y1168739D01*
G01X849560Y1158739D01*
G01X721062Y1158739D01*
G01X711062Y1168739D01*
G01X711062Y1321540D01*
G01X721062Y1331540D01*
G01X849560Y1331540D01*
G01X859560Y1321540D01*
G37*
G36*
G01X1029562Y1321540D02*
G01X1039562Y1331540D01*
G01X1168061Y1331540D01*
G01X1178061Y1321540D01*
G01X1178061Y1168739D01*
G01X1168061Y1158739D01*
G01X1039562Y1158739D01*
G01X1029562Y1168739D01*
G01X1029562Y1205765D01*
G01X1039562Y1215765D01*
G01X1070052Y1215765D01*
G01X1080052Y1225765D01*
G01X1080052Y1264515D01*
G01X1070052Y1274515D01*
G01X1039562Y1274515D01*
G01X1029562Y1284515D01*
G01X1029562Y1321540D01*
G37*
G36*
G01X859560Y1605302D02*
G01X859560Y1568276D01*
G01X849560Y1558276D01*
G01X819070Y1558276D01*
G01X809070Y1548276D01*
G01X809070Y1509526D01*
G01X819070Y1499526D01*
G01X849560Y1499526D01*
G01X859560Y1489526D01*
G01X859560Y1452500D01*
G01X849560Y1442500D01*
G01X721062Y1442500D01*
G01X711062Y1452500D01*
G01X711062Y1605302D01*
G01X721062Y1615302D01*
G01X849560Y1615302D01*
G01X859560Y1605302D01*
G37*
G36*
G01X1029562Y1605302D02*
G01X1039562Y1615302D01*
G01X1168061Y1615302D01*
G01X1178061Y1605302D01*
G01X1178061Y1452500D01*
G01X1168061Y1442500D01*
G01X1039562Y1442500D01*
G01X1029562Y1452500D01*
G01X1029562Y1489526D01*
G01X1039562Y1499526D01*
G01X1070052Y1499526D01*
G01X1080052Y1509526D01*
G01X1080052Y1548276D01*
G01X1070052Y1558276D01*
G01X1039562Y1558276D01*
G01X1029562Y1568276D01*
G01X1029562Y1605302D01*
G37*
G36*
G01X-164600Y1239203D02*
G01X-292598Y1239203D01*
G01X-297599Y1244204D01*
G01X-297599Y1359205D01*
G01X-292598Y1364204D01*
G01X-251595Y1364706D01*
G01X-251595Y1319705D01*
G01X-206596Y1319705D01*
G01X-206596Y1363706D01*
G01X-164600Y1364204D01*
G01X-159598Y1359205D01*
G01X-159598Y1244204D01*
G01X-164600Y1239203D01*
G37*
G36*
G01X-292600Y1580198D02*
G01X-164602Y1580198D01*
G01X-159601Y1575196D01*
G01X-159601Y1460195D01*
G01X-164602Y1455196D01*
G01X-205605Y1454694D01*
G01X-205605Y1499695D01*
G01X-250604Y1499695D01*
G01X-250604Y1455694D01*
G01X-292600Y1455196D01*
G01X-297602Y1460195D01*
G01X-297602Y1575196D01*
G01X-292600Y1580198D01*
G37*
G36*
G01X-520461Y1538298D02*
G01X-520461Y1510647D01*
G01X-547881Y1481272D01*
G01X-598208Y1481272D01*
G01X-604609Y1487673D01*
G01X-604609Y1561272D01*
G01X-598208Y1567673D01*
G01X-547881Y1567673D01*
G01X-520461Y1538298D01*
G37*
G36*
G01X-468897Y1539423D02*
G01X-441477Y1568798D01*
G01X-391150Y1568798D01*
G01X-384749Y1562397D01*
G01X-384749Y1488798D01*
G01X-391150Y1482397D01*
G01X-441477Y1482397D01*
G01X-468897Y1511772D01*
G01X-468897Y1539423D01*
G37*
G36*
G01X88994Y110012D02*
G01X60993Y110012D01*
G01X60993Y190012D01*
G01X88994Y190012D01*
G01X88994Y110012D01*
G37*
G36*
G01X-61018Y110012D02*
G01X-89019Y110012D01*
G01X-89019Y190012D01*
G01X-61018Y190012D01*
G01X-61018Y110012D01*
G37*
G36*
G01X10980Y190012D02*
G01X38981Y190012D01*
G01X38981Y110012D01*
G01X10980Y110012D01*
G01X10980Y190012D01*
G37*
G36*
G01X-39007Y190012D02*
G01X-11006Y190012D01*
G01X-11006Y110012D01*
G01X-39007Y110012D01*
G01X-39007Y190012D01*
G37*
G36*
G01X-190012Y89019D02*
G01X-110012Y89019D01*
G01X-110012Y61018D01*
G01X-190012Y61018D01*
G01X-190012Y89019D01*
G37*
G36*
G01X189987Y61018D02*
G01X109987Y61018D01*
G01X109987Y89019D01*
G01X189987Y89019D01*
G01X189987Y61018D01*
G37*
G36*
G01X-75000Y75000D02*
G01X75000Y75000D01*
G01X75000Y-75000D01*
G01X-75000Y-75000D01*
G01X-75000Y75000D01*
G37*
G36*
G01X-190012Y39007D02*
G01X-110012Y39007D01*
G01X-110012Y11006D01*
G01X-190012Y11006D01*
G01X-190012Y39007D01*
G37*
G36*
G01X189987Y11006D02*
G01X109987Y11006D01*
G01X109987Y39007D01*
G01X189987Y39007D01*
G01X189987Y11006D01*
G37*
G36*
G01X-190012Y-10980D02*
G01X-110012Y-10980D01*
G01X-110012Y-38981D01*
G01X-190012Y-38981D01*
G01X-190012Y-10980D01*
G37*
G36*
G01X189987Y-38981D02*
G01X109987Y-38981D01*
G01X109987Y-10980D01*
G01X189987Y-10980D01*
G01X189987Y-38981D01*
G37*
G36*
G01X-190012Y-60993D02*
G01X-110012Y-60993D01*
G01X-110012Y-88994D01*
G01X-190012Y-88994D01*
G01X-190012Y-60993D01*
G37*
G36*
G01X189987Y-88994D02*
G01X109987Y-88994D01*
G01X109987Y-60993D01*
G01X189987Y-60993D01*
G01X189987Y-88994D01*
G37*
G36*
G01X88994Y-189987D02*
G01X60993Y-189987D01*
G01X60993Y-109987D01*
G01X88994Y-109987D01*
G01X88994Y-189987D01*
G37*
G36*
G01X-89019Y-109987D02*
G01X-61018Y-109987D01*
G01X-61018Y-189987D01*
G01X-89019Y-189987D01*
G01X-89019Y-109987D01*
G37*
G36*
G01X38981Y-189987D02*
G01X10980Y-189987D01*
G01X10980Y-109987D01*
G01X38981Y-109987D01*
G01X38981Y-189987D01*
G37*
G36*
G01X-11006Y-189987D02*
G01X-39007Y-189987D01*
G01X-39007Y-109987D01*
G01X-11006Y-109987D01*
G01X-11006Y-189987D01*
G37*
G36*
G01X1692744Y-683400D02*
G01X1692744Y-637400D01*
G01X1696744Y-633400D01*
G01X1746808Y-633400D01*
G01X1750808Y-637400D01*
G01X1750808Y-683400D01*
G01X1746808Y-687400D01*
G01X1696744Y-687400D01*
G01X1692744Y-683400D01*
G37*
G36*
G01X1665743Y-683400D02*
G01X1661743Y-687400D01*
G01X1611680Y-687400D01*
G01X1607679Y-683400D01*
G01X1607679Y-637400D01*
G01X1611680Y-633400D01*
G01X1661743Y-633400D01*
G01X1665743Y-637400D01*
G01X1665743Y-683400D01*
G37*
G36*
G01X1665743Y-510400D02*
G01X1665743Y-556400D01*
G01X1661743Y-560400D01*
G01X1611680Y-560400D01*
G01X1607679Y-556400D01*
G01X1607679Y-510400D01*
G01X1611680Y-506400D01*
G01X1661743Y-506400D01*
G01X1665743Y-510400D01*
G37*
G36*
G01X1692744Y-510400D02*
G01X1696744Y-506400D01*
G01X1746808Y-506400D01*
G01X1750808Y-510400D01*
G01X1750808Y-556400D01*
G01X1746808Y-560400D01*
G01X1696744Y-560400D01*
G01X1692744Y-556400D01*
G01X1692744Y-510400D01*
G37*
G36*
G01X1764500Y-78600D02*
G01X1764500Y-124600D01*
G01X1760499Y-128600D01*
G01X1710436Y-128600D01*
G01X1706436Y-124600D01*
G01X1706436Y-78600D01*
G01X1710436Y-74600D01*
G01X1760499Y-74600D01*
G01X1764500Y-78600D01*
G37*
G36*
G01X1791500Y-78600D02*
G01X1795501Y-74600D01*
G01X1845564Y-74600D01*
G01X1849565Y-78600D01*
G01X1849565Y-124600D01*
G01X1845564Y-128600D01*
G01X1795501Y-128600D01*
G01X1791500Y-124600D01*
G01X1791500Y-78600D01*
G37*
G36*
G01X1967700Y-78600D02*
G01X1967700Y-124600D01*
G01X1963699Y-128600D01*
G01X1913636Y-128600D01*
G01X1909636Y-124600D01*
G01X1909636Y-78600D01*
G01X1913636Y-74600D01*
G01X1963699Y-74600D01*
G01X1967700Y-78600D01*
G37*
G36*
G01X1994700Y-78600D02*
G01X1998701Y-74600D01*
G01X2048764Y-74600D01*
G01X2052765Y-78600D01*
G01X2052765Y-124600D01*
G01X2048764Y-128600D01*
G01X1998701Y-128600D01*
G01X1994700Y-124600D01*
G01X1994700Y-78600D01*
G37*
G36*
G01X699300Y709298D02*
G01X699300Y755297D01*
G01X703301Y759297D01*
G01X753364Y759297D01*
G01X757365Y755297D01*
G01X757365Y709298D01*
G01X753364Y705297D01*
G01X703301Y705297D01*
G01X699300Y709298D01*
G37*
G36*
G01X672300Y709298D02*
G01X668299Y705297D01*
G01X618236Y705297D01*
G01X614236Y709298D01*
G01X614236Y755297D01*
G01X618236Y759297D01*
G01X668299Y759297D01*
G01X672300Y755297D01*
G01X672300Y709298D01*
G37*
G36*
G01X672300Y632600D02*
G01X672300Y586600D01*
G01X668299Y582600D01*
G01X618236Y582600D01*
G01X614236Y586600D01*
G01X614236Y632600D01*
G01X618236Y636600D01*
G01X668299Y636600D01*
G01X672300Y632600D01*
G37*
G36*
G01X699300Y632600D02*
G01X703301Y636600D01*
G01X753364Y636600D01*
G01X757365Y632600D01*
G01X757365Y586600D01*
G01X753364Y582600D01*
G01X703301Y582600D01*
G01X699300Y586600D01*
G01X699300Y632600D01*
G37*
G36*
G01X699300Y954900D02*
G01X699300Y1000900D01*
G01X703301Y1004900D01*
G01X753364Y1004900D01*
G01X757365Y1000900D01*
G01X757365Y954900D01*
G01X753364Y950900D01*
G01X703301Y950900D01*
G01X699300Y954900D01*
G37*
G36*
G01X672300Y954900D02*
G01X668299Y950900D01*
G01X618236Y950900D01*
G01X614236Y954900D01*
G01X614236Y1000900D01*
G01X618236Y1004900D01*
G01X668299Y1004900D01*
G01X672300Y1000900D01*
G01X672300Y954900D01*
G37*
G36*
G01X1127519Y481800D02*
G01X1173518Y481800D01*
G01X1177519Y477799D01*
G01X1177519Y427736D01*
G01X1173518Y423736D01*
G01X1127519Y423736D01*
G01X1123518Y427736D01*
G01X1123518Y477799D01*
G01X1127519Y481800D01*
G37*
G36*
G01X1127519Y508800D02*
G01X1123518Y512801D01*
G01X1123518Y562864D01*
G01X1127519Y566865D01*
G01X1173518Y566865D01*
G01X1177519Y562864D01*
G01X1177519Y512801D01*
G01X1173518Y508800D01*
G01X1127519Y508800D01*
G37*
G36*
G01X1051700Y508800D02*
G01X1005700Y508800D01*
G01X1001700Y512801D01*
G01X1001700Y562864D01*
G01X1005700Y566865D01*
G01X1051700Y566865D01*
G01X1055700Y562864D01*
G01X1055700Y512801D01*
G01X1051700Y508800D01*
G37*
G36*
G01X1051700Y481800D02*
G01X1055700Y477799D01*
G01X1055700Y427736D01*
G01X1051700Y423736D01*
G01X1005700Y423736D01*
G01X1001700Y427736D01*
G01X1001700Y477799D01*
G01X1005700Y481800D01*
G01X1051700Y481800D01*
G37*
G36*
G01X61100Y1080300D02*
G01X15100Y1080300D01*
G01X11100Y1084301D01*
G01X11100Y1134364D01*
G01X15100Y1138365D01*
G01X61100Y1138365D01*
G01X65100Y1134364D01*
G01X65100Y1084301D01*
G01X61100Y1080300D01*
G37*
G36*
G01X61100Y1053300D02*
G01X65100Y1049299D01*
G01X65100Y999236D01*
G01X61100Y995236D01*
G01X15100Y995236D01*
G01X11100Y999236D01*
G01X11100Y1049299D01*
G01X15100Y1053300D01*
G01X61100Y1053300D01*
G37*
G36*
G01X-65900Y1080300D02*
G01X-111900Y1080300D01*
G01X-115900Y1084301D01*
G01X-115900Y1134364D01*
G01X-111900Y1138365D01*
G01X-65900Y1138365D01*
G01X-61900Y1134364D01*
G01X-61900Y1084301D01*
G01X-65900Y1080300D01*
G37*
G36*
G01X-65900Y1053300D02*
G01X-61900Y1049299D01*
G01X-61900Y999236D01*
G01X-65900Y995236D01*
G01X-111900Y995236D01*
G01X-115900Y999236D01*
G01X-115900Y1049299D01*
G01X-111900Y1053300D01*
G01X-65900Y1053300D01*
G37*
G36*
G01X383400Y1332700D02*
G01X429400Y1332700D01*
G01X433400Y1328699D01*
G01X433400Y1278636D01*
G01X429400Y1274636D01*
G01X383400Y1274636D01*
G01X379400Y1278636D01*
G01X379400Y1328699D01*
G01X383400Y1332700D01*
G37*
G36*
G01X383400Y1359700D02*
G01X379400Y1363701D01*
G01X379400Y1413764D01*
G01X383400Y1417765D01*
G01X429400Y1417765D01*
G01X433400Y1413764D01*
G01X433400Y1363701D01*
G01X429400Y1359700D01*
G01X383400Y1359700D01*
G37*
G36*
G01X337972Y-121899D02*
G01X383972Y-121899D01*
G01X387972Y-125899D01*
G01X387972Y-175963D01*
G01X383972Y-179963D01*
G01X337972Y-179963D01*
G01X333972Y-175963D01*
G01X333972Y-125899D01*
G01X337972Y-121899D01*
G37*
G36*
G01X337972Y-94898D02*
G01X333972Y-90898D01*
G01X333972Y-40835D01*
G01X337972Y-36834D01*
G01X383972Y-36834D01*
G01X387972Y-40835D01*
G01X387972Y-90898D01*
G01X383972Y-94898D01*
G01X337972Y-94898D01*
G37*
G36*
G01X-38900Y404000D02*
G01X-38900Y358000D01*
G01X-42901Y354000D01*
G01X-92964Y354000D01*
G01X-96964Y358000D01*
G01X-96964Y404000D01*
G01X-92964Y408000D01*
G01X-42901Y408000D01*
G01X-38900Y404000D01*
G37*
G36*
G01X-11900Y404000D02*
G01X-7899Y408000D01*
G01X42164Y408000D01*
G01X46165Y404000D01*
G01X46165Y358000D01*
G01X42164Y354000D01*
G01X-7899Y354000D01*
G01X-11900Y358000D01*
G01X-11900Y404000D01*
G37*
G36*
G01X494500Y365900D02*
G01X494500Y319900D01*
G01X490499Y315900D01*
G01X440436Y315900D01*
G01X436436Y319900D01*
G01X436436Y365900D01*
G01X440436Y369900D01*
G01X490499Y369900D01*
G01X494500Y365900D01*
G37*
G36*
G01X521500Y365900D02*
G01X525501Y369900D01*
G01X575564Y369900D01*
G01X579565Y365900D01*
G01X579565Y319900D01*
G01X575564Y315900D01*
G01X525501Y315900D01*
G01X521500Y319900D01*
G01X521500Y365900D01*
G37*
G36*
G01X293251Y-1382900D02*
G01X329382Y-1382900D01*
G01X339382Y-1392900D01*
G01X339382Y-1413957D01*
G01X349382Y-1423957D01*
G01X387218Y-1423957D01*
G01X397218Y-1413957D01*
G01X397218Y-1392900D01*
G01X407218Y-1382900D01*
G01X443349Y-1382900D01*
G01X453349Y-1392900D01*
G01X453349Y-1493652D01*
G01X443349Y-1503652D01*
G01X293251Y-1503652D01*
G01X283251Y-1493652D01*
G01X283251Y-1392900D01*
G01X293251Y-1382900D01*
G37*
G36*
G01X293251Y-1207900D02*
G01X283251Y-1197900D01*
G01X283251Y-1097148D01*
G01X293251Y-1087148D01*
G01X443349Y-1087148D01*
G01X453349Y-1097148D01*
G01X453349Y-1197900D01*
G01X443349Y-1207900D01*
G01X407218Y-1207900D01*
G01X397218Y-1197900D01*
G01X397218Y-1176843D01*
G01X387218Y-1166843D01*
G01X349382Y-1166843D01*
G01X339382Y-1176843D01*
G01X339382Y-1197900D01*
G01X329382Y-1207900D01*
G01X293251Y-1207900D01*
G37*
G36*
G01X-1385100Y-332600D02*
G01X-1385100Y-378600D01*
G01X-1389101Y-382600D01*
G01X-1439164Y-382600D01*
G01X-1443164Y-378600D01*
G01X-1443164Y-332600D01*
G01X-1439164Y-328600D01*
G01X-1389101Y-328600D01*
G01X-1385100Y-332600D01*
G37*
G36*
G01X-1358100Y-332600D02*
G01X-1354099Y-328600D01*
G01X-1304036Y-328600D01*
G01X-1300035Y-332600D01*
G01X-1300035Y-378600D01*
G01X-1304036Y-382600D01*
G01X-1354099Y-382600D01*
G01X-1358100Y-378600D01*
G01X-1358100Y-332600D01*
G37*
G36*
G01X-557649Y-1382900D02*
G01X-521518Y-1382900D01*
G01X-511518Y-1392900D01*
G01X-511518Y-1413957D01*
G01X-501518Y-1423957D01*
G01X-463682Y-1423957D01*
G01X-453682Y-1413957D01*
G01X-453682Y-1392900D01*
G01X-443682Y-1382900D01*
G01X-407551Y-1382900D01*
G01X-397551Y-1392900D01*
G01X-397551Y-1493652D01*
G01X-407551Y-1503652D01*
G01X-557649Y-1503652D01*
G01X-567649Y-1493652D01*
G01X-567649Y-1392900D01*
G01X-557649Y-1382900D01*
G37*
G36*
G01X-557649Y-1207900D02*
G01X-567649Y-1197900D01*
G01X-567649Y-1097148D01*
G01X-557649Y-1087148D01*
G01X-407551Y-1087148D01*
G01X-397551Y-1097148D01*
G01X-397551Y-1197900D01*
G01X-407551Y-1207900D01*
G01X-443682Y-1207900D01*
G01X-453682Y-1197900D01*
G01X-453682Y-1176843D01*
G01X-463682Y-1166843D01*
G01X-501518Y-1166843D01*
G01X-511518Y-1176843D01*
G01X-511518Y-1197900D01*
G01X-521518Y-1207900D01*
G01X-557649Y-1207900D01*
G37*
G36*
G01X2042701Y-971400D02*
G01X1973600Y-971400D01*
G01X1963600Y-961400D01*
G01X1963600Y-925810D01*
G01X1953600Y-915810D01*
G01X1881800Y-915810D01*
G01X1871800Y-925810D01*
G01X1871800Y-961400D01*
G01X1861800Y-971400D01*
G01X1792699Y-971400D01*
G01X1782699Y-961400D01*
G01X1782699Y-817900D01*
G01X1792699Y-807900D01*
G01X2042701Y-807900D01*
G01X2052701Y-817900D01*
G01X2052701Y-961400D01*
G01X2042701Y-971400D01*
G37*
G36*
G01X2042701Y-1111400D02*
G01X2052701Y-1121400D01*
G01X2052701Y-1264900D01*
G01X2042701Y-1274900D01*
G01X1792699Y-1274900D01*
G01X1782699Y-1264900D01*
G01X1782699Y-1121400D01*
G01X1792699Y-1111400D01*
G01X1861800Y-1111400D01*
G01X1871800Y-1121400D01*
G01X1871800Y-1156990D01*
G01X1881800Y-1166990D01*
G01X1953600Y-1166990D01*
G01X1963600Y-1156990D01*
G01X1963600Y-1121400D01*
G01X1973600Y-1111400D01*
G01X2042701Y-1111400D01*
G37*

G04 Pad Start*
G54D10*
G01X2082089Y-643001D03*
G54D11*
G01X2132101Y-605511D03*
G54D10*
G01X2262099Y-643001D03*
G01X2312111Y-643001D03*
G54D12*
G01X2347112Y-372999D03*
G54D10*
G01X2297100Y-372999D03*
G01X2247113Y-372999D03*
G01X2132101Y-372999D03*
G01X2082089Y-372999D03*
G54D13*
G01X1962099Y-458013D03*
G01X1962099Y-508000D03*
G01X1962099Y-558013D03*
G54D14*
G01X2267102Y-508000D03*
G54D15*
G01X1967099Y-643002D03*
G54D16*
G01X1967100Y-373000D03*
G54D17*
G01X2432098Y-532999D03*
G54D19*
G01X2427100Y-373000D03*
G54D20*
G01X2427100Y-643010D03*
G54D21*
G01X1166393Y831088D03*
G01X1166393Y896112D03*
G54D22*
G01X1106399Y988593D03*
G01X1041400Y988593D03*
G01X976401Y988593D03*
G54D21*
G01X916407Y896112D03*
G01X916407Y831088D03*
G54D22*
G01X976401Y738607D03*
G01X1041400Y738607D03*
G01X1106399Y738607D03*
G54D23*
G01X152400Y1409700D03*
G54D24*
G01X293649Y1507185D03*
G01X293649Y1442212D03*
G01X293649Y1377188D03*
G01X293649Y1312215D03*
G01X11151Y1312215D03*
G01X11151Y1377188D03*
G01X11151Y1442212D03*
G01X11151Y1507185D03*
G54D25*
G01X1790700Y592900D03*
G01X1790700Y92901D03*
G54D26*
G01X2142388Y-800100D03*
G01X2226412Y-800100D03*
G01X1939188Y-215900D03*
G01X2023212Y-215900D03*
G01X1745875Y-215900D03*
G01X1829899Y-215900D03*
G01X2213712Y-215900D03*
G01X2129688Y-215900D03*
G54D27*
G01X-279400Y84988D03*
G01X-279400Y169012D03*
G01X-279400Y-34188D03*
G01X-279400Y-118212D03*
G01X1333500Y981812D03*
G01X1333500Y897788D03*
G54D26*
G01X643788Y855099D03*
G01X727812Y855099D03*
G54D27*
G01X406400Y1591412D03*
G01X406400Y1507388D03*
G01X1460500Y897788D03*
G01X1460500Y981812D03*
G54D28*
G01X1572412Y-381000D03*
G01X1780388Y-381000D03*
G54D26*
G01X-1248512Y12700D03*
G01X-1164488Y12700D03*
G01X-1329588Y-241300D03*
G01X-1413612Y-241300D03*
G01X669188Y342900D03*
G01X753212Y342900D03*
G01X550012Y469900D03*
G01X465988Y469900D03*
G54D29*
G01X-1104901Y-1353254D03*
G01X-977901Y-1353254D03*
G01X-850901Y-1353254D03*
G01X-723901Y-1353254D03*
G54D30*
G01X-914401Y-1728254D03*
G54D29*
G01X-1130301Y-629354D03*
G01X-1003301Y-629354D03*
G01X-876301Y-629354D03*
G01X-749301Y-629354D03*
G54D30*
G01X-939801Y-1004354D03*
G54D29*
G01X-254001Y-1353254D03*
G01X-127001Y-1353254D03*
G01X-1Y-1353254D03*
G01X126999Y-1353254D03*
G54D30*
G01X-63501Y-1728254D03*
G54D29*
G01X-254001Y-642054D03*
G01X-127001Y-642054D03*
G01X-1Y-642054D03*
G01X126999Y-642054D03*
G54D30*
G01X-63501Y-1017054D03*
G54D29*
G01X596899Y-1353254D03*
G01X723899Y-1353254D03*
G01X850899Y-1353254D03*
G01X977899Y-1353254D03*
G54D30*
G01X787399Y-1728254D03*
G54D29*
G01X596899Y-642054D03*
G01X723899Y-642054D03*
G01X850899Y-642054D03*
G01X977899Y-642054D03*
G54D30*
G01X787399Y-1017054D03*
G54D31*
G01X-583590Y-313411D03*
G01X-583590Y-248387D03*
G01X-583590Y-183388D03*
G01X-583590Y-118389D03*
G01X-1169010Y-313411D03*
G01X-1169010Y-248387D03*
G01X-1169010Y-183388D03*
G01X-1169010Y-118389D03*
G54D32*
G01X524789Y-394310D03*
G01X589813Y-394310D03*
G01X654812Y-394310D03*
G01X719811Y-394310D03*
G01X524789Y191110D03*
G01X589813Y191110D03*
G01X654812Y191110D03*
G01X719811Y191110D03*
G04 Pad End*

M02*

