G04 Layer: TopSilkscreenLayer*
G04 EasyEDA Pro v3.2.69, 2026-02-24 21:35:43*
G04 Gerber Generator version 0.3*
G04 Scale: 100 percent, Rotated: No, Reflected: No*
G04 Dimensions in millimeters*
G04 Leading zeros omitted, absolute positions, 4 integers and 5 decimals*
G04 Generated by one-click*
%FSLAX45Y45*%
%MOMM*%
%ADD10C,0.1016*%
%ADD11C,0.1524*%
%ADD12C,0.15199*%
%ADD13C,0.254*%
%ADD14C,0.15001*%
%ADD15C,0.2032*%
%ADD16C,0.2*%
G75*


G04 Image Start*
G36*
G01X-1514604Y-989350D02*
G01X-1515334Y-1015853D01*
G01X-1516001Y-1015907D01*
G01X-1517570Y-1014952D01*
G01X-1520062Y-1013557D01*
G01X-1520592Y-1013257D01*
G01X-1522494Y-1011845D01*
G01X-1527539Y-1008652D01*
G01X-1529662Y-1007550D01*
G01X-1530203Y-1007250D01*
G01X-1532246Y-1005748D01*
G01X-1537303Y-1002637D01*
G01X-1539373Y-1001543D01*
G01X-1539881Y-1001226D01*
G01X-1541616Y-999951D01*
G01X-1545900Y-997265D01*
G01X-1548970Y-995536D01*
G01X-1549492Y-995204D01*
G01X-1552558Y-993102D01*
G01X-1556563Y-990635D01*
G01X-1558236Y-989653D01*
G01X-1560439Y-988306D01*
G01X-1568193Y-983522D01*
G01X-1568715Y-983190D01*
G01X-1575573Y-978798D01*
G01X-1577529Y-977596D01*
G01X-1582455Y-974512D01*
G01X-1592067Y-968505D01*
G01X-1596874Y-965502D01*
G01X-1603161Y-961587D01*
G01X-1613901Y-954902D01*
G01X-1623913Y-948677D01*
G01X-1635126Y-941630D01*
G01X-1642535Y-937046D01*
G01X-1646632Y-934559D01*
G01X-1661124Y-925453D01*
G01X-1665676Y-922650D01*
G01X-1677409Y-915330D01*
G01X-1687801Y-908922D01*
G01X-1695071Y-904331D01*
G01X-1696577Y-903429D01*
G01X-1697916Y-902673D01*
G01X-1714620Y-892235D01*
G01X-1726834Y-884665D01*
G01X-1728501Y-883611D01*
G01X-1737835Y-877800D01*
G01X-1743307Y-874432D01*
G01X-1752965Y-868425D01*
G01X-1767406Y-859437D01*
G01X-1772812Y-856079D01*
G01X-1774490Y-855107D01*
G01X-1775291Y-854590D01*
G01X-1778423Y-852558D01*
G01X-1782275Y-850168D01*
G01X-1793503Y-843236D01*
G01X-1801922Y-837936D01*
G01X-1803925Y-836716D01*
G01X-1815538Y-829482D01*
G01X-1822471Y-825164D01*
G01X-1826724Y-822536D01*
G01X-1832532Y-818931D01*
G01X-1843395Y-812195D01*
G01X-1847541Y-809592D01*
G01X-1848983Y-808519D01*
G01X-1849426Y-807858D01*
G01X-1848780Y-806917D01*
G01X-1840450Y-793617D01*
G01X-1826719Y-770919D01*
G01X-1824436Y-767590D01*
G01X-1823548Y-766990D01*
G01X-1814424Y-772509D01*
G01X-1783301Y-792232D01*
G01X-1759559Y-806590D01*
G01X-1751180Y-810978D01*
G01X-1744223Y-813802D01*
G01X-1738008Y-815283D01*
G01X-1731856Y-815644D01*
G01X-1725087Y-815107D01*
G01X-1717023Y-813893D01*
G01X-1686787Y-807742D01*
G01X-1677376Y-805491D01*
G01X-1667765Y-803144D01*
G01X-1655751Y-799985D01*
G01X-1651746Y-798904D01*
G01X-1647140Y-797701D01*
G01X-1642135Y-796353D01*
G01X-1636128Y-794661D01*
G01X-1632724Y-793667D01*
G01X-1630120Y-792952D01*
G01X-1624970Y-791654D01*
G01X-1623447Y-790950D01*
G01X-1622489Y-789990D01*
G01X-1621994Y-788609D01*
G01X-1621859Y-786641D01*
G01X-1622260Y-780286D01*
G01X-1622505Y-775988D01*
G01X-1612532Y-775988D01*
G01X-1612434Y-777271D01*
G01X-1611833Y-778359D01*
G01X-1610762Y-779250D01*
G01X-1609255Y-779942D01*
G01X-1609255Y-779942D01*
G01X-1605069Y-780716D01*
G01X-1599550Y-780662D01*
G01X-1592968Y-779760D01*
G01X-1585597Y-777988D01*
G01X-1577708Y-775328D01*
G01X-1573416Y-773519D01*
G01X-1570983Y-771817D01*
G01X-1569756Y-769506D01*
G01X-1569083Y-765870D01*
G01X-1569042Y-763863D01*
G01X-1569535Y-762199D01*
G01X-1570599Y-760862D01*
G01X-1572270Y-759837D01*
G01X-1574584Y-759107D01*
G01X-1577577Y-758657D01*
G01X-1585749Y-758530D01*
G01X-1588614Y-758961D01*
G01X-1591943Y-759994D01*
G01X-1599237Y-763438D01*
G01X-1606120Y-768008D01*
G01X-1608935Y-770449D01*
G01X-1611080Y-772850D01*
G01X-1612092Y-774514D01*
G01X-1612532Y-775988D01*
G01X-1622505Y-775988D01*
G01X-1622554Y-775133D01*
G01X-1621886Y-773253D01*
G01X-1620104Y-771382D01*
G01X-1616780Y-769180D01*
G01X-1611486Y-766304D01*
G01X-1593277Y-757170D01*
G01X-1571811Y-746419D01*
G01X-1561375Y-740911D01*
G01X-1558996Y-739362D01*
G01X-1557819Y-738211D01*
G01X-1556992Y-735885D01*
G01X-1556682Y-734199D01*
G01X-1556861Y-732712D01*
G01X-1557630Y-731349D01*
G01X-1559094Y-730038D01*
G01X-1564516Y-727279D01*
G01X-1573953Y-723850D01*
G01X-1584112Y-720764D01*
G01X-1593391Y-718804D01*
G01X-1602227Y-718025D01*
G01X-1611060Y-718480D01*
G01X-1620329Y-720221D01*
G01X-1630475Y-723301D01*
G01X-1641935Y-727776D01*
G01X-1655150Y-733696D01*
G01X-1658694Y-734926D01*
G01X-1662693Y-734637D01*
G01X-1696599Y-730219D01*
G01X-1713468Y-728443D01*
G01X-1724019Y-727765D01*
G01X-1731415Y-727493D01*
G01X-1733229Y-725831D01*
G01X-1736824Y-722593D01*
G01X-1741229Y-718665D01*
G01X-1751063Y-710357D01*
G01X-1759708Y-703589D01*
G01X-1764192Y-700451D01*
G01X-1750177Y-700451D01*
G01X-1748913Y-702322D01*
G01X-1743754Y-707590D01*
G01X-1737102Y-713059D01*
G01X-1733972Y-715181D01*
G01X-1731377Y-716528D01*
G01X-1722538Y-717741D01*
G01X-1700403Y-719625D01*
G01X-1668434Y-721512D01*
G01X-1668434Y-721512D01*
G01X-1658824Y-721575D01*
G01X-1654348Y-721024D01*
G01X-1648522Y-717644D01*
G01X-1644269Y-714316D01*
G01X-1641596Y-711103D01*
G01X-1640509Y-708067D01*
G01X-1640562Y-706636D01*
G01X-1641014Y-705272D01*
G01X-1643118Y-702779D01*
G01X-1646827Y-700652D01*
G01X-1652146Y-698953D01*
G01X-1656552Y-697900D01*
G01X-1667164Y-698562D01*
G01X-1678778Y-699399D01*
G01X-1685586Y-699997D01*
G01X-1694973Y-701064D01*
G01X-1698741Y-701505D01*
G01X-1702982Y-701441D01*
G01X-1717110Y-700208D01*
G01X-1728036Y-698734D01*
G01X-1733442Y-697725D01*
G01X-1742102Y-698358D01*
G01X-1750160Y-699453D01*
G01X-1750177Y-700451D01*
G01X-1764192Y-700451D01*
G01X-1766186Y-699055D01*
G01X-1772998Y-694893D01*
G01X-1777032Y-692785D01*
G01X-1777888Y-692412D01*
G01X-1778108Y-691407D01*
G01X-1777705Y-689940D01*
G01X-1776690Y-688179D01*
G01X-1770934Y-678689D01*
G01X-1753252Y-678689D01*
G01X-1753077Y-679950D01*
G01X-1751994Y-681328D01*
G01X-1749840Y-683165D01*
G01X-1746719Y-685070D01*
G01X-1743405Y-686149D01*
G01X-1743405Y-686149D01*
G01X-1740143Y-686467D01*
G01X-1737179Y-686085D01*
G01X-1734758Y-685069D01*
G01X-1733770Y-684109D01*
G01X-1718164Y-684109D01*
G01X-1717816Y-685964D01*
G01X-1716484Y-688105D01*
G01X-1714543Y-690307D01*
G01X-1712434Y-691996D01*
G01X-1710133Y-693178D01*
G01X-1710133Y-693178D01*
G01X-1707612Y-693857D01*
G01X-1704847Y-694037D01*
G01X-1701811Y-693721D01*
G01X-1694823Y-691623D01*
G01X-1687814Y-688274D01*
G01X-1685461Y-686582D01*
G01X-1683809Y-684783D01*
G01X-1682808Y-682804D01*
G01X-1682406Y-680575D01*
G01X-1682554Y-678023D01*
G01X-1683200Y-675077D01*
G01X-1683896Y-673411D01*
G01X-1684951Y-672035D01*
G01X-1686326Y-670944D01*
G01X-1687984Y-670131D01*
G01X-1691989Y-669317D01*
G01X-1696658Y-669547D01*
G01X-1701683Y-670775D01*
G01X-1706754Y-672954D01*
G01X-1711562Y-676038D01*
G01X-1715799Y-679980D01*
G01X-1717500Y-682220D01*
G01X-1718164Y-684109D01*
G01X-1733770Y-684109D01*
G01X-1733125Y-683482D01*
G01X-1732524Y-681387D01*
G01X-1733201Y-678848D01*
G01X-1734476Y-677658D01*
G01X-1736757Y-676692D01*
G01X-1742988Y-675547D01*
G01X-1749196Y-675640D01*
G01X-1751448Y-676223D01*
G01X-1752682Y-677200D01*
G01X-1753252Y-678689D01*
G01X-1770934Y-678689D01*
G01X-1766489Y-671360D01*
G01X-1756538Y-654851D01*
G01X-1739576Y-654851D01*
G01X-1739429Y-658981D01*
G01X-1738347Y-663205D01*
G01X-1736501Y-666365D01*
G01X-1733771Y-668140D01*
G01X-1730059Y-669118D01*
G01X-1730059Y-669118D01*
G01X-1725705Y-669353D01*
G01X-1721048Y-668903D01*
G01X-1716429Y-667824D01*
G01X-1712190Y-666172D01*
G01X-1708669Y-664002D01*
G01X-1706207Y-661371D01*
G01X-1705176Y-659290D01*
G01X-1704686Y-657240D01*
G01X-1704692Y-655327D01*
G01X-1705146Y-653657D01*
G01X-1706002Y-652338D01*
G01X-1707213Y-651475D01*
G01X-1708732Y-651176D01*
G01X-1710513Y-651547D01*
G01X-1716008Y-653785D01*
G01X-1719390Y-654632D01*
G01X-1723041Y-654570D01*
G01X-1726583Y-653652D01*
G01X-1729637Y-651928D01*
G01X-1732076Y-650537D01*
G01X-1734521Y-650082D01*
G01X-1736769Y-650562D01*
G01X-1738619Y-651975D01*
G01X-1739246Y-653184D01*
G01X-1739576Y-654851D01*
G01X-1756538Y-654851D01*
G01X-1755868Y-653739D01*
G01X-1752628Y-648398D01*
G01X-1749966Y-643993D01*
G01X-1749004Y-642326D01*
G01X-1748206Y-641101D01*
G01X-1746765Y-638855D01*
G01X-1738845Y-625633D01*
G01X-1733498Y-617666D01*
G01X-1732395Y-617903D01*
G01X-1730386Y-619061D01*
G01X-1723574Y-624192D01*
G01X-1697040Y-646449D01*
G01X-1685271Y-656786D01*
G01X-1677776Y-663765D01*
G01X-1670014Y-670791D01*
G01X-1661588Y-676841D01*
G01X-1652518Y-681906D01*
G01X-1642824Y-685981D01*
G01X-1632526Y-689058D01*
G01X-1621642Y-691130D01*
G01X-1610193Y-692191D01*
G01X-1598198Y-692232D01*
G01X-1592615Y-691954D01*
G01X-1591002Y-691686D01*
G01X-1590047Y-691218D01*
G01X-1589655Y-690460D01*
G01X-1589730Y-689328D01*
G01X-1590896Y-685587D01*
G01X-1591982Y-682518D01*
G01X-1592925Y-680763D01*
G01X-1594255Y-679657D01*
G01X-1596503Y-678531D01*
G01X-1601587Y-675909D01*
G01X-1606118Y-673099D01*
G01X-1610094Y-670114D01*
G01X-1613511Y-666966D01*
G01X-1616367Y-663667D01*
G01X-1618658Y-660231D01*
G01X-1620382Y-656668D01*
G01X-1621536Y-652993D01*
G01X-1622118Y-649217D01*
G01X-1622122Y-645770D01*
G01X-1608438Y-645770D01*
G01X-1607795Y-650048D01*
G01X-1606395Y-655141D01*
G01X-1605543Y-656907D01*
G01X-1604066Y-658903D01*
G01X-1599575Y-663299D01*
G01X-1593607Y-667752D01*
G01X-1586844Y-671682D01*
G01X-1584516Y-672602D01*
G01X-1581486Y-673172D01*
G01X-1570120Y-673639D01*
G01X-1570120Y-673639D01*
G01X-1560178Y-673763D01*
G01X-1558948Y-672390D01*
G01X-1557719Y-671016D01*
G01X-1558000Y-661177D01*
G01X-1558709Y-648440D01*
G01X-1559393Y-645417D01*
G01X-1560482Y-643289D01*
G01X-1563318Y-639886D01*
G01X-1567225Y-636438D01*
G01X-1571855Y-633218D01*
G01X-1576858Y-630499D01*
G01X-1580690Y-628696D01*
G01X-1582825Y-627991D01*
G01X-1585715Y-627482D01*
G01X-1592684Y-627052D01*
G01X-1599442Y-627417D01*
G01X-1602068Y-627901D01*
G01X-1603831Y-628587D01*
G01X-1604828Y-629714D01*
G01X-1605886Y-631723D01*
G01X-1607627Y-637120D01*
G01X-1608367Y-641673D01*
G01X-1608438Y-645770D01*
G01X-1622122Y-645770D01*
G01X-1622123Y-645353D01*
G01X-1621550Y-641413D01*
G01X-1620395Y-637410D01*
G01X-1618655Y-633356D01*
G01X-1616328Y-629264D01*
G01X-1613410Y-625146D01*
G01X-1609899Y-621014D01*
G01X-1607980Y-618868D01*
G01X-1607582Y-618079D01*
G01X-1607616Y-617294D01*
G01X-1609159Y-615192D01*
G01X-1612962Y-611460D01*
G01X-1628124Y-596824D01*
G01X-1606766Y-596824D01*
G01X-1605995Y-599390D01*
G01X-1604332Y-602038D01*
G01X-1601774Y-604777D01*
G01X-1598314Y-607612D01*
G01X-1593948Y-610549D01*
G01X-1588672Y-613594D01*
G01X-1582665Y-616892D01*
G01X-1576675Y-619880D01*
G01X-1576675Y-619880D01*
G01X-1571654Y-621556D01*
G01X-1567548Y-621887D01*
G01X-1565821Y-621538D01*
G01X-1564303Y-620840D01*
G01X-1562987Y-619790D01*
G01X-1561866Y-618382D01*
G01X-1560183Y-614481D01*
G01X-1559201Y-609103D01*
G01X-1558866Y-602215D01*
G01X-1558886Y-597280D01*
G01X-1559311Y-594554D01*
G01X-1560614Y-592815D01*
G01X-1563269Y-590840D01*
G01X-1566254Y-588838D01*
G01X-1569452Y-587842D01*
G01X-1575191Y-587502D01*
G01X-1585802Y-587471D01*
G01X-1596413Y-587489D01*
G01X-1601674Y-587881D01*
G01X-1603042Y-588384D01*
G01X-1603963Y-589180D01*
G01X-1605656Y-591918D01*
G01X-1606652Y-594336D01*
G01X-1606766Y-596824D01*
G01X-1628124Y-596824D01*
G01X-1634526Y-590644D01*
G01X-1666670Y-558756D01*
G01X-1646072Y-558756D01*
G01X-1645949Y-561541D01*
G01X-1645384Y-564324D01*
G01X-1643086Y-569708D01*
G01X-1639494Y-574567D01*
G01X-1634924Y-578558D01*
G01X-1629692Y-581337D01*
G01X-1629692Y-581337D01*
G01X-1626927Y-582165D01*
G01X-1624114Y-582563D01*
G01X-1621295Y-582486D01*
G01X-1618507Y-581892D01*
G01X-1613542Y-579956D01*
G01X-1609327Y-577534D01*
G01X-1605898Y-574686D01*
G01X-1603294Y-571469D01*
G01X-1601552Y-567943D01*
G01X-1600711Y-564167D01*
G01X-1600808Y-560199D01*
G01X-1601881Y-556099D01*
G01X-1602982Y-553649D01*
G01X-1604298Y-551614D01*
G01X-1605895Y-549960D01*
G01X-1607837Y-548652D01*
G01X-1610187Y-547656D01*
G01X-1613010Y-546937D01*
G01X-1620331Y-546196D01*
G01X-1631197Y-546063D01*
G01X-1635065Y-546365D01*
G01X-1638092Y-546974D01*
G01X-1640431Y-547931D01*
G01X-1642232Y-549283D01*
G01X-1643650Y-551074D01*
G01X-1644834Y-553348D01*
G01X-1645714Y-556010D01*
G01X-1646072Y-558756D01*
G01X-1666670Y-558756D01*
G01X-1667099Y-558330D01*
G01X-1680249Y-544670D01*
G01X-1685586Y-538516D01*
G01X-1680315Y-529044D01*
G01X-1653013Y-483942D01*
G01X-1648124Y-475933D01*
G01X-1636828Y-457311D01*
G01X-1625927Y-439290D01*
G01X-1622323Y-433283D01*
G01X-1617502Y-425274D01*
G01X-1605387Y-405251D01*
G01X-1595208Y-388431D01*
G01X-1591746Y-382684D01*
G01X-1588977Y-378078D01*
G01X-1587995Y-376417D01*
G01X-1586749Y-374415D01*
G01X-1585422Y-372212D01*
G01X-1584361Y-370358D01*
G01X-1575256Y-355421D01*
G01X-1566151Y-340456D01*
G01X-1565033Y-338573D01*
G01X-1561039Y-331833D01*
G01X-1557908Y-326641D01*
G01X-1556106Y-323673D01*
G01X-1546054Y-307054D01*
G01X-1536005Y-290518D01*
G01X-1532769Y-285176D01*
G01X-1530107Y-280771D01*
G01X-1529140Y-279104D01*
G01X-1527763Y-276902D01*
G01X-1506977Y-242155D01*
G01X-1506154Y-240804D01*
G01X-1505608Y-240666D01*
G01X-1505300Y-260608D01*
G01X-1505797Y-302532D01*
G01X-1506576Y-359998D01*
G01X-1507373Y-415463D01*
G01X-1507787Y-449903D01*
G01X-1508193Y-485744D01*
G01X-1508952Y-542610D01*
G01X-1509752Y-605283D01*
G01X-1511368Y-734633D01*
G01X-1512160Y-795704D01*
G01X-1513770Y-928859D01*
G01X-1514604Y-989350D01*
G37*
G36*
G01X-1901450Y-772258D02*
G01X-1903032Y-774012D01*
G01X-1903765Y-774166D01*
G01X-1904614Y-773917D01*
G01X-1907116Y-772454D01*
G01X-1911251Y-769951D01*
G01X-1912252Y-769274D01*
G01X-1913253Y-768590D01*
G01X-1930836Y-757660D01*
G01X-1940218Y-751853D01*
G01X-1943906Y-749560D01*
G01X-1965073Y-736420D01*
G01X-1968350Y-734378D01*
G01X-1972323Y-731874D01*
G01X-1975927Y-729595D01*
G01X-1984537Y-724300D01*
G01X-1986539Y-722988D01*
G01X-1990673Y-720384D01*
G01X-1994532Y-718014D01*
G01X-1999009Y-715241D01*
G01X-2005893Y-710914D01*
G01X-2010699Y-707958D01*
G01X-2015173Y-705199D01*
G01X-2020980Y-701545D01*
G01X-2031392Y-695057D01*
G01X-2043329Y-687620D01*
G01X-2048605Y-684375D01*
G01X-2053409Y-681372D01*
G01X-2058213Y-678368D01*
G01X-2065665Y-673763D01*
G01X-2077702Y-666279D01*
G01X-2086373Y-660873D01*
G01X-2093049Y-656743D01*
G01X-2107682Y-647671D01*
G01X-2114983Y-643107D01*
G01X-2118283Y-641125D01*
G01X-2121119Y-639323D01*
G01X-2123906Y-637521D01*
G01X-2125841Y-636319D01*
G01X-2128030Y-635118D01*
G01X-2128573Y-634810D01*
G01X-2132632Y-632107D01*
G01X-2137505Y-629111D01*
G01X-2148709Y-622176D01*
G01X-2151072Y-620601D01*
G01X-2153162Y-619500D01*
G01X-2153803Y-619193D01*
G01X-2156868Y-617090D01*
G01X-2160873Y-614598D01*
G01X-2162546Y-613621D01*
G01X-2165675Y-611614D01*
G01X-2168358Y-609889D01*
G01X-2170293Y-608687D01*
G01X-2172516Y-607486D01*
G01X-2172958Y-607112D01*
G01X-2173832Y-606462D01*
G01X-2176295Y-605033D01*
G01X-2178242Y-603882D01*
G01X-2179083Y-603457D01*
G01X-2188033Y-597880D01*
G01X-2188722Y-597274D01*
G01X-2189373Y-596673D01*
G01X-2191488Y-595580D01*
G01X-2195385Y-593207D01*
G01X-2196515Y-592391D01*
G01X-2197616Y-591868D01*
G01X-2198189Y-591567D01*
G01X-2200240Y-590066D01*
G01X-2203343Y-588168D01*
G01X-2204996Y-587189D01*
G01X-2206126Y-586384D01*
G01X-2207227Y-585861D01*
G01X-2207799Y-585468D01*
G01X-2208800Y-584824D01*
G01X-2209800Y-584573D01*
G01X-2208900Y-583870D01*
G01X-2206398Y-582307D01*
G01X-2204195Y-581075D01*
G01X-2189119Y-572216D01*
G01X-2183838Y-568956D01*
G01X-2183307Y-568641D01*
G01X-2176490Y-564841D01*
G01X-2172886Y-562730D01*
G01X-2169354Y-560644D01*
G01X-2156539Y-553217D01*
G01X-2154937Y-552266D01*
G01X-2153535Y-551383D01*
G01X-2146728Y-547422D01*
G01X-2135514Y-540889D01*
G01X-2128907Y-536999D01*
G01X-2125503Y-535004D01*
G01X-2121378Y-532545D01*
G01X-2119489Y-531397D01*
G01X-2107388Y-524333D01*
G01X-2105106Y-522988D01*
G01X-2098593Y-519234D01*
G01X-2086056Y-511885D01*
G01X-2068436Y-501578D01*
G01X-2055621Y-494066D01*
G01X-2038808Y-484180D01*
G01X-2032400Y-480433D01*
G01X-2029975Y-479031D01*
G01X-2022767Y-474819D01*
G01X-2016775Y-471321D01*
G01X-2000472Y-461716D01*
G01X-1990617Y-455973D01*
G01X-1975141Y-447026D01*
G01X-1973071Y-446310D01*
G01X-1972778Y-446556D01*
G01X-1972723Y-447077D01*
G01X-1964070Y-465659D01*
G01X-1960709Y-472727D01*
G01X-1957661Y-479197D01*
G01X-1945559Y-504614D01*
G01X-1942039Y-513541D01*
G01X-1939010Y-523618D01*
G01X-1936680Y-534444D01*
G01X-1934886Y-546941D01*
G01X-1933465Y-562033D01*
G01X-1931468Y-585060D01*
G01X-1930674Y-593469D01*
G01X-1929675Y-604883D01*
G01X-1928673Y-615896D01*
G01X-1928051Y-621811D01*
G01X-1926080Y-637921D01*
G01X-1924864Y-647132D01*
G01X-1923612Y-655341D01*
G01X-1921659Y-667612D01*
G01X-1920075Y-675164D01*
G01X-1919051Y-679475D01*
G01X-1917406Y-684356D01*
G01X-1915285Y-688795D01*
G01X-1914063Y-691599D01*
G01X-1912777Y-695579D01*
G01X-1910570Y-699880D01*
G01X-1907514Y-704417D01*
G01X-1903685Y-709105D01*
G01X-1899157Y-713863D01*
G01X-1894003Y-718604D01*
G01X-1888298Y-723247D01*
G01X-1882117Y-727706D01*
G01X-1878969Y-729929D01*
G01X-1877626Y-731485D01*
G01X-1877815Y-733138D01*
G01X-1879260Y-735653D01*
G01X-1898949Y-768172D01*
G01X-1901450Y-772258D01*
G37*
G36*
G01X-1728251Y-485355D02*
G01X-1729314Y-485832D01*
G01X-1729637Y-484404D01*
G01X-1732319Y-479621D01*
G01X-1735751Y-474504D01*
G01X-1739438Y-470326D01*
G01X-1751920Y-456483D01*
G01X-1766600Y-441266D01*
G01X-1780909Y-427264D01*
G01X-1792282Y-417065D01*
G01X-1795899Y-414061D01*
G01X-1801199Y-409817D01*
G01X-1808130Y-405091D01*
G01X-1814321Y-401312D01*
G01X-1819143Y-399061D01*
G01X-1823009Y-397390D01*
G01X-1823897Y-396490D01*
G01X-1824642Y-395155D01*
G01X-1828153Y-387424D01*
G01X-1830308Y-382546D01*
G01X-1833364Y-375817D01*
G01X-1836540Y-369018D01*
G01X-1837788Y-367207D01*
G01X-1837808Y-366942D01*
G01X-1836956Y-366198D01*
G01X-1833093Y-363565D01*
G01X-1819944Y-355775D01*
G01X-1811004Y-350523D01*
G01X-1803827Y-346382D01*
G01X-1802955Y-345833D01*
G01X-1800055Y-344038D01*
G01X-1789843Y-338123D01*
G01X-1774891Y-329377D01*
G01X-1762276Y-321971D01*
G01X-1751463Y-315645D01*
G01X-1736445Y-306777D01*
G01X-1735031Y-305936D01*
G01X-1728115Y-301931D01*
G01X-1720912Y-297726D01*
G01X-1708923Y-290665D01*
G01X-1706279Y-289116D01*
G01X-1689947Y-279597D01*
G01X-1682738Y-275395D01*
G01X-1664644Y-264738D01*
G01X-1661758Y-263086D01*
G01X-1651853Y-257339D01*
G01X-1612500Y-234238D01*
G01X-1601487Y-227776D01*
G01X-1591029Y-221648D01*
G01X-1565354Y-206520D01*
G01X-1560216Y-203585D01*
G01X-1557475Y-202345D01*
G01X-1556901Y-202335D01*
G01X-1556804Y-202717D01*
G01X-1557877Y-204618D01*
G01X-1569666Y-224040D01*
G01X-1584171Y-248068D01*
G01X-1608294Y-287915D01*
G01X-1616311Y-301130D01*
G01X-1622116Y-310741D01*
G01X-1629125Y-322355D01*
G01X-1637122Y-335570D01*
G01X-1644740Y-348185D01*
G01X-1660357Y-374015D01*
G01X-1675978Y-399845D01*
G01X-1688210Y-420068D01*
G01X-1698949Y-437805D01*
G01X-1701605Y-442297D01*
G01X-1703360Y-445185D01*
G01X-1723348Y-478136D01*
G01X-1726308Y-482836D01*
G01X-1728251Y-485355D01*
G37*
G36*
G01X-1993449Y475520D02*
G01X-1993449Y475520D01*
G01X-1992548Y467130D01*
G01X-1992548Y467130D01*
G01X-1991489Y461779D01*
G01X-1991489Y461779D01*
G01X-1987650Y450714D01*
G01X-1987650Y450714D01*
G01X-1983773Y443808D01*
G01X-1983773Y443808D01*
G01X-1980828Y440218D01*
G01X-1980828Y440218D01*
G01X-1968042Y429086D01*
G01X-1968042Y429086D01*
G01X-1965369Y427435D01*
G01X-1965369Y427435D01*
G01X-1961903Y425545D01*
G01X-1961903Y425545D01*
G01X-1956559Y423714D01*
G01X-1956559Y423714D01*
G01X-1948758Y420850D01*
G01X-1927620Y419502D01*
G01X-1739133Y419100D01*
G01X-1541384Y419100D01*
G01X-1537862Y420215D01*
G01X-1537862Y420215D01*
G01X-1534339Y421998D01*
G01X-1534339Y421998D01*
G01X-1533975Y422829D01*
G01X-1533975Y422829D01*
G01X-1530655Y442693D01*
G01X-1530962Y482321D01*
G01X-1530962Y482321D01*
G01X-1535125Y494141D01*
G01X-1552559Y495792D01*
G01X-1552559Y495792D01*
G01X-1714246Y495657D01*
G01X-1714246Y495657D01*
G01X-1723960Y498936D01*
G01X-1723960Y498936D01*
G01X-1724985Y500198D01*
G01X-1724985Y500198D01*
G01X-1726743Y569462D01*
G01X-1726743Y569462D01*
G01X-1726316Y630047D01*
G01X-1723195Y641332D01*
G01X-1723195Y641332D01*
G01X-1717209Y644048D01*
G01X-1717209Y644048D01*
G01X-1714653Y644503D01*
G01X-1714653Y644503D01*
G01X-1709252Y645544D01*
G01X-1709252Y645544D01*
G01X-1704636Y646712D01*
G01X-1704636Y646712D01*
G01X-1697834Y648912D01*
G01X-1697834Y648912D01*
G01X-1689817Y650963D01*
G01X-1689817Y650963D01*
G01X-1687145Y651861D01*
G01X-1687145Y651861D01*
G01X-1677184Y655544D01*
G01X-1677184Y655544D01*
G01X-1672569Y657375D01*
G01X-1672569Y657375D01*
G01X-1668682Y659084D01*
G01X-1668682Y659084D01*
G01X-1660140Y662875D01*
G01X-1660140Y662875D01*
G01X-1656253Y664764D01*
G01X-1656253Y664764D01*
G01X-1649004Y668148D01*
G01X-1649004Y668148D01*
G01X-1644498Y670726D01*
G01X-1644498Y670726D01*
G01X-1639153Y673856D01*
G01X-1639153Y673856D01*
G01X-1635255Y676182D01*
G01X-1635255Y676182D01*
G01X-1630702Y679195D01*
G01X-1630702Y679195D01*
G01X-1626808Y681818D01*
G01X-1626808Y681818D01*
G01X-1623557Y684122D01*
G01X-1623557Y684122D01*
G01X-1619578Y687316D01*
G01X-1619578Y687316D01*
G01X-1617023Y689368D01*
G01X-1617023Y689368D01*
G01X-1614351Y691568D01*
G01X-1614351Y691568D01*
G01X-1610621Y694545D01*
G01X-1610621Y694545D01*
G01X-1606977Y697562D01*
G01X-1606977Y697562D01*
G01X-1598717Y704903D01*
G01X-1598717Y704903D01*
G01X-1590458Y713683D01*
G01X-1590458Y713683D01*
G01X-1586868Y717978D01*
G01X-1586868Y717978D01*
G01X-1584905Y720409D01*
G01X-1584905Y720409D01*
G01X-1580114Y726003D01*
G01X-1580114Y726003D01*
G01X-1575639Y731454D01*
G01X-1575639Y731454D01*
G01X-1575152Y732430D01*
G01X-1575152Y732430D01*
G01X-1572966Y735487D01*
G01X-1572966Y735487D01*
G01X-1570779Y738544D01*
G01X-1570779Y738544D01*
G01X-1570286Y739520D01*
G01X-1570286Y739520D01*
G01X-1566407Y745145D01*
G01X-1566407Y745145D01*
G01X-1566042Y745782D01*
G01X-1566042Y745782D01*
G01X-1564519Y748233D01*
G01X-1564519Y748233D01*
G01X-1562496Y751451D01*
G01X-1562496Y751451D01*
G01X-1560618Y754512D01*
G01X-1560618Y754512D01*
G01X-1558126Y759076D01*
G01X-1558126Y759076D01*
G01X-1554925Y765156D01*
G01X-1554925Y765156D01*
G01X-1550889Y773424D01*
G01X-1550889Y773424D01*
G01X-1549390Y777072D01*
G01X-1549390Y777072D01*
G01X-1546936Y782909D01*
G01X-1546936Y782909D01*
G01X-1544871Y788016D01*
G01X-1544871Y788016D01*
G01X-1543093Y793852D01*
G01X-1543093Y793852D01*
G01X-1540834Y800067D01*
G01X-1540834Y800067D01*
G01X-1539684Y803327D01*
G01X-1539684Y803327D01*
G01X-1539253Y805137D01*
G01X-1539253Y805137D01*
G01X-1538310Y808686D01*
G01X-1538310Y808686D01*
G01X-1536114Y818171D01*
G01X-1536114Y818171D01*
G01X-1530937Y857397D01*
G01X-1530937Y857397D01*
G01X-1531944Y894775D01*
G01X-1531944Y894775D01*
G01X-1535166Y916090D01*
G01X-1535166Y916090D01*
G01X-1535827Y918057D01*
G01X-1535827Y918057D01*
G01X-1537251Y923471D01*
G01X-1537251Y923471D01*
G01X-1539029Y930523D01*
G01X-1539029Y930523D01*
G01X-1543123Y942869D01*
G01X-1543123Y942869D01*
G01X-1544057Y945916D01*
G01X-1544057Y945916D01*
G01X-1544512Y947432D01*
G01X-1544512Y947432D01*
G01X-1548454Y956545D01*
G01X-1548454Y956545D01*
G01X-1551709Y964402D01*
G01X-1551709Y964402D01*
G01X-1552802Y966213D01*
G01X-1552802Y966213D01*
G01X-1554260Y969677D01*
G01X-1554260Y969677D01*
G01X-1555717Y973126D01*
G01X-1555717Y973126D01*
G01X-1556931Y974982D01*
G01X-1556931Y974982D01*
G01X-1560041Y980460D01*
G01X-1560041Y980460D01*
G01X-1562709Y985117D01*
G01X-1562709Y985117D01*
G01X-1565033Y988726D01*
G01X-1565033Y988726D01*
G01X-1567242Y992223D01*
G01X-1567242Y992223D01*
G01X-1571751Y998974D01*
G01X-1571751Y998974D01*
G01X-1573330Y1001079D01*
G01X-1573330Y1001079D01*
G01X-1575638Y1004220D01*
G01X-1575638Y1004220D01*
G01X-1579889Y1009593D01*
G01X-1579889Y1009593D01*
G01X-1580497Y1010532D01*
G01X-1580497Y1010532D01*
G01X-1581104Y1011490D01*
G01X-1581104Y1011490D01*
G01X-1583169Y1014009D01*
G01X-1583169Y1014009D01*
G01X-1610378Y1041180D01*
G01X-1610378Y1041180D01*
G01X-1614235Y1044454D01*
G01X-1614235Y1044454D01*
G01X-1615531Y1045308D01*
G01X-1615531Y1045308D01*
G01X-1618447Y1047497D01*
G01X-1618447Y1047497D01*
G01X-1621397Y1049685D01*
G01X-1621397Y1049685D01*
G01X-1622640Y1050385D01*
G01X-1622640Y1050385D01*
G01X-1625607Y1052817D01*
G01X-1625607Y1052817D01*
G01X-1628082Y1054549D01*
G01X-1628082Y1054549D01*
G01X-1629858Y1055764D01*
G01X-1629858Y1055764D01*
G01X-1631568Y1056980D01*
G01X-1631568Y1056980D01*
G01X-1633727Y1058462D01*
G01X-1633727Y1058462D01*
G01X-1637316Y1060740D01*
G01X-1637316Y1060740D01*
G01X-1641230Y1063025D01*
G01X-1641230Y1063025D01*
G01X-1649207Y1066436D01*
G01X-1653837Y1064383D01*
G01X-1653837Y1064383D01*
G01X-1652626Y1002969D01*
G01X-1652626Y1002969D01*
G01X-1651918Y1001496D01*
G01X-1651918Y1001496D01*
G01X-1641880Y989338D01*
G01X-1641880Y989338D01*
G01X-1632814Y979789D01*
G01X-1632814Y979789D01*
G01X-1629684Y976215D01*
G01X-1629684Y976215D01*
G01X-1622799Y967565D01*
G01X-1622799Y967565D01*
G01X-1620382Y964357D01*
G01X-1620382Y964357D01*
G01X-1618880Y962290D01*
G01X-1618880Y962290D01*
G01X-1618516Y961644D01*
G01X-1618516Y961644D01*
G01X-1616937Y959122D01*
G01X-1616937Y959122D01*
G01X-1614719Y955508D01*
G01X-1614719Y955508D01*
G01X-1612561Y952071D01*
G01X-1612561Y952071D01*
G01X-1610379Y948276D01*
G01X-1610379Y948276D01*
G01X-1606734Y940916D01*
G01X-1606734Y940916D01*
G01X-1604383Y935701D01*
G01X-1604383Y935701D01*
G01X-1601383Y928578D01*
G01X-1601383Y928578D01*
G01X-1600333Y925927D01*
G01X-1600333Y925927D01*
G01X-1599931Y924506D01*
G01X-1599931Y924506D01*
G01X-1599280Y922780D01*
G01X-1599280Y922780D01*
G01X-1596032Y912041D01*
G01X-1596032Y912041D01*
G01X-1595037Y907664D01*
G01X-1595037Y907664D01*
G01X-1593834Y903286D01*
G01X-1593834Y903286D01*
G01X-1591664Y891370D01*
G01X-1591664Y891370D01*
G01X-1590671Y881853D01*
G01X-1590671Y881853D01*
G01X-1593862Y829357D01*
G01X-1593862Y829357D01*
G01X-1596731Y818781D01*
G01X-1596731Y818781D01*
G01X-1598872Y811728D01*
G01X-1598872Y811728D01*
G01X-1601587Y804552D01*
G01X-1601587Y804552D01*
G01X-1604303Y798128D01*
G01X-1604303Y798128D01*
G01X-1605276Y796523D01*
G01X-1605276Y796523D01*
G01X-1613171Y781287D01*
G01X-1613171Y781287D01*
G01X-1613536Y780547D01*
G01X-1613536Y780547D01*
G01X-1614918Y778277D01*
G01X-1614918Y778277D01*
G01X-1617638Y774154D01*
G01X-1617638Y774154D01*
G01X-1621802Y768074D01*
G01X-1621802Y768074D01*
G01X-1623642Y765566D01*
G01X-1623642Y765566D01*
G01X-1626525Y761853D01*
G01X-1626525Y761853D01*
G01X-1631270Y756717D01*
G01X-1631270Y756717D01*
G01X-1647315Y740351D01*
G01X-1647315Y740351D01*
G01X-1651012Y737311D01*
G01X-1651012Y737311D01*
G01X-1652834Y735973D01*
G01X-1652834Y735973D01*
G01X-1653458Y735575D01*
G01X-1653458Y735575D01*
G01X-1656555Y733194D01*
G01X-1656555Y733194D01*
G01X-1660093Y730484D01*
G01X-1660093Y730484D01*
G01X-1662260Y729123D01*
G01X-1662260Y729123D01*
G01X-1664066Y728219D01*
G01X-1664066Y728219D01*
G01X-1665101Y727462D01*
G01X-1665101Y727462D01*
G01X-1669367Y724665D01*
G01X-1669367Y724665D01*
G01X-1673253Y722355D01*
G01X-1673253Y722355D01*
G01X-1674203Y721705D01*
G01X-1674203Y721705D01*
G01X-1681065Y718138D01*
G01X-1681065Y718138D01*
G01X-1685195Y716160D01*
G01X-1685195Y716160D01*
G01X-1694919Y711948D01*
G01X-1694919Y711948D01*
G01X-1700503Y709914D01*
G01X-1700503Y709914D01*
G01X-1709006Y707251D01*
G01X-1709006Y707251D01*
G01X-1717269Y704944D01*
G01X-1717269Y704944D01*
G01X-1722127Y703665D01*
G01X-1722127Y703665D01*
G01X-1726986Y702870D01*
G01X-1726986Y702870D01*
G01X-1761718Y700967D01*
G01X-1791849Y704349D01*
G01X-1791849Y704349D01*
G01X-1803024Y707243D01*
G01X-1803024Y707243D01*
G01X-1809098Y709205D01*
G01X-1809098Y709205D01*
G01X-1816872Y711982D01*
G01X-1816872Y711982D01*
G01X-1825374Y715617D01*
G01X-1825374Y715617D01*
G01X-1831569Y718502D01*
G01X-1831569Y718502D01*
G01X-1836821Y721190D01*
G01X-1836821Y721190D01*
G01X-1840708Y723376D01*
G01X-1840708Y723376D01*
G01X-1843351Y724796D01*
G01X-1843351Y724796D01*
G01X-1845173Y726023D01*
G01X-1845173Y726023D01*
G01X-1846752Y727265D01*
G01X-1846752Y727265D01*
G01X-1848210Y728191D01*
G01X-1848210Y728191D01*
G01X-1849668Y729223D01*
G01X-1849668Y729223D01*
G01X-1850275Y729667D01*
G01X-1850275Y729667D01*
G01X-1853281Y731855D01*
G01X-1853281Y731855D01*
G01X-1856225Y734028D01*
G01X-1856225Y734028D01*
G01X-1859414Y736223D01*
G01X-1859414Y736223D01*
G01X-1862543Y738776D01*
G01X-1862543Y738776D01*
G01X-1873204Y748581D01*
G01X-1873204Y748581D01*
G01X-1878820Y754426D01*
G01X-1878820Y754426D01*
G01X-1890451Y768804D01*
G01X-1890451Y768804D01*
G01X-1893603Y773248D01*
G01X-1893603Y773248D01*
G01X-1894853Y775315D01*
G01X-1894853Y775315D01*
G01X-1895219Y775856D01*
G01X-1895219Y775856D01*
G01X-1896777Y778166D01*
G01X-1896777Y778166D01*
G01X-1900691Y783982D01*
G01X-1900691Y783982D01*
G01X-1901170Y784955D01*
G01X-1901170Y784955D01*
G01X-1903839Y790177D01*
G01X-1903839Y790177D01*
G01X-1906823Y796014D01*
G01X-1906823Y796014D01*
G01X-1909498Y801968D01*
G01X-1909498Y801968D01*
G01X-1911859Y807460D01*
G01X-1911859Y807460D01*
G01X-1914789Y816748D01*
G01X-1914789Y816748D01*
G01X-1918612Y830330D01*
G01X-1918612Y830330D01*
G01X-1920646Y842976D01*
G01X-1920646Y842976D01*
G01X-1922082Y884075D01*
G01X-1922082Y884075D01*
G01X-1921032Y893073D01*
G01X-1921032Y893073D01*
G01X-1920036Y899319D01*
G01X-1920036Y899319D01*
G01X-1918885Y904183D01*
G01X-1918885Y904183D01*
G01X-1915143Y918364D01*
G01X-1915143Y918364D01*
G01X-1913591Y922498D01*
G01X-1913591Y922498D01*
G01X-1911833Y928092D01*
G01X-1911833Y928092D01*
G01X-1909575Y933433D01*
G01X-1909575Y933433D01*
G01X-1908458Y935505D01*
G01X-1908458Y935505D01*
G01X-1905413Y942568D01*
G01X-1905413Y942568D01*
G01X-1903762Y945181D01*
G01X-1903762Y945181D01*
G01X-1903113Y946397D01*
G01X-1903113Y946397D01*
G01X-1902668Y947918D01*
G01X-1902668Y947918D01*
G01X-1901421Y950606D01*
G01X-1901421Y950606D01*
G01X-1899252Y954011D01*
G01X-1899252Y954011D01*
G01X-1896856Y957760D01*
G01X-1896856Y957760D01*
G01X-1894361Y961651D01*
G01X-1894361Y961651D01*
G01X-1890692Y966626D01*
G01X-1890692Y966626D01*
G01X-1887873Y970274D01*
G01X-1887873Y970274D01*
G01X-1885749Y972838D01*
G01X-1885749Y972838D01*
G01X-1882513Y976486D01*
G01X-1882513Y976486D01*
G01X-1880782Y978431D01*
G01X-1880782Y978431D01*
G01X-1878330Y981350D01*
G01X-1878330Y981350D01*
G01X-1857086Y1006155D01*
G01X-1857086Y1006155D01*
G01X-1856713Y1064708D01*
G01X-1856713Y1064708D01*
G01X-1862908Y1066794D01*
G01X-1862908Y1066794D01*
G01X-1866187Y1065240D01*
G01X-1866187Y1065240D01*
G01X-1869047Y1063491D01*
G01X-1869047Y1063491D01*
G01X-1871476Y1061782D01*
G01X-1871476Y1061782D01*
G01X-1877307Y1058088D01*
G01X-1877307Y1058088D01*
G01X-1882308Y1055035D01*
G01X-1882308Y1055035D01*
G01X-1885331Y1052775D01*
G01X-1885331Y1052775D01*
G01X-1887934Y1050962D01*
G01X-1887934Y1050962D01*
G01X-1890071Y1049575D01*
G01X-1890071Y1049575D01*
G01X-1893153Y1047018D01*
G01X-1893153Y1047018D01*
G01X-1896524Y1044221D01*
G01X-1896524Y1044221D01*
G01X-1897811Y1043362D01*
G01X-1897811Y1043362D01*
G01X-1900599Y1041052D01*
G01X-1900599Y1041052D01*
G01X-1906514Y1035824D01*
G01X-1906514Y1035824D01*
G01X-1910801Y1031980D01*
G01X-1910801Y1031980D01*
G01X-1913026Y1029791D01*
G01X-1913026Y1029791D01*
G01X-1919876Y1022722D01*
G01X-1919876Y1022722D01*
G01X-1924068Y1018026D01*
G01X-1924068Y1018026D01*
G01X-1927188Y1014304D01*
G01X-1927188Y1014304D01*
G01X-1930041Y1011019D01*
G01X-1930041Y1011019D01*
G01X-1932751Y1007884D01*
G01X-1932751Y1007884D01*
G01X-1937165Y1002507D01*
G01X-1937165Y1002507D01*
G01X-1938733Y1000075D01*
G01X-1938733Y1000075D01*
G01X-1941485Y996332D01*
G01X-1941485Y996332D01*
G01X-1942954Y994284D01*
G01X-1942954Y994284D01*
G01X-1945703Y989758D01*
G01X-1945703Y989758D01*
G01X-1949913Y983052D01*
G01X-1949913Y983052D01*
G01X-1951695Y980134D01*
G01X-1951695Y980134D01*
G01X-1954669Y974540D01*
G01X-1954669Y974540D01*
G01X-1957397Y969744D01*
G01X-1957397Y969744D01*
G01X-1958988Y966942D01*
G01X-1958988Y966942D01*
G01X-1962832Y958247D01*
G01X-1962832Y958247D01*
G01X-1964774Y953748D01*
G01X-1964774Y953748D01*
G01X-1966519Y949249D01*
G01X-1966519Y949249D01*
G01X-1968176Y945358D01*
G01X-1968176Y945358D01*
G01X-1970105Y939035D01*
G01X-1970105Y939035D01*
G01X-1973166Y929248D01*
G01X-1973166Y929248D01*
G01X-1975504Y920066D01*
G01X-1975504Y920066D01*
G01X-1978822Y903217D01*
G01X-1978822Y903217D01*
G01X-1980854Y847923D01*
G01X-1980854Y847923D01*
G01X-1979845Y837869D01*
G01X-1979845Y837869D01*
G01X-1978173Y827655D01*
G01X-1978173Y827655D01*
G01X-1976466Y819387D01*
G01X-1976466Y819387D01*
G01X-1975504Y814037D01*
G01X-1975504Y814037D01*
G01X-1974532Y809173D01*
G01X-1974532Y809173D01*
G01X-1973476Y805337D01*
G01X-1973476Y805337D01*
G01X-1969559Y793122D01*
G01X-1969559Y793122D01*
G01X-1968183Y789231D01*
G01X-1968183Y789231D01*
G01X-1964204Y779261D01*
G01X-1964204Y779261D01*
G01X-1956085Y762335D01*
G01X-1956085Y762335D01*
G01X-1954615Y759052D01*
G01X-1954615Y759052D01*
G01X-1954129Y758347D01*
G01X-1954129Y758347D01*
G01X-1953643Y757785D01*
G01X-1953643Y757785D01*
G01X-1952457Y755666D01*
G01X-1952457Y755666D01*
G01X-1948299Y748577D01*
G01X-1948299Y748577D01*
G01X-1947287Y747018D01*
G01X-1947287Y747018D01*
G01X-1944417Y742783D01*
G01X-1944417Y742783D01*
G01X-1941475Y738405D01*
G01X-1941475Y738405D01*
G01X-1938531Y734343D01*
G01X-1938531Y734343D01*
G01X-1935540Y730364D01*
G01X-1935540Y730364D01*
G01X-1933718Y727861D01*
G01X-1933718Y727861D01*
G01X-1903866Y696577D01*
G01X-1903866Y696577D01*
G01X-1902238Y695217D01*
G01X-1902238Y695217D01*
G01X-1898246Y691877D01*
G01X-1898246Y691877D01*
G01X-1894657Y688860D01*
G01X-1894657Y688860D01*
G01X-1893078Y687822D01*
G01X-1893078Y687822D01*
G01X-1892424Y687369D01*
G01X-1892424Y687369D01*
G01X-1891539Y686634D01*
G01X-1891539Y686634D01*
G01X-1889231Y684964D01*
G01X-1889231Y684964D01*
G01X-1884650Y681579D01*
G01X-1884650Y681579D01*
G01X-1880520Y678650D01*
G01X-1880520Y678650D01*
G01X-1876147Y675891D01*
G01X-1876147Y675891D01*
G01X-1872018Y673527D01*
G01X-1872018Y673527D01*
G01X-1866189Y670190D01*
G01X-1866189Y670190D01*
G01X-1862647Y667844D01*
G01X-1862647Y667844D01*
G01X-1861262Y666908D01*
G01X-1861262Y666908D01*
G01X-1858973Y666129D01*
G01X-1858973Y666129D01*
G01X-1856105Y664913D01*
G01X-1856105Y664913D01*
G01X-1852097Y662960D01*
G01X-1852097Y662960D01*
G01X-1844066Y659396D01*
G01X-1844066Y659396D01*
G01X-1838986Y657326D01*
G01X-1838986Y657326D01*
G01X-1827561Y652930D01*
G01X-1827561Y652930D01*
G01X-1825860Y652069D01*
G01X-1825860Y652069D01*
G01X-1823917Y651210D01*
G01X-1823917Y651210D01*
G01X-1810555Y647870D01*
G01X-1810555Y647870D01*
G01X-1806911Y646703D01*
G01X-1806911Y646703D01*
G01X-1796585Y644280D01*
G01X-1796585Y644280D01*
G01X-1787924Y640422D01*
G01X-1785089Y630589D01*
G01X-1785089Y630589D01*
G01X-1785169Y500226D01*
G01X-1785169Y500226D01*
G01X-1789706Y495414D01*
G01X-1791692Y494245D01*
G01X-1845580Y494263D01*
G01X-1845580Y494263D01*
G01X-1904400Y495589D01*
G01X-1911904Y498957D01*
G01X-1914063Y505671D01*
G01X-1914063Y505671D01*
G01X-1915177Y510048D01*
G01X-1915177Y510048D01*
G01X-1915742Y580577D01*
G01X-1915992Y650615D01*
G01X-1917089Y652384D01*
G01X-1917089Y652384D01*
G01X-1923787Y656213D01*
G01X-1954858Y656720D01*
G01X-1954858Y656720D01*
G01X-1987102Y655904D01*
G01X-1993487Y650879D01*
G01X-1993487Y650879D01*
G01X-1993449Y475520D01*
G37*
G36*
G01X-1893164Y857324D02*
G01X-1893164Y857324D01*
G01X-1891944Y849542D01*
G01X-1891944Y849542D01*
G01X-1887801Y829114D01*
G01X-1887801Y829114D01*
G01X-1884660Y819630D01*
G01X-1884660Y819630D01*
G01X-1882670Y814280D01*
G01X-1882670Y814280D01*
G01X-1878602Y805783D01*
G01X-1878602Y805783D01*
G01X-1876976Y802622D01*
G01X-1876976Y802622D01*
G01X-1873852Y797257D01*
G01X-1873852Y797257D01*
G01X-1871854Y794095D01*
G01X-1871854Y794095D01*
G01X-1869971Y791397D01*
G01X-1869971Y791397D01*
G01X-1864364Y783395D01*
G01X-1864364Y783395D01*
G01X-1862794Y780841D01*
G01X-1862794Y780841D01*
G01X-1861118Y778764D01*
G01X-1861118Y778764D01*
G01X-1859142Y776988D01*
G01X-1859142Y776988D01*
G01X-1844113Y762255D01*
G01X-1844113Y762255D01*
G01X-1841382Y759945D01*
G01X-1841382Y759945D01*
G01X-1839479Y758347D01*
G01X-1839479Y758347D01*
G01X-1838979Y757919D01*
G01X-1838979Y757919D01*
G01X-1837521Y756888D01*
G01X-1837521Y756888D01*
G01X-1836063Y755856D01*
G01X-1836063Y755856D01*
G01X-1835571Y755428D01*
G01X-1835571Y755428D01*
G01X-1831563Y753072D01*
G01X-1831563Y753072D01*
G01X-1819093Y745495D01*
G01X-1819093Y745495D01*
G01X-1814720Y743091D01*
G01X-1814720Y743091D01*
G01X-1812985Y742158D01*
G01X-1812985Y742158D01*
G01X-1803666Y738723D01*
G01X-1803666Y738723D01*
G01X-1802617Y738405D01*
G01X-1802617Y738405D01*
G01X-1801119Y737762D01*
G01X-1801119Y737762D01*
G01X-1798166Y736490D01*
G01X-1798166Y736490D01*
G01X-1794765Y735450D01*
G01X-1794765Y735450D01*
G01X-1783457Y733022D01*
G01X-1783457Y733022D01*
G01X-1779571Y732137D01*
G01X-1779571Y732137D01*
G01X-1754575Y730033D01*
G01X-1732192Y732488D01*
G01X-1732192Y732488D01*
G01X-1728201Y733502D01*
G01X-1728201Y733502D01*
G01X-1723099Y734522D01*
G01X-1723099Y734522D01*
G01X-1718483Y735513D01*
G01X-1718483Y735513D01*
G01X-1709379Y738426D01*
G01X-1709379Y738426D01*
G01X-1706578Y739378D01*
G01X-1706578Y739378D01*
G01X-1704994Y739808D01*
G01X-1704994Y739808D01*
G01X-1702935Y740742D01*
G01X-1702935Y740742D01*
G01X-1696099Y743960D01*
G01X-1696099Y743960D01*
G01X-1690091Y746674D01*
G01X-1690091Y746674D01*
G01X-1687388Y748376D01*
G01X-1687388Y748376D01*
G01X-1684569Y750078D01*
G01X-1684569Y750078D01*
G01X-1683906Y750461D01*
G01X-1683906Y750461D01*
G01X-1681557Y752136D01*
G01X-1681557Y752136D01*
G01X-1677714Y754874D01*
G01X-1677714Y754874D01*
G01X-1674799Y756954D01*
G01X-1674799Y756954D01*
G01X-1648926Y781931D01*
G01X-1648926Y781931D01*
G01X-1646453Y784820D01*
G01X-1646453Y784820D01*
G01X-1645603Y786287D01*
G01X-1645603Y786287D01*
G01X-1643538Y789336D01*
G01X-1643538Y789336D01*
G01X-1639288Y796020D01*
G01X-1639288Y796020D01*
G01X-1636770Y800175D01*
G01X-1636770Y800175D01*
G01X-1636105Y801222D01*
G01X-1636105Y801222D01*
G01X-1631218Y811447D01*
G01X-1631218Y811447D01*
G01X-1630125Y814037D01*
G01X-1630125Y814037D01*
G01X-1629107Y816955D01*
G01X-1629107Y816955D01*
G01X-1628073Y820116D01*
G01X-1628073Y820116D01*
G01X-1626512Y824494D01*
G01X-1626512Y824494D01*
G01X-1624460Y831060D01*
G01X-1624460Y831060D01*
G01X-1622122Y840058D01*
G01X-1622122Y840058D01*
G01X-1620250Y888452D01*
G01X-1620250Y888452D01*
G01X-1622762Y899395D01*
G01X-1622762Y899395D01*
G01X-1624234Y905475D01*
G01X-1624234Y905475D01*
G01X-1626880Y913743D01*
G01X-1626880Y913743D01*
G01X-1629610Y920553D01*
G01X-1629610Y920553D01*
G01X-1631846Y925285D01*
G01X-1631846Y925285D01*
G01X-1632970Y927383D01*
G01X-1632970Y927383D01*
G01X-1637587Y936360D01*
G01X-1637587Y936360D01*
G01X-1639792Y940008D01*
G01X-1639792Y940008D01*
G01X-1648277Y952410D01*
G01X-1648277Y952410D01*
G01X-1650845Y955610D01*
G01X-1650845Y955610D01*
G01X-1653715Y959084D01*
G01X-1653715Y959084D01*
G01X-1657092Y962694D01*
G01X-1657092Y962694D01*
G01X-1661375Y966758D01*
G01X-1661375Y966758D01*
G01X-1666781Y971744D01*
G01X-1666781Y971744D01*
G01X-1669872Y974297D01*
G01X-1669872Y974297D01*
G01X-1670955Y974915D01*
G01X-1670955Y974915D01*
G01X-1674021Y977469D01*
G01X-1674021Y977469D01*
G01X-1677422Y980292D01*
G01X-1677422Y980292D01*
G01X-1685687Y985964D01*
G01X-1685687Y985964D01*
G01X-1689331Y988162D01*
G01X-1689331Y988162D01*
G01X-1698077Y992413D01*
G01X-1698077Y992413D01*
G01X-1700153Y993334D01*
G01X-1700153Y993334D01*
G01X-1704150Y991327D01*
G01X-1705608Y989791D01*
G01X-1705539Y962954D01*
G01X-1705539Y962954D01*
G01X-1704786Y934478D01*
G01X-1700513Y925644D01*
G01X-1700513Y925644D01*
G01X-1691776Y914196D01*
G01X-1691776Y914196D01*
G01X-1690243Y912007D01*
G01X-1690243Y912007D01*
G01X-1686795Y906448D01*
G01X-1686795Y906448D01*
G01X-1683927Y901030D01*
G01X-1683927Y901030D01*
G01X-1678117Y885291D01*
G01X-1678117Y885291D01*
G01X-1675713Y865740D01*
G01X-1678695Y846137D01*
G01X-1678695Y846137D01*
G01X-1680416Y840787D01*
G01X-1680416Y840787D01*
G01X-1685152Y830115D01*
G01X-1685152Y830115D01*
G01X-1687632Y825841D01*
G01X-1687632Y825841D01*
G01X-1690214Y821707D01*
G01X-1690214Y821707D01*
G01X-1692620Y818428D01*
G01X-1692620Y818428D01*
G01X-1699465Y810635D01*
G01X-1699465Y810635D01*
G01X-1702918Y807420D01*
G01X-1702918Y807420D01*
G01X-1707117Y804039D01*
G01X-1707117Y804039D01*
G01X-1710138Y801777D01*
G01X-1710138Y801777D01*
G01X-1716297Y797793D01*
G01X-1716297Y797793D01*
G01X-1718483Y796702D01*
G01X-1718483Y796702D01*
G01X-1725528Y793405D01*
G01X-1725528Y793405D01*
G01X-1728686Y792364D01*
G01X-1728686Y792364D01*
G01X-1732088Y791135D01*
G01X-1732088Y791135D01*
G01X-1767353Y788038D01*
G01X-1767353Y788038D01*
G01X-1778137Y790748D01*
G01X-1778137Y790748D01*
G01X-1781352Y791907D01*
G01X-1781352Y791907D01*
G01X-1788570Y794522D01*
G01X-1788570Y794522D01*
G01X-1789906Y795340D01*
G01X-1789906Y795340D01*
G01X-1794501Y797963D01*
G01X-1794501Y797963D01*
G01X-1799975Y801127D01*
G01X-1799975Y801127D01*
G01X-1803246Y803350D01*
G01X-1803246Y803350D01*
G01X-1816887Y815920D01*
G01X-1816887Y815920D01*
G01X-1819908Y819782D01*
G01X-1819908Y819782D01*
G01X-1821973Y822697D01*
G01X-1821973Y822697D01*
G01X-1823626Y825402D01*
G01X-1823626Y825402D01*
G01X-1826826Y831060D01*
G01X-1826826Y831060D01*
G01X-1829497Y836896D01*
G01X-1829497Y836896D01*
G01X-1832656Y845894D01*
G01X-1832656Y845894D01*
G01X-1834164Y851083D01*
G01X-1834164Y851083D01*
G01X-1835114Y881400D01*
G01X-1835114Y881400D01*
G01X-1833116Y889425D01*
G01X-1833116Y889425D01*
G01X-1829600Y900515D01*
G01X-1829600Y900515D01*
G01X-1826381Y907280D01*
G01X-1826381Y907280D01*
G01X-1824223Y911179D01*
G01X-1824223Y911179D01*
G01X-1822250Y914237D01*
G01X-1822250Y914237D01*
G01X-1819836Y917878D01*
G01X-1819836Y917878D01*
G01X-1816657Y922012D01*
G01X-1816657Y922012D01*
G01X-1811947Y927432D01*
G01X-1811947Y927432D01*
G01X-1809341Y930471D01*
G01X-1809341Y930471D01*
G01X-1808976Y931013D01*
G01X-1808976Y931013D01*
G01X-1805118Y937760D01*
G01X-1805118Y937760D01*
G01X-1804501Y988788D01*
G01X-1804501Y988788D01*
G01X-1808279Y994466D01*
G01X-1808279Y994466D01*
G01X-1811326Y993318D01*
G01X-1811326Y993318D01*
G01X-1814727Y991763D01*
G01X-1814727Y991763D01*
G01X-1817600Y990354D01*
G01X-1817600Y990354D01*
G01X-1820730Y988682D01*
G01X-1820730Y988682D01*
G01X-1825673Y985727D01*
G01X-1825673Y985727D01*
G01X-1830697Y982427D01*
G01X-1830697Y982427D01*
G01X-1833528Y980485D01*
G01X-1833528Y980485D01*
G01X-1837180Y977945D01*
G01X-1837180Y977945D01*
G01X-1840280Y975651D01*
G01X-1840280Y975651D01*
G01X-1843438Y973188D01*
G01X-1843438Y973188D01*
G01X-1847705Y969403D01*
G01X-1847705Y969403D01*
G01X-1858636Y958247D01*
G01X-1858636Y958247D01*
G01X-1861030Y955572D01*
G01X-1861030Y955572D01*
G01X-1863628Y952167D01*
G01X-1863628Y952167D01*
G01X-1866781Y948033D01*
G01X-1866781Y948033D01*
G01X-1868227Y946087D01*
G01X-1868227Y946087D01*
G01X-1870145Y943212D01*
G01X-1870145Y943212D01*
G01X-1875233Y934779D01*
G01X-1875233Y934779D01*
G01X-1876832Y931983D01*
G01X-1876832Y931983D01*
G01X-1880765Y923841D01*
G01X-1880765Y923841D01*
G01X-1881834Y921769D01*
G01X-1881834Y921769D01*
G01X-1885433Y912041D01*
G01X-1885433Y912041D01*
G01X-1888415Y902557D01*
G01X-1888415Y902557D01*
G01X-1890962Y890641D01*
G01X-1890962Y890641D01*
G01X-1892925Y877022D01*
G01X-1892925Y877022D01*
G01X-1893164Y857324D01*
G37*
G36*
G01X-1813110Y-122861D02*
G01X-1815017Y-125762D01*
G01X-1816143Y-127000D01*
G01X-1817798Y-126291D01*
G01X-1819916Y-125581D01*
G01X-1821263Y-123831D01*
G01X-1824335Y-118763D01*
G01X-1829702Y-110287D01*
G01X-1832102Y-106418D01*
G01X-1834511Y-102548D01*
G01X-1835709Y-100712D01*
G01X-1837353Y-97948D01*
G01X-1838628Y-95792D01*
G01X-1838918Y-95175D01*
G01X-1839837Y-93589D01*
G01X-1841799Y-90520D01*
G01X-1844080Y-86517D01*
G01X-1846433Y-82584D01*
G01X-1847746Y-80576D01*
G01X-1849992Y-77134D01*
G01X-1852353Y-73250D01*
G01X-1854924Y-69011D01*
G01X-1856561Y-66248D01*
G01X-1857713Y-64321D01*
G01X-1859612Y-61188D01*
G01X-1862339Y-56666D01*
G01X-1864871Y-52428D01*
G01X-1866185Y-50216D01*
G01X-1868284Y-46834D01*
G01X-1869867Y-44162D01*
G01X-1870161Y-43767D01*
G01X-1870905Y-42523D01*
G01X-1872177Y-40367D01*
G01X-1874472Y-36594D01*
G01X-1876031Y-33785D01*
G01X-1877597Y-31713D01*
G01X-1877972Y-30898D01*
G01X-1879940Y-27638D01*
G01X-1883092Y-22589D01*
G01X-1884990Y-19522D01*
G01X-1885436Y-18497D01*
G01X-1885435Y-17254D01*
G01X-1884370Y-14550D01*
G01X-1882339Y-12286D01*
G01X-1881132Y-11592D01*
G01X-1879889Y-11336D01*
G01X-1879446Y-11017D01*
G01X-1874933Y-8426D01*
G01X-1869867Y-5812D01*
G01X-1866735Y-4279D01*
G01X-1863051Y-2297D01*
G01X-1860656Y-1003D01*
G01X-1854761Y2091D01*
G01X-1851077Y3912D01*
G01X-1848239Y5521D01*
G01X-1846116Y6722D01*
G01X-1840945Y9314D01*
G01X-1838257Y10812D01*
G01X-1834497Y12393D01*
G01X-1832471Y13520D01*
G01X-1826940Y16304D01*
G01X-1824833Y17515D01*
G01X-1820865Y19620D01*
G01X-1817365Y21478D01*
G01X-1811556Y24411D01*
G01X-1809694Y25453D01*
G01X-1803797Y28465D01*
G01X-1801657Y29755D01*
G01X-1799688Y31045D01*
G01X-1793349Y34211D01*
G01X-1791821Y35099D01*
G01X-1789117Y36347D01*
G01X-1785482Y38610D01*
G01X-1783475Y39890D01*
G01X-1782471Y40334D01*
G01X-1781594Y41460D01*
G01X-1781015Y42957D01*
G01X-1780908Y44516D01*
G01X-1781193Y46004D01*
G01X-1781784Y47053D01*
G01X-1785012Y49094D01*
G01X-1788627Y51140D01*
G01X-1792496Y53058D01*
G01X-1796180Y54683D01*
G01X-1798759Y55943D01*
G01X-1805207Y59246D01*
G01X-1809996Y61606D01*
G01X-1812391Y62754D01*
G01X-1819003Y65950D01*
G01X-1820865Y67007D01*
G01X-1824918Y69048D01*
G01X-1829523Y71402D01*
G01X-1831550Y72569D01*
G01X-1836708Y75130D01*
G01X-1841285Y77626D01*
G01X-1845522Y79958D01*
G01X-1846840Y80754D01*
G01X-1851356Y83240D01*
G01X-1855028Y85288D01*
G01X-1858809Y87438D01*
G01X-1861584Y89060D01*
G01X-1865446Y91282D01*
G01X-1868946Y93340D01*
G01X-1872998Y95728D01*
G01X-1876499Y97747D01*
G01X-1878157Y98572D01*
G01X-1879393Y99584D01*
G01X-1882893Y101659D01*
G01X-1886631Y103830D01*
G01X-1889918Y105865D01*
G01X-1892773Y107763D01*
G01X-1893789Y108437D01*
G01X-1894618Y108911D01*
G01X-1896485Y110034D01*
G01X-1898880Y111623D01*
G01X-1901000Y113130D01*
G01X-1904868Y115607D01*
G01X-1908921Y118113D01*
G01X-1911474Y119836D01*
G01X-1913194Y120967D01*
G01X-1913772Y121257D01*
G01X-1915553Y122516D01*
G01X-1917947Y124176D01*
G01X-1920798Y126074D01*
G01X-1923193Y127769D01*
G01X-1925397Y129387D01*
G01X-1930235Y132559D01*
G01X-1933531Y134603D01*
G01X-1935239Y135892D01*
G01X-1936770Y137182D01*
G01X-1941159Y140193D01*
G01X-1944991Y143139D01*
G01X-1946440Y144291D01*
G01X-1948933Y146080D01*
G01X-1951398Y147872D01*
G01X-1953326Y149383D01*
G01X-1954975Y150441D01*
G01X-1957368Y152485D01*
G01X-1960065Y154780D01*
G01X-1960852Y155240D01*
G01X-1962648Y156695D01*
G01X-1965179Y158693D01*
G01X-1967809Y160740D01*
G01X-1969765Y162243D01*
G01X-1971668Y163678D01*
G01X-1975055Y166502D01*
G01X-1982935Y173391D01*
G01X-1986153Y175878D01*
G01X-1986671Y176339D01*
G01X-1988376Y178274D01*
G01X-1991868Y181498D01*
G01X-1994128Y183249D01*
G01X-1995323Y184235D01*
G01X-1996853Y185964D01*
G01X-1998450Y187122D01*
G01X-2000653Y189117D01*
G01X-2002314Y190620D01*
G01X-2003796Y191945D01*
G01X-2005613Y193880D01*
G01X-2024609Y212993D01*
G01X-2026359Y215087D01*
G01X-2030136Y219030D01*
G01X-2036282Y226001D01*
G01X-2038052Y228026D01*
G01X-2040163Y230421D01*
G01X-2042660Y233369D01*
G01X-2045253Y236502D01*
G01X-2047462Y239073D01*
G01X-2049155Y241335D01*
G01X-2050822Y243739D01*
G01X-2052465Y245987D01*
G01X-2054394Y248500D01*
G01X-2055457Y249290D01*
G01X-2056384Y249585D01*
G01X-2057400Y249585D01*
G01X-2057400Y284303D01*
G01X-2054360Y284057D01*
G01X-2049294Y283487D01*
G01X-2042294Y282762D01*
G01X-2031241Y281825D01*
G01X-2019451Y280904D01*
G01X-1994530Y280474D01*
G01X-1972660Y280844D01*
G01X-1964370Y281840D01*
G01X-1952793Y283460D01*
G01X-1944291Y285547D01*
G01X-1938764Y287205D01*
G01X-1933053Y289405D01*
G01X-1929313Y290922D01*
G01X-1926695Y291153D01*
G01X-1924699Y290000D01*
G01X-1922824Y287362D01*
G01X-1921098Y284595D01*
G01X-1919519Y281647D01*
G01X-1916270Y275751D01*
G01X-1915417Y274169D01*
G01X-1913740Y271590D01*
G01X-1911476Y267905D01*
G01X-1909672Y264773D01*
G01X-1907079Y260679D01*
G01X-1906771Y260211D01*
G01X-1905114Y258061D01*
G01X-1903488Y255665D01*
G01X-1902118Y253823D01*
G01X-1900576Y251886D01*
G01X-1899894Y250688D01*
G01X-1899317Y249953D01*
G01X-1898968Y249493D01*
G01X-1897461Y247374D01*
G01X-1895405Y244653D01*
G01X-1893412Y242180D01*
G01X-1891973Y240412D01*
G01X-1891505Y239569D01*
G01X-1889570Y237250D01*
G01X-1885491Y232290D01*
G01X-1883649Y230085D01*
G01X-1877682Y223235D01*
G01X-1875424Y220480D01*
G01X-1873205Y217826D01*
G01X-1867840Y211853D01*
G01X-1850435Y193794D01*
G01X-1831383Y175325D01*
G01X-1827140Y171456D01*
G01X-1824828Y169376D01*
G01X-1823828Y168876D01*
G01X-1823444Y168528D01*
G01X-1820592Y165563D01*
G01X-1815707Y161442D01*
G01X-1811145Y157310D01*
G01X-1807734Y154135D01*
G01X-1806401Y152986D01*
G01X-1803183Y150130D01*
G01X-1799683Y147079D01*
G01X-1793249Y141880D01*
G01X-1790117Y139380D01*
G01X-1787191Y137017D01*
G01X-1784756Y134911D01*
G01X-1783337Y133866D01*
G01X-1782916Y133577D01*
G01X-1781903Y132662D01*
G01X-1779232Y130528D01*
G01X-1776653Y128514D01*
G01X-1774494Y126710D01*
G01X-1772560Y125192D01*
G01X-1771863Y124627D01*
G01X-1771350Y124284D01*
G01X-1770625Y123731D01*
G01X-1767840Y121513D01*
G01X-1765028Y119462D01*
G01X-1761415Y116583D01*
G01X-1757491Y113567D01*
G01X-1755847Y112491D01*
G01X-1753759Y110819D01*
G01X-1751722Y109161D01*
G01X-1749757Y107763D01*
G01X-1746625Y105397D01*
G01X-1742365Y102293D01*
G01X-1739945Y100698D01*
G01X-1738126Y99472D01*
G01X-1734467Y96695D01*
G01X-1730046Y93511D01*
G01X-1727467Y91853D01*
G01X-1725279Y90182D01*
G01X-1723066Y88536D01*
G01X-1720833Y86883D01*
G01X-1718623Y85225D01*
G01X-1715491Y83137D01*
G01X-1711071Y80130D01*
G01X-1708861Y78602D01*
G01X-1706631Y77029D01*
G01X-1703158Y74576D01*
G01X-1699686Y72245D01*
G01X-1697590Y71031D01*
G01X-1694216Y68673D01*
G01X-1693018Y67854D01*
G01X-1692611Y67530D01*
G01X-1690861Y66473D01*
G01X-1687492Y64271D01*
G01X-1684185Y62021D01*
G01X-1681883Y60493D01*
G01X-1680860Y59746D01*
G01X-1680448Y59422D01*
G01X-1678764Y58305D01*
G01X-1675515Y56072D01*
G01X-1673012Y54171D01*
G01X-1670820Y51340D01*
G01X-1670385Y50316D01*
G01X-1671102Y49253D01*
G01X-1672471Y47191D01*
G01X-1674400Y45376D01*
G01X-1677311Y43142D01*
G01X-1678969Y41727D01*
G01X-1680359Y40713D01*
G01X-1685790Y36100D01*
G01X-1688414Y33705D01*
G01X-1695345Y27549D01*
G01X-1696334Y26438D01*
G01X-1697342Y25328D01*
G01X-1705051Y18370D01*
G01X-1709219Y14461D01*
G01X-1714687Y9193D01*
G01X-1725440Y-1992D01*
G01X-1726800Y-3371D01*
G01X-1728734Y-5243D01*
G01X-1731335Y-8039D01*
G01X-1735388Y-12402D01*
G01X-1738784Y-16055D01*
G01X-1740995Y-18555D01*
G01X-1751412Y-30288D01*
G01X-1753720Y-33236D01*
G01X-1759428Y-40245D01*
G01X-1761179Y-42416D01*
G01X-1763424Y-45386D01*
G01X-1766424Y-49295D01*
G01X-1769245Y-52873D01*
G01X-1770021Y-54069D01*
G01X-1771248Y-55835D01*
G01X-1773694Y-59061D01*
G01X-1775345Y-61272D01*
G01X-1778863Y-66480D01*
G01X-1779665Y-67606D01*
G01X-1783793Y-73299D01*
G01X-1786969Y-78367D01*
G01X-1788211Y-80041D01*
G01X-1790329Y-83127D01*
G01X-1791865Y-85626D01*
G01X-1794671Y-90386D01*
G01X-1796118Y-92639D01*
G01X-1797568Y-94850D01*
G01X-1800465Y-99786D01*
G01X-1802471Y-103287D01*
G01X-1803558Y-105312D01*
G01X-1806850Y-111208D01*
G01X-1807832Y-113064D01*
G01X-1811286Y-119875D01*
G01X-1811807Y-120764D01*
G01X-1813110Y-122861D01*
G37*
G36*
G01X-1596017Y222082D02*
G01X-1598953Y220779D01*
G01X-1601592Y220137D01*
G01X-1603857Y220184D01*
G01X-1605669Y220947D01*
G01X-1606949Y222453D01*
G01X-1607661Y224533D01*
G01X-1608029Y227198D01*
G01X-1607850Y233323D01*
G01X-1606639Y238908D01*
G01X-1605719Y240897D01*
G01X-1604626Y242030D01*
G01X-1602681Y243414D01*
G01X-1600718Y245002D01*
G01X-1595245Y249723D01*
G01X-1593292Y252135D01*
G01X-1591798Y254712D01*
G01X-1590718Y257553D01*
G01X-1590004Y260755D01*
G01X-1589488Y268638D01*
G01X-1589701Y274630D01*
G01X-1590642Y279804D01*
G01X-1591943Y283268D01*
G01X-1593250Y285332D01*
G01X-1593541Y285768D01*
G01X-1595829Y288425D01*
G01X-1599362Y291191D01*
G01X-1600936Y291728D01*
G01X-1602644Y291845D01*
G01X-1606179Y290955D01*
G01X-1609391Y288782D01*
G01X-1610697Y287296D01*
G01X-1611707Y285587D01*
G01X-1615666Y275751D01*
G01X-1617798Y269485D01*
G01X-1619723Y262207D01*
G01X-1621226Y256403D01*
G01X-1623735Y247926D01*
G01X-1625009Y243711D01*
G01X-1626309Y240740D01*
G01X-1627855Y237331D01*
G01X-1628616Y235949D01*
G01X-1628911Y235570D01*
G01X-1633123Y230053D01*
G01X-1635866Y227671D01*
G01X-1638095Y226367D01*
G01X-1640700Y225048D01*
G01X-1643844Y224094D01*
G01X-1648589Y223795D01*
G01X-1653266Y224143D01*
G01X-1656204Y225129D01*
G01X-1657166Y225630D01*
G01X-1660750Y227306D01*
G01X-1664433Y229860D01*
G01X-1665889Y231158D01*
G01X-1667068Y232078D01*
G01X-1667965Y233286D01*
G01X-1669198Y235054D01*
G01X-1671094Y237905D01*
G01X-1673154Y242030D01*
G01X-1674055Y243688D01*
G01X-1674942Y245899D01*
G01X-1675702Y248479D01*
G01X-1676407Y251980D01*
G01X-1677187Y256495D01*
G01X-1678441Y263036D01*
G01X-1678463Y268535D01*
G01X-1677926Y274645D01*
G01X-1677122Y278699D01*
G01X-1675273Y287239D01*
G01X-1673557Y292335D01*
G01X-1671236Y296583D01*
G01X-1669630Y298784D01*
G01X-1667670Y301238D01*
G01X-1665213Y303752D01*
G01X-1663156Y305628D01*
G01X-1662009Y306707D01*
G01X-1660653Y307393D01*
G01X-1657909Y309133D01*
G01X-1655578Y310171D01*
G01X-1653505Y310558D01*
G01X-1651534Y310345D01*
G01X-1650159Y309203D01*
G01X-1649055Y306818D01*
G01X-1648254Y303621D01*
G01X-1647791Y300041D01*
G01X-1647699Y296508D01*
G01X-1648012Y293452D01*
G01X-1648762Y291304D01*
G01X-1649313Y290704D01*
G01X-1649985Y290492D01*
G01X-1650291Y290031D01*
G01X-1652041Y288282D01*
G01X-1655719Y285017D01*
G01X-1658651Y281561D01*
G01X-1660118Y278968D01*
G01X-1661310Y276077D01*
G01X-1662803Y269884D01*
G01X-1662995Y263953D01*
G01X-1662560Y261390D01*
G01X-1661750Y259258D01*
G01X-1661333Y257823D01*
G01X-1661057Y255815D01*
G01X-1660283Y253859D01*
G01X-1659092Y252028D01*
G01X-1657565Y250395D01*
G01X-1655785Y249034D01*
G01X-1653830Y248018D01*
G01X-1651784Y247421D01*
G01X-1649727Y247317D01*
G01X-1646966Y248391D01*
G01X-1644172Y250893D01*
G01X-1641728Y254385D01*
G01X-1640017Y258430D01*
G01X-1638121Y266063D01*
G01X-1637752Y267128D01*
G01X-1636361Y271586D01*
G01X-1634405Y280541D01*
G01X-1633456Y283698D01*
G01X-1631711Y289411D01*
G01X-1630314Y294483D01*
G01X-1629281Y296757D01*
G01X-1627665Y300023D01*
G01X-1624890Y304479D01*
G01X-1620027Y309471D01*
G01X-1616585Y312022D01*
G01X-1612754Y313809D01*
G01X-1608659Y314836D01*
G01X-1604422Y315105D01*
G01X-1600167Y314619D01*
G01X-1596015Y313382D01*
G01X-1592091Y311397D01*
G01X-1588517Y308667D01*
G01X-1586122Y306491D01*
G01X-1582399Y301992D01*
G01X-1579407Y296570D01*
G01X-1577343Y291597D01*
G01X-1575806Y286558D01*
G01X-1574396Y275893D01*
G01X-1574072Y268277D01*
G01X-1574567Y259842D01*
G01X-1575756Y251795D01*
G01X-1577517Y245347D01*
G01X-1579563Y239885D01*
G01X-1581569Y235879D01*
G01X-1583010Y233601D01*
G01X-1586228Y229684D01*
G01X-1589576Y226562D01*
G01X-1592866Y224019D01*
G01X-1596017Y222082D01*
G37*
G36*
G01X-1591430Y106536D02*
G01X-1634089Y106237D01*
G01X-1666494Y106379D01*
G01X-1671577Y106730D01*
G01X-1673720Y107399D01*
G01X-1674747Y108608D01*
G01X-1675555Y110921D01*
G01X-1676441Y117469D01*
G01X-1676237Y124270D01*
G01X-1675683Y126900D01*
G01X-1674802Y128553D01*
G01X-1673732Y129055D01*
G01X-1671088Y129379D01*
G01X-1657096Y129763D01*
G01X-1642773Y130271D01*
G01X-1640248Y130786D01*
G01X-1639587Y131604D01*
G01X-1638355Y133196D01*
G01X-1637132Y134554D01*
G01X-1636885Y139737D01*
G01X-1636885Y159622D01*
G01X-1637254Y169193D01*
G01X-1637759Y174145D01*
G01X-1639053Y176877D01*
G01X-1640075Y177728D01*
G01X-1641644Y178308D01*
G01X-1647310Y178869D01*
G01X-1657833Y178988D01*
G01X-1668188Y179125D01*
G01X-1671355Y179419D01*
G01X-1673488Y180003D01*
G01X-1674817Y180980D01*
G01X-1675572Y182453D01*
G01X-1676281Y187303D01*
G01X-1676745Y192094D01*
G01X-1676165Y196977D01*
G01X-1674888Y201160D01*
G01X-1673748Y201832D01*
G01X-1671587Y202356D01*
G01X-1665502Y202741D01*
G01X-1625042Y202712D01*
G01X-1584680Y202786D01*
G01X-1580137Y202405D01*
G01X-1578643Y201784D01*
G01X-1577575Y200741D01*
G01X-1576866Y199177D01*
G01X-1576447Y196992D01*
G01X-1576205Y190356D01*
G01X-1576345Y184522D01*
G01X-1576645Y183418D01*
G01X-1577225Y182549D01*
G01X-1578899Y180542D01*
G01X-1579900Y179944D01*
G01X-1581370Y179554D01*
G01X-1586789Y179225D01*
G01X-1597310Y179195D01*
G01X-1610836Y179032D01*
G01X-1614897Y178522D01*
G01X-1617553Y177451D01*
G01X-1619100Y175616D01*
G01X-1619834Y172812D01*
G01X-1620049Y163476D01*
G01X-1619887Y148471D01*
G01X-1619424Y138921D01*
G01X-1618574Y133878D01*
G01X-1617978Y132751D01*
G01X-1617252Y132396D01*
G01X-1616649Y131918D01*
G01X-1614843Y130609D01*
G01X-1613218Y129773D01*
G01X-1597024Y129885D01*
G01X-1580830Y129996D01*
G01X-1579228Y129079D01*
G01X-1577990Y127755D01*
G01X-1577007Y125531D01*
G01X-1575899Y119543D01*
G01X-1576080Y113427D01*
G01X-1576709Y111044D01*
G01X-1577728Y109496D01*
G01X-1579878Y107669D01*
G01X-1582891Y106968D01*
G01X-1591430Y106536D01*
G37*
G36*
G01X-1577572Y-108005D02*
G01X-1579195Y-109052D01*
G01X-1581198Y-110087D01*
G01X-1626393Y-110095D01*
G01X-1656153Y-110085D01*
G01X-1670443Y-109748D01*
G01X-1673589Y-109319D01*
G01X-1675030Y-108644D01*
G01X-1675486Y-107666D01*
G01X-1675680Y-106331D01*
G01X-1676100Y-101295D01*
G01X-1676282Y-92621D01*
G01X-1676048Y-69462D01*
G01X-1675986Y-67787D01*
G01X-1660590Y-67787D01*
G01X-1660227Y-80620D01*
G01X-1659864Y-82094D01*
G01X-1659694Y-83311D01*
G01X-1659159Y-84298D01*
G01X-1658193Y-85074D01*
G01X-1656731Y-85659D01*
G01X-1656731Y-85659D01*
G01X-1652058Y-86325D01*
G01X-1644620Y-86446D01*
G01X-1639448Y-86351D01*
G01X-1635593Y-85985D01*
G01X-1632880Y-85023D01*
G01X-1631135Y-83143D01*
G01X-1630182Y-80019D01*
G01X-1629848Y-75329D01*
G01X-1630336Y-59954D01*
G01X-1630760Y-53536D01*
G01X-1631511Y-49383D01*
G01X-1632880Y-46534D01*
G01X-1635157Y-44027D01*
G01X-1638897Y-41263D01*
G01X-1642762Y-39747D01*
G01X-1646602Y-39422D01*
G01X-1650268Y-40231D01*
G01X-1653611Y-42116D01*
G01X-1656480Y-45019D01*
G01X-1658727Y-48884D01*
G01X-1660203Y-53653D01*
G01X-1660590Y-67787D01*
G01X-1675986Y-67787D01*
G01X-1675217Y-47069D01*
G01X-1674653Y-39353D01*
G01X-1674028Y-35659D01*
G01X-1672843Y-33080D01*
G01X-1671616Y-30223D01*
G01X-1670822Y-29026D01*
G01X-1670544Y-28617D01*
G01X-1669516Y-27060D01*
G01X-1667112Y-24433D01*
G01X-1662261Y-20148D01*
G01X-1659675Y-18538D01*
G01X-1657449Y-17376D01*
G01X-1654610Y-16568D01*
G01X-1647890Y-16002D01*
G01X-1641111Y-16810D01*
G01X-1638197Y-17721D01*
G01X-1635867Y-18965D01*
G01X-1633790Y-20181D01*
G01X-1631071Y-22501D01*
G01X-1626723Y-26359D01*
G01X-1624992Y-27327D01*
G01X-1623387Y-27655D01*
G01X-1621778Y-27344D01*
G01X-1620037Y-26395D01*
G01X-1615647Y-22583D01*
G01X-1612874Y-20743D01*
G01X-1608802Y-19139D01*
G01X-1603886Y-17913D01*
G01X-1598578Y-17209D01*
G01X-1582765Y-15410D01*
G01X-1580632Y-15237D01*
G01X-1578150Y-16224D01*
G01X-1577004Y-16905D01*
G01X-1576431Y-18060D01*
G01X-1576318Y-25156D01*
G01X-1576673Y-30995D01*
G01X-1577729Y-34540D01*
G01X-1578643Y-35665D01*
G01X-1579882Y-36472D01*
G01X-1583530Y-37468D01*
G01X-1588014Y-38418D01*
G01X-1592436Y-39338D01*
G01X-1596967Y-40115D01*
G01X-1599890Y-40450D01*
G01X-1603441Y-41324D01*
G01X-1607189Y-43261D01*
G01X-1609194Y-44504D01*
G01X-1610797Y-45971D01*
G01X-1612423Y-48264D01*
G01X-1613074Y-49295D01*
G01X-1614858Y-52796D01*
G01X-1615765Y-59106D01*
G01X-1615846Y-69564D01*
G01X-1615512Y-76987D01*
G01X-1614956Y-81487D01*
G01X-1613989Y-83931D01*
G01X-1612420Y-85186D01*
G01X-1610402Y-86189D01*
G01X-1596401Y-86521D01*
G01X-1582124Y-86803D01*
G01X-1579780Y-87520D01*
G01X-1578165Y-88950D01*
G01X-1576224Y-90891D01*
G01X-1576252Y-98194D01*
G01X-1576337Y-103450D01*
G01X-1576698Y-106429D01*
G01X-1577572Y-108005D01*
G37*
G36*
G01X-1606731Y2888D02*
G01X-1611460Y2632D01*
G01X-1616152Y2678D01*
G01X-1619555Y3057D01*
G01X-1625224Y4788D01*
G01X-1628364Y6363D01*
G01X-1629270Y6722D01*
G01X-1630077Y7012D01*
G01X-1632329Y8334D01*
G01X-1635437Y10445D01*
G01X-1638789Y13671D01*
G01X-1641858Y17438D01*
G01X-1644116Y21170D01*
G01X-1645807Y24411D01*
G01X-1646827Y26390D01*
G01X-1647847Y30359D01*
G01X-1649331Y41548D01*
G01X-1649307Y45137D01*
G01X-1636354Y45137D01*
G01X-1636247Y41586D01*
G01X-1635750Y38968D01*
G01X-1633667Y35099D01*
G01X-1633135Y34322D01*
G01X-1632102Y32608D01*
G01X-1630212Y30518D01*
G01X-1627991Y28567D01*
G01X-1625963Y27272D01*
G01X-1623384Y25904D01*
G01X-1620805Y24810D01*
G01X-1618234Y23974D01*
G01X-1618234Y23974D01*
G01X-1612741Y23636D01*
G01X-1606020Y24195D01*
G01X-1601315Y25394D01*
G01X-1596186Y27689D01*
G01X-1592832Y30330D01*
G01X-1589999Y33918D01*
G01X-1588390Y36866D01*
G01X-1587479Y40265D01*
G01X-1587295Y44868D01*
G01X-1587792Y49358D01*
G01X-1588926Y52420D01*
G01X-1590176Y54658D01*
G01X-1591687Y57095D01*
G01X-1592900Y58316D01*
G01X-1594328Y59469D01*
G01X-1597591Y61570D01*
G01X-1599805Y62779D01*
G01X-1601463Y63597D01*
G01X-1606570Y64740D01*
G01X-1613040Y65219D01*
G01X-1619202Y65000D01*
G01X-1623384Y64049D01*
G01X-1627852Y61220D01*
G01X-1631305Y58347D01*
G01X-1633793Y54836D01*
G01X-1635477Y51567D01*
G01X-1636091Y48754D01*
G01X-1636354Y45137D01*
G01X-1649307Y45137D01*
G01X-1649286Y48332D01*
G01X-1648780Y54631D01*
G01X-1647165Y61868D01*
G01X-1645799Y64952D01*
G01X-1643839Y68418D01*
G01X-1640952Y72992D01*
G01X-1636243Y77711D01*
G01X-1632739Y80461D01*
G01X-1630509Y81826D01*
G01X-1628478Y83209D01*
G01X-1625768Y84478D01*
G01X-1619094Y86500D01*
G01X-1612063Y87541D01*
G01X-1608906Y87583D01*
G01X-1606252Y87248D01*
G01X-1600821Y85651D01*
G01X-1595744Y83470D01*
G01X-1591149Y80769D01*
G01X-1587164Y77615D01*
G01X-1584677Y75637D01*
G01X-1584330Y75085D01*
G01X-1583986Y74532D01*
G01X-1583410Y73797D01*
G01X-1582740Y72599D01*
G01X-1580208Y68943D01*
G01X-1578803Y65702D01*
G01X-1578130Y64132D01*
G01X-1577233Y62186D01*
G01X-1576399Y59791D01*
G01X-1575434Y55103D01*
G01X-1574882Y48349D01*
G01X-1574815Y41134D01*
G01X-1575303Y35067D01*
G01X-1576402Y29233D01*
G01X-1578100Y24964D01*
G01X-1579702Y21463D01*
G01X-1581008Y18891D01*
G01X-1582400Y17060D01*
G01X-1583438Y15475D01*
G01X-1583986Y14830D01*
G01X-1584330Y14356D01*
G01X-1585343Y13268D01*
G01X-1588884Y10446D01*
G01X-1593121Y7443D01*
G01X-1595383Y6177D01*
G01X-1598105Y4967D01*
G01X-1603213Y3421D01*
G01X-1606731Y2888D01*
G37*
G36*
G01X-1510734Y3064D02*
G01X-1522065Y3048D01*
G01X-1536249Y3260D01*
G01X-1538501Y4462D01*
G01X-1540735Y6134D01*
G01X-1541727Y9117D01*
G01X-1541361Y13065D01*
G01X-1540537Y14601D01*
G01X-1538877Y16478D01*
G01X-1536905Y18180D01*
G01X-1535144Y19192D01*
G01X-1530354Y21284D01*
G01X-1524644Y23696D01*
G01X-1520517Y25339D01*
G01X-1518866Y26587D01*
G01X-1518377Y27912D01*
G01X-1517879Y29842D01*
G01X-1518466Y31046D01*
G01X-1523738Y33931D01*
G01X-1530488Y36589D01*
G01X-1534833Y38294D01*
G01X-1536261Y39153D01*
G01X-1539207Y41457D01*
G01X-1540636Y43543D01*
G01X-1541474Y46439D01*
G01X-1541597Y49391D01*
G01X-1540882Y51645D01*
G01X-1539625Y52689D01*
G01X-1537526Y53592D01*
G01X-1531352Y54900D01*
G01X-1523462Y55424D01*
G01X-1514958Y55021D01*
G01X-1508013Y54631D01*
G01X-1504058Y54244D01*
G01X-1501398Y52697D01*
G01X-1500258Y51569D01*
G01X-1499909Y50660D01*
G01X-1500368Y49695D01*
G01X-1501651Y48399D01*
G01X-1503115Y47168D01*
G01X-1504617Y46605D01*
G01X-1511564Y46907D01*
G01X-1517283Y46939D01*
G01X-1518963Y46529D01*
G01X-1519819Y45840D01*
G01X-1520439Y43479D01*
G01X-1520402Y42501D01*
G01X-1520101Y42101D01*
G01X-1519424Y41749D01*
G01X-1511933Y37560D01*
G01X-1507404Y35624D01*
G01X-1504403Y34154D01*
G01X-1502060Y31758D01*
G01X-1501313Y30270D01*
G01X-1501080Y28492D01*
G01X-1501359Y26748D01*
G01X-1502145Y25359D01*
G01X-1503620Y24217D01*
G01X-1507880Y22226D01*
G01X-1511099Y20714D01*
G01X-1512259Y20358D01*
G01X-1514919Y19444D01*
G01X-1517829Y17351D01*
G01X-1519891Y15047D01*
G01X-1520263Y14120D01*
G01X-1520011Y13503D01*
G01X-1518933Y12721D01*
G01X-1516383Y11783D01*
G01X-1510427Y11323D01*
G01X-1503635Y10670D01*
G01X-1502223Y9972D01*
G01X-1501462Y8842D01*
G01X-1500586Y6837D01*
G01X-1500338Y5724D01*
G01X-1500742Y4827D01*
G01X-1501889Y4129D01*
G01X-1503875Y3613D01*
G01X-1510734Y3064D01*
G37*
G36*
G01X-1512659Y-51486D02*
G01X-1514959Y-52128D01*
G01X-1520584Y-52677D01*
G01X-1526028Y-52231D01*
G01X-1528102Y-51630D01*
G01X-1529433Y-50773D01*
G01X-1532183Y-49295D01*
G01X-1532749Y-49016D01*
G01X-1533762Y-48272D01*
G01X-1535413Y-47178D01*
G01X-1537005Y-45525D01*
G01X-1538372Y-43521D01*
G01X-1539346Y-41372D01*
G01X-1540297Y-39345D01*
G01X-1541011Y-37381D01*
G01X-1541562Y-33264D01*
G01X-1541764Y-28798D01*
G01X-1541724Y-28075D01*
G01X-1535692Y-28075D01*
G01X-1535595Y-31671D01*
G01X-1534654Y-34978D01*
G01X-1532942Y-37901D01*
G01X-1530534Y-40341D01*
G01X-1527504Y-42202D01*
G01X-1527504Y-42202D01*
G01X-1523929Y-43387D01*
G01X-1519881Y-43797D01*
G01X-1515883Y-43329D01*
G01X-1512343Y-42028D01*
G01X-1509354Y-40030D01*
G01X-1507012Y-37466D01*
G01X-1505410Y-34470D01*
G01X-1504643Y-31175D01*
G01X-1504805Y-27713D01*
G01X-1505990Y-24219D01*
G01X-1506590Y-22563D01*
G01X-1509085Y-19693D01*
G01X-1512588Y-16908D01*
G01X-1516135Y-15734D01*
G01X-1519654Y-15223D01*
G01X-1523050Y-15342D01*
G01X-1526229Y-16059D01*
G01X-1529094Y-17344D01*
G01X-1531553Y-19165D01*
G01X-1533509Y-21491D01*
G01X-1534868Y-24289D01*
G01X-1535692Y-28075D01*
G01X-1541724Y-28075D01*
G01X-1541539Y-24706D01*
G01X-1540913Y-21212D01*
G01X-1539910Y-18540D01*
G01X-1538228Y-15390D01*
G01X-1537013Y-13407D01*
G01X-1536131Y-12810D01*
G01X-1533932Y-11152D01*
G01X-1531731Y-9494D01*
G01X-1529574Y-8800D01*
G01X-1525194Y-7483D01*
G01X-1520945Y-6932D01*
G01X-1516881Y-7127D01*
G01X-1513060Y-8048D01*
G01X-1509537Y-9678D01*
G01X-1506366Y-11995D01*
G01X-1503605Y-14981D01*
G01X-1501308Y-18617D01*
G01X-1499069Y-22945D01*
G01X-1499067Y-29394D01*
G01X-1499064Y-35844D01*
G01X-1500432Y-38752D01*
G01X-1501801Y-42345D01*
G01X-1502144Y-43030D01*
G01X-1502703Y-43707D01*
G01X-1504831Y-46337D01*
G01X-1508320Y-48974D01*
G01X-1511011Y-50601D01*
G01X-1512659Y-51486D01*
G37*
G36*
G01X-1517386Y-104072D02*
G01X-1520865Y-104332D01*
G01X-1524241Y-104079D01*
G01X-1526805Y-103311D01*
G01X-1530538Y-101511D01*
G01X-1533031Y-100049D01*
G01X-1535482Y-98114D01*
G01X-1537489Y-96063D01*
G01X-1538652Y-94256D01*
G01X-1539934Y-91676D01*
G01X-1541043Y-88762D01*
G01X-1541737Y-84858D01*
G01X-1541866Y-80544D01*
G01X-1541492Y-76418D01*
G01X-1540669Y-72841D01*
G01X-1539453Y-70171D01*
G01X-1537903Y-67586D01*
G01X-1535519Y-65344D01*
G01X-1533165Y-63545D01*
G01X-1532504Y-63080D01*
G01X-1531787Y-63103D01*
G01X-1530454Y-64218D01*
G01X-1529705Y-66110D01*
G01X-1529718Y-67104D01*
G01X-1530080Y-67999D01*
G01X-1531379Y-70301D01*
G01X-1532918Y-72662D01*
G01X-1533854Y-73806D01*
G01X-1534775Y-76419D01*
G01X-1535341Y-78988D01*
G01X-1535362Y-81821D01*
G01X-1534910Y-84730D01*
G01X-1534057Y-87529D01*
G01X-1532874Y-90031D01*
G01X-1531434Y-92049D01*
G01X-1529808Y-93397D01*
G01X-1528067Y-93887D01*
G01X-1527020Y-94194D01*
G01X-1525061Y-94912D01*
G01X-1521813Y-95355D01*
G01X-1518384Y-95436D01*
G01X-1515883Y-95069D01*
G01X-1513069Y-94226D01*
G01X-1510989Y-93302D01*
G01X-1509088Y-91744D01*
G01X-1507438Y-89707D01*
G01X-1506111Y-87346D01*
G01X-1505177Y-84815D01*
G01X-1504710Y-82269D01*
G01X-1504779Y-79864D01*
G01X-1505458Y-77753D01*
G01X-1506354Y-75829D01*
G01X-1508411Y-72896D01*
G01X-1509906Y-70944D01*
G01X-1511942Y-68827D01*
G01X-1512609Y-68577D01*
G01X-1513162Y-67912D01*
G01X-1513851Y-65838D01*
G01X-1513848Y-63612D01*
G01X-1513537Y-62756D01*
G01X-1512992Y-62240D01*
G01X-1511724Y-62056D01*
G01X-1510095Y-62350D01*
G01X-1508397Y-63034D01*
G01X-1506924Y-64024D01*
G01X-1505406Y-65136D01*
G01X-1503842Y-66454D01*
G01X-1502274Y-68808D01*
G01X-1501345Y-70301D01*
G01X-1501064Y-70688D01*
G01X-1500302Y-72623D01*
G01X-1498995Y-76624D01*
G01X-1498600Y-81158D01*
G01X-1499111Y-85772D01*
G01X-1500522Y-90018D01*
G01X-1502472Y-94256D01*
G01X-1503763Y-96399D01*
G01X-1505654Y-98453D01*
G01X-1507950Y-100240D01*
G01X-1510460Y-101583D01*
G01X-1514512Y-103298D01*
G01X-1517386Y-104072D01*
G37*
G36*
G01X-1501801Y172423D02*
G01X-1502189Y171793D01*
G01X-1503275Y171667D01*
G01X-1507070Y172886D01*
G01X-1511564Y174809D01*
G01X-1514143Y175952D01*
G01X-1519863Y178448D01*
G01X-1522599Y179607D01*
G01X-1523491Y179932D01*
G01X-1524615Y180437D01*
G01X-1527739Y181862D01*
G01X-1531644Y183156D01*
G01X-1534223Y184512D01*
G01X-1536949Y186211D01*
G01X-1539364Y188141D01*
G01X-1540958Y190714D01*
G01X-1541476Y192746D01*
G01X-1541340Y193098D01*
G01X-1526910Y193098D01*
G01X-1526760Y191027D01*
G01X-1525249Y189221D01*
G01X-1525249Y189221D01*
G01X-1522317Y187534D01*
G01X-1520258Y186592D01*
G01X-1518398Y187365D01*
G01X-1516538Y188568D01*
G01X-1516108Y189428D01*
G01X-1515198Y190759D01*
G01X-1515039Y192208D01*
G01X-1515636Y193808D01*
G01X-1516992Y195595D01*
G01X-1518010Y196932D01*
G01X-1519255Y197656D01*
G01X-1521230Y197874D01*
G01X-1524325Y197033D01*
G01X-1525764Y195581D01*
G01X-1526910Y193098D01*
G01X-1541340Y193098D01*
G01X-1540661Y194844D01*
G01X-1538407Y197847D01*
G01X-1537087Y199002D01*
G01X-1536095Y199464D01*
G01X-1535697Y199773D01*
G01X-1533748Y201030D01*
G01X-1531333Y202044D01*
G01X-1529560Y202744D01*
G01X-1521512Y206289D01*
G01X-1517581Y208135D01*
G01X-1515186Y209246D01*
G01X-1513222Y209770D01*
G01X-1510643Y210542D01*
G01X-1508635Y211321D01*
G01X-1507799Y211626D01*
G01X-1505853Y212547D01*
G01X-1504040Y213353D01*
G01X-1502574Y213267D01*
G01X-1501468Y212294D01*
G01X-1500735Y210440D01*
G01X-1500322Y208702D01*
G01X-1501890Y206960D01*
G01X-1504342Y204461D01*
G01X-1507184Y201696D01*
G01X-1508903Y199041D01*
G01X-1509717Y196005D01*
G01X-1509844Y192097D01*
G01X-1509565Y188983D01*
G01X-1508907Y186475D01*
G01X-1507806Y184411D01*
G01X-1506201Y182628D01*
G01X-1503172Y179759D01*
G01X-1501412Y177674D01*
G01X-1500694Y176033D01*
G01X-1500793Y174496D01*
G01X-1501508Y172930D01*
G01X-1501801Y172423D01*
G37*
G36*
G01X-1501437Y224183D02*
G01X-1502464Y223317D01*
G01X-1504049Y222239D01*
G01X-1520214Y222269D01*
G01X-1536379Y222298D01*
G01X-1538525Y223272D01*
G01X-1540762Y224436D01*
G01X-1541245Y226098D01*
G01X-1541465Y228711D01*
G01X-1540585Y230386D01*
G01X-1537769Y233756D01*
G01X-1535902Y235079D01*
G01X-1534060Y236379D01*
G01X-1531828Y237990D01*
G01X-1529731Y239382D01*
G01X-1527756Y240948D01*
G01X-1526335Y242074D01*
G01X-1524725Y243094D01*
G01X-1522619Y244571D01*
G01X-1520565Y246597D01*
G01X-1519057Y248610D01*
G01X-1518586Y250053D01*
G01X-1519321Y251997D01*
G01X-1520950Y253127D01*
G01X-1524217Y253699D01*
G01X-1529866Y253974D01*
G01X-1537115Y254191D01*
G01X-1538812Y255390D01*
G01X-1540007Y257044D01*
G01X-1540087Y259114D01*
G01X-1539166Y261056D01*
G01X-1537358Y262327D01*
G01X-1530827Y262782D01*
G01X-1519186Y262748D01*
G01X-1507886Y262332D01*
G01X-1502379Y261641D01*
G01X-1501103Y260060D01*
G01X-1500391Y258454D01*
G01X-1500252Y256855D01*
G01X-1500695Y255297D01*
G01X-1501420Y253449D01*
G01X-1503729Y250869D01*
G01X-1507505Y247541D01*
G01X-1509969Y245449D01*
G01X-1512833Y243297D01*
G01X-1515162Y241488D01*
G01X-1516859Y240128D01*
G01X-1520118Y238273D01*
G01X-1521221Y237329D01*
G01X-1522061Y235325D01*
G01X-1522817Y232983D01*
G01X-1521935Y232101D01*
G01X-1520781Y231278D01*
G01X-1519095Y230764D01*
G01X-1512829Y230423D01*
G01X-1507782Y230309D01*
G01X-1504555Y229892D01*
G01X-1502656Y229050D01*
G01X-1501595Y227663D01*
G01X-1501033Y226203D01*
G01X-1500970Y225094D01*
G01X-1501437Y224183D01*
G37*
G36*
G01X-1503231Y66285D02*
G01X-1536249Y66268D01*
G01X-1537723Y67262D01*
G01X-1539642Y68630D01*
G01X-1540414Y69004D01*
G01X-1541142Y69833D01*
G01X-1541591Y73986D01*
G01X-1541521Y80472D01*
G01X-1535081Y80472D01*
G01X-1534498Y78650D01*
G01X-1533406Y77108D01*
G01X-1531988Y76038D01*
G01X-1531988Y76038D01*
G01X-1530429Y75632D01*
G01X-1529134Y75320D01*
G01X-1526924Y75359D01*
G01X-1524435Y75845D01*
G01X-1522973Y76688D01*
G01X-1521923Y78427D01*
G01X-1521286Y80800D01*
G01X-1521063Y83545D01*
G01X-1521256Y86403D01*
G01X-1521866Y89111D01*
G01X-1522895Y91408D01*
G01X-1524344Y93032D01*
G01X-1527385Y94420D01*
G01X-1530315Y94328D01*
G01X-1532789Y92858D01*
G01X-1534460Y90108D01*
G01X-1535071Y85494D01*
G01X-1535081Y80472D01*
G01X-1541521Y80472D01*
G01X-1541512Y81321D01*
G01X-1541020Y88831D01*
G01X-1540231Y93511D01*
G01X-1537736Y98971D01*
G01X-1536698Y100267D01*
G01X-1535512Y101066D01*
G01X-1533711Y102247D01*
G01X-1531172Y103607D01*
G01X-1527964Y104082D01*
G01X-1524718Y103667D01*
G01X-1522065Y102356D01*
G01X-1519806Y100698D01*
G01X-1518938Y99316D01*
G01X-1517590Y96508D01*
G01X-1515790Y91808D01*
G01X-1514857Y85404D01*
G01X-1514162Y81035D01*
G01X-1512764Y78216D01*
G01X-1510208Y76415D01*
G01X-1506038Y75097D01*
G01X-1503601Y74260D01*
G01X-1501679Y72671D01*
G01X-1499900Y70874D01*
G01X-1500558Y69761D01*
G01X-1502224Y67466D01*
G01X-1503231Y66285D01*
G37*
G36*
G01X-1536474Y273491D02*
G01X-1538317Y272228D01*
G01X-1539255Y272087D01*
G01X-1540067Y272317D01*
G01X-1540650Y272953D01*
G01X-1540902Y274027D01*
G01X-1541207Y279252D01*
G01X-1541519Y291850D01*
G01X-1541174Y301781D01*
G01X-1540755Y304778D01*
G01X-1539222Y304988D01*
G01X-1537112Y305420D01*
G01X-1536559Y305134D01*
G01X-1535914Y303995D01*
G01X-1534587Y299705D01*
G01X-1534072Y297943D01*
G01X-1533326Y296563D01*
G01X-1532188Y295515D01*
G01X-1530498Y294748D01*
G01X-1524826Y293852D01*
G01X-1515029Y293467D01*
G01X-1504515Y292980D01*
G01X-1502624Y292298D01*
G01X-1501175Y291005D01*
G01X-1500572Y290250D01*
G01X-1500378Y289494D01*
G01X-1501233Y287352D01*
G01X-1502343Y285723D01*
G01X-1504222Y284909D01*
G01X-1508436Y284627D01*
G01X-1516548Y284595D01*
G01X-1525679Y284457D01*
G01X-1531047Y283910D01*
G01X-1532611Y283419D01*
G01X-1533584Y282750D01*
G01X-1534083Y281878D01*
G01X-1534223Y280778D01*
G01X-1534558Y279361D01*
G01X-1535355Y275838D01*
G01X-1535772Y274546D01*
G01X-1536474Y273491D01*
G37*
G36*
G01X-1506089Y113042D02*
G01X-1515347Y113023D01*
G01X-1533617Y113631D01*
G01X-1537418Y114000D01*
G01X-1539289Y114514D01*
G01X-1540650Y115395D01*
G01X-1540855Y117127D01*
G01X-1540753Y118501D01*
G01X-1540355Y119570D01*
G01X-1539518Y120372D01*
G01X-1538103Y120944D01*
G01X-1532972Y121551D01*
G01X-1523834Y121694D01*
G01X-1510299Y122124D01*
G01X-1508009Y123020D01*
G01X-1507327Y123793D01*
G01X-1507049Y124284D01*
G01X-1506418Y124795D01*
G01X-1505987Y126415D01*
G01X-1505642Y133497D01*
G01X-1505380Y140392D01*
G01X-1504581Y143968D01*
G01X-1503943Y144579D01*
G01X-1503125Y144441D01*
G01X-1500892Y142027D01*
G01X-1499774Y140437D01*
G01X-1499665Y130246D01*
G01X-1499774Y119977D01*
G01X-1500305Y116857D01*
G01X-1501407Y114801D01*
G01X-1503271Y113600D01*
G01X-1506089Y113042D01*
G37*
G36*
G01X-1503274Y154460D02*
G01X-1517594Y154148D01*
G01X-1534960Y154481D01*
G01X-1538836Y155275D01*
G01X-1539959Y155875D01*
G01X-1540544Y156613D01*
G01X-1540849Y159245D01*
G01X-1540620Y160327D01*
G01X-1540179Y160768D01*
G01X-1539251Y161021D01*
G01X-1537235Y161626D01*
G01X-1533056Y162044D01*
G01X-1521048Y162334D01*
G01X-1508893Y161919D01*
G01X-1504530Y161457D01*
G01X-1502255Y160830D01*
G01X-1501296Y159454D01*
G01X-1501044Y157614D01*
G01X-1501470Y155919D01*
G01X-1502542Y154978D01*
G01X-1503274Y154460D01*
G37*
G04 Image End*

G04 Text Start*
G54D10*
G01X-121920Y529590D02*
G01X-121920Y469646D01*
G01X-121920Y529590D02*
G01X-96266Y529590D01*
G01X-87630Y526796D01*
G01X-84836Y523748D01*
G01X-81788Y518160D01*
G01X-81788Y512318D01*
G01X-84836Y506730D01*
G01X-87630Y503936D01*
G01X-96266Y500888D01*
G01X-121920Y500888D02*
G01X-96266Y500888D01*
G01X-87630Y498094D01*
G01X-84836Y495300D01*
G01X-81788Y489458D01*
G01X-81788Y481076D01*
G01X-84836Y475234D01*
G01X-87630Y472440D01*
G01X-96266Y469646D01*
G01X-121920Y469646D01*
G01X-40640Y529590D02*
G01X-46482Y526796D01*
G01X-52070Y520954D01*
G01X-55118Y515366D01*
G01X-57912Y506730D01*
G01X-57912Y492506D01*
G01X-55118Y483870D01*
G01X-52070Y478028D01*
G01X-46482Y472440D01*
G01X-40640Y469646D01*
G01X-29210Y469646D01*
G01X-23622Y472440D01*
G01X-17780Y478028D01*
G01X-14986Y483870D01*
G01X-12192Y492506D01*
G01X-12192Y506730D01*
G01X-14986Y515366D01*
G01X-17780Y520954D01*
G01X-23622Y526796D01*
G01X-29210Y529590D01*
G01X-40640Y529590D01*
G01X28956Y529590D02*
G01X23114Y526796D01*
G01X17526Y520954D01*
G01X14478Y515366D01*
G01X11684Y506730D01*
G01X11684Y492506D01*
G01X14478Y483870D01*
G01X17526Y478028D01*
G01X23114Y472440D01*
G01X28956Y469646D01*
G01X40386Y469646D01*
G01X45974Y472440D01*
G01X51816Y478028D01*
G01X54610Y483870D01*
G01X57404Y492506D01*
G01X57404Y506730D01*
G01X54610Y515366D01*
G01X51816Y520954D01*
G01X45974Y526796D01*
G01X40386Y529590D01*
G01X28956Y529590D01*
G01X101346Y529590D02*
G01X101346Y469646D01*
G01X81280Y529590D02*
G01X121412Y529590D01*
G01X162560Y529590D02*
G01X153924Y526796D01*
G01X148082Y518160D01*
G01X145288Y503936D01*
G01X145288Y495300D01*
G01X148082Y481076D01*
G01X153924Y472440D01*
G01X162560Y469646D01*
G01X168148Y469646D01*
G01X176784Y472440D01*
G01X182372Y481076D01*
G01X185420Y495300D01*
G01X185420Y503936D01*
G01X182372Y518160D01*
G01X176784Y526796D01*
G01X168148Y529590D01*
G01X162560Y529590D01*
G01X283210Y17780D02*
G01X343154Y17780D01*
G01X283210Y17780D02*
G01X283210Y43434D01*
G01X286004Y52070D01*
G01X289052Y54864D01*
G01X294640Y57912D01*
G01X300482Y57912D01*
G01X306070Y54864D01*
G01X308864Y52070D01*
G01X311912Y43434D01*
G01X311912Y17780D02*
G01X311912Y43434D01*
G01X314706Y52070D01*
G01X317500Y54864D01*
G01X323342Y57912D01*
G01X331724Y57912D01*
G01X337566Y54864D01*
G01X340360Y52070D01*
G01X343154Y43434D01*
G01X343154Y17780D01*
G01X283210Y99060D02*
G01X286004Y93218D01*
G01X291846Y87630D01*
G01X297434Y84582D01*
G01X306070Y81788D01*
G01X320294Y81788D01*
G01X328930Y84582D01*
G01X334772Y87630D01*
G01X340360Y93218D01*
G01X343154Y99060D01*
G01X343154Y110490D01*
G01X340360Y116078D01*
G01X334772Y121920D01*
G01X328930Y124714D01*
G01X320294Y127508D01*
G01X306070Y127508D01*
G01X297434Y124714D01*
G01X291846Y121920D01*
G01X286004Y116078D01*
G01X283210Y110490D01*
G01X283210Y99060D01*
G01X283210Y168656D02*
G01X286004Y162814D01*
G01X291846Y157226D01*
G01X297434Y154178D01*
G01X306070Y151384D01*
G01X320294Y151384D01*
G01X328930Y154178D01*
G01X334772Y157226D01*
G01X340360Y162814D01*
G01X343154Y168656D01*
G01X343154Y180086D01*
G01X340360Y185674D01*
G01X334772Y191516D01*
G01X328930Y194310D01*
G01X320294Y197104D01*
G01X306070Y197104D01*
G01X297434Y194310D01*
G01X291846Y191516D01*
G01X286004Y185674D01*
G01X283210Y180086D01*
G01X283210Y168656D01*
G01X283210Y241046D02*
G01X343154Y241046D01*
G01X283210Y220980D02*
G01X283210Y261112D01*
G01X294640Y284988D02*
G01X291846Y290830D01*
G01X283210Y299212D01*
G01X343154Y299212D01*
G54D11*
G01X1015746Y-621792D02*
G01X1050036Y-711708D01*
G01X1084326Y-621792D02*
G01X1050036Y-711708D01*
G01X1120140Y-621792D02*
G01X1120140Y-711708D01*
G01X1155954Y-621792D02*
G01X1155954Y-711708D01*
G01X1155954Y-621792D02*
G01X1215898Y-711708D01*
G01X1215898Y-621792D02*
G01X1215898Y-711708D01*
G01X1024382Y-147828D02*
G01X1020064Y-139192D01*
G01X1011682Y-130556D01*
G01X1003046Y-126492D01*
G01X985774Y-126492D01*
G01X977392Y-130556D01*
G01X968756Y-139192D01*
G01X964438Y-147828D01*
G01X960120Y-160782D01*
G01X960120Y-182118D01*
G01X964438Y-195072D01*
G01X968756Y-203454D01*
G01X977392Y-212090D01*
G01X985774Y-216408D01*
G01X1003046Y-216408D01*
G01X1011682Y-212090D01*
G01X1020064Y-203454D01*
G01X1024382Y-195072D01*
G01X1024382Y-182118D01*
G01X1003046Y-182118D02*
G01X1024382Y-182118D01*
G01X1060196Y-126492D02*
G01X1060196Y-216408D01*
G01X1060196Y-126492D02*
G01X1120140Y-216408D01*
G01X1120140Y-126492D02*
G01X1120140Y-216408D01*
G01X1155954Y-126492D02*
G01X1155954Y-216408D01*
G01X1155954Y-126492D02*
G01X1185926Y-126492D01*
G01X1198880Y-130556D01*
G01X1207516Y-139192D01*
G01X1211580Y-147828D01*
G01X1215898Y-160782D01*
G01X1215898Y-182118D01*
G01X1211580Y-195072D01*
G01X1207516Y-203454D01*
G01X1198880Y-212090D01*
G01X1185926Y-216408D01*
G01X1155954Y-216408D01*
G01X1332992Y389128D02*
G01X1410208Y389128D01*
G01X1371600Y350520D02*
G01X1371600Y427736D01*
G01X1337310Y463550D02*
G01X1332992Y472186D01*
G01X1320292Y484886D01*
G01X1410208Y484886D01*
G01X1341628Y525018D02*
G01X1337310Y525018D01*
G01X1328674Y529336D01*
G01X1324356Y533654D01*
G01X1320292Y542036D01*
G01X1320292Y559308D01*
G01X1324356Y567944D01*
G01X1328674Y572262D01*
G01X1337310Y576326D01*
G01X1345946Y576326D01*
G01X1354582Y572262D01*
G01X1367282Y563626D01*
G01X1410208Y520700D01*
G01X1410208Y580644D01*
G01X1320292Y616458D02*
G01X1410208Y650748D01*
G01X1320292Y685038D02*
G01X1410208Y650748D01*
G01X643128Y1753108D02*
G01X643128Y1675892D01*
G01X604520Y1714500D02*
G01X681736Y1714500D01*
G01X769112Y1765808D02*
G01X726186Y1765808D01*
G01X721868Y1727454D01*
G01X726186Y1731518D01*
G01X738886Y1735836D01*
G01X751840Y1735836D01*
G01X764794Y1731518D01*
G01X773176Y1723136D01*
G01X777494Y1710182D01*
G01X777494Y1701546D01*
G01X773176Y1688846D01*
G01X764794Y1680210D01*
G01X751840Y1675892D01*
G01X738886Y1675892D01*
G01X726186Y1680210D01*
G01X721868Y1684528D01*
G01X717550Y1693164D01*
G01X813308Y1765808D02*
G01X847598Y1675892D01*
G01X881888Y1765808D02*
G01X847598Y1675892D01*
G01X-423672Y1728895D02*
G01X-423672Y1651679D01*
G01X-462280Y1690287D02*
G01X-385064Y1690287D01*
G01X-340614Y1741595D02*
G01X-293624Y1741595D01*
G01X-319278Y1707305D01*
G01X-306324Y1707305D01*
G01X-297688Y1703241D01*
G01X-293624Y1698923D01*
G01X-289306Y1685969D01*
G01X-289306Y1677333D01*
G01X-293624Y1664633D01*
G01X-302006Y1655997D01*
G01X-314960Y1651679D01*
G01X-327914Y1651679D01*
G01X-340614Y1655997D01*
G01X-344932Y1660315D01*
G01X-349250Y1668951D01*
G01X-249174Y1673015D02*
G01X-253492Y1668951D01*
G01X-249174Y1664633D01*
G01X-244856Y1668951D01*
G01X-249174Y1673015D01*
G01X-200406Y1741595D02*
G01X-153416Y1741595D01*
G01X-179070Y1707305D01*
G01X-166116Y1707305D01*
G01X-157480Y1703241D01*
G01X-153416Y1698923D01*
G01X-149098Y1685969D01*
G01X-149098Y1677333D01*
G01X-153416Y1664633D01*
G01X-161798Y1655997D01*
G01X-174752Y1651679D01*
G01X-187706Y1651679D01*
G01X-200406Y1655997D01*
G01X-204724Y1660315D01*
G01X-209042Y1668951D01*
G01X-113284Y1741595D02*
G01X-78994Y1651679D01*
G01X-44704Y1741595D02*
G01X-78994Y1651679D01*
G01X-811530Y1436876D02*
G01X-777240Y1346960D01*
G01X-742950Y1436876D02*
G01X-777240Y1346960D01*
G01X-642874Y1415540D02*
G01X-647192Y1424176D01*
G01X-655574Y1432812D01*
G01X-664210Y1436876D01*
G01X-681482Y1436876D01*
G01X-689864Y1432812D01*
G01X-698500Y1424176D01*
G01X-702818Y1415540D01*
G01X-707136Y1402586D01*
G01X-707136Y1381250D01*
G01X-702818Y1368296D01*
G01X-698500Y1359914D01*
G01X-689864Y1351278D01*
G01X-681482Y1346960D01*
G01X-664210Y1346960D01*
G01X-655574Y1351278D01*
G01X-647192Y1359914D01*
G01X-642874Y1368296D01*
G01X-542798Y1415540D02*
G01X-547116Y1424176D01*
G01X-555498Y1432812D01*
G01X-564134Y1436876D01*
G01X-581406Y1436876D01*
G01X-589788Y1432812D01*
G01X-598424Y1424176D01*
G01X-602742Y1415540D01*
G01X-607060Y1402586D01*
G01X-607060Y1381250D01*
G01X-602742Y1368296D01*
G01X-598424Y1359914D01*
G01X-589788Y1351278D01*
G01X-581406Y1346960D01*
G01X-564134Y1346960D01*
G01X-555498Y1351278D01*
G01X-547116Y1359914D01*
G01X-542798Y1368296D01*
G54D10*
G01X463132Y877539D02*
G01X463132Y825977D01*
G01X463132Y877539D02*
G01X495136Y877539D01*
G01X463132Y852901D02*
G01X482944Y852901D01*
G01X517234Y877539D02*
G01X517234Y825977D01*
G01X517234Y877539D02*
G01X539332Y877539D01*
G01X546698Y875253D01*
G01X548984Y872713D01*
G01X551524Y867633D01*
G01X551524Y862807D01*
G01X548984Y857981D01*
G01X546698Y855441D01*
G01X539332Y852901D01*
G01X517234Y852901D02*
G01X539332Y852901D01*
G01X546698Y850615D01*
G01X548984Y848075D01*
G01X551524Y843249D01*
G01X551524Y835883D01*
G01X548984Y830803D01*
G01X546698Y828263D01*
G01X539332Y825977D01*
G01X517234Y825977D01*
G01X2269039Y696214D02*
G01X2269039Y644652D01*
G01X2269039Y696214D02*
G01X2301043Y696214D01*
G01X2269039Y671576D02*
G01X2288851Y671576D01*
G01X2323141Y696214D02*
G01X2323141Y644652D01*
G01X2323141Y696214D02*
G01X2345239Y696214D01*
G01X2352605Y693928D01*
G01X2354891Y691388D01*
G01X2357431Y686308D01*
G01X2357431Y681482D01*
G01X2354891Y676656D01*
G01X2352605Y674116D01*
G01X2345239Y671576D01*
G01X2323141Y671576D02*
G01X2345239Y671576D01*
G01X2352605Y669290D01*
G01X2354891Y666750D01*
G01X2357431Y661924D01*
G01X2357431Y654558D01*
G01X2354891Y649478D01*
G01X2352605Y646938D01*
G01X2345239Y644652D01*
G01X2323141Y644652D01*
G36*
G01X147893Y1902313D02*
G01X142351Y1902774D01*
G01X140042Y1903236D01*
G01X136809Y1904160D01*
G01X133114Y1906469D01*
G01X129882Y1909240D01*
G01X127573Y1911549D01*
G01X125263Y1914320D01*
G01X122493Y1918476D01*
G01X119722Y1923094D01*
G01X117874Y1926789D01*
G01X115103Y1934178D01*
G01X113718Y1938334D01*
G01X112794Y1942491D01*
G01X111871Y1946185D01*
G01X110947Y1950804D01*
G01X110023Y1956345D01*
G01X109562Y1971124D01*
G01X110023Y1984054D01*
G01X110947Y1993291D01*
G01X111409Y1996985D01*
G01X111986Y1998948D01*
G01X113718Y2000218D01*
G01X117413Y2002065D01*
G01X121107Y2004374D01*
G01X129420Y2008531D01*
G01X133576Y2009916D01*
G01X137733Y2010840D01*
G01X145122Y2011302D01*
G01X152973Y2010378D01*
G01X156667Y2008993D01*
G01X159438Y2007607D01*
G01X161747Y2005760D01*
G01X166365Y2001142D01*
G01X168674Y1998371D01*
G01X170522Y1995138D01*
G01X174216Y1987749D01*
G01X175602Y1984516D01*
G01X176987Y1980822D01*
G01X178373Y1976204D01*
G01X179296Y1972047D01*
G01X181143Y1960964D01*
G01X181605Y1948033D01*
G01X181143Y1935102D01*
G01X180220Y1930945D01*
G01X178834Y1926327D01*
G01X176987Y1922171D01*
G01X174678Y1918014D01*
G01X172369Y1914782D01*
G01X167751Y1910164D01*
G01X164518Y1907393D01*
G01X160823Y1905084D01*
G01X157591Y1903698D01*
G01X154358Y1902774D01*
G01X147893Y1902313D01*
G37*
G36*
G01X378802Y1903236D02*
G01X375107Y1903698D01*
G01X372336Y1904622D01*
G01X367718Y1906931D01*
G01X362176Y1912473D01*
G01X360329Y1914782D01*
G01X357096Y1921247D01*
G01X355249Y1925865D01*
G01X353402Y1930945D01*
G01X352016Y1936025D01*
G01X350169Y1943414D01*
G01X348322Y1952651D01*
G01X347398Y1958193D01*
G01X346474Y1965582D01*
G01X346013Y1972971D01*
G01X345551Y1977589D01*
G01X345089Y1994676D01*
G01X345551Y2011764D01*
G01X346474Y2025618D01*
G01X347398Y2034854D01*
G01X348322Y2042244D01*
G01X349245Y2048709D01*
G01X350169Y2053789D01*
G01X351554Y2059331D01*
G01X354325Y2068567D01*
G01X356173Y2072724D01*
G01X358020Y2076418D01*
G01X359867Y2079651D01*
G01X361714Y2082422D01*
G01X363562Y2084731D01*
G01X370489Y2090273D01*
G01X373722Y2091658D01*
G01X379725Y2093044D01*
G01X386653Y2093044D01*
G01X391733Y2091196D01*
G01X395427Y2088887D01*
G01X399583Y2084731D01*
G01X401893Y2081960D01*
G01X404202Y2078265D01*
G01X406049Y2074571D01*
G01X407896Y2070414D01*
G01X410667Y2062102D01*
G01X412053Y2057022D01*
G01X413900Y2047785D01*
G01X414823Y2042244D01*
G01X415285Y2038087D01*
G01X415747Y2034854D01*
G01X416671Y2024694D01*
G01X417133Y2002065D01*
G01X416671Y1979436D01*
G01X415747Y1966505D01*
G01X414823Y1957269D01*
G01X413900Y1949880D01*
G01X412053Y1939720D01*
G01X410667Y1935102D01*
G01X408820Y1928636D01*
G01X406973Y1924018D01*
G01X405125Y1920324D01*
G01X402354Y1915705D01*
G01X399583Y1912473D01*
G01X397736Y1910625D01*
G01X395427Y1908778D01*
G01X392656Y1906931D01*
G01X388962Y1905084D01*
G01X384343Y1903698D01*
G01X378802Y1903236D01*
G37*
G36*
G01X-162911Y1903236D02*
G01X-167067Y1903698D01*
G01X-169377Y1904622D01*
G01X-172609Y1906007D01*
G01X-175380Y1907854D01*
G01X-177689Y1910164D01*
G01X-180460Y1913858D01*
G01X-183231Y1918476D01*
G01X-185078Y1922171D01*
G01X-186926Y1926327D01*
G01X-188773Y1931869D01*
G01X-190158Y1936949D01*
G01X-191082Y1940644D01*
G01X-192929Y1948956D01*
G01X-193853Y1954498D01*
G01X-194777Y1960964D01*
G01X-195238Y1965582D01*
G01X-195700Y1969276D01*
G01X-196624Y1984054D01*
G01X-197086Y1994676D01*
G01X-196624Y2005298D01*
G01X-195700Y2021924D01*
G01X-194777Y2032084D01*
G01X-193853Y2040396D01*
G01X-192929Y2047785D01*
G01X-191082Y2057022D01*
G01X-189697Y2061640D01*
G01X-187849Y2067644D01*
G01X-186002Y2072262D01*
G01X-184155Y2075956D01*
G01X-182307Y2079189D01*
G01X-180460Y2081960D01*
G01X-175842Y2086578D01*
G01X-173071Y2088887D01*
G01X-169838Y2090734D01*
G01X-165220Y2092582D01*
G01X-158755Y2093505D01*
G01X-154137Y2093044D01*
G01X-150442Y2091658D01*
G01X-147209Y2089811D01*
G01X-144900Y2087964D01*
G01X-142591Y2085654D01*
G01X-140282Y2082422D01*
G01X-137973Y2078265D01*
G01X-134278Y2070876D01*
G01X-132431Y2065796D01*
G01X-130584Y2059793D01*
G01X-129198Y2053327D01*
G01X-127351Y2044091D01*
G01X-126427Y2037625D01*
G01X-125966Y2032084D01*
G01X-125504Y2028389D01*
G01X-125042Y2001142D01*
G01X-125504Y1973894D01*
G01X-126427Y1962811D01*
G01X-127351Y1954498D01*
G01X-128275Y1948033D01*
G01X-129198Y1943414D01*
G01X-130584Y1936949D01*
G01X-132431Y1930945D01*
G01X-133817Y1926327D01*
G01X-135202Y1923094D01*
G01X-138897Y1916629D01*
G01X-140744Y1913858D01*
G01X-143053Y1911549D01*
G01X-145362Y1909702D01*
G01X-148595Y1907393D01*
G01X-152751Y1905084D01*
G01X-156907Y1903698D01*
G01X-162911Y1903236D01*
G37*
G36*
G01X999947Y1831193D02*
G01X-1066227Y1831193D01*
G01X-1066227Y2099047D01*
G01X-1064380Y2099047D01*
G01X-1064380Y2093505D01*
G01X-1061609Y2093505D01*
G01X-1057453Y2093044D01*
G01X-1053758Y2092120D01*
G01X-1050064Y2090734D01*
G01X-1046831Y2088887D01*
G01X-1044060Y2086578D01*
G01X-1041751Y2084269D01*
G01X-1038980Y2081036D01*
G01X-1034824Y2072724D01*
G01X-1032053Y2066258D01*
G01X-1028358Y2057945D01*
G01X-1022817Y2045014D01*
G01X-1019122Y2036702D01*
G01X-1013580Y2023771D01*
G01X-1009886Y2015458D01*
G01X-1004344Y2002527D01*
G01X-1000649Y1994214D01*
G01X-995107Y1981284D01*
G01X-991413Y1972971D01*
G01X-985871Y1960040D01*
G01X-982177Y1951727D01*
G01X-976635Y1938796D01*
G01X-972940Y1930484D01*
G01X-967398Y1917553D01*
G01X-963704Y1909240D01*
G01X-958162Y1896309D01*
G01X-958162Y1896309D01*
G01X-956777Y1894000D01*
G01X-953544Y1893076D01*
G01X-951235Y1893769D01*
G01X-949849Y1895847D01*
G01X-948556Y1899080D01*
G01X-839937Y1899080D01*
G01X-825043Y1898041D01*
G01X-780362Y1897694D01*
G01X-735566Y1898156D01*
G01X-720326Y1899542D01*
G01X-718940Y1903236D01*
G01X-717555Y1907393D01*
G01X-716169Y1911087D01*
G01X-672297Y1911087D01*
G01X-672297Y1905545D01*
G01X-670911Y1901851D01*
G01X-668602Y1898618D01*
G01X-665369Y1896309D01*
G01X-665369Y1896309D01*
G01X-661675Y1894000D01*
G01X-656133Y1893076D01*
G01X-650591Y1894000D01*
G01X-646435Y1896309D01*
G01X-642740Y1900004D01*
G01X-640431Y1905084D01*
G01X-639507Y1910625D01*
G01X-640431Y1915244D01*
G01X-642740Y1919400D01*
G01X-645511Y1922171D01*
G01X-647820Y1923556D01*
G01X-651977Y1925404D01*
G01X-657057Y1926327D01*
G01X-660289Y1925865D01*
G01X-663984Y1924018D01*
G01X-668140Y1920324D01*
G01X-670911Y1916629D01*
G01X-672297Y1911087D01*
G01X-716169Y1911087D01*
G01X-714784Y1914782D01*
G01X-713398Y1918938D01*
G01X-711551Y1923556D01*
G01X-709704Y1928636D01*
G01X-706933Y1935564D01*
G01X-709704Y1935564D01*
G01X-712128Y1934986D01*
G01X-713860Y1933254D01*
G01X-716631Y1930022D01*
G01X-718940Y1927713D01*
G01X-722173Y1925404D01*
G01X-726329Y1923094D01*
G01X-732333Y1921247D01*
G01X-737875Y1920324D01*
G01X-772973Y1919862D01*
G01X-798142Y1920208D01*
G01X-806224Y1921247D01*
G01X-804377Y1923556D01*
G01X-795140Y1932793D01*
G01X-789598Y1939258D01*
G01X-780362Y1948494D01*
G01X-775744Y1954036D01*
G01X-771126Y1958654D01*
G01X-765584Y1965120D01*
G01X-760966Y1969738D01*
G01X-756347Y1975280D01*
G01X-750806Y1981745D01*
G01X-748497Y1984516D01*
G01X-746649Y1987287D01*
G01X-744802Y1989596D01*
G01X-742031Y1993291D01*
G01X-738798Y1997909D01*
G01X-734180Y2005298D01*
G01X-731409Y2009916D01*
G01X-727253Y2018229D01*
G01X-725406Y2022385D01*
G01X-723558Y2027004D01*
G01X-722173Y2031622D01*
G01X-721249Y2035778D01*
G01X-720326Y2040396D01*
G01X-719864Y2045476D01*
G01X-719402Y2048709D01*
G01X-718940Y2052404D01*
G01X-719402Y2056098D01*
G01X-720326Y2062564D01*
G01X-721711Y2066720D01*
G01X-723558Y2070876D01*
G01X-725406Y2074571D01*
G01X-727253Y2077804D01*
G01X-727807Y2078496D01*
G01X-581665Y2078496D01*
G01X-580857Y2076880D01*
G01X-579125Y2075725D01*
G01X-576700Y2075956D01*
G01X-572082Y2077804D01*
G01X-567926Y2078727D01*
G01X-564693Y2079189D01*
G01X-562384Y2079189D01*
G01X-559151Y2077804D01*
G01X-556380Y2074571D01*
G01X-554533Y2070414D01*
G01X-553609Y2064411D01*
G01X-553147Y2058869D01*
G01X-552686Y1988211D01*
G01X-553147Y1917553D01*
G01X-553609Y1913858D01*
G01X-554995Y1909702D01*
G01X-558227Y1906469D01*
G01X-563307Y1904160D01*
G01X-572082Y1903236D01*
G01X-577624Y1903236D01*
G01X-578086Y1900927D01*
G01X-578086Y1900927D01*
G01X-578547Y1898156D01*
G01X-540678Y1897694D01*
G01X-502809Y1897694D01*
G01X-502809Y1899080D01*
G01X-382737Y1899080D01*
G01X-367843Y1898041D01*
G01X-323162Y1897694D01*
G01X-278366Y1898156D01*
G01X-263126Y1899542D01*
G01X-261740Y1903236D01*
G01X-260355Y1907393D01*
G01X-257584Y1914782D01*
G01X-256198Y1918938D01*
G01X-254351Y1923556D01*
G01X-252504Y1928636D01*
G01X-249733Y1935564D01*
G01X-252504Y1935564D01*
G01X-254928Y1934986D01*
G01X-256660Y1933254D01*
G01X-259431Y1930022D01*
G01X-261740Y1927713D01*
G01X-264973Y1925404D01*
G01X-269129Y1923094D01*
G01X-275133Y1921247D01*
G01X-280675Y1920324D01*
G01X-315773Y1919862D01*
G01X-340942Y1920208D01*
G01X-349024Y1921247D01*
G01X-347177Y1923556D01*
G01X-337940Y1932793D01*
G01X-332398Y1939258D01*
G01X-323162Y1948494D01*
G01X-318544Y1954036D01*
G01X-313926Y1958654D01*
G01X-308384Y1965120D01*
G01X-303766Y1969738D01*
G01X-299147Y1975280D01*
G01X-293606Y1981745D01*
G01X-291297Y1984516D01*
G01X-289449Y1987287D01*
G01X-287602Y1989596D01*
G01X-284831Y1993291D01*
G01X-282568Y1996524D01*
G01X-225718Y1996524D01*
G01X-225257Y1980360D01*
G01X-224333Y1972047D01*
G01X-223409Y1965582D01*
G01X-221562Y1957269D01*
G01X-220177Y1952651D01*
G01X-218329Y1946647D01*
G01X-216482Y1941567D01*
G01X-212787Y1933254D01*
G01X-210940Y1929560D01*
G01X-208631Y1925865D01*
G01X-205860Y1921247D01*
G01X-203551Y1918014D01*
G01X-201704Y1915705D01*
G01X-198933Y1912011D01*
G01X-195700Y1908778D01*
G01X-191082Y1905084D01*
G01X-188773Y1902774D01*
G01X-186002Y1900927D01*
G01X-179537Y1897694D01*
G01X-174918Y1895847D01*
G01X-174918Y1895847D01*
G01X-171224Y1894462D01*
G01X-162449Y1894000D01*
G01X-154137Y1894462D01*
G01X-149980Y1895385D01*
G01X-145824Y1896771D01*
G01X-141205Y1899080D01*
G01X-77937Y1899080D01*
G01X-63043Y1898041D01*
G01X-18362Y1897694D01*
G01X26434Y1898156D01*
G01X41674Y1899542D01*
G01X43060Y1903236D01*
G01X44445Y1907393D01*
G01X47216Y1914782D01*
G01X48602Y1918938D01*
G01X50449Y1923556D01*
G01X52296Y1928636D01*
G01X55067Y1935564D01*
G01X52296Y1935564D01*
G01X49872Y1934986D01*
G01X48140Y1933254D01*
G01X45369Y1930022D01*
G01X43060Y1927713D01*
G01X39827Y1925404D01*
G01X35671Y1923094D01*
G01X29667Y1921247D01*
G01X24125Y1920324D01*
G01X-10973Y1919862D01*
G01X-36142Y1920208D01*
G01X-44224Y1921247D01*
G01X-42377Y1923556D01*
G01X-33140Y1932793D01*
G01X-27598Y1939258D01*
G01X-18362Y1948494D01*
G01X-13744Y1954036D01*
G01X-9126Y1958654D01*
G01X-3584Y1965120D01*
G01X1034Y1969738D01*
G01X3728Y1972971D01*
G01X80929Y1972971D01*
G01X81391Y1964658D01*
G01X82314Y1958193D01*
G01X84162Y1948956D01*
G01X87394Y1939258D01*
G01X89242Y1935102D01*
G01X91089Y1931407D01*
G01X93398Y1927251D01*
G01X95707Y1923556D01*
G01X98478Y1919400D01*
G01X102173Y1914782D01*
G01X110023Y1906931D01*
G01X114642Y1903236D01*
G01X117413Y1901389D01*
G01X120645Y1899542D01*
G01X124802Y1897694D01*
G01X129882Y1895847D01*
G01X129882Y1895847D01*
G01X134038Y1894462D01*
G01X144660Y1894000D01*
G01X220860Y1894000D01*
G01X222014Y1893307D01*
G01X226402Y1893076D01*
G01X232405Y1893076D01*
G01X242565Y1923556D01*
G01X244413Y1928174D01*
G01X262423Y1982207D01*
G01X265194Y1989596D01*
G01X267965Y1997909D01*
G01X315994Y1997909D01*
G01X315994Y1993291D01*
G01X316456Y1984054D01*
G01X316918Y1976665D01*
G01X317842Y1969276D01*
G01X319689Y1960040D01*
G01X321536Y1952651D01*
G01X322922Y1948494D01*
G01X324769Y1943414D01*
G01X326616Y1938796D01*
G01X328463Y1934640D01*
G01X333082Y1926327D01*
G01X334929Y1923094D01*
G01X337238Y1919400D01*
G01X339547Y1916167D01*
G01X341394Y1913858D01*
G01X348322Y1906931D01*
G01X352940Y1903236D01*
G01X356173Y1900927D01*
G01X360329Y1898618D01*
G01X364485Y1896771D01*
G01X368642Y1895385D01*
G01X368642Y1895385D01*
G01X371874Y1894462D01*
G01X379725Y1894000D01*
G01X610634Y1894000D01*
G01X611789Y1893307D01*
G01X616176Y1893076D01*
G01X622180Y1893076D01*
G01X622642Y1895385D01*
G01X624335Y1900465D01*
G01X700689Y1900465D01*
G01X700689Y1897694D01*
G01X819838Y1897694D01*
G01X820762Y1900004D01*
G01X826303Y1915244D01*
G01X828151Y1920785D01*
G01X831845Y1930022D01*
G01X833231Y1934178D01*
G01X832884Y1935217D01*
G01X830922Y1935564D01*
G01X828613Y1935102D01*
G01X827227Y1933716D01*
G01X824918Y1930945D01*
G01X820300Y1926327D01*
G01X817529Y1924480D01*
G01X813834Y1922633D01*
G01X808293Y1921247D01*
G01X803674Y1920324D01*
G01X768114Y1919862D01*
G01X742599Y1920208D01*
G01X734402Y1921247D01*
G01X736249Y1923556D01*
G01X752413Y1939720D01*
G01X755183Y1943414D01*
G01X763034Y1951265D01*
G01X768576Y1957731D01*
G01X769500Y1958654D01*
G01X851242Y1958654D01*
G01X851242Y1950342D01*
G01X937140Y1950342D01*
G01X937140Y1950342D01*
G01X937140Y1897694D01*
G01X961154Y1897694D01*
G01X961154Y1950342D01*
G01X988863Y1950342D01*
G01X988863Y1971585D01*
G01X961154Y1971585D01*
G01X961154Y2102742D01*
G01X952842Y2102742D01*
G01X946376Y2102280D01*
G01X943605Y2100894D01*
G01X940834Y2096738D01*
G01X853551Y1972047D01*
G01X851703Y1968353D01*
G01X851242Y1958654D01*
G01X769500Y1958654D01*
G01X775503Y1964658D01*
G01X778274Y1968353D01*
G01X781507Y1971585D01*
G01X787049Y1978051D01*
G01X791667Y1983593D01*
G01X797209Y1990520D01*
G01X799518Y1994214D01*
G01X802751Y1998833D01*
G01X807369Y2006222D01*
G01X809678Y2010378D01*
G01X811525Y2013611D01*
G01X813373Y2017305D01*
G01X815220Y2021924D01*
G01X817067Y2026080D01*
G01X818453Y2030698D01*
G01X819376Y2034854D01*
G01X820300Y2038549D01*
G01X821223Y2043167D01*
G01X821685Y2051480D01*
G01X821223Y2058869D01*
G01X820300Y2063025D01*
G01X818914Y2067644D01*
G01X817067Y2071800D01*
G01X814758Y2075956D01*
G01X812449Y2079189D01*
G01X809678Y2082884D01*
G01X804136Y2088425D01*
G01X800903Y2091196D01*
G01X796747Y2093967D01*
G01X792591Y2096276D01*
G01X788896Y2098124D01*
G01X785202Y2099509D01*
G01X781507Y2100433D01*
G01X776889Y2101818D01*
G01X763958Y2102742D01*
G01X752874Y2102280D01*
G01X745485Y2100433D01*
G01X741791Y2099047D01*
G01X738096Y2097200D01*
G01X734863Y2095353D01*
G01X730707Y2092582D01*
G01X727474Y2089811D01*
G01X725165Y2087964D01*
G01X721471Y2083345D01*
G01X719162Y2080113D01*
G01X715467Y2073647D01*
G01X713620Y2069953D01*
G01X711773Y2065796D01*
G01X709925Y2060254D01*
G01X708540Y2054251D01*
G01X707616Y2049633D01*
G01X707616Y2047324D01*
G01X710387Y2046400D01*
G01X712234Y2046977D01*
G01X713158Y2048709D01*
G01X714543Y2052404D01*
G01X716391Y2056098D01*
G01X719162Y2060716D01*
G01X721933Y2064411D01*
G01X726551Y2069029D01*
G01X729783Y2071800D01*
G01X734402Y2074571D01*
G01X739482Y2076880D01*
G01X743638Y2078265D01*
G01X747333Y2079189D01*
G01X752874Y2080113D01*
G01X758878Y2080574D01*
G01X763034Y2080113D01*
G01X766729Y2079189D01*
G01X770885Y2077804D01*
G01X774580Y2075956D01*
G01X778736Y2073185D01*
G01X782431Y2070414D01*
G01X784740Y2068105D01*
G01X786587Y2065796D01*
G01X788896Y2062564D01*
G01X791205Y2058869D01*
G01X792591Y2055636D01*
G01X793976Y2051942D01*
G01X795362Y2045938D01*
G01X795823Y2039934D01*
G01X796285Y2036702D01*
G01X796285Y2033931D01*
G01X795362Y2024694D01*
G01X794438Y2020538D01*
G01X793053Y2015920D01*
G01X791667Y2011764D01*
G01X790282Y2008069D01*
G01X787511Y2001604D01*
G01X785663Y1997909D01*
G01X783354Y1993753D01*
G01X778736Y1986364D01*
G01X775965Y1982207D01*
G01X773656Y1978974D01*
G01X771809Y1976665D01*
G01X769038Y1972971D01*
G01X761649Y1963734D01*
G01X758416Y1960502D01*
G01X754722Y1955884D01*
G01X750103Y1951265D01*
G01X745485Y1945724D01*
G01X720085Y1920324D01*
G01X713620Y1914782D01*
G01X704383Y1905545D01*
G01X702074Y1903698D01*
G01X701035Y1902659D01*
G01X701035Y1902659D01*
G01X700689Y1900465D01*
G01X624335Y1900465D01*
G01X630954Y1920324D01*
G01X633725Y1927713D01*
G01X651736Y1981745D01*
G01X653583Y1986364D01*
G01X670209Y2036240D01*
G01X673903Y2046400D01*
G01X690529Y2096276D01*
G01X694223Y2106436D01*
G01X695147Y2109207D01*
G01X683140Y2109207D01*
G01X682678Y2106898D01*
G01X671594Y2073647D01*
G01X668823Y2066258D01*
G01X650813Y2012225D01*
G01X648965Y2007607D01*
G01X632340Y1957731D01*
G01X628645Y1947571D01*
G01X612020Y1897694D01*
G01X612020Y1897694D01*
G01X610634Y1894000D01*
G01X379725Y1894000D01*
G01X388038Y1894462D01*
G01X391733Y1895385D01*
G01X395889Y1896771D01*
G01X400045Y1898618D01*
G01X402539Y1900004D01*
G01X464238Y1900004D01*
G01X464238Y1897694D01*
G01X583387Y1897694D01*
G01X583849Y1900004D01*
G01X585234Y1904160D01*
G01X588005Y1911549D01*
G01X590776Y1919862D01*
G01X592623Y1924480D01*
G01X594471Y1929560D01*
G01X596318Y1933716D01*
G01X597242Y1935564D01*
G01X594009Y1935564D01*
G01X591469Y1935217D01*
G01X590314Y1934178D01*
G01X588929Y1931869D01*
G01X587082Y1929560D01*
G01X583849Y1926789D01*
G01X580154Y1924480D01*
G01X576460Y1922633D01*
G01X570918Y1921247D01*
G01X566300Y1920324D01*
G01X530740Y1919862D01*
G01X505224Y1920093D01*
G01X497027Y1920785D01*
G01X503493Y1927251D01*
G01X508111Y1932793D01*
G01X519656Y1944338D01*
G01X522427Y1948033D01*
G01X530278Y1955884D01*
G01X535820Y1962349D01*
G01X540438Y1966967D01*
G01X544133Y1971585D01*
G01X546442Y1973894D01*
G01X550136Y1978513D01*
G01X552445Y1980822D01*
G01X557987Y1987749D01*
G01X559373Y1990058D01*
G01X566300Y1999756D01*
G01X569071Y2004374D01*
G01X571380Y2008069D01*
G01X576922Y2019153D01*
G01X578769Y2023309D01*
G01X580616Y2027927D01*
G01X582463Y2033931D01*
G01X583387Y2039011D01*
G01X583849Y2042244D01*
G01X584311Y2051480D01*
G01X583849Y2060716D01*
G01X582463Y2065334D01*
G01X580616Y2070414D01*
G01X578769Y2074109D01*
G01X575998Y2078265D01*
G01X573227Y2081960D01*
G01X566300Y2088887D01*
G01X561682Y2092582D01*
G01X558911Y2094429D01*
G01X555678Y2096276D01*
G01X551522Y2098124D01*
G01X547827Y2099509D01*
G01X543671Y2100894D01*
G01X536743Y2102280D01*
G01X524736Y2102742D01*
G01X515500Y2102280D01*
G01X511805Y2101356D01*
G01X507649Y2099971D01*
G01X503954Y2098585D01*
G01X500722Y2097200D01*
G01X497027Y2094891D01*
G01X492409Y2091658D01*
G01X486867Y2086116D01*
G01X484096Y2082884D01*
G01X479478Y2076418D01*
G01X477169Y2071800D01*
G01X475322Y2067182D01*
G01X473474Y2062102D01*
G01X471627Y2056098D01*
G01X470703Y2051018D01*
G01X470242Y2047785D01*
G01X470588Y2046746D01*
G01X472551Y2046400D01*
G01X474744Y2046862D01*
G01X475783Y2048247D01*
G01X477169Y2051942D01*
G01X479016Y2055636D01*
G01X480863Y2058869D01*
G01X482711Y2061640D01*
G01X485482Y2065334D01*
G01X488714Y2068567D01*
G01X491023Y2070414D01*
G01X494256Y2072724D01*
G01X498413Y2075033D01*
G01X502569Y2076880D01*
G01X506263Y2078265D01*
G01X509958Y2079189D01*
G01X516423Y2080113D01*
G01X522427Y2080574D01*
G01X525660Y2080113D01*
G01X529354Y2079189D01*
G01X533511Y2077804D01*
G01X537667Y2075956D01*
G01X540900Y2073647D01*
G01X545518Y2069953D01*
G01X547827Y2067644D01*
G01X550598Y2064411D01*
G01X552907Y2060716D01*
G01X554754Y2057022D01*
G01X556602Y2052865D01*
G01X557987Y2046862D01*
G01X558911Y2041320D01*
G01X559373Y2034854D01*
G01X558911Y2028389D01*
G01X557987Y2021924D01*
G01X554754Y2012225D01*
G01X552907Y2007145D01*
G01X551060Y2002527D01*
G01X549213Y1998833D01*
G01X546903Y1995138D01*
G01X544594Y1990982D01*
G01X542285Y1987287D01*
G01X539514Y1983131D01*
G01X537205Y1979898D01*
G01X535358Y1977589D01*
G01X529816Y1970200D01*
G01X526122Y1965582D01*
G01X523813Y1963273D01*
G01X519194Y1957731D01*
G01X516885Y1955422D01*
G01X513191Y1950804D01*
G01X476245Y1913858D01*
G01X471627Y1910164D01*
G01X467009Y1905545D01*
G01X465162Y1903236D01*
G01X465162Y1903236D01*
G01X464238Y1900004D01*
G01X402539Y1900004D01*
G01X404202Y1900927D01*
G01X408358Y1903698D01*
G01X412053Y1906007D01*
G01X415747Y1908778D01*
G01X418980Y1912011D01*
G01X421751Y1915705D01*
G01X424983Y1919862D01*
G01X427754Y1924018D01*
G01X430525Y1928636D01*
G01X432834Y1933254D01*
G01X436529Y1941567D01*
G01X438376Y1946647D01*
G01X440223Y1952189D01*
G01X441609Y1957731D01*
G01X442533Y1961887D01*
G01X443456Y1966505D01*
G01X444380Y1972047D01*
G01X444842Y1976204D01*
G01X445303Y1979436D01*
G01X446227Y1992367D01*
G01X446689Y1999756D01*
G01X445303Y2021924D01*
G01X444380Y2028389D01*
G01X442533Y2038549D01*
G01X441147Y2043167D01*
G01X439300Y2049171D01*
G01X437453Y2054713D01*
G01X435605Y2059331D01*
G01X433758Y2063487D01*
G01X428216Y2073185D01*
G01X426369Y2075494D01*
G01X420827Y2082884D01*
G01X413900Y2089811D01*
G01X410205Y2092582D01*
G01X405587Y2095814D01*
G01X401893Y2098124D01*
G01X397736Y2099971D01*
G01X392656Y2101356D01*
G01X388038Y2102280D01*
G01X379725Y2102742D01*
G01X372336Y2102280D01*
G01X368180Y2100894D01*
G01X363100Y2099047D01*
G01X358943Y2096738D01*
G01X354787Y2093967D01*
G01X351554Y2091658D01*
G01X349245Y2089811D01*
G01X342318Y2082884D01*
G01X339547Y2079189D01*
G01X336314Y2074571D01*
G01X331696Y2067182D01*
G01X329387Y2062564D01*
G01X327540Y2058407D01*
G01X323845Y2049171D01*
G01X322460Y2044553D01*
G01X321536Y2040396D01*
G01X320151Y2035778D01*
G01X318765Y2028389D01*
G01X317842Y2022847D01*
G01X316918Y2015458D01*
G01X315994Y1997909D01*
G01X267965Y1997909D01*
G01X283205Y2043629D01*
G01X285053Y2048247D01*
G01X304911Y2107822D01*
G01X303756Y2108861D01*
G01X299369Y2109207D01*
G01X293365Y2109207D01*
G01X292903Y2106436D01*
G01X291518Y2101818D01*
G01X283205Y2076880D01*
G01X281358Y2072262D01*
G01X262885Y2016844D01*
G01X261038Y2012225D01*
G01X243027Y1958193D01*
G01X240256Y1950804D01*
G01X222245Y1896771D01*
G01X222245Y1896771D01*
G01X220860Y1894000D01*
G01X144660Y1894000D01*
G01X155282Y1894462D01*
G01X159438Y1895385D01*
G01X164056Y1896771D01*
G01X167751Y1898156D01*
G01X170983Y1899542D01*
G01X178373Y1904160D01*
G01X182067Y1906931D01*
G01X187609Y1912473D01*
G01X190380Y1915705D01*
G01X194998Y1922171D01*
G01X199616Y1929560D01*
G01X201925Y1934640D01*
G01X203773Y1939258D01*
G01X205158Y1943876D01*
G01X206082Y1948033D01*
G01X207005Y1951727D01*
G01X207929Y1958193D01*
G01X208391Y1968353D01*
G01X207929Y1975742D01*
G01X207005Y1980822D01*
G01X205620Y1986364D01*
G01X202849Y1993753D01*
G01X200540Y1997909D01*
G01X197769Y2002527D01*
G01X194998Y2005760D01*
G01X187609Y2013149D01*
G01X185300Y2014996D01*
G01X182067Y2017305D01*
G01X173754Y2021462D01*
G01X169136Y2022847D01*
G01X164518Y2023771D01*
G01X155282Y2024233D01*
G01X146045Y2023771D01*
G01X141889Y2022847D01*
G01X137271Y2021462D01*
G01X133114Y2020076D01*
G01X129420Y2018691D01*
G01X125725Y2016844D01*
G01X117413Y2012225D01*
G01X115103Y2011302D01*
G01X115565Y2014073D01*
G01X116489Y2018229D01*
G01X119722Y2027927D01*
G01X121569Y2032084D01*
G01X124340Y2038549D01*
G01X128034Y2045938D01*
G01X129882Y2049171D01*
G01X132191Y2052865D01*
G01X134962Y2057022D01*
G01X137271Y2060254D01*
G01X142813Y2067182D01*
G01X149740Y2074109D01*
G01X153434Y2076880D01*
G01X156667Y2079651D01*
G01X158976Y2081498D01*
G01X162209Y2083807D01*
G01X166365Y2086578D01*
G01X174678Y2090734D01*
G01X179296Y2092582D01*
G01X188533Y2094891D01*
G01X197769Y2096738D01*
G01X201463Y2097200D01*
G01X203311Y2097777D01*
G01X204234Y2099509D01*
G01X204234Y2101356D01*
G01X203311Y2102280D01*
G01X193613Y2102742D01*
G01X183914Y2102280D01*
G01X177449Y2101356D01*
G01X173293Y2100433D01*
G01X164056Y2097662D01*
G01X159900Y2096276D01*
G01X156205Y2094429D01*
G01X152049Y2092582D01*
G01X145583Y2088887D01*
G01X141889Y2086578D01*
G01X132191Y2079651D01*
G01X127573Y2075033D01*
G01X123878Y2072262D01*
G01X116027Y2064411D01*
G01X106791Y2052865D01*
G01X104482Y2049633D01*
G01X101711Y2045476D01*
G01X99402Y2041782D01*
G01X97554Y2038549D01*
G01X92013Y2027465D01*
G01X90165Y2023309D01*
G01X87394Y2015920D01*
G01X86009Y2011302D01*
G01X85085Y2007145D01*
G01X84162Y2003451D01*
G01X83238Y1998833D01*
G01X82314Y1992367D01*
G01X81391Y1984054D01*
G01X80929Y1972971D01*
G01X3728Y1972971D01*
G01X5653Y1975280D01*
G01X11194Y1981745D01*
G01X13503Y1984516D01*
G01X15351Y1987287D01*
G01X17198Y1989596D01*
G01X19969Y1993291D01*
G01X23202Y1997909D01*
G01X27820Y2005298D01*
G01X30591Y2009916D01*
G01X34747Y2018229D01*
G01X36594Y2022385D01*
G01X38442Y2027004D01*
G01X39827Y2031622D01*
G01X40751Y2035778D01*
G01X41674Y2040396D01*
G01X42136Y2045476D01*
G01X42598Y2048709D01*
G01X43060Y2052404D01*
G01X42598Y2056098D01*
G01X41674Y2062564D01*
G01X40289Y2066720D01*
G01X38442Y2070876D01*
G01X36594Y2074571D01*
G01X34747Y2077804D01*
G01X29205Y2084731D01*
G01X26896Y2087040D01*
G01X23202Y2089811D01*
G01X19045Y2093044D01*
G01X14889Y2095814D01*
G01X9809Y2098124D01*
G01X1496Y2100894D01*
G01X-5431Y2102280D01*
G01X-17438Y2102742D01*
G01X-26675Y2102280D01*
G01X-30369Y2101356D01*
G01X-34526Y2099971D01*
G01X-39144Y2098124D01*
G01X-42838Y2096276D01*
G01X-48380Y2092582D01*
G01X-50689Y2090734D01*
G01X-55307Y2086116D01*
G01X-57617Y2083345D01*
G01X-59464Y2080574D01*
G01X-61773Y2077342D01*
G01X-65929Y2069029D01*
G01X-67315Y2065334D01*
G01X-68700Y2061178D01*
G01X-70086Y2056098D01*
G01X-71009Y2051480D01*
G01X-71471Y2048247D01*
G01X-70894Y2046862D01*
G01X-69162Y2046400D01*
G01X-67199Y2046977D01*
G01X-65929Y2048709D01*
G01X-64082Y2053327D01*
G01X-62235Y2057022D01*
G01X-59926Y2060716D01*
G01X-57155Y2063949D01*
G01X-55307Y2066258D01*
G01X-52998Y2068567D01*
G01X-50227Y2070876D01*
G01X-47918Y2072724D01*
G01X-41453Y2075956D01*
G01X-37297Y2077804D01*
G01X-32217Y2079189D01*
G01X-25751Y2080113D01*
G01X-20209Y2080574D01*
G01X-16515Y2080113D01*
G01X-12358Y2079189D01*
G01X-7278Y2077342D01*
G01X-3122Y2075033D01*
G01X1034Y2072262D01*
G01X4267Y2069491D01*
G01X7038Y2066258D01*
G01X10271Y2062102D01*
G01X12580Y2057945D01*
G01X14427Y2053789D01*
G01X15813Y2048709D01*
G01X16736Y2043167D01*
G01X17198Y2034393D01*
G01X16736Y2026542D01*
G01X15813Y2021924D01*
G01X14427Y2016844D01*
G01X11656Y2008531D01*
G01X9809Y2004374D01*
G01X6114Y1996985D01*
G01X3805Y1992829D01*
G01X-813Y1985440D01*
G01X-3584Y1981284D01*
G01X-5893Y1978051D01*
G01X-7740Y1975742D01*
G01X-10511Y1972047D01*
G01X-14206Y1967429D01*
G01X-16977Y1964196D01*
G01X-18824Y1961887D01*
G01X-21133Y1959578D01*
G01X-26675Y1953113D01*
G01X-35911Y1943876D01*
G01X-40529Y1938334D01*
G01X-52075Y1926789D01*
G01X-57617Y1922171D01*
G01X-69162Y1910625D01*
G01X-72857Y1907854D01*
G01X-76089Y1904622D01*
G01X-77475Y1901851D01*
G01X-77475Y1901851D01*
G01X-77937Y1899080D01*
G01X-141205Y1899080D01*
G01X-137511Y1900927D01*
G01X-129198Y1906469D01*
G01X-125966Y1909240D01*
G01X-121347Y1913858D01*
G01X-118577Y1917553D01*
G01X-115344Y1922171D01*
G01X-113035Y1925865D01*
G01X-105646Y1940644D01*
G01X-104260Y1944338D01*
G01X-102875Y1948494D01*
G01X-101489Y1953113D01*
G01X-100566Y1957269D01*
G01X-99642Y1960964D01*
G01X-97795Y1970200D01*
G01X-96871Y1976665D01*
G01X-96409Y1983131D01*
G01X-95947Y1986825D01*
G01X-95486Y2001142D01*
G01X-95947Y2015458D01*
G01X-96871Y2024694D01*
G01X-98718Y2035778D01*
G01X-99642Y2039473D01*
G01X-101027Y2044553D01*
G01X-102875Y2050094D01*
G01X-104722Y2055174D01*
G01X-106569Y2059793D01*
G01X-110264Y2067182D01*
G01X-112573Y2071338D01*
G01X-119500Y2081036D01*
G01X-128737Y2090273D01*
G01X-131507Y2092582D01*
G01X-134278Y2094429D01*
G01X-137511Y2096738D01*
G01X-142129Y2099047D01*
G01X-147209Y2100894D01*
G01X-153213Y2102280D01*
G01X-161987Y2102742D01*
G01X-168915Y2102280D01*
G01X-172609Y2101356D01*
G01X-176304Y2099971D01*
G01X-179537Y2098585D01*
G01X-182307Y2097200D01*
G01X-187849Y2093505D01*
G01X-190158Y2091658D01*
G01X-193853Y2088887D01*
G01X-197547Y2085193D01*
G01X-204013Y2076880D01*
G01X-206784Y2072724D01*
G01X-209093Y2069029D01*
G01X-214635Y2057945D01*
G01X-216482Y2053327D01*
G01X-218329Y2048247D01*
G01X-220177Y2042244D01*
G01X-221562Y2036240D01*
G01X-222486Y2032084D01*
G01X-224333Y2021000D01*
G01X-225257Y2012687D01*
G01X-225718Y1996524D01*
G01X-282568Y1996524D01*
G01X-281598Y1997909D01*
G01X-276980Y2005298D01*
G01X-274209Y2009916D01*
G01X-270053Y2018229D01*
G01X-268206Y2022385D01*
G01X-266358Y2027004D01*
G01X-264973Y2031622D01*
G01X-264049Y2035778D01*
G01X-263126Y2040396D01*
G01X-262664Y2045476D01*
G01X-262202Y2048709D01*
G01X-261740Y2052404D01*
G01X-262202Y2056098D01*
G01X-263126Y2062564D01*
G01X-264511Y2066720D01*
G01X-266358Y2070876D01*
G01X-268206Y2074571D01*
G01X-270053Y2077804D01*
G01X-275595Y2084731D01*
G01X-277904Y2087040D01*
G01X-281598Y2089811D01*
G01X-285755Y2093044D01*
G01X-289911Y2095814D01*
G01X-294991Y2098124D01*
G01X-303304Y2100894D01*
G01X-310231Y2102280D01*
G01X-322238Y2102742D01*
G01X-331475Y2102280D01*
G01X-335169Y2101356D01*
G01X-339326Y2099971D01*
G01X-343944Y2098124D01*
G01X-347638Y2096276D01*
G01X-353180Y2092582D01*
G01X-355489Y2090734D01*
G01X-360107Y2086116D01*
G01X-362417Y2083345D01*
G01X-364264Y2080574D01*
G01X-366573Y2077342D01*
G01X-370729Y2069029D01*
G01X-372115Y2065334D01*
G01X-373500Y2061178D01*
G01X-374886Y2056098D01*
G01X-375809Y2051480D01*
G01X-376271Y2048247D01*
G01X-375694Y2046862D01*
G01X-373962Y2046400D01*
G01X-371999Y2046977D01*
G01X-370729Y2048709D01*
G01X-368882Y2053327D01*
G01X-367035Y2057022D01*
G01X-364726Y2060716D01*
G01X-361955Y2063949D01*
G01X-360107Y2066258D01*
G01X-357798Y2068567D01*
G01X-355027Y2070876D01*
G01X-352718Y2072724D01*
G01X-346253Y2075956D01*
G01X-342097Y2077804D01*
G01X-337017Y2079189D01*
G01X-330551Y2080113D01*
G01X-325009Y2080574D01*
G01X-321315Y2080113D01*
G01X-317158Y2079189D01*
G01X-312078Y2077342D01*
G01X-307922Y2075033D01*
G01X-303766Y2072262D01*
G01X-300533Y2069491D01*
G01X-297762Y2066258D01*
G01X-294529Y2062102D01*
G01X-292220Y2057945D01*
G01X-290373Y2053789D01*
G01X-288987Y2048709D01*
G01X-288064Y2043167D01*
G01X-287602Y2034393D01*
G01X-288064Y2026542D01*
G01X-288987Y2021924D01*
G01X-290373Y2016844D01*
G01X-293144Y2008531D01*
G01X-294991Y2004374D01*
G01X-298686Y1996985D01*
G01X-300995Y1992829D01*
G01X-305613Y1985440D01*
G01X-308384Y1981284D01*
G01X-310693Y1978051D01*
G01X-312540Y1975742D01*
G01X-315311Y1972047D01*
G01X-319006Y1967429D01*
G01X-321777Y1964196D01*
G01X-323624Y1961887D01*
G01X-325933Y1959578D01*
G01X-331475Y1953113D01*
G01X-340711Y1943876D01*
G01X-345329Y1938334D01*
G01X-356875Y1926789D01*
G01X-362417Y1922171D01*
G01X-373962Y1910625D01*
G01X-377657Y1907854D01*
G01X-380889Y1904622D01*
G01X-382275Y1901851D01*
G01X-382275Y1901851D01*
G01X-382737Y1899080D01*
G01X-502809Y1899080D01*
G01X-502809Y1900004D01*
G01X-503387Y1901851D01*
G01X-505118Y1902774D01*
G01X-511584Y1903236D01*
G01X-517126Y1903698D01*
G01X-520820Y1905084D01*
G01X-524053Y1907393D01*
G01X-525900Y1910164D01*
G01X-527286Y1914782D01*
G01X-527747Y1924018D01*
G01X-528209Y1931407D01*
G01X-528671Y2017767D01*
G01X-528671Y2102742D01*
G01X-531904Y2102742D01*
G01X-536522Y2101818D01*
G01X-562384Y2088887D01*
G01X-570697Y2085193D01*
G01X-578086Y2081498D01*
G01X-581318Y2079651D01*
G01X-581665Y2078496D01*
G01X-727807Y2078496D01*
G01X-732795Y2084731D01*
G01X-735104Y2087040D01*
G01X-738798Y2089811D01*
G01X-742955Y2093044D01*
G01X-747111Y2095814D01*
G01X-752191Y2098124D01*
G01X-760504Y2100894D01*
G01X-767431Y2102280D01*
G01X-779438Y2102742D01*
G01X-788675Y2102280D01*
G01X-792369Y2101356D01*
G01X-796526Y2099971D01*
G01X-801144Y2098124D01*
G01X-804838Y2096276D01*
G01X-810380Y2092582D01*
G01X-812689Y2090734D01*
G01X-817307Y2086116D01*
G01X-819617Y2083345D01*
G01X-821464Y2080574D01*
G01X-823773Y2077342D01*
G01X-827929Y2069029D01*
G01X-829315Y2065334D01*
G01X-830700Y2061178D01*
G01X-832086Y2056098D01*
G01X-833009Y2051480D01*
G01X-833471Y2048247D01*
G01X-832894Y2046862D01*
G01X-831162Y2046400D01*
G01X-829199Y2046977D01*
G01X-827929Y2048709D01*
G01X-826082Y2053327D01*
G01X-824235Y2057022D01*
G01X-821926Y2060716D01*
G01X-819155Y2063949D01*
G01X-817307Y2066258D01*
G01X-814998Y2068567D01*
G01X-812227Y2070876D01*
G01X-809918Y2072724D01*
G01X-803453Y2075956D01*
G01X-799297Y2077804D01*
G01X-794217Y2079189D01*
G01X-787751Y2080113D01*
G01X-782209Y2080574D01*
G01X-778515Y2080113D01*
G01X-774358Y2079189D01*
G01X-769278Y2077342D01*
G01X-765122Y2075033D01*
G01X-760966Y2072262D01*
G01X-757733Y2069491D01*
G01X-754962Y2066258D01*
G01X-751729Y2062102D01*
G01X-749420Y2057945D01*
G01X-747573Y2053789D01*
G01X-746187Y2048709D01*
G01X-745264Y2043167D01*
G01X-744802Y2034393D01*
G01X-745264Y2026542D01*
G01X-746187Y2021924D01*
G01X-747573Y2016844D01*
G01X-750344Y2008531D01*
G01X-752191Y2004374D01*
G01X-755886Y1996985D01*
G01X-758195Y1992829D01*
G01X-762813Y1985440D01*
G01X-765584Y1981284D01*
G01X-767893Y1978051D01*
G01X-769740Y1975742D01*
G01X-772511Y1972047D01*
G01X-776206Y1967429D01*
G01X-778977Y1964196D01*
G01X-780824Y1961887D01*
G01X-783133Y1959578D01*
G01X-788675Y1953113D01*
G01X-797911Y1943876D01*
G01X-802529Y1938334D01*
G01X-814075Y1926789D01*
G01X-819617Y1922171D01*
G01X-831162Y1910625D01*
G01X-834857Y1907854D01*
G01X-838089Y1904622D01*
G01X-839475Y1901851D01*
G01X-839475Y1901851D01*
G01X-839937Y1899080D01*
G01X-948556Y1899080D01*
G01X-948002Y1900465D01*
G01X-946155Y1904622D01*
G01X-938766Y1923094D01*
G01X-936918Y1927251D01*
G01X-933224Y1936487D01*
G01X-931377Y1940644D01*
G01X-923987Y1959116D01*
G01X-922140Y1963273D01*
G01X-916598Y1977127D01*
G01X-914751Y1981284D01*
G01X-913366Y1984516D01*
G01X-911980Y1988211D01*
G01X-910133Y1992829D01*
G01X-908286Y1996985D01*
G01X-906900Y2000218D01*
G01X-905515Y2003913D01*
G01X-901820Y2013149D01*
G01X-899973Y2017305D01*
G01X-892584Y2035778D01*
G01X-890737Y2039934D01*
G01X-887042Y2049171D01*
G01X-885195Y2053327D01*
G01X-879653Y2067182D01*
G01X-875958Y2074571D01*
G01X-873649Y2077804D01*
G01X-871802Y2080113D01*
G01X-869493Y2083807D01*
G01X-865337Y2087502D01*
G01X-861642Y2089811D01*
G01X-858409Y2091196D01*
G01X-855177Y2092120D01*
G01X-851944Y2093505D01*
G01X-850558Y2094775D01*
G01X-850097Y2096738D01*
G01X-850097Y2099047D01*
G01X-912904Y2099047D01*
G01X-912904Y2096276D01*
G01X-912442Y2094198D01*
G01X-911057Y2093505D01*
G01X-907824Y2093044D01*
G01X-904129Y2092120D01*
G01X-900435Y2090734D01*
G01X-897664Y2089349D01*
G01X-895355Y2087502D01*
G01X-893507Y2085193D01*
G01X-891660Y2081960D01*
G01X-891198Y2076418D01*
G01X-892584Y2070414D01*
G01X-893969Y2065334D01*
G01X-898126Y2054251D01*
G01X-899973Y2050094D01*
G01X-907362Y2031622D01*
G01X-909209Y2027465D01*
G01X-910595Y2024233D01*
G01X-911980Y2020538D01*
G01X-915675Y2011302D01*
G01X-917522Y2007145D01*
G01X-924911Y1988673D01*
G01X-926758Y1984516D01*
G01X-934147Y1966044D01*
G01X-935995Y1961887D01*
G01X-943384Y1943414D01*
G01X-945693Y1940644D01*
G01X-946847Y1940874D01*
G01X-947540Y1942491D01*
G01X-948926Y1946185D01*
G01X-954467Y1959116D01*
G01X-958162Y1967429D01*
G01X-963704Y1980360D01*
G01X-967398Y1988673D01*
G01X-972940Y2001604D01*
G01X-976635Y2009916D01*
G01X-984947Y2029313D01*
G01X-988642Y2037625D01*
G01X-994184Y2050556D01*
G01X-996031Y2054713D01*
G01X-997878Y2059331D01*
G01X-999726Y2063487D01*
G01X-1001573Y2068567D01*
G01X-1002958Y2074571D01*
G01X-1003882Y2079189D01*
G01X-1003882Y2081960D01*
G01X-1002958Y2084731D01*
G01X-1001111Y2087502D01*
G01X-997417Y2089811D01*
G01X-993722Y2091196D01*
G01X-990027Y2092120D01*
G01X-985409Y2093044D01*
G01X-982177Y2093967D01*
G01X-981253Y2096738D01*
G01X-981253Y2099047D01*
G01X-1064380Y2099047D01*
G01X-1066227Y2099047D01*
G01X-1066227Y2168320D01*
G01X999947Y2168320D01*
G01X999947Y1831193D01*
G37*
G36*
G01X902503Y1971585D02*
G01X867405Y1972047D01*
G01X868329Y1974818D01*
G01X871100Y1978974D01*
G01X880336Y1991905D01*
G01X883107Y1996062D01*
G01X892343Y2008993D01*
G01X898809Y2018229D01*
G01X908045Y2031160D01*
G01X914511Y2040396D01*
G01X919129Y2046862D01*
G01X925594Y2056098D01*
G01X930213Y2062564D01*
G01X933445Y2067182D01*
G01X936216Y2069953D01*
G01X936909Y2057945D01*
G01X937140Y2021000D01*
G01X937140Y1971585D01*
G01X902503Y1971585D01*
G37*
G04 Text End*

G04 PolygonModel Start*
G54D11*
G01X1821139Y1219020D02*
G01X1821139Y1070521D01*
G01X2039661Y1070521D02*
G01X2039661Y1219020D01*
G01X2024421Y1234260D02*
G01X1836379Y1234260D01*
G01X1821139Y736780D02*
G01X1821139Y885279D01*
G01X2039661Y885279D02*
G01X2039661Y736780D01*
G01X2024421Y721540D02*
G01X1836379Y721540D01*
G01X2039661Y1219020D02*
G03X2024421Y1234260I-15240J0D01*
G01X1836379Y1234260D02*
G03X1821139Y1219020I0J-15240D01*
G01X2039661Y736780D02*
G02X2024421Y721540I-15240J0D01*
G01X1836379Y721540D02*
G02X1821139Y736780I0J15240D01*
G01X1556541Y1219020D02*
G01X1556541Y1070521D01*
G01X1775062Y1070521D02*
G01X1775062Y1219020D01*
G01X1759822Y1234260D02*
G01X1571781Y1234260D01*
G01X1556541Y736780D02*
G01X1556541Y885279D01*
G01X1775062Y885279D02*
G01X1775062Y736780D01*
G01X1759822Y721540D02*
G01X1571781Y721540D01*
G01X1775062Y1219020D02*
G03X1759822Y1234260I-15240J0D01*
G01X1571781Y1234260D02*
G03X1556541Y1219020I0J-15240D01*
G01X1775062Y736780D02*
G02X1759822Y721540I-15240J0D01*
G01X1571781Y721540D02*
G02X1556541Y736780I0J15240D01*
G01X703442Y1135879D02*
G01X851940Y1135879D01*
G01X851940Y1354400D02*
G01X703442Y1354400D01*
G01X688202Y1339160D02*
G01X688202Y1151119D01*
G01X1185681Y1135879D02*
G01X1037182Y1135879D01*
G01X1037182Y1354400D02*
G01X1185681Y1354400D01*
G01X1200921Y1339160D02*
G01X1200921Y1151119D01*
G01X703442Y1354400D02*
G03X688202Y1339160I0J-15240D01*
G01X688202Y1151119D02*
G03X703442Y1135879I15240J0D01*
G01X1185681Y1354400D02*
G02X1200921Y1339160I0J-15240D01*
G01X1200921Y1151119D02*
G02X1185681Y1135879I-15240J0D01*
G01X703442Y1419640D02*
G01X851940Y1419640D01*
G01X851940Y1638162D02*
G01X703442Y1638162D01*
G01X688202Y1622922D02*
G01X688202Y1434880D01*
G01X1185681Y1419640D02*
G01X1037182Y1419640D01*
G01X1037182Y1638162D02*
G01X1185681Y1638162D01*
G01X1200921Y1622922D02*
G01X1200921Y1434880D01*
G01X703442Y1638162D02*
G03X688202Y1622922I0J-15240D01*
G01X688202Y1434880D02*
G03X703442Y1419640I15240J0D01*
G01X1185681Y1638162D02*
G02X1200921Y1622922I0J-15240D01*
G01X1200921Y1434880D02*
G02X1185681Y1419640I-15240J0D01*
G01X-318960Y1590820D02*
G01X-318960Y1449819D01*
G01X-138239Y1449819D02*
G01X-138239Y1590820D01*
G01X-153479Y1606060D02*
G01X-303720Y1606060D01*
G01X-318960Y1228580D02*
G01X-318960Y1369581D01*
G01X-138239Y1369581D02*
G01X-138239Y1228580D01*
G01X-153479Y1213340D02*
G01X-303720Y1213340D01*
G01X-138239Y1590820D02*
G03X-153479Y1606060I-15240J0D01*
G01X-303720Y1606060D02*
G03X-318960Y1590820I0J-15240D01*
G01X-138239Y1228580D02*
G02X-153479Y1213340I-15240J0D01*
G01X-303720Y1213340D02*
G02X-318960Y1228580I0J15240D01*
G01X-622300Y1458864D02*
G01X-637710Y1474099D01*
G01X-637710Y1474099D02*
G01X-637710Y1575742D01*
G01X-637710Y1575742D02*
G01X-622300Y1588999D01*
G01X-368300Y1588999D02*
G01X-352885Y1573898D01*
G01X-352885Y1573898D02*
G01X-352885Y1472255D01*
G01X-352885Y1472255D02*
G01X-368300Y1458999D01*
G54D12*
G01X-622501Y1588999D02*
G01X-546301Y1588999D01*
G01X-368094Y1458999D02*
G01X-444294Y1458999D01*
G01X-622501Y1458999D02*
G01X-546301Y1458999D01*
G01X-368094Y1588999D02*
G01X-444294Y1588999D01*
G54D13*
G01X2046486Y-660400D02*
G01X2040217Y-660400D01*
G01X2226488Y-660400D02*
G01X2167712Y-660400D01*
G01X2363986Y-660400D02*
G01X2347714Y-660400D01*
G01X2451100Y-651111D02*
G01X2451100Y-660400D01*
G01X2451100Y-660400D02*
G01X2450214Y-660400D01*
G01X2451100Y-446113D02*
G01X2451100Y-469887D01*
G01X2451100Y-358013D02*
G01X2451100Y-359885D01*
G01X2450214Y-358013D02*
G01X2451100Y-358013D01*
G01X2167712Y-358013D02*
G01X2211487Y-358013D01*
G01X2040217Y-358013D02*
G01X2046486Y-358013D01*
G01X1930400Y-358013D02*
G01X1953989Y-358013D01*
G01X1930400Y-364884D02*
G01X1930400Y-358013D01*
G01X1953989Y-660400D02*
G01X1930400Y-660400D01*
G01X1930400Y-660400D02*
G01X1930400Y-651116D01*
G36*
G01X1892305Y-723897D02*
G02X1968505Y-723897I38100J0D01*
G02X1892305Y-723897I-38100J0D01*
G37*
G54D11*
G01X-157632Y108062D02*
G01X-157632Y157632D01*
G01X-157632Y157632D02*
G01X-108062Y157632D01*
G01X157607Y108062D02*
G01X157607Y157632D01*
G01X157607Y157632D02*
G01X108036Y157632D01*
G01X-157632Y-108036D02*
G01X-157632Y-157607D01*
G01X-157632Y-157607D02*
G01X-108062Y-157607D01*
G01X157607Y-108036D02*
G01X157607Y-157607D01*
G01X157607Y-157607D02*
G01X108036Y-157607D01*
G01X883780Y797659D02*
G01X883780Y705980D01*
G01X883780Y705980D02*
G01X942960Y705980D01*
G01X1199020Y797659D02*
G01X1199020Y705980D01*
G01X1199020Y705980D02*
G01X1139840Y705980D01*
G01X883780Y929541D02*
G01X883780Y1021220D01*
G01X883780Y1021220D02*
G01X942960Y1021220D01*
G01X1199020Y929541D02*
G01X1199020Y1021220D01*
G01X1199020Y1021220D02*
G01X1139840Y1021220D01*
G01X309880Y1541777D02*
G01X310022Y1567320D01*
G01X310022Y1567320D02*
G01X-5220Y1567320D01*
G01X-5220Y1567320D02*
G01X-5077Y1544320D01*
G01X-5077Y1277620D02*
G01X-5220Y1252078D01*
G01X-5220Y1252078D02*
G01X310022Y1252078D01*
G01X310022Y1252078D02*
G01X309880Y1275077D01*
G01X1489461Y25268D02*
G01X1473081Y25268D01*
G01X1473081Y25268D02*
G01X1473081Y660507D01*
G01X1473081Y660507D02*
G01X1489461Y660507D01*
G01X2091939Y25268D02*
G01X2108319Y25268D01*
G01X2108319Y25268D02*
G01X2108319Y660507D01*
G01X2108319Y660507D02*
G01X2091939Y660507D01*
G01X2256539Y-849854D02*
G01X2206539Y-849854D01*
G01X2271781Y-765376D02*
G01X2271781Y-834616D01*
G01X2206539Y-750136D02*
G01X2256539Y-750136D01*
G01X2112261Y-750349D02*
G01X2162261Y-750349D01*
G01X2162261Y-850062D02*
G01X2112261Y-850062D01*
G01X2097019Y-834827D02*
G01X2097019Y-765584D01*
G01X2112261Y-850064D02*
G02X2097021Y-834824I0J15240D01*
G01X2097021Y-765584D02*
G02X2112261Y-750344I15240J0D01*
G01X2256539Y-750136D02*
G02X2271779Y-765376I0J-15240D01*
G01X2271779Y-834616D02*
G02X2256539Y-849856I-15240J0D01*
G01X2053339Y-265654D02*
G01X2003339Y-265654D01*
G01X2068581Y-181176D02*
G01X2068581Y-250416D01*
G01X2003339Y-165936D02*
G01X2053339Y-165936D01*
G01X1909061Y-166149D02*
G01X1959061Y-166149D01*
G01X1959061Y-265862D02*
G01X1909061Y-265862D01*
G01X1893819Y-250627D02*
G01X1893819Y-181384D01*
G01X1909061Y-265864D02*
G02X1893821Y-250624I0J15240D01*
G01X1893821Y-181384D02*
G02X1909061Y-166144I15240J0D01*
G01X2053339Y-165936D02*
G02X2068579Y-181176I0J-15240D01*
G01X2068579Y-250416D02*
G02X2053339Y-265656I-15240J0D01*
G01X1860025Y-265654D02*
G01X1810026Y-265654D01*
G01X1875268Y-181176D02*
G01X1875268Y-250416D01*
G01X1810026Y-165936D02*
G01X1860025Y-165936D01*
G01X1715748Y-166149D02*
G01X1765748Y-166149D01*
G01X1765748Y-265862D02*
G01X1715748Y-265862D01*
G01X1700506Y-250627D02*
G01X1700506Y-181384D01*
G01X1715748Y-265864D02*
G02X1700508Y-250624I0J15240D01*
G01X1700508Y-181384D02*
G02X1715748Y-166144I15240J0D01*
G01X1860025Y-165936D02*
G02X1875265Y-181176I0J-15240D01*
G01X1875265Y-250416D02*
G02X1860025Y-265656I-15240J0D01*
G01X2099561Y-166146D02*
G01X2149561Y-166146D01*
G01X2084319Y-250624D02*
G01X2084319Y-181384D01*
G01X2149561Y-265864D02*
G01X2099561Y-265864D01*
G01X2243839Y-265651D02*
G01X2193839Y-265651D01*
G01X2193839Y-165938D02*
G01X2243839Y-165938D01*
G01X2259081Y-181173D02*
G01X2259081Y-250416D01*
G01X2243839Y-165936D02*
G02X2259079Y-181176I0J-15240D01*
G01X2259079Y-250416D02*
G02X2243839Y-265656I-15240J0D01*
G01X2099561Y-265864D02*
G02X2084321Y-250624I0J15240D01*
G01X2084321Y-181384D02*
G02X2099561Y-166144I15240J0D01*
G01X-229646Y199139D02*
G01X-229646Y149139D01*
G01X-314124Y214381D02*
G01X-244884Y214381D01*
G01X-329364Y149139D02*
G01X-329364Y199139D01*
G01X-329151Y54861D02*
G01X-329151Y104861D01*
G01X-229438Y104861D02*
G01X-229438Y54861D01*
G01X-244673Y39619D02*
G01X-313916Y39619D01*
G01X-229436Y54861D02*
G02X-244676Y39621I-15240J0D01*
G01X-313916Y39621D02*
G02X-329156Y54861I0J15240D01*
G01X-329364Y199139D02*
G02X-314124Y214379I15240J0D01*
G01X-244884Y214379D02*
G02X-229644Y199139I0J-15240D01*
G01X-329154Y-148339D02*
G01X-329154Y-98339D01*
G01X-244676Y-163581D02*
G01X-313916Y-163581D01*
G01X-229436Y-98339D02*
G01X-229436Y-148339D01*
G01X-229649Y-4061D02*
G01X-229649Y-54061D01*
G01X-329362Y-54061D02*
G01X-329362Y-4061D01*
G01X-314127Y11181D02*
G01X-244884Y11181D01*
G01X-329364Y-4061D02*
G02X-314124Y11179I15240J0D01*
G01X-244884Y11179D02*
G02X-229644Y-4061I0J-15240D01*
G01X-229436Y-148339D02*
G02X-244676Y-163579I-15240J0D01*
G01X-313916Y-163579D02*
G02X-329156Y-148339I0J15240D01*
G01X1283746Y867661D02*
G01X1283746Y917661D01*
G01X1368224Y852419D02*
G01X1298984Y852419D01*
G01X1383464Y917661D02*
G01X1383464Y867661D01*
G01X1383251Y1011939D02*
G01X1383251Y961939D01*
G01X1283538Y961939D02*
G01X1283538Y1011939D01*
G01X1298773Y1027181D02*
G01X1368016Y1027181D01*
G01X1283536Y1011939D02*
G02X1298776Y1027179I15240J0D01*
G01X1368016Y1027179D02*
G02X1383256Y1011939I0J-15240D01*
G01X1383464Y867661D02*
G02X1368224Y852421I-15240J0D01*
G01X1298984Y852421D02*
G02X1283744Y867661I0J15240D01*
G01X757939Y805345D02*
G01X707939Y805345D01*
G01X773181Y889823D02*
G01X773181Y820583D01*
G01X707939Y905063D02*
G01X757939Y905063D01*
G01X613661Y904850D02*
G01X663661Y904850D01*
G01X663661Y805137D02*
G01X613661Y805137D01*
G01X598419Y820372D02*
G01X598419Y889615D01*
G01X613661Y805134D02*
G02X598421Y820374I0J15240D01*
G01X598421Y889615D02*
G02X613661Y904855I15240J0D01*
G01X757939Y905063D02*
G02X773179Y889823I0J-15240D01*
G01X773179Y820583D02*
G02X757939Y805343I-15240J0D01*
G01X356646Y1477261D02*
G01X356646Y1527261D01*
G01X441124Y1462019D02*
G01X371884Y1462019D01*
G01X456364Y1527261D02*
G01X456364Y1477261D01*
G01X456151Y1621539D02*
G01X456151Y1571539D01*
G01X356438Y1571539D02*
G01X356438Y1621539D01*
G01X371673Y1636781D02*
G01X440916Y1636781D01*
G01X356436Y1621539D02*
G02X371676Y1636779I15240J0D01*
G01X440916Y1636779D02*
G02X456156Y1621539I0J-15240D01*
G01X456364Y1477261D02*
G02X441124Y1462021I-15240J0D01*
G01X371884Y1462021D02*
G02X356644Y1477261I0J15240D01*
G01X1510254Y1011939D02*
G01X1510254Y961939D01*
G01X1425776Y1027181D02*
G01X1495016Y1027181D01*
G01X1410536Y961939D02*
G01X1410536Y1011939D01*
G01X1410749Y867661D02*
G01X1410749Y917661D01*
G01X1510462Y917661D02*
G01X1510462Y867661D01*
G01X1495227Y852419D02*
G01X1425984Y852419D01*
G01X1510464Y867661D02*
G02X1495224Y852421I-15240J0D01*
G01X1425984Y852421D02*
G02X1410744Y867661I0J15240D01*
G01X1410536Y1011939D02*
G02X1425776Y1027179I15240J0D01*
G01X1495016Y1027179D02*
G02X1510256Y1011939I0J-15240D01*
G01X1656622Y-710260D02*
G01X1584819Y-710260D01*
G01X1584819Y-710260D02*
G01X1584819Y-610540D01*
G01X1584819Y-610540D02*
G01X1656622Y-610540D01*
G01X1701865Y-710260D02*
G01X1773668Y-710260D01*
G01X1773668Y-710260D02*
G01X1773668Y-610540D01*
G01X1773668Y-610540D02*
G01X1701865Y-610540D01*
G01X1701865Y-483540D02*
G01X1773668Y-483540D01*
G01X1773668Y-483540D02*
G01X1773668Y-583260D01*
G01X1773668Y-583260D02*
G01X1701865Y-583260D01*
G01X1656622Y-483540D02*
G01X1584819Y-483540D01*
G01X1584819Y-483540D02*
G01X1584819Y-583260D01*
G01X1584819Y-583260D02*
G01X1656622Y-583260D01*
G01X1800621Y-51740D02*
G01X1872425Y-51740D01*
G01X1872425Y-51740D02*
G01X1872425Y-151460D01*
G01X1872425Y-151460D02*
G01X1800621Y-151460D01*
G01X1755379Y-51740D02*
G01X1683576Y-51740D01*
G01X1683576Y-51740D02*
G01X1683576Y-151460D01*
G01X1683576Y-151460D02*
G01X1755379Y-151460D01*
G01X2003821Y-51740D02*
G01X2075625Y-51740D01*
G01X2075625Y-51740D02*
G01X2075625Y-151460D01*
G01X2075625Y-151460D02*
G01X2003821Y-151460D01*
G01X1958579Y-51740D02*
G01X1886776Y-51740D01*
G01X1886776Y-51740D02*
G01X1886776Y-151460D01*
G01X1886776Y-151460D02*
G01X1958579Y-151460D01*
G01X663179Y682437D02*
G01X591376Y682437D01*
G01X591376Y682437D02*
G01X591376Y782157D01*
G01X591376Y782157D02*
G01X663179Y782157D01*
G01X708421Y682437D02*
G01X780225Y682437D01*
G01X780225Y682437D02*
G01X780225Y782157D01*
G01X780225Y782157D02*
G01X708421Y782157D01*
G01X708421Y659460D02*
G01X780225Y659460D01*
G01X780225Y659460D02*
G01X780225Y559740D01*
G01X780225Y559740D02*
G01X708421Y559740D01*
G01X663179Y659460D02*
G01X591376Y659460D01*
G01X591376Y659460D02*
G01X591376Y559740D01*
G01X591376Y559740D02*
G01X663179Y559740D01*
G01X663179Y928040D02*
G01X591376Y928040D01*
G01X591376Y928040D02*
G01X591376Y1027760D01*
G01X591376Y1027760D02*
G01X663179Y1027760D01*
G01X708421Y928040D02*
G01X780225Y928040D01*
G01X780225Y928040D02*
G01X780225Y1027760D01*
G01X780225Y1027760D02*
G01X708421Y1027760D01*
G01X1100658Y517921D02*
G01X1100658Y589725D01*
G01X1100658Y589725D02*
G01X1200379Y589725D01*
G01X1200379Y589725D02*
G01X1200379Y517921D01*
G01X1100658Y472679D02*
G01X1100658Y400876D01*
G01X1100658Y400876D02*
G01X1200379Y400876D01*
G01X1200379Y400876D02*
G01X1200379Y472679D01*
G01X1078560Y472679D02*
G01X1078560Y400876D01*
G01X1078560Y400876D02*
G01X978840Y400876D01*
G01X978840Y400876D02*
G01X978840Y472679D01*
G01X1078560Y517921D02*
G01X1078560Y589725D01*
G01X1078560Y589725D02*
G01X978840Y589725D01*
G01X978840Y589725D02*
G01X978840Y517921D01*
G01X87960Y1044179D02*
G01X87960Y972376D01*
G01X87960Y972376D02*
G01X-11760Y972376D01*
G01X-11760Y972376D02*
G01X-11760Y1044179D01*
G01X87960Y1089421D02*
G01X87960Y1161225D01*
G01X87960Y1161225D02*
G01X-11760Y1161225D01*
G01X-11760Y1161225D02*
G01X-11760Y1089421D01*
G01X-39040Y1044179D02*
G01X-39040Y972376D01*
G01X-39040Y972376D02*
G01X-138760Y972376D01*
G01X-138760Y972376D02*
G01X-138760Y1044179D01*
G01X-39040Y1089421D02*
G01X-39040Y1161225D01*
G01X-39040Y1161225D02*
G01X-138760Y1161225D01*
G01X-138760Y1161225D02*
G01X-138760Y1089421D01*
G01X356540Y1368821D02*
G01X356540Y1440625D01*
G01X356540Y1440625D02*
G01X456260Y1440625D01*
G01X456260Y1440625D02*
G01X456260Y1368821D01*
G01X356540Y1323579D02*
G01X356540Y1251776D01*
G01X356540Y1251776D02*
G01X456260Y1251776D01*
G01X456260Y1251776D02*
G01X456260Y1323579D01*
G54D12*
G01X1583781Y-424015D02*
G01X1583781Y-451129D01*
G01X1583781Y-310881D02*
G01X1583781Y-337985D01*
G54D11*
G01X1583781Y-310881D02*
G01X1769021Y-310881D01*
G01X1583792Y-451129D02*
G01X1769034Y-451129D01*
G01X1718541Y-310881D02*
G01X1718541Y-451119D01*
G36*
G01X1761400Y-349001D02*
G01X1761400Y-303260D01*
G01X1791880Y-303260D01*
G01X1791880Y-349001D01*
G01X1761400Y-349001D01*
G37*
G36*
G01X1761400Y-412999D02*
G01X1791880Y-412999D01*
G01X1791880Y-458740D01*
G01X1761400Y-458740D01*
G01X1761400Y-412999D01*
G37*
G01X311112Y-85777D02*
G01X311112Y-13974D01*
G01X311112Y-13974D02*
G01X410832Y-13974D01*
G01X410832Y-13974D02*
G01X410832Y-85777D01*
G01X311112Y-131020D02*
G01X311112Y-202823D01*
G01X311112Y-202823D02*
G01X410832Y-202823D01*
G01X410832Y-202823D02*
G01X410832Y-131020D01*
G01X-2779Y430860D02*
G01X69025Y430860D01*
G01X69025Y430860D02*
G01X69025Y331140D01*
G01X69025Y331140D02*
G01X-2779Y331140D01*
G01X-48021Y430860D02*
G01X-119824Y430860D01*
G01X-119824Y430860D02*
G01X-119824Y331140D01*
G01X-119824Y331140D02*
G01X-48021Y331140D01*
G01X-1134361Y-37054D02*
G01X-1184361Y-37054D01*
G01X-1119119Y47424D02*
G01X-1119119Y-21816D01*
G01X-1184361Y62664D02*
G01X-1134361Y62664D01*
G01X-1278639Y62451D02*
G01X-1228639Y62451D01*
G01X-1228639Y-37262D02*
G01X-1278639Y-37262D01*
G01X-1293881Y-22027D02*
G01X-1293881Y47216D01*
G01X-1278639Y-37264D02*
G02X-1293879Y-22024I0J15240D01*
G01X-1293879Y47216D02*
G02X-1278639Y62456I15240J0D01*
G01X-1134361Y62664D02*
G02X-1119121Y47424I0J-15240D01*
G01X-1119121Y-21816D02*
G02X-1134361Y-37056I-15240J0D01*
G01X-1443739Y-191546D02*
G01X-1393739Y-191546D01*
G01X-1458981Y-276024D02*
G01X-1458981Y-206784D01*
G01X-1393739Y-291264D02*
G01X-1443739Y-291264D01*
G01X-1299461Y-291051D02*
G01X-1349461Y-291051D01*
G01X-1349461Y-191338D02*
G01X-1299461Y-191338D01*
G01X-1284219Y-206573D02*
G01X-1284219Y-275816D01*
G01X-1299461Y-191336D02*
G02X-1284221Y-206576I0J-15240D01*
G01X-1284221Y-275816D02*
G02X-1299461Y-291056I-15240J0D01*
G01X-1443739Y-291264D02*
G02X-1458979Y-276024I0J15240D01*
G01X-1458979Y-206784D02*
G02X-1443739Y-191544I15240J0D01*
G01X783339Y293146D02*
G01X733339Y293146D01*
G01X798581Y377624D02*
G01X798581Y308384D01*
G01X733339Y392864D02*
G01X783339Y392864D01*
G01X639061Y392651D02*
G01X689061Y392651D01*
G01X689061Y292938D02*
G01X639061Y292938D01*
G01X623819Y308173D02*
G01X623819Y377416D01*
G01X639061Y292936D02*
G02X623821Y308176I0J15240D01*
G01X623821Y377416D02*
G02X639061Y392656I15240J0D01*
G01X783339Y392864D02*
G02X798579Y377624I0J-15240D01*
G01X798579Y308384D02*
G02X783339Y293144I-15240J0D01*
G01X435861Y519654D02*
G01X485861Y519654D01*
G01X420619Y435176D02*
G01X420619Y504416D01*
G01X485861Y419936D02*
G01X435861Y419936D01*
G01X580139Y420149D02*
G01X530139Y420149D01*
G01X530139Y519862D02*
G01X580139Y519862D01*
G01X595381Y504627D02*
G01X595381Y435384D01*
G01X580139Y519864D02*
G02X595379Y504624I0J-15240D01*
G01X595379Y435384D02*
G02X580139Y420144I-15240J0D01*
G01X435861Y419936D02*
G02X420621Y435176I0J15240D01*
G01X420621Y504416D02*
G02X435861Y519656I15240J0D01*
G54D12*
G01X-668387Y-1340757D02*
G01X-664402Y-1340757D01*
G01X-664402Y-1340757D02*
G01X-664402Y-1526240D01*
G01X-795387Y-1340757D02*
G01X-779416Y-1340757D01*
G01X-922387Y-1340757D02*
G01X-906416Y-1340757D01*
G01X-1049387Y-1340757D02*
G01X-1033416Y-1340757D01*
G01X-664402Y-1652768D02*
G01X-664402Y-1930756D01*
G01X-664402Y-1930756D02*
G01X-668387Y-1930756D01*
G01X-1160416Y-1930756D02*
G01X-1164401Y-1930756D01*
G01X-779416Y-1930756D02*
G01X-1049387Y-1930756D01*
G01X-1164401Y-1526240D02*
G01X-1164401Y-1282700D01*
G01X-1164401Y-1340757D02*
G01X-1160416Y-1340757D01*
G01X-1164401Y-1930756D02*
G01X-1164401Y-1652768D01*
G54D11*
G01X-1041400Y-1282700D02*
G01X-1041400Y-1424193D01*
G54D12*
G01X-693787Y-616857D02*
G01X-689802Y-616857D01*
G01X-689802Y-616857D02*
G01X-689802Y-802340D01*
G01X-820787Y-616857D02*
G01X-804816Y-616857D01*
G01X-947787Y-616857D02*
G01X-931816Y-616857D01*
G01X-1074787Y-616857D02*
G01X-1058816Y-616857D01*
G01X-689802Y-928868D02*
G01X-689802Y-1206856D01*
G01X-689802Y-1206856D02*
G01X-693787Y-1206856D01*
G01X-1185816Y-1206856D02*
G01X-1189801Y-1206856D01*
G01X-804816Y-1206856D02*
G01X-1074787Y-1206856D01*
G01X-1189801Y-802340D02*
G01X-1189801Y-558800D01*
G01X-1189801Y-616857D02*
G01X-1185816Y-616857D01*
G01X-1189801Y-1206856D02*
G01X-1189801Y-928868D01*
G54D11*
G01X-1066800Y-558800D02*
G01X-1066800Y-700293D01*
G54D12*
G01X182513Y-1340757D02*
G01X186498Y-1340757D01*
G01X186498Y-1340757D02*
G01X186498Y-1526240D01*
G01X55513Y-1340757D02*
G01X71484Y-1340757D01*
G01X-71487Y-1340757D02*
G01X-55516Y-1340757D01*
G01X-198487Y-1340757D02*
G01X-182516Y-1340757D01*
G01X186498Y-1652768D02*
G01X186498Y-1930756D01*
G01X186498Y-1930756D02*
G01X182513Y-1930756D01*
G01X-309516Y-1930756D02*
G01X-313501Y-1930756D01*
G01X71484Y-1930756D02*
G01X-198487Y-1930756D01*
G01X-313501Y-1526240D02*
G01X-313501Y-1282700D01*
G01X-313501Y-1340757D02*
G01X-309516Y-1340757D01*
G01X-313501Y-1930756D02*
G01X-313501Y-1652768D01*
G54D11*
G01X-190500Y-1282700D02*
G01X-190500Y-1424193D01*
G54D12*
G01X182513Y-629557D02*
G01X186498Y-629557D01*
G01X186498Y-629557D02*
G01X186498Y-815040D01*
G01X55513Y-629557D02*
G01X71484Y-629557D01*
G01X-71487Y-629557D02*
G01X-55516Y-629557D01*
G01X-198487Y-629557D02*
G01X-182516Y-629557D01*
G01X186498Y-941568D02*
G01X186498Y-1219556D01*
G01X186498Y-1219556D02*
G01X182513Y-1219556D01*
G01X-309516Y-1219556D02*
G01X-313501Y-1219556D01*
G01X71484Y-1219556D02*
G01X-198487Y-1219556D01*
G01X-313501Y-815040D02*
G01X-313501Y-571500D01*
G01X-313501Y-629557D02*
G01X-309516Y-629557D01*
G01X-313501Y-1219556D02*
G01X-313501Y-941568D01*
G54D11*
G01X-190500Y-571500D02*
G01X-190500Y-712993D01*
G54D12*
G01X1033413Y-1340757D02*
G01X1037398Y-1340757D01*
G01X1037398Y-1340757D02*
G01X1037398Y-1526240D01*
G01X906413Y-1340757D02*
G01X922384Y-1340757D01*
G01X779413Y-1340757D02*
G01X795384Y-1340757D01*
G01X652413Y-1340757D02*
G01X668384Y-1340757D01*
G01X1037398Y-1652768D02*
G01X1037398Y-1930756D01*
G01X1037398Y-1930756D02*
G01X1033413Y-1930756D01*
G01X541384Y-1930756D02*
G01X537399Y-1930756D01*
G01X922384Y-1930756D02*
G01X652413Y-1930756D01*
G01X537399Y-1526240D02*
G01X537399Y-1282700D01*
G01X537399Y-1340757D02*
G01X541384Y-1340757D01*
G01X537399Y-1930756D02*
G01X537399Y-1652768D01*
G54D11*
G01X660400Y-1282700D02*
G01X660400Y-1424193D01*
G54D12*
G01X1033413Y-629557D02*
G01X1037398Y-629557D01*
G01X1037398Y-629557D02*
G01X1037398Y-815040D01*
G01X906413Y-629557D02*
G01X922384Y-629557D01*
G01X779413Y-629557D02*
G01X795384Y-629557D01*
G01X652413Y-629557D02*
G01X668384Y-629557D01*
G01X1037398Y-941568D02*
G01X1037398Y-1219556D01*
G01X1037398Y-1219556D02*
G01X1033413Y-1219556D01*
G01X541384Y-1219556D02*
G01X537399Y-1219556D01*
G01X922384Y-1219556D02*
G01X652413Y-1219556D01*
G01X537399Y-815040D02*
G01X537399Y-571500D01*
G01X537399Y-629557D02*
G01X541384Y-629557D01*
G01X537399Y-1219556D02*
G01X537399Y-941568D01*
G54D11*
G01X660400Y-571500D02*
G01X660400Y-712993D01*
G01X530621Y392760D02*
G01X602425Y392760D01*
G01X602425Y392760D02*
G01X602425Y293040D01*
G01X602425Y293040D02*
G01X530621Y293040D01*
G01X485379Y392760D02*
G01X413576Y392760D01*
G01X413576Y392760D02*
G01X413576Y293040D01*
G01X413576Y293040D02*
G01X485379Y293040D01*
G01X260391Y-1390520D02*
G01X260391Y-1526512D01*
G01X260391Y-1526512D02*
G01X476209Y-1526512D01*
G01X476209Y-1526512D02*
G01X476209Y-1390520D01*
G01X260391Y-1200280D02*
G01X260391Y-1064288D01*
G01X260391Y-1064288D02*
G01X476209Y-1064288D01*
G01X476209Y-1064288D02*
G01X476209Y-1200280D01*
G01X-1348979Y-305740D02*
G01X-1277175Y-305740D01*
G01X-1277175Y-305740D02*
G01X-1277175Y-405460D01*
G01X-1277175Y-405460D02*
G01X-1348979Y-405460D01*
G01X-1394221Y-305740D02*
G01X-1466024Y-305740D01*
G01X-1466024Y-305740D02*
G01X-1466024Y-405460D01*
G01X-1466024Y-405460D02*
G01X-1394221Y-405460D01*
G01X-590509Y-1390520D02*
G01X-590509Y-1526512D01*
G01X-590509Y-1526512D02*
G01X-374691Y-1526512D01*
G01X-374691Y-1526512D02*
G01X-374691Y-1390520D01*
G01X-590509Y-1200280D02*
G01X-590509Y-1064288D01*
G01X-590509Y-1064288D02*
G01X-374691Y-1064288D01*
G01X-374691Y-1064288D02*
G01X-374691Y-1200280D01*
G54D13*
G01X-1072888Y-65900D02*
G01X-682480Y-65900D01*
G01X-825500Y-365900D02*
G01X-682480Y-365900D01*
G01X-927100Y-366014D02*
G01X-1072888Y-366014D01*
G01X-682480Y-365900D02*
G01X-682480Y-65900D01*
G01X-1072888Y-365900D02*
G01X-1072888Y-65900D01*
G01X-825500Y-365900D02*
G03X-927100Y-366014I-50800J-57D01*
G36*
G01X-749300Y-345199D02*
G02X-749300Y-264399I-320J40400D01*
G02X-749300Y-345199I320J-40400D01*
G37*
G01X772300Y94988D02*
G01X772300Y-295420D01*
G01X472300Y-152400D02*
G01X472300Y-295420D01*
G01X472186Y-50800D02*
G01X472186Y94988D01*
G01X472300Y-295420D02*
G01X772300Y-295420D01*
G01X472300Y94988D02*
G01X772300Y94988D01*
G01X472300Y-152400D02*
G03X472186Y-50800I-57J50800D01*
G36*
G01X493001Y-228600D02*
G02X573801Y-228600I40400J320D01*
G02X493001Y-228600I-40400J-320D01*
G37*
G01X1054100Y-609625D02*
G01X1054100Y-508025D01*
G01X977900Y-558825D02*
G01X1130300Y-558825D01*
G54D11*
G01X2060321Y-785040D02*
G01X1775079Y-785040D01*
G01X1759839Y-800280D02*
G01X1759839Y-963780D01*
G01X2075561Y-963780D02*
G01X2075561Y-800280D01*
G01X1759839Y-1282520D02*
G01X1759839Y-1119020D01*
G01X2075561Y-1119020D02*
G01X2075561Y-1282520D01*
G01X2060321Y-1297760D02*
G01X1775079Y-1297760D01*
G01X2075561Y-800280D02*
G03X2060321Y-785040I-15240J0D01*
G01X1775079Y-785040D02*
G03X1759839Y-800280I0J-15240D01*
G01X2075561Y-1282520D02*
G02X2060321Y-1297760I-15240J0D01*
G01X1775079Y-1297760D02*
G02X1759839Y-1282520I0J15240D01*

G04 Circle Start*
G54D14*
G01X-83706Y-215887D02*
G03X-68720Y-215887I7493J0D01*
G03X-83706Y-215887I-7493J0D01*
G54D16*
G01X1227379Y830605D02*
G03X1247394Y830605I10008J0D01*
G03X1227379Y830605I-10008J0D01*
G54D14*
G01X-48133Y1557020D02*
G03X-33147Y1557020I7493J0D01*
G03X-48133Y1557020I-7493J0D01*
G54D16*
G01X-664414Y-1310759D02*
G03X-644399Y-1310759I10008J0D01*
G03X-664414Y-1310759I-10008J0D01*
G01X-689814Y-586859D02*
G03X-669799Y-586859I10008J0D01*
G03X-689814Y-586859I-10008J0D01*
G01X186486Y-1310759D02*
G03X206501Y-1310759I10008J0D01*
G03X186486Y-1310759I-10008J0D01*
G01X186486Y-599559D02*
G03X206501Y-599559I10008J0D01*
G03X186486Y-599559I-10008J0D01*
G01X1037386Y-1310759D02*
G03X1057401Y-1310759I10008J0D01*
G03X1037386Y-1310759I-10008J0D01*
G01X1037386Y-599559D02*
G03X1057401Y-599559I10008J0D01*
G03X1037386Y-599559I-10008J0D01*
G04 Circle End*

M02*

