G04 Layer: TopLayer*
G04 EasyEDA Pro v3.2.69, 2026-02-24 21:35:43*
G04 Gerber Generator version 0.3*
G04 Scale: 100 percent, Rotated: No, Reflected: No*
G04 Dimensions in millimeters*
G04 Leading zeros omitted, absolute positions, 4 integers and 5 decimals*
G04 Generated by one-click*
%FSLAX45Y45*%
%MOMM*%
%AMPolygonMacro1*4,1,8,0.39999,0.45,0.50001,0.45,0.50001,-0.45,0.10001,-0.45,0.10001,0.15,-0.50001,0.15,-0.50001,0.45,0.10001,0.45,0.39999,0.45,0*%
%AMPolygonMacro2*4,1,8,-0.5,-0.15,0.1,-0.15,0.1,0.45,0.5,0.45,0.5,-0.45,0.4,-0.45,0.1,-0.45,-0.5,-0.45,-0.5,-0.15,0*%
%AMPolygonMacro3*4,1,12,0.45001,0.1,-0.15001,0.1,-0.15001,-0.1,0.45001,-0.1,0.45001,-0.4,-0.44999,-0.4,-0.44999,-0.32901,-0.45001,-0.32901,-0.45001,0.32098,-0.44999,0.32098,-0.44999,0.4,0.45001,0.4,0.45001,0.1,0*%
%AMPolygonMacro4*4,1,8,-0.1,-0.45,-0.4,-0.45,-0.5,-0.45,-0.5,0.45,-0.1,0.45,-0.1,-0.15,0.5,-0.15,0.5,-0.45,-0.1,-0.45,0*%
%AMPolygonMacro5*4,1,8,0.5,0.15,-0.1,0.15,-0.1,-0.45,-0.5,-0.45,-0.5,0.45,-0.4,0.45,-0.1,0.45,0.5,0.45,0.5,0.15,0*%
%AMPolygonMacro6*4,1,16,2.28001,1.84,2.775,1.84,2.775,0.935,2.28001,0.935,2.28001,-2.26499,1.52999,-2.26499,1.52999,-1.765,-1.52999,-1.765,-1.52999,-2.26499,-2.28001,-2.26499,-2.28001,0.935,-2.775,0.935,-2.775,1.84,-2.28001,1.84,-2.28001,2.26499,2.28001,2.26499,2.28001,1.84,0*%
%ADD10C,0.2032*%
%ADD11C,5.5*%
%ADD12R,1.72799X1.48501*%
%ADD13R,1.48501X1.72799*%
%ADD14R,1.35001X1.41*%
%ADD15R,0.8X0.86401*%
%ADD16R,0.25001X0.9*%
%ADD17R,0.25001X1.65001*%
%ADD18R,0.23X0.9*%
%ADD19R,0.9025X0.25001*%
%ADD20R,0.9X0.25001*%
%ADD21R,0.65001X0.3*%
%ADD22PolygonMacro1*%
%ADD23PolygonMacro2*%
%ADD24PolygonMacro3*%
%ADD25PolygonMacro4*%
%ADD26PolygonMacro5*%
%ADD27R,0.28001X0.8*%
%ADD28R,0.8X0.28001*%
%ADD29R,1.65001X1.65001*%
%ADD30R,0.7X0.35001*%
%ADD31R,0.35001X0.7*%
%ADD32R,1.7X2.49999*%
%ADD33R,0.62499X0.35001*%
%ADD34R,5.72X2.2*%
%ADD35R,0.5X0.54*%
%ADD36R,0.54X0.5*%
%ADD37R,0.56566X0.54*%
%ADD38R,0.54X0.56566*%
%ADD39C,2.49999*%
%ADD40C,1.8*%
%ADD41R,0.78001X0.5*%
%ADD42R,0.75001X1.0*%
%ADD43PolygonMacro6*%
%ADD44R,1.70101X1.20752*%
%ADD45O,1.454X0.35301*%
%ADD46O,0.35301X1.454*%
%ADD47C,1.6*%
%ADD48R,2.69999X1.635*%
%ADD49C,0.508*%
%ADD50C,0.4064*%
%ADD51C,0.6096*%
%ADD52C,0.381*%
G75*


G04 Copper Start*
G36*
G01X2170589Y-810260D02*
G01X2170589Y-870242D01*
G01X2154536Y-883719D01*
G01X2141055Y-899769D01*
G01X2130554Y-917910D01*
G01X2123348Y-937593D01*
G01X2119656Y-958226D01*
G01X2119587Y-979186D01*
G01X2123145Y-999843D01*
G01X1496060Y-999843D01*
G01X1496060Y-810260D01*
G01X2170589Y-810260D01*
G37*
G36*
G01X2294760Y-332983D02*
G01X2346366Y-332983D01*
G01X2346366Y-418000D01*
G01X2347819Y-427338D01*
G01X2352040Y-435793D01*
G01X2352040Y-473732D01*
G01X2312934Y-512839D01*
G01X2245540Y-512839D01*
G01X2245540Y-497929D01*
G01X2291785Y-451684D01*
G01X2293987Y-448388D01*
G01X2294760Y-444500D01*
G01X2294760Y-332983D01*
G37*
G36*
G01X2352040Y-99060D02*
G01X2352040Y-310207D01*
G01X2347819Y-318662D01*
G01X2346366Y-328000D01*
G01X2346366Y-408927D01*
G01X2294760Y-408927D01*
G01X2294760Y-99060D01*
G01X2352040Y-99060D01*
G37*
G36*
G01X2181860Y15240D02*
G01X2205263Y15240D01*
G01X2222396Y11441D01*
G01X2239899Y10165D01*
G01X2257402Y11441D01*
G01X2274535Y15240D01*
G01X2352040Y15240D01*
G01X2352040Y-310207D01*
G01X2350466Y-312663D01*
G01X2294760Y-312663D01*
G01X2294760Y-189100D01*
G01X2293987Y-185212D01*
G01X2291785Y-181916D01*
G01X2267784Y-157916D01*
G01X2264488Y-155713D01*
G01X2260600Y-154940D01*
G01X2181860Y-154940D01*
G01X2181860Y15240D01*
G37*
G36*
G01X2270760Y-160892D02*
G01X2270760Y2540D01*
G01X2428240Y2540D01*
G01X2428240Y-173592D01*
G01X2364342Y-237490D01*
G01X2347358Y-237490D01*
G01X2270760Y-160892D01*
G37*
G36*
G01X2139734Y860695D02*
G01X2139734Y493014D01*
G01X1483241Y493014D01*
G01X1483241Y533519D01*
G01X1482467Y537407D01*
G01X1480265Y540704D01*
G01X1395509Y625459D01*
G01X1395509Y916940D01*
G01X2083489Y916940D01*
G01X2139734Y860695D01*
G37*
G36*
G01X1201393Y879323D02*
G01X1132997Y879323D01*
G01X1132997Y921441D01*
G01X1539240Y921441D01*
G01X1539240Y873760D01*
G01X1219028Y873760D01*
G01X1210639Y877899D01*
G01X1201393Y879323D01*
G37*
G36*
G01X904240Y1646792D02*
G01X904240Y1143000D01*
G01X905013Y1139112D01*
G01X907216Y1135816D01*
G01X993140Y1049892D01*
G01X993140Y962660D01*
G01X824850Y962660D01*
G01X824850Y1052210D01*
G01X823489Y1057290D01*
G01X819770Y1061009D01*
G01X814690Y1062370D01*
G01X626625Y1062370D01*
G01X626625Y1653540D01*
G01X897492Y1653540D01*
G01X904240Y1646792D01*
G37*
G36*
G01X518160Y1153160D02*
G01X518160Y1653540D01*
G01X891540Y1653540D01*
G01X891540Y1153160D01*
G01X518160Y1153160D01*
G37*
G36*
G01X268134Y1534700D02*
G01X267797Y1539240D01*
G01X309484Y1539240D01*
G01X323146Y1535723D01*
G01X337254Y1535723D01*
G01X350916Y1539240D01*
G01X365037Y1539240D01*
G01X372001Y1536582D01*
G01X379400Y1535678D01*
G01X433400Y1535678D01*
G01X440799Y1536582D01*
G01X447763Y1539240D01*
G01X586740Y1539240D01*
G01X586740Y1483360D01*
G01X268134Y1483360D01*
G01X268134Y1534700D01*
G37*
G36*
G01X433400Y1535678D02*
G01X440799Y1536582D01*
G01X447763Y1539240D01*
G01X650240Y1539240D01*
G01X650240Y1419859D01*
G01X342535Y1419859D01*
G01X334146Y1423999D01*
G01X324899Y1425423D01*
G01X268134Y1425423D01*
G01X268134Y1534700D01*
G01X267797Y1539240D01*
G01X309484Y1539240D01*
G01X323146Y1535723D01*
G01X337254Y1535723D01*
G01X350916Y1539240D01*
G01X365037Y1539240D01*
G01X372001Y1536582D01*
G01X379400Y1535678D01*
G01X433400Y1535678D01*
G37*
G36*
G01X36075Y1591436D02*
G01X36075Y1568477D01*
G01X35547Y1560798D01*
G01X36075Y1553118D01*
G01X36075Y1442780D01*
G01X35604Y1432560D01*
G01X-304337Y1432560D01*
G01X-304337Y1591436D01*
G01X36075Y1591436D01*
G37*
G36*
G01X-459727Y1419860D02*
G01X-459727Y1616344D01*
G01X-136536Y1616344D01*
G01X-136536Y1419860D01*
G01X-459727Y1419860D01*
G37*
G36*
G01X-967740Y1432560D02*
G01X-967740Y1590040D01*
G01X-530860Y1590040D01*
G01X-530860Y1432560D01*
G01X-967740Y1432560D01*
G37*
G36*
G01X1267460Y607060D02*
G01X1267460Y904240D01*
G01X1399540Y904240D01*
G01X1399540Y607060D01*
G01X1267460Y607060D01*
G37*
G36*
G01X2392934Y-266730D02*
G01X2420904Y-238760D01*
G01X2512916Y-238760D01*
G01X2512916Y-815340D01*
G01X2372360Y-815340D01*
G01X2372360Y-511245D01*
G01X2383932Y-499673D01*
G01X2388816Y-493308D01*
G01X2391887Y-485895D01*
G01X2392934Y-477941D01*
G01X2392934Y-266730D01*
G37*
G36*
G01X2211483Y-800100D02*
G01X2210408Y-792044D01*
G01X2207260Y-784552D01*
G01X2207260Y-721360D01*
G01X2504440Y-721360D01*
G01X2504440Y-828040D01*
G01X2211483Y-828040D01*
G01X2211483Y-800100D01*
G37*
G36*
G01X2245360Y-594360D02*
G01X2269093Y-594360D01*
G01X2268877Y-598001D01*
G01X2268877Y-688001D01*
G01X2270670Y-698345D01*
G01X2275840Y-707483D01*
G01X2275840Y-815340D01*
G01X2245360Y-815340D01*
G01X2245360Y-594360D01*
G37*
G36*
G01X2021840Y-710075D02*
G01X1800860Y-710075D01*
G01X1800860Y-594360D01*
G01X2021840Y-594360D01*
G01X2021840Y-710075D01*
G37*
G36*
G01X2022092Y-710075D02*
G01X1888386Y-710075D01*
G01X1888386Y-557046D01*
G01X1896539Y-548894D01*
G01X1905335Y-548894D01*
G01X1911102Y-550644D01*
G01X1917099Y-551235D01*
G01X2007099Y-551235D01*
G01X2014846Y-550242D01*
G01X2022092Y-547329D01*
G01X2022092Y-710075D01*
G37*
G36*
G01X1883116Y-364784D02*
G01X1877060Y-358727D01*
G01X1877060Y-302260D01*
G01X1933077Y-302260D01*
G01X1943927Y-307393D01*
G01X1955800Y-309154D01*
G01X2016621Y-309154D01*
G01X2018155Y-310688D01*
G01X2018155Y-408927D01*
G01X1895094Y-408927D01*
G01X1895094Y-393700D01*
G01X1893701Y-383116D01*
G01X1889615Y-373253D01*
G01X1883116Y-364784D01*
G37*
G36*
G01X1559411Y-1200492D02*
G01X1559411Y-1040737D01*
G01X2142715Y-1040737D01*
G01X2156650Y-1056541D01*
G01X2173120Y-1069683D01*
G01X2191623Y-1079761D01*
G01X2189124Y-1084233D01*
G01X2150921Y-1158174D01*
G01X2110220Y-1230771D01*
G01X2067071Y-1301940D01*
G01X2067071Y-1301940D01*
G01X2047026Y-1318499D01*
G01X2024905Y-1332161D01*
G01X2001123Y-1342670D01*
G01X1976127Y-1349827D01*
G01X1950388Y-1353499D01*
G01X1924388Y-1353615D01*
G01X1898616Y-1350175D01*
G01X1873558Y-1343242D01*
G01X1849682Y-1332948D01*
G01X1827439Y-1319485D01*
G01X1807247Y-1303106D01*
G01X1781731Y-1280055D01*
G01X1754087Y-1259604D01*
G01X1724580Y-1241949D01*
G01X1693490Y-1227259D01*
G01X1661115Y-1215672D01*
G01X1627763Y-1207301D01*
G01X1593754Y-1202225D01*
G01X1559411Y-1200492D01*
G37*
G36*
G01X2059940Y1309052D02*
G01X2059940Y1122934D01*
G01X2051277Y1114074D01*
G01X2044770Y1103530D01*
G01X2040734Y1091815D01*
G01X2039366Y1079500D01*
G01X2040734Y1067185D01*
G01X2044770Y1055470D01*
G01X2051277Y1044926D01*
G01X2059940Y1036066D01*
G01X2059940Y963061D01*
G01X1039722Y963061D01*
G01X1039722Y1646992D01*
G01X1211703Y1646992D01*
G01X1204381Y1611044D01*
G01X1200840Y1574530D01*
G01X1201120Y1537845D01*
G01X1205218Y1501388D01*
G01X1213089Y1465557D01*
G01X1224648Y1430739D01*
G01X1239768Y1397314D01*
G01X1258287Y1365645D01*
G01X1280001Y1336076D01*
G01X1304676Y1308928D01*
G01X1332044Y1284497D01*
G01X1361806Y1263048D01*
G01X1393639Y1244813D01*
G01X1427198Y1229992D01*
G01X1462118Y1218746D01*
G01X1498018Y1211196D01*
G01X1534510Y1207424D01*
G01X1571196Y1207472D01*
G01X1607677Y1211339D01*
G01X1643558Y1218983D01*
G01X1678448Y1230321D01*
G01X1711968Y1245230D01*
G01X1743754Y1263548D01*
G01X1773459Y1285075D01*
G01X1800763Y1309578D01*
G01X1820893Y1325898D01*
G01X1843060Y1339325D01*
G01X1866848Y1349606D01*
G01X1891816Y1356550D01*
G01X1917497Y1360029D01*
G01X1943412Y1359976D01*
G01X1969078Y1356394D01*
G01X1994017Y1349348D01*
G01X2017764Y1338970D01*
G01X2039876Y1325454D01*
G01X2059940Y1309052D01*
G37*
G36*
G01X1098189Y949960D02*
G01X1033929Y949960D01*
G01X1034034Y952500D01*
G01X1034034Y1054100D01*
G01X1033124Y1061525D01*
G01X1030446Y1068511D01*
G01X1026160Y1074643D01*
G01X1026160Y1089926D01*
G01X1025387Y1093814D01*
G01X1023184Y1097110D01*
G01X954721Y1165573D01*
G01X954721Y1653540D01*
G01X1196340Y1653540D01*
G01X1196340Y962335D01*
G01X1122837Y962335D01*
G01X1113455Y960868D01*
G01X1104969Y956608D01*
G01X1098189Y949960D01*
G37*
G36*
G01X78371Y1191260D02*
G01X73660Y1200647D01*
G01X73660Y1408528D01*
G01X76130Y1415270D01*
G01X76969Y1422400D01*
G01X76969Y1601596D01*
G01X76130Y1608726D01*
G01X73660Y1615468D01*
G01X73660Y1640840D01*
G01X231140Y1640840D01*
G01X231140Y1569943D01*
G01X226854Y1563811D01*
G01X224176Y1556825D01*
G01X223266Y1549400D01*
G01X223266Y1473200D01*
G01X225017Y1462976D01*
G01X225017Y1409699D01*
G01X226588Y1399998D01*
G01X231140Y1391290D01*
G01X231140Y1191260D01*
G01X78371Y1191260D01*
G37*
G36*
G01X-370840Y1104029D02*
G01X-370840Y1214678D01*
G01X-362177Y1223538D01*
G01X-355670Y1234082D01*
G01X-351634Y1245797D01*
G01X-350266Y1258112D01*
G01X-351634Y1270427D01*
G01X-355670Y1282142D01*
G01X-362177Y1292686D01*
G01X-370840Y1301546D01*
G01X-370840Y1374140D01*
G01X-134908Y1374140D01*
G01X-134908Y1162516D01*
G01X-141219Y1155786D01*
G01X-145249Y1147486D01*
G01X-146634Y1138365D01*
G01X-146634Y1104029D01*
G01X-370840Y1104029D01*
G37*
G36*
G01X1115060Y-716684D02*
G01X1115060Y-505460D01*
G01X1526540Y-505460D01*
G01X1526540Y-716684D01*
G01X1115060Y-716684D01*
G37*
G36*
G01X-632460Y-1962753D02*
G01X-1196340Y-1962753D01*
G01X-1196340Y-1496060D01*
G01X-632460Y-1496060D01*
G01X-632460Y-1962753D01*
G37*
G36*
G01X1196340Y-1962753D02*
G01X-1196340Y-1962753D01*
G01X-1196340Y-1605512D01*
G01X1196340Y-1605512D01*
G01X1196340Y-1962753D01*
G37*
G36*
G01X218440Y-1962753D02*
G01X-345440Y-1962753D01*
G01X-345440Y-1508760D01*
G01X218440Y-1508760D01*
G01X218440Y-1962753D01*
G37*
G36*
G01X507306Y-1958340D02*
G01X507306Y-1508760D01*
G01X1056640Y-1508760D01*
G01X1056640Y-1958340D01*
G01X507306Y-1958340D01*
G37*
G36*
G01X-1209040Y-772160D02*
G01X-682673Y-772160D01*
G01X-670560Y-784273D01*
G01X-670560Y-1117203D01*
G01X-681610Y-1123787D01*
G01X-690872Y-1132714D01*
G01X-697858Y-1143514D01*
G01X-702202Y-1155622D01*
G01X-703676Y-1168400D01*
G01X-702202Y-1181178D01*
G01X-697858Y-1193286D01*
G01X-690872Y-1204086D01*
G01X-681610Y-1213013D01*
G01X-670560Y-1219597D01*
G01X-670560Y-1244600D01*
G01X-669199Y-1249680D01*
G01X-665480Y-1253399D01*
G01X-660400Y-1254760D01*
G01X-384851Y-1254760D01*
G01X-384851Y-1489167D01*
G01X-386334Y-1498600D01*
G01X-386334Y-1516352D01*
G01X-580039Y-1516352D01*
G01X-580039Y-1458516D01*
G01X-581401Y-1453436D01*
G01X-585119Y-1449717D01*
G01X-590199Y-1448356D01*
G01X-1031240Y-1448356D01*
G01X-1031240Y-1257300D01*
G01X-1032601Y-1252220D01*
G01X-1036320Y-1248501D01*
G01X-1041400Y-1247140D01*
G01X-1209040Y-1247140D01*
G01X-1209040Y-772160D01*
G37*
G36*
G01X-332740Y-1247140D02*
G01X-332740Y-1067268D01*
G01X-321286Y-1060425D01*
G01X-311771Y-1051072D01*
G01X-304732Y-1039737D01*
G01X-300567Y-1027062D01*
G01X-299511Y-1013761D01*
G01X-301624Y-1000587D01*
G01X-306786Y-988283D01*
G01X-314706Y-977546D01*
G01X-314706Y-952500D01*
G01X-316099Y-941916D01*
G01X-320185Y-932053D01*
G01X-326684Y-923584D01*
G01X-332740Y-917527D01*
G01X-332740Y-772160D01*
G01X218440Y-772160D01*
G01X218440Y-1244600D01*
G01X219801Y-1249680D01*
G01X223520Y-1253399D01*
G01X228600Y-1254760D01*
G01X466049Y-1254760D01*
G01X466049Y-1333381D01*
G01X464566Y-1346200D01*
G01X466049Y-1359019D01*
G01X466049Y-1516352D01*
G01X270861Y-1516352D01*
G01X270861Y-1458516D01*
G01X269499Y-1453436D01*
G01X265781Y-1449717D01*
G01X260701Y-1448356D01*
G01X-180340Y-1448356D01*
G01X-180340Y-1257300D01*
G01X-181701Y-1252220D01*
G01X-185420Y-1248501D01*
G01X-190500Y-1247140D01*
G01X-332740Y-1247140D01*
G37*
G36*
G01X670560Y-1257300D02*
G01X669199Y-1252220D01*
G01X665480Y-1248501D01*
G01X660400Y-1247140D01*
G01X518160Y-1247140D01*
G01X518160Y-772160D01*
G01X1056640Y-772160D01*
G01X1056640Y-1422956D01*
G01X670560Y-1422956D01*
G01X670560Y-1257300D01*
G37*
G36*
G01X-552117Y-1204999D02*
G01X-552117Y-905072D01*
G01X-421894Y-905072D01*
G01X-421894Y-927100D01*
G01X-420501Y-937684D01*
G01X-416415Y-947547D01*
G01X-409916Y-956016D01*
G01X-396494Y-969439D01*
G01X-396494Y-977546D01*
G01X-404589Y-988593D01*
G01X-409767Y-1001272D01*
G01X-411722Y-1014827D01*
G01X-410335Y-1028453D01*
G01X-405691Y-1041337D01*
G01X-398064Y-1052712D01*
G01X-387910Y-1061903D01*
G01X-387910Y-1204999D01*
G01X-552117Y-1204999D01*
G37*
G36*
G01X298783Y-1204999D02*
G01X298783Y-905072D01*
G01X462990Y-905072D01*
G01X462990Y-1204999D01*
G01X298783Y-1204999D01*
G37*
G36*
G01X1102360Y-998800D02*
G01X1102360Y-505460D01*
G01X1526540Y-505460D01*
G01X1526540Y-998800D01*
G01X1102360Y-998800D01*
G37*
G36*
G01X2125323Y-598001D02*
G01X2124366Y-590390D01*
G01X2121554Y-583253D01*
G01X2117062Y-577035D01*
G01X2117062Y-531072D01*
G01X2170589Y-531072D01*
G01X2170589Y-695652D01*
G01X2167441Y-703144D01*
G01X2166366Y-711200D01*
G01X2166366Y-838200D01*
G01X2167441Y-846256D01*
G01X2170589Y-853748D01*
G01X2170589Y-866140D01*
G01X2117062Y-866140D01*
G01X2117062Y-758926D01*
G01X2122001Y-748245D01*
G01X2123694Y-736600D01*
G01X2123694Y-697875D01*
G01X2125323Y-688001D01*
G01X2125323Y-598001D01*
G37*
G36*
G01X1706436Y-43866D02*
G01X1698268Y-44971D01*
G01X1690688Y-48206D01*
G01X1684241Y-53340D01*
G01X1457272Y-53340D01*
G01X1457272Y193040D01*
G01X2136385Y193040D01*
G01X2126839Y173256D01*
G01X2121036Y152070D01*
G01X2119167Y130182D01*
G01X2121295Y108319D01*
G01X2127350Y87203D01*
G01X2137130Y67534D01*
G01X2150312Y49962D01*
G01X2166460Y35069D01*
G01X2185039Y23349D01*
G01X2205434Y15189D01*
G01X2226970Y10859D01*
G01X2248933Y10504D01*
G01X2270598Y14133D01*
G01X2291247Y21628D01*
G01X2310196Y32741D01*
G01X2415540Y32741D01*
G01X2415540Y-154940D01*
G01X2100859Y-154940D01*
G01X2100859Y-148556D01*
G01X2112186Y-138745D01*
G01X2120514Y-126287D01*
G01X2125249Y-112069D01*
G01X2126054Y-97105D01*
G01X2122871Y-82462D01*
G01X2115927Y-69182D01*
G01X2105718Y-58213D01*
G01X2092970Y-50336D01*
G01X2078592Y-46112D01*
G01X2063609Y-45843D01*
G01X2052765Y-43866D01*
G01X1996199Y-43866D01*
G01X1988449Y-44859D01*
G01X1981200Y-47774D01*
G01X1973951Y-44859D01*
G01X1966201Y-43866D01*
G01X1909636Y-43866D01*
G01X1901468Y-44971D01*
G01X1893888Y-48206D01*
G01X1887441Y-53340D01*
G01X1871759Y-53340D01*
G01X1865312Y-48206D01*
G01X1857732Y-44971D01*
G01X1849565Y-43866D01*
G01X1792999Y-43866D01*
G01X1785249Y-44859D01*
G01X1778000Y-47774D01*
G01X1770751Y-44859D01*
G01X1763001Y-43866D01*
G01X1706436Y-43866D01*
G37*
G36*
G01X1115060Y-679157D02*
G01X1115060Y-584200D01*
G01X1114287Y-580312D01*
G01X1112084Y-577016D01*
G01X982498Y-447429D01*
G01X982498Y-314960D01*
G01X1126092Y-314960D01*
G01X1326316Y-515184D01*
G01X1329612Y-517387D01*
G01X1333500Y-518160D01*
G01X1513840Y-518160D01*
G01X1513840Y-679157D01*
G01X1115060Y-679157D01*
G37*
G36*
G01X670560Y-712139D02*
G01X670560Y-581660D01*
G01X1027238Y-581660D01*
G01X1027238Y-712139D01*
G01X670560Y-712139D01*
G37*
G36*
G01X-180340Y-712139D02*
G01X-180340Y-581660D01*
G01X176338Y-581660D01*
G01X176338Y-712139D01*
G01X-180340Y-712139D01*
G37*
G36*
G01X-695960Y-670306D02*
G01X-1056640Y-670306D01*
G01X-1056640Y-568960D01*
G01X-695960Y-568960D01*
G01X-695960Y-670306D01*
G37*
G36*
G01X-1757809Y-1194093D02*
G01X-1759602Y-1208386D01*
G01X-1757699Y-1222664D01*
G01X-1752224Y-1235988D01*
G01X-1743539Y-1247480D01*
G01X-1732215Y-1256383D01*
G01X-1756503Y-1272212D01*
G01X-1779406Y-1289985D01*
G01X-1800769Y-1309584D01*
G01X-1821457Y-1326310D01*
G01X-1844281Y-1339976D01*
G01X-1868794Y-1350315D01*
G01X-1894512Y-1357121D01*
G01X-1920929Y-1360263D01*
G01X-1947526Y-1359677D01*
G01X-1973779Y-1355375D01*
G01X-1999173Y-1347442D01*
G01X-2023206Y-1336034D01*
G01X-2045407Y-1321376D01*
G01X-2065338Y-1303755D01*
G01X-2113342Y-1224413D01*
G01X-2158299Y-1143305D01*
G01X-2200144Y-1060549D01*
G01X-2238818Y-976265D01*
G01X-2274265Y-890572D01*
G01X-2306433Y-803597D01*
G01X-2328358Y-736600D01*
G01X-2202434Y-736600D01*
G01X-2200521Y-751129D01*
G01X-2194913Y-764667D01*
G01X-2185993Y-776293D01*
G01X-2174367Y-785213D01*
G01X-2160829Y-790821D01*
G01X-2146300Y-792734D01*
G01X-2131771Y-790821D01*
G01X-2118233Y-785213D01*
G01X-2106607Y-776293D01*
G01X-2097687Y-764667D01*
G01X-2092079Y-751129D01*
G01X-2090166Y-736600D01*
G01X-2092079Y-722071D01*
G01X-2097687Y-708533D01*
G01X-2106607Y-696907D01*
G01X-2118233Y-687987D01*
G01X-2131771Y-682379D01*
G01X-2146300Y-680466D01*
G01X-2160829Y-682379D01*
G01X-2174367Y-687987D01*
G01X-2185993Y-696907D01*
G01X-2194913Y-708533D01*
G01X-2200521Y-722071D01*
G01X-2202434Y-736600D01*
G01X-2202434Y-736600D01*
G01X-2328358Y-736600D01*
G01X-2335276Y-715462D01*
G01X-2335276Y-715462D01*
G01X-2335276Y-596325D01*
G01X-2075431Y-596325D01*
G01X-2073715Y-610686D01*
G01X-2068386Y-624133D01*
G01X-2059798Y-635771D01*
G01X-2048521Y-644829D01*
G01X-2035305Y-650704D01*
G01X-2021025Y-653007D01*
G01X-1980170Y-693863D01*
G01X-1971700Y-700362D01*
G01X-1961838Y-704447D01*
G01X-1951253Y-705841D01*
G01X-1611002Y-705841D01*
G01X-1599072Y-713555D01*
G01X-1585588Y-718028D01*
G01X-1571413Y-718972D01*
G01X-1557455Y-716327D01*
G01X-1544607Y-710263D01*
G01X-1533694Y-701167D01*
G01X-1525414Y-689623D01*
G01X-1520296Y-676370D01*
G01X-1518670Y-662257D01*
G01X-1520639Y-648188D01*
G01X-1526077Y-635063D01*
G01X-1534636Y-623724D01*
G01X-1545767Y-614897D01*
G01X-1558758Y-609147D01*
G01X-1560287Y-596150D01*
G01X-1564783Y-583861D01*
G01X-1572003Y-572946D01*
G01X-1581553Y-564000D01*
G01X-1592916Y-557507D01*
G01X-1605472Y-553823D01*
G01X-1618541Y-553145D01*
G01X-1631411Y-555512D01*
G01X-1643384Y-560795D01*
G01X-1653808Y-568706D01*
G01X-1677240Y-568706D01*
G01X-1677240Y-568706D01*
G01X-1688975Y-560232D01*
G01X-1702488Y-555042D01*
G01X-1716878Y-553478D01*
G01X-1731190Y-555647D01*
G01X-1744471Y-561404D01*
G01X-1755839Y-570365D01*
G01X-1764537Y-581935D01*
G01X-1769987Y-595344D01*
G01X-1771828Y-609702D01*
G01X-1769935Y-624053D01*
G01X-1934315Y-624053D01*
G01X-1963193Y-595175D01*
G01X-1965496Y-580895D01*
G01X-1971371Y-567679D01*
G01X-1980429Y-556402D01*
G01X-1992067Y-547814D01*
G01X-2005514Y-542485D01*
G01X-2019875Y-540769D01*
G01X-2034199Y-542779D01*
G01X-2047533Y-548383D01*
G01X-2058993Y-557207D01*
G01X-2067817Y-568667D01*
G01X-2073421Y-582001D01*
G01X-2075431Y-596325D01*
G01X-2335276Y-596325D01*
G01X-2335276Y-495300D01*
G01X-1872234Y-495300D01*
G01X-1870371Y-509643D01*
G01X-1864904Y-523034D01*
G01X-1856197Y-534584D01*
G01X-1844829Y-543525D01*
G01X-1831552Y-549265D01*
G01X-1817250Y-551422D01*
G01X-1802872Y-549853D01*
G01X-1789372Y-544662D01*
G01X-1777646Y-536194D01*
G01X-1299395Y-536194D01*
G01X-1285653Y-538656D01*
G01X-1271729Y-537651D01*
G01X-1258483Y-533242D01*
G01X-1246736Y-525700D01*
G01X-1237212Y-515492D01*
G01X-1230502Y-503250D01*
G01X-1227021Y-489731D01*
G01X-1226983Y-475771D01*
G01X-1230391Y-462233D01*
G01X-1237035Y-449955D01*
G01X-1246503Y-439696D01*
G01X-1258210Y-432090D01*
G01X-1271431Y-427609D01*
G01X-1285349Y-426529D01*
G01X-1299104Y-428916D01*
G01X-1311844Y-434624D01*
G01X-1322782Y-443300D01*
G01X-1331240Y-454406D01*
G01X-1777646Y-454406D01*
G01X-1789372Y-445938D01*
G01X-1802872Y-440747D01*
G01X-1817250Y-439178D01*
G01X-1831552Y-441335D01*
G01X-1844829Y-447075D01*
G01X-1856197Y-456016D01*
G01X-1864904Y-467566D01*
G01X-1870371Y-480957D01*
G01X-1872234Y-495300D01*
G01X-1872234Y-495300D01*
G01X-2335276Y-495300D01*
G01X-2335276Y-62846D01*
G01X-2113530Y-62846D01*
G01X-2111884Y-77011D01*
G01X-2106721Y-90304D01*
G01X-2098375Y-101867D01*
G01X-2087385Y-110955D01*
G01X-2074459Y-116979D01*
G01X-2060433Y-119552D01*
G01X-2057860Y-133579D01*
G01X-2051835Y-146504D01*
G01X-2042748Y-157494D01*
G01X-2031185Y-165840D01*
G01X-2017892Y-171003D01*
G01X-2003726Y-172649D01*
G01X-1989604Y-170673D01*
G01X-1976434Y-165202D01*
G01X-1965069Y-156589D01*
G01X-1956240Y-145390D01*
G01X-1950519Y-132327D01*
G01X-1948273Y-118245D01*
G01X-1948273Y-118245D01*
G01X-1818507Y11522D01*
G01X-1804688Y14955D01*
G01X-1792177Y21756D01*
G01X-1781780Y31485D01*
G01X-1774166Y43518D01*
G01X-1769824Y57079D01*
G01X-1469346Y-243399D01*
G01X-1469346Y-268300D01*
G01X-1467561Y-278620D01*
G01X-1462415Y-287741D01*
G01X-1454506Y-294605D01*
G01X-1454506Y-300035D01*
G01X-1462398Y-304628D01*
G01X-1468592Y-311337D01*
G01X-1472542Y-319570D01*
G01X-1473898Y-328600D01*
G01X-1473898Y-382600D01*
G01X-1472394Y-392098D01*
G01X-1468029Y-400665D01*
G01X-1461229Y-407465D01*
G01X-1452662Y-411830D01*
G01X-1443164Y-413334D01*
G01X-1386599Y-413334D01*
G01X-1378849Y-412341D01*
G01X-1371600Y-409426D01*
G01X-1364351Y-412341D01*
G01X-1356601Y-413334D01*
G01X-1300035Y-413334D01*
G01X-1291677Y-412176D01*
G01X-1283949Y-408788D01*
G01X-1277433Y-403426D01*
G01X-1272621Y-396494D01*
G01X-1210953Y-396494D01*
G01X-1211620Y-411302D01*
G01X-1208387Y-425768D01*
G01X-1201480Y-438883D01*
G01X-1191382Y-449734D01*
G01X-1178795Y-457563D01*
G01X-1164598Y-461824D01*
G01X-1149780Y-462221D01*
G01X-1135376Y-458725D01*
G01X-1122388Y-451581D01*
G01X-1111723Y-441287D01*
G01X-1104125Y-428559D01*
G01X-1100123Y-414287D01*
G01X-1099996Y-399465D01*
G01X-1103754Y-385126D01*
G01X-1111133Y-372271D01*
G01X-1121620Y-361795D01*
G01X-1113960Y-361795D01*
G01X-1100329Y-359835D01*
G01X-1087802Y-354114D01*
G01X-1077394Y-345096D01*
G01X-1069948Y-333510D01*
G01X-1066068Y-320296D01*
G01X-1066068Y-306525D01*
G01X-1069948Y-293311D01*
G01X-1077394Y-281726D01*
G01X-1087802Y-272707D01*
G01X-1100329Y-266986D01*
G01X-1113960Y-265026D01*
G01X-1224059Y-265026D01*
G01X-1236790Y-266731D01*
G01X-1248624Y-271726D01*
G01X-1258727Y-279659D01*
G01X-1266386Y-289970D01*
G01X-1271063Y-301934D01*
G01X-1272426Y-314706D01*
G01X-1272680Y-314706D01*
G01X-1277478Y-307780D01*
G01X-1283978Y-302420D01*
G01X-1291691Y-299030D01*
G01X-1300035Y-297866D01*
G01X-1356601Y-297866D01*
G01X-1364351Y-298859D01*
G01X-1371600Y-301774D01*
G01X-1372718Y-301179D01*
G01X-1372718Y-294605D01*
G01X-1364808Y-287741D01*
G01X-1359662Y-278620D01*
G01X-1357878Y-268300D01*
G01X-1357878Y-214300D01*
G01X-1359382Y-204802D01*
G01X-1363747Y-196235D01*
G01X-1370382Y-189600D01*
G01X-1272043Y-189600D01*
G01X-1268294Y-202992D01*
G01X-1260891Y-214764D01*
G01X-1250446Y-223944D01*
G01X-1237821Y-229774D01*
G01X-1224059Y-231772D01*
G01X-1113960Y-231772D01*
G01X-1100198Y-229774D01*
G01X-1087573Y-223944D01*
G01X-1077128Y-214764D01*
G01X-1069725Y-202992D01*
G01X-1065976Y-189600D01*
G01X-1066191Y-175695D01*
G01X-1070352Y-162426D01*
G01X-1078115Y-150889D01*
G01X-1070352Y-139351D01*
G01X-1066191Y-126082D01*
G01X-1065976Y-112177D01*
G01X-1069725Y-98786D01*
G01X-1077128Y-87014D01*
G01X-1087573Y-77834D01*
G01X-1100198Y-72003D01*
G01X-1113960Y-70005D01*
G01X-1123594Y-70005D01*
G01X-1123594Y-40605D01*
G01X-1116963Y-35209D01*
G01X-1112074Y-28194D01*
G01X-905939Y-28194D01*
G01X-840994Y-93139D01*
G01X-840994Y-101246D01*
G01X-849462Y-112972D01*
G01X-854653Y-126472D01*
G01X-856222Y-140850D01*
G01X-854065Y-155152D01*
G01X-848325Y-168429D01*
G01X-839384Y-179797D01*
G01X-827834Y-188504D01*
G01X-814443Y-193971D01*
G01X-800100Y-195834D01*
G01X-785757Y-193971D01*
G01X-772366Y-188504D01*
G01X-760816Y-179797D01*
G01X-751875Y-168429D01*
G01X-746135Y-155152D01*
G01X-743978Y-140850D01*
G01X-745547Y-126472D01*
G01X-750738Y-112972D01*
G01X-759206Y-101246D01*
G01X-759206Y-76200D01*
G01X-760599Y-65616D01*
G01X-764685Y-55753D01*
G01X-771184Y-47284D01*
G01X-860084Y41616D01*
G01X-868553Y48115D01*
G01X-878416Y52201D01*
G01X-889000Y53594D01*
G01X-1112074Y53594D01*
G01X-1116886Y60526D01*
G01X-1123402Y65888D01*
G01X-1131130Y69276D01*
G01X-1139488Y70434D01*
G01X-1189488Y70434D01*
G01X-1198986Y68930D01*
G01X-1207553Y64565D01*
G01X-1214353Y57765D01*
G01X-1218718Y49198D01*
G01X-1220222Y39700D01*
G01X-1220222Y-14300D01*
G01X-1218438Y-24620D01*
G01X-1213292Y-33741D01*
G01X-1205382Y-40605D01*
G01X-1205382Y-70005D01*
G01X-1224059Y-70005D01*
G01X-1224059Y-70005D01*
G01X-1237821Y-72003D01*
G01X-1250446Y-77834D01*
G01X-1260891Y-87014D01*
G01X-1268294Y-98786D01*
G01X-1272043Y-112177D01*
G01X-1271828Y-126082D01*
G01X-1267667Y-139351D01*
G01X-1259904Y-150889D01*
G01X-1267667Y-162426D01*
G01X-1271828Y-175695D01*
G01X-1272043Y-189600D01*
G01X-1370382Y-189600D01*
G01X-1370547Y-189435D01*
G01X-1379114Y-185070D01*
G01X-1388612Y-183566D01*
G01X-1413513Y-183566D01*
G01X-1719402Y122323D01*
G01X-1707492Y120156D01*
G01X-1695394Y120593D01*
G01X-1683671Y123613D01*
G01X-1672868Y129076D01*
G01X-1663487Y136729D01*
G01X-1655966Y146215D01*
G01X-1650653Y157093D01*
G01X-1647796Y168857D01*
G01X-1647528Y180960D01*
G01X-1649861Y192839D01*
G01X-1649861Y306229D01*
G01X-1300484Y306229D01*
G01X-1300192Y293156D01*
G01X-1296882Y280504D01*
G01X-1290735Y268962D01*
G01X-1282085Y259155D01*
G01X-1271400Y251616D01*
G01X-1259260Y246753D01*
G01X-1246325Y244832D01*
G01X-1226426Y224933D01*
G01X-1217957Y218434D01*
G01X-1208094Y214349D01*
G01X-1197510Y212955D01*
G01X-980884Y212955D01*
G01X-969240Y203411D01*
G01X-955478Y197306D01*
G01X-940588Y195078D01*
G01X-925642Y196887D01*
G01X-911714Y202604D01*
G01X-899806Y211817D01*
G01X-899806Y211817D01*
G01X-890776Y223863D01*
G01X-885272Y237876D01*
G01X-883690Y252849D01*
G01X-886145Y267703D01*
G01X-892459Y281370D01*
G01X-902179Y292867D01*
G01X-897486Y306947D01*
G01X-896648Y321765D01*
G01X-899722Y336284D01*
G01X-906493Y349491D01*
G01X-916489Y360461D01*
G01X-929011Y368428D01*
G01X-924534Y380668D01*
G01X-923000Y393611D01*
G01X-924492Y406558D01*
G01X-928930Y418812D01*
G01X-936075Y429713D01*
G01X-945540Y438672D01*
G01X-956817Y445207D01*
G01X-969296Y448965D01*
G01X-982306Y449744D01*
G01X-995145Y447502D01*
G01X-1007121Y442360D01*
G01X-1017588Y434594D01*
G01X-1113901Y434594D01*
G01X-1121468Y439135D01*
G01X-1129832Y441948D01*
G01X-1138606Y442900D01*
G01X-1193446Y442900D01*
G01X-1204190Y450823D01*
G01X-1216500Y455986D01*
G01X-1229682Y458096D01*
G01X-1242989Y457034D01*
G01X-1255669Y452859D01*
G01X-1267005Y445809D01*
G01X-1276355Y436281D01*
G01X-1283191Y424815D01*
G01X-1287126Y412059D01*
G01X-1287939Y398734D01*
G01X-1285581Y385594D01*
G01X-1280188Y373383D01*
G01X-1272064Y362790D01*
G01X-1261669Y354415D01*
G01X-1273578Y349015D01*
G01X-1283916Y341005D01*
G01X-1292119Y330822D01*
G01X-1297744Y319016D01*
G01X-1300484Y306229D01*
G01X-1649861Y306229D01*
G01X-1649861Y380425D01*
G01X-1618231Y380425D01*
G01X-1616221Y366101D01*
G01X-1610617Y352767D01*
G01X-1601793Y341307D01*
G01X-1590333Y332483D01*
G01X-1576999Y326879D01*
G01X-1562675Y324869D01*
G01X-1548314Y326585D01*
G01X-1534867Y331914D01*
G01X-1523229Y340502D01*
G01X-1514171Y351779D01*
G01X-1508296Y364995D01*
G01X-1505993Y379275D01*
G01X-1330603Y554664D01*
G01X401219Y554664D01*
G01X403922Y541122D01*
G01X409850Y528650D01*
G01X418644Y518002D01*
G01X414084Y511757D01*
G01X411227Y504571D01*
G01X410254Y496900D01*
G01X410254Y442900D01*
G01X412039Y432580D01*
G01X417185Y423459D01*
G01X425094Y416595D01*
G01X425094Y398465D01*
G01X417202Y393872D01*
G01X411008Y387163D01*
G01X407058Y378930D01*
G01X405702Y369900D01*
G01X405702Y315900D01*
G01X407206Y306402D01*
G01X411571Y297835D01*
G01X418371Y291035D01*
G01X426938Y286670D01*
G01X436436Y285166D01*
G01X483895Y285166D01*
G01X483895Y272019D01*
G01X478315Y259620D01*
G01X476405Y246159D01*
G01X476405Y136060D01*
G01X478365Y122429D01*
G01X484086Y109902D01*
G01X493104Y99494D01*
G01X504690Y92048D01*
G01X517904Y88168D01*
G01X531675Y88168D01*
G01X544889Y92048D01*
G01X556474Y99494D01*
G01X565493Y109902D01*
G01X571214Y122429D01*
G01X573174Y136060D01*
G01X573174Y246159D01*
G01X606428Y246159D01*
G01X606428Y136060D01*
G01X608426Y122298D01*
G01X614256Y109673D01*
G01X623436Y99228D01*
G01X635208Y91825D01*
G01X648600Y88076D01*
G01X662505Y88291D01*
G01X675774Y92452D01*
G01X687311Y100215D01*
G01X698849Y92452D01*
G01X712118Y88291D01*
G01X726023Y88076D01*
G01X739414Y91825D01*
G01X751186Y99228D01*
G01X760366Y109673D01*
G01X766197Y122298D01*
G01X768195Y136060D01*
G01X768195Y136060D01*
G01X768195Y181661D01*
G01X782128Y195594D01*
G01X788627Y204064D01*
G01X792712Y213926D01*
G01X794106Y224511D01*
G01X794106Y289512D01*
G01X806865Y295520D01*
G01X817724Y304518D01*
G01X825998Y315939D01*
G01X831164Y329061D01*
G01X832896Y343057D01*
G01X831085Y357043D01*
G01X825846Y370137D01*
G01X817508Y381511D01*
G01X806599Y390448D01*
G01X793806Y396384D01*
G01X786293Y399553D01*
G01X778212Y400634D01*
G01X728212Y400634D01*
G01X718714Y399130D01*
G01X710147Y394765D01*
G01X703347Y387965D01*
G01X698982Y379398D01*
G01X697478Y369900D01*
G01X697478Y315900D01*
G01X698676Y307402D01*
G01X702177Y299567D01*
G01X707708Y293005D01*
G01X696841Y288744D01*
G01X687311Y282004D01*
G01X675774Y289767D01*
G01X662505Y293928D01*
G01X648600Y294143D01*
G01X635208Y290394D01*
G01X623436Y282991D01*
G01X614256Y272546D01*
G01X608426Y259921D01*
G01X606428Y246159D01*
G01X573174Y246159D01*
G01X571264Y259620D01*
G01X565683Y272019D01*
G01X565683Y285166D01*
G01X579565Y285166D01*
G01X589062Y286670D01*
G01X597629Y291035D01*
G01X604429Y297835D01*
G01X608794Y306402D01*
G01X610299Y315900D01*
G01X610299Y369900D01*
G01X608794Y379398D01*
G01X604429Y387965D01*
G01X597629Y394765D01*
G01X589062Y399130D01*
G01X579565Y400634D01*
G01X522999Y400634D01*
G01X515249Y399641D01*
G01X508000Y396726D01*
G01X506882Y397321D01*
G01X506882Y416595D01*
G01X514792Y423459D01*
G01X519938Y432580D01*
G01X521722Y442900D01*
G01X521722Y442900D01*
G01X521722Y496900D01*
G01X519938Y507220D01*
G01X514792Y516341D01*
G01X506882Y523205D01*
G01X506882Y532672D01*
G01X511758Y545592D01*
G01X513332Y559311D01*
G01X511508Y573000D01*
G01X506398Y585829D01*
G01X498311Y597022D01*
G01X487735Y605902D01*
G01X475311Y611932D01*
G01X461792Y614746D01*
G01X447994Y614174D01*
G01X434754Y610251D01*
G01X422872Y603214D01*
G01X413067Y593489D01*
G01X405934Y581665D01*
G01X401903Y568457D01*
G01X401219Y554664D01*
G01X-1330603Y554664D01*
G01X-1228384Y656884D01*
G01X-1221885Y665353D01*
G01X-1217799Y675216D01*
G01X-1216406Y685800D01*
G01X-1216406Y723900D01*
G01X-1199134Y723900D01*
G01X-1197271Y709557D01*
G01X-1191804Y696166D01*
G01X-1183097Y684616D01*
G01X-1171729Y675675D01*
G01X-1158452Y669935D01*
G01X-1144150Y667778D01*
G01X-1129772Y669347D01*
G01X-1116272Y674538D01*
G01X-1104546Y683006D01*
G01X-749654Y683006D01*
G01X-738278Y674729D01*
G01X-725201Y669540D01*
G01X-711245Y667766D01*
G01X-697286Y669518D01*
G01X-684201Y674685D01*
G01X-672812Y682944D01*
G01X-663834Y693775D01*
G01X-657831Y706499D01*
G01X-655181Y720315D01*
G01X-656049Y734357D01*
G01X-597254Y734357D01*
G01X-587043Y726739D01*
G01X-575377Y721620D01*
G01X-562858Y719264D01*
G01X-550129Y719790D01*
G01X-537847Y723174D01*
G01X-526644Y729239D01*
G01X-517098Y737675D01*
G01X-509699Y748046D01*
G01X-504829Y759817D01*
G01X-502739Y772384D01*
G01X-503537Y785099D01*
G01X-507180Y797306D01*
G01X-432154Y797306D01*
G01X-420428Y788838D01*
G01X-406928Y783647D01*
G01X-392550Y782078D01*
G01X-378248Y784235D01*
G01X-364971Y789975D01*
G01X-353603Y798916D01*
G01X-344896Y810466D01*
G01X-339429Y823857D01*
G01X-337566Y838200D01*
G01X-339429Y852543D01*
G01X-344896Y865934D01*
G01X-353603Y877484D01*
G01X-364971Y886425D01*
G01X-378248Y892165D01*
G01X-392550Y894322D01*
G01X-406928Y892753D01*
G01X-420428Y887562D01*
G01X-432154Y879094D01*
G01X-537111Y879094D01*
G01X-588634Y930616D01*
G01X-597103Y937115D01*
G01X-606966Y941201D01*
G01X-617550Y942594D01*
G01X-863246Y942594D01*
G01X-874852Y950997D01*
G01X-888207Y956188D01*
G01X-902442Y957829D01*
G01X-916628Y955813D01*
G01X-929841Y950270D01*
G01X-941221Y941563D01*
G01X-950026Y930259D01*
G01X-955682Y917094D01*
G01X-957821Y902926D01*
G01X-956303Y888678D01*
G01X-951227Y875278D01*
G01X-942924Y863600D01*
G01X-950479Y853278D01*
G01X-955501Y841514D01*
G01X-957730Y828918D01*
G01X-957049Y816145D01*
G01X-957049Y816145D01*
G01X-990797Y816145D01*
G01X-1002173Y824422D01*
G01X-1015249Y829610D01*
G01X-1029205Y831385D01*
G01X-1043164Y829633D01*
G01X-1056249Y824466D01*
G01X-1067638Y816207D01*
G01X-1076616Y805376D01*
G01X-1082619Y792652D01*
G01X-1085270Y778836D01*
G01X-1084402Y764794D01*
G01X-1104546Y764794D01*
G01X-1116272Y773262D01*
G01X-1129772Y778453D01*
G01X-1144150Y780022D01*
G01X-1158452Y777865D01*
G01X-1171729Y772125D01*
G01X-1183097Y763184D01*
G01X-1191804Y751634D01*
G01X-1197271Y738243D01*
G01X-1199134Y723900D01*
G01X-1216406Y723900D01*
G01X-1216406Y774346D01*
G01X-1207938Y786072D01*
G01X-1202747Y799572D01*
G01X-1201178Y813950D01*
G01X-1203335Y828252D01*
G01X-1209075Y841529D01*
G01X-1218016Y852897D01*
G01X-1229566Y861604D01*
G01X-1242957Y867071D01*
G01X-1257300Y868934D01*
G01X-1271643Y867071D01*
G01X-1285034Y861604D01*
G01X-1296584Y852897D01*
G01X-1305525Y841529D01*
G01X-1311265Y828252D01*
G01X-1313422Y813950D01*
G01X-1311853Y799572D01*
G01X-1306662Y786072D01*
G01X-1298194Y774346D01*
G01X-1298194Y702739D01*
G01X-1563825Y437107D01*
G01X-1563825Y437107D01*
G01X-1578105Y434804D01*
G01X-1591321Y428929D01*
G01X-1602598Y419871D01*
G01X-1611186Y408233D01*
G01X-1616515Y394786D01*
G01X-1618231Y380425D01*
G01X-1649861Y380425D01*
G01X-1649861Y698146D01*
G01X-1641466Y709738D01*
G01X-1636275Y723076D01*
G01X-1634626Y737294D01*
G01X-1636626Y751466D01*
G01X-1642145Y764672D01*
G01X-1650825Y776053D01*
G01X-1662100Y784869D01*
G01X-1675239Y790547D01*
G01X-1689386Y792717D01*
G01X-1703622Y791239D01*
G01X-1717022Y786209D01*
G01X-1728714Y777954D01*
G01X-1737939Y767010D01*
G01X-1744095Y754089D01*
G01X-1746784Y740031D01*
G01X-1745831Y725750D01*
G01X-1760465Y729025D01*
G01X-1775445Y728310D01*
G01X-1789701Y723653D01*
G01X-1802215Y715388D01*
G01X-1812094Y704105D01*
G01X-1818634Y690609D01*
G01X-1821366Y675863D01*
G01X-1820097Y660920D01*
G01X-1814916Y646846D01*
G01X-1806194Y634646D01*
G01X-1806194Y254344D01*
G01X-1813576Y245928D01*
G01X-1819141Y236213D01*
G01X-1822667Y225588D01*
G01X-1877989Y280910D01*
G01X-1886458Y287409D01*
G01X-1896321Y291494D01*
G01X-1906905Y292887D01*
G01X-1980846Y292887D01*
G01X-1992572Y301356D01*
G01X-2006072Y306547D01*
G01X-2020450Y308116D01*
G01X-2034752Y305959D01*
G01X-2048029Y300219D01*
G01X-2059397Y291277D01*
G01X-2068104Y279728D01*
G01X-2073571Y266337D01*
G01X-2075434Y251993D01*
G01X-2073571Y237650D01*
G01X-2068104Y224259D01*
G01X-2059397Y212709D01*
G01X-2048029Y203768D01*
G01X-2034752Y198028D01*
G01X-2020450Y195871D01*
G01X-2006072Y197440D01*
G01X-1992572Y202631D01*
G01X-1980846Y211099D01*
G01X-1923844Y211099D01*
G01X-1880999Y168255D01*
G01X-1895399Y166581D01*
G01X-1908890Y161276D01*
G01X-1920573Y152693D01*
G01X-1929668Y141404D01*
G01X-1935569Y128162D01*
G01X-1937881Y113851D01*
G01X-2059125Y-7393D01*
G01X-2073208Y-9638D01*
G01X-2086271Y-15359D01*
G01X-2097470Y-24188D01*
G01X-2106083Y-35553D01*
G01X-2111554Y-48723D01*
G01X-2113530Y-62846D01*
G01X-2335276Y-62846D01*
G01X-2335276Y716551D01*
G01X-2306523Y804306D01*
G01X-2274475Y890911D01*
G01X-2239176Y976243D01*
G01X-2200676Y1060180D01*
G01X-2159032Y1142602D01*
G01X-2151704Y1155838D01*
G01X-2075434Y1155838D01*
G01X-2073690Y1141817D01*
G01X-2068501Y1128676D01*
G01X-2060194Y1117246D01*
G01X-2060194Y838554D01*
G01X-2068662Y826828D01*
G01X-2073853Y813328D01*
G01X-2075422Y798950D01*
G01X-2073265Y784648D01*
G01X-2067525Y771371D01*
G01X-2058584Y760003D01*
G01X-2047034Y751296D01*
G01X-2033643Y745829D01*
G01X-2019300Y743966D01*
G01X-2019300Y743966D01*
G01X-2004957Y745829D01*
G01X-1991566Y751296D01*
G01X-1980016Y760003D01*
G01X-1971075Y771371D01*
G01X-1965335Y784648D01*
G01X-1963178Y798950D01*
G01X-1964747Y813328D01*
G01X-1969938Y826828D01*
G01X-1978406Y838554D01*
G01X-1978406Y1040819D01*
G01X-1964208Y1036699D01*
G01X-1949427Y1036429D01*
G01X-1935088Y1040027D01*
G01X-1922186Y1047243D01*
G01X-1911615Y1057578D01*
G01X-1904108Y1070314D01*
G01X-1900187Y1084568D01*
G01X-1900154Y1092200D01*
G01X-1831955Y1092200D01*
G01X-1830042Y1077671D01*
G01X-1824434Y1064133D01*
G01X-1815514Y1052507D01*
G01X-1803888Y1043587D01*
G01X-1790349Y1037979D01*
G01X-1775821Y1036066D01*
G01X-1761292Y1037979D01*
G01X-1747754Y1043587D01*
G01X-1736128Y1052507D01*
G01X-1727207Y1064133D01*
G01X-1721600Y1077671D01*
G01X-1719687Y1092200D01*
G01X-1559466Y1092200D01*
G01X-1557553Y1077671D01*
G01X-1551945Y1064133D01*
G01X-1543024Y1052507D01*
G01X-1531399Y1043587D01*
G01X-1517860Y1037979D01*
G01X-1503332Y1036066D01*
G01X-1488803Y1037979D01*
G01X-1475265Y1043587D01*
G01X-1463639Y1052507D01*
G01X-1454718Y1064133D01*
G01X-1449110Y1077671D01*
G01X-1447198Y1092200D01*
G01X-1449110Y1106729D01*
G01X-1454718Y1120267D01*
G01X-1463639Y1131893D01*
G01X-1475265Y1140813D01*
G01X-1488803Y1146421D01*
G01X-1503332Y1148334D01*
G01X-1517860Y1146421D01*
G01X-1531399Y1140813D01*
G01X-1543024Y1131893D01*
G01X-1551945Y1120267D01*
G01X-1557553Y1106729D01*
G01X-1559466Y1092200D01*
G01X-1559466Y1092200D01*
G01X-1719687Y1092200D01*
G01X-1721600Y1106729D01*
G01X-1727207Y1120267D01*
G01X-1736128Y1131893D01*
G01X-1747754Y1140813D01*
G01X-1761292Y1146421D01*
G01X-1775821Y1148334D01*
G01X-1790349Y1146421D01*
G01X-1803888Y1140813D01*
G01X-1815514Y1131893D01*
G01X-1824434Y1120267D01*
G01X-1830042Y1106729D01*
G01X-1831955Y1092200D01*
G01X-1831955Y1092200D01*
G01X-1900154Y1092200D01*
G01X-1900123Y1099352D01*
G01X-1903921Y1113639D01*
G01X-1911317Y1126439D01*
G01X-1921799Y1136865D01*
G01X-1934639Y1144192D01*
G01X-1948946Y1147914D01*
G01X-1963729Y1147771D01*
G01X-1963509Y1161899D01*
G01X-1966824Y1175633D01*
G01X-1973464Y1188105D01*
G01X-1983008Y1198524D01*
G01X-1994851Y1206230D01*
G01X-2008243Y1210734D01*
G01X-2022335Y1211752D01*
G01X-2036235Y1209218D01*
G01X-2049062Y1203294D01*
G01X-2060004Y1194355D01*
G01X-2068367Y1182967D01*
G01X-2073621Y1169851D01*
G01X-2075434Y1155838D01*
G01X-2151704Y1155838D01*
G01X-2114302Y1223391D01*
G01X-2066550Y1302432D01*
G01X-2046496Y1318878D01*
G01X-2024386Y1332434D01*
G01X-2000633Y1342847D01*
G01X-1975681Y1349922D01*
G01X-1949998Y1353527D01*
G01X-1924063Y1353594D01*
G01X-1898361Y1350123D01*
G01X-1873373Y1343178D01*
G01X-1849566Y1332888D01*
G01X-1827386Y1319448D01*
G01X-1807246Y1303106D01*
G01X-1779862Y1278537D01*
G01X-1750062Y1256960D01*
G01X-1718172Y1238613D01*
G01X-1684541Y1223696D01*
G01X-1649536Y1212372D01*
G01X-1613540Y1204764D01*
G01X-1576947Y1200956D01*
G01X-1540156Y1200990D01*
G01X-1503569Y1204864D01*
G01X-1467587Y1212537D01*
G01X-1432603Y1223925D01*
G01X-1398999Y1238903D01*
G01X-1367142Y1257308D01*
G01X-1366037Y1258112D01*
G01X-1321014Y1258112D01*
G01X-1319151Y1243769D01*
G01X-1313684Y1230378D01*
G01X-1304978Y1218828D01*
G01X-1293609Y1209887D01*
G01X-1280333Y1204147D01*
G01X-1266030Y1201990D01*
G01X-1251652Y1203559D01*
G01X-1238152Y1208750D01*
G01X-1226426Y1217218D01*
G01X-1130654Y1217218D01*
G01X-1130654Y1217218D01*
G01X-1118928Y1208750D01*
G01X-1105428Y1203559D01*
G01X-1091050Y1201990D01*
G01X-1076748Y1204147D01*
G01X-1063471Y1209887D01*
G01X-1052103Y1218828D01*
G01X-1043396Y1230378D01*
G01X-1037929Y1243769D01*
G01X-1036066Y1258112D01*
G01X-948280Y1258112D01*
G01X-946417Y1243769D01*
G01X-940950Y1230378D01*
G01X-932243Y1218828D01*
G01X-920875Y1209887D01*
G01X-907598Y1204147D01*
G01X-893296Y1201990D01*
G01X-878918Y1203559D01*
G01X-865418Y1208750D01*
G01X-853692Y1217218D01*
G01X-444854Y1217218D01*
G01X-433128Y1208750D01*
G01X-419628Y1203559D01*
G01X-405250Y1201990D01*
G01X-390948Y1204147D01*
G01X-377671Y1209887D01*
G01X-366303Y1218828D01*
G01X-357596Y1230378D01*
G01X-352129Y1243769D01*
G01X-350266Y1258112D01*
G01X-352129Y1272455D01*
G01X-357596Y1285846D01*
G01X-366303Y1297396D01*
G01X-377671Y1306338D01*
G01X-390948Y1312077D01*
G01X-405250Y1314234D01*
G01X-419628Y1312665D01*
G01X-433128Y1307474D01*
G01X-444854Y1299006D01*
G01X-853692Y1299006D01*
G01X-853692Y1299006D01*
G01X-865418Y1307474D01*
G01X-878918Y1312665D01*
G01X-893296Y1314234D01*
G01X-907598Y1312077D01*
G01X-920875Y1306338D01*
G01X-932243Y1297396D01*
G01X-940950Y1285846D01*
G01X-946417Y1272455D01*
G01X-948280Y1258112D01*
G01X-1036066Y1258112D01*
G01X-1037929Y1272455D01*
G01X-1043396Y1285846D01*
G01X-1052103Y1297396D01*
G01X-1063471Y1306338D01*
G01X-1076748Y1312077D01*
G01X-1091050Y1314234D01*
G01X-1105428Y1312665D01*
G01X-1118928Y1307474D01*
G01X-1130654Y1299006D01*
G01X-1226426Y1299006D01*
G01X-1238152Y1307474D01*
G01X-1251652Y1312665D01*
G01X-1266030Y1314234D01*
G01X-1280333Y1312077D01*
G01X-1293609Y1306338D01*
G01X-1304978Y1297396D01*
G01X-1313684Y1285846D01*
G01X-1319151Y1272455D01*
G01X-1321014Y1258112D01*
G01X-1366037Y1258112D01*
G01X-1337382Y1278939D01*
G01X-1310042Y1303558D01*
G01X-1285422Y1330897D01*
G01X-1263791Y1360658D01*
G01X-1245385Y1392514D01*
G01X-1230406Y1426117D01*
G01X-1219017Y1461101D01*
G01X-1211343Y1497083D01*
G01X-1207468Y1533669D01*
G01X-1207433Y1570460D01*
G01X-1210527Y1600200D01*
G01X-1008634Y1600200D01*
G01X-1008634Y1422400D01*
G01X-1007130Y1412903D01*
G01X-1002764Y1404335D01*
G01X-995965Y1397536D01*
G01X-987397Y1393170D01*
G01X-977900Y1391666D01*
G01X-520700Y1391666D01*
G01X-512848Y1392686D01*
G01X-505517Y1395678D01*
G01X-499194Y1400444D01*
G01X-494863Y1391789D01*
G01X-488054Y1384910D01*
G01X-479445Y1380490D01*
G01X-469887Y1378966D01*
G01X-129794Y1378966D01*
G01X-129794Y1165779D01*
G01X-136726Y1160967D01*
G01X-142088Y1154451D01*
G01X-145476Y1146723D01*
G01X-146634Y1138365D01*
G01X-146634Y1081799D01*
G01X-145641Y1074049D01*
G01X-142726Y1066800D01*
G01X-145641Y1059551D01*
G01X-146634Y1051801D01*
G01X-146634Y995236D01*
G01X-145130Y985738D01*
G01X-140765Y977171D01*
G01X-133965Y970371D01*
G01X-125398Y966006D01*
G01X-115900Y964502D01*
G01X-61900Y964502D01*
G01X-52402Y966006D01*
G01X-43835Y970371D01*
G01X-37035Y977171D01*
G01X-32670Y985738D01*
G01X-31166Y995236D01*
G01X-31166Y1001098D01*
G01X-19292Y1005088D01*
G01X-9184Y1012484D01*
G01X5185Y1026852D01*
G01X10872Y1033976D01*
G01X14840Y1042183D01*
G01X16891Y1051065D01*
G01X65100Y1051065D01*
G01X74598Y1052569D01*
G01X83165Y1056934D01*
G01X89965Y1063734D01*
G01X94330Y1072301D01*
G01X95834Y1081799D01*
G01X95834Y1138365D01*
G01X94006Y1148805D01*
G01X88740Y1158004D01*
G01X80663Y1164867D01*
G01X80663Y1177763D01*
G01X79269Y1188347D01*
G01X75184Y1198210D01*
G01X68685Y1206680D01*
G01X54316Y1221048D01*
G01X45847Y1227547D01*
G01X35984Y1231632D01*
G01X25400Y1233025D01*
G01X-11575Y1233025D01*
G01X-11575Y1328953D01*
G01X42400Y1328953D01*
G01X51898Y1330458D01*
G01X60465Y1334823D01*
G01X67265Y1341622D01*
G01X71630Y1350190D01*
G01X73134Y1359687D01*
G01X73134Y1394689D01*
G01X71426Y1404793D01*
G01X75550Y1413171D01*
G01X76969Y1422400D01*
G01X76969Y1549400D01*
G01X223266Y1549400D01*
G01X223266Y1473200D01*
G01X225017Y1462976D01*
G01X225017Y1409699D01*
G01X226726Y1399590D01*
G01X231666Y1390607D01*
G01X231666Y1359687D01*
G01X232657Y1351945D01*
G01X235567Y1344701D01*
G01X232657Y1337458D01*
G01X231666Y1329715D01*
G01X231666Y1294714D01*
G01X233170Y1285217D01*
G01X237535Y1276649D01*
G01X244335Y1269850D01*
G01X252902Y1265484D01*
G01X262400Y1263980D01*
G01X324899Y1263980D01*
G01X335520Y1265874D01*
G01X344832Y1271321D01*
G01X348845Y1271321D01*
G01X351099Y1262650D01*
G01X355758Y1254997D01*
G01X362426Y1249014D01*
G01X370536Y1245207D01*
G01X379400Y1243902D01*
G01X433400Y1243902D01*
G01X442898Y1245406D01*
G01X451465Y1249771D01*
G01X458265Y1256571D01*
G01X462630Y1265138D01*
G01X464134Y1274636D01*
G01X464134Y1331201D01*
G01X463141Y1338951D01*
G01X460226Y1346200D01*
G01X463141Y1353449D01*
G01X464134Y1361199D01*
G01X464134Y1378965D01*
G01X477266Y1378965D01*
G01X477266Y1143000D01*
G01X478770Y1133503D01*
G01X483136Y1124935D01*
G01X489935Y1118136D01*
G01X498503Y1113770D01*
G01X508000Y1112266D01*
G01X585731Y1112266D01*
G01X585731Y1052210D01*
G01X586907Y1043790D01*
G01X590345Y1036014D01*
G01X595782Y1029478D01*
G01X589183Y1022704D01*
G01X584956Y1014244D01*
G01X583502Y1004900D01*
G01X583502Y950900D01*
G01X584759Y942200D01*
G01X588427Y934212D01*
G01X594206Y927589D01*
G01X601624Y922872D01*
G01X601624Y907593D01*
G01X601624Y907593D01*
G01X594362Y900752D01*
G01X589674Y891944D01*
G01X588054Y882099D01*
G01X588054Y828098D01*
G01X589674Y818253D01*
G01X594362Y809446D01*
G01X601624Y802604D01*
G01X601624Y787325D01*
G01X594206Y782609D01*
G01X588427Y775986D01*
G01X584759Y767997D01*
G01X583502Y759297D01*
G01X583502Y705297D01*
G01X585006Y695800D01*
G01X589371Y687232D01*
G01X596171Y680433D01*
G01X604738Y676067D01*
G01X614236Y674563D01*
G01X670801Y674563D01*
G01X678551Y675556D01*
G01X685800Y678471D01*
G01X688188Y677270D01*
G01X688188Y664628D01*
G01X680770Y659911D01*
G01X674990Y653288D01*
G01X671322Y645300D01*
G01X670065Y636600D01*
G01X670065Y582600D01*
G01X671569Y573102D01*
G01X675934Y564535D01*
G01X682734Y557735D01*
G01X691301Y553370D01*
G01X700799Y551866D01*
G01X757365Y551866D01*
G01X766862Y553370D01*
G01X775429Y557735D01*
G01X782229Y564535D01*
G01X786594Y573102D01*
G01X788099Y582600D01*
G01X788099Y636600D01*
G01X786841Y645300D01*
G01X783173Y653288D01*
G01X777394Y659911D01*
G01X769976Y664628D01*
G01X769976Y677270D01*
G01X777394Y681986D01*
G01X783173Y688609D01*
G01X786841Y696597D01*
G01X788099Y705297D01*
G01X788099Y759297D01*
G01X786841Y767997D01*
G01X783173Y775986D01*
G01X777394Y782609D01*
G01X769976Y787325D01*
G01X769976Y802604D01*
G01X774321Y806146D01*
G01X778296Y802172D01*
G01X786765Y795673D01*
G01X796628Y791587D01*
G01X807212Y790194D01*
G01X861474Y790194D01*
G01X870786Y784747D01*
G01X881407Y782853D01*
G01X951407Y782853D01*
G01X960904Y784358D01*
G01X969472Y788723D01*
G01X976271Y795522D01*
G01X980636Y804090D01*
G01X982141Y813587D01*
G01X982141Y848589D01*
G01X981146Y856345D01*
G01X978225Y863600D01*
G01X981146Y870855D01*
G01X982141Y878611D01*
G01X982141Y913613D01*
G01X981039Y921766D01*
G01X1003300Y921766D01*
G01X1012797Y923270D01*
G01X1021365Y927636D01*
G01X1028164Y934435D01*
G01X1032530Y943003D01*
G01X1034034Y952500D01*
G01X1034034Y1054100D01*
G01X1032987Y1062055D01*
G01X1029916Y1069467D01*
G01X1025032Y1075832D01*
G01X1021364Y1079500D01*
G01X2039366Y1079500D01*
G01X2041279Y1064971D01*
G01X2046887Y1051433D01*
G01X2055807Y1039807D01*
G01X2067433Y1030887D01*
G01X2080971Y1025279D01*
G01X2095500Y1023366D01*
G01X2110029Y1025279D01*
G01X2123567Y1030887D01*
G01X2135193Y1039807D01*
G01X2144113Y1051433D01*
G01X2149721Y1064971D01*
G01X2151634Y1079500D01*
G01X2149721Y1094029D01*
G01X2144113Y1107567D01*
G01X2135193Y1119193D01*
G01X2123567Y1128113D01*
G01X2110029Y1133721D01*
G01X2095500Y1135634D01*
G01X2080971Y1133721D01*
G01X2067433Y1128113D01*
G01X2055807Y1119193D01*
G01X2046887Y1107567D01*
G01X2041279Y1094029D01*
G01X2039366Y1079500D01*
G01X2039366Y1079500D01*
G01X1021364Y1079500D01*
G01X945134Y1155730D01*
G01X945134Y1651000D01*
G01X944087Y1658955D01*
G01X941016Y1666367D01*
G01X936132Y1672732D01*
G01X923432Y1685432D01*
G01X917067Y1690316D01*
G01X909655Y1693387D01*
G01X901700Y1694434D01*
G01X508000Y1694434D01*
G01X498503Y1692930D01*
G01X489935Y1688564D01*
G01X483136Y1681765D01*
G01X478770Y1673197D01*
G01X477266Y1663700D01*
G01X477266Y1580134D01*
G01X254000Y1580134D01*
G01X244503Y1578630D01*
G01X235935Y1574264D01*
G01X229136Y1567465D01*
G01X224770Y1558897D01*
G01X223266Y1549400D01*
G01X76969Y1549400D01*
G01X76969Y1601596D01*
G01X75464Y1611093D01*
G01X71099Y1619661D01*
G01X64300Y1626460D01*
G01X55732Y1630826D01*
G01X46235Y1632330D01*
G01X30820Y1632330D01*
G01X40553Y1642184D01*
G01X47576Y1654122D01*
G01X51462Y1667416D01*
G01X51795Y1676400D01*
G01X286766Y1676400D01*
G01X288679Y1661871D01*
G01X294287Y1648333D01*
G01X303207Y1636707D01*
G01X314833Y1627787D01*
G01X328371Y1622179D01*
G01X342900Y1620266D01*
G01X357429Y1622179D01*
G01X370967Y1627787D01*
G01X382593Y1636707D01*
G01X391513Y1648333D01*
G01X397121Y1661871D01*
G01X399034Y1676400D01*
G01X397121Y1690929D01*
G01X391513Y1704467D01*
G01X382593Y1716093D01*
G01X370967Y1725013D01*
G01X357429Y1730621D01*
G01X342900Y1732534D01*
G01X328371Y1730621D01*
G01X314833Y1725013D01*
G01X303207Y1716093D01*
G01X294287Y1704467D01*
G01X288679Y1690929D01*
G01X286766Y1676400D01*
G01X286766Y1676400D01*
G01X51795Y1676400D01*
G01X51975Y1681256D01*
G01X49084Y1694801D01*
G01X42964Y1707226D01*
G01X33989Y1717774D01*
G01X22704Y1725803D01*
G01X9796Y1730825D01*
G01X-3948Y1732534D01*
G01X-17692Y1730825D01*
G01X-30600Y1725803D01*
G01X-41885Y1717774D01*
G01X-50861Y1707226D01*
G01X-56980Y1694801D01*
G01X-59872Y1681256D01*
G01X-59359Y1667416D01*
G01X-55472Y1654122D01*
G01X-48449Y1642184D01*
G01X-38717Y1632330D01*
G01X-96199Y1632330D01*
G01X-96199Y1632330D01*
G01X-99948Y1642193D01*
G01X-106811Y1650207D01*
G01X-115981Y1655427D01*
G01X-126376Y1657238D01*
G01X-469887Y1657238D01*
G01X-479385Y1655734D01*
G01X-487952Y1651369D01*
G01X-494752Y1644569D01*
G01X-499117Y1636002D01*
G01X-500621Y1626504D01*
G01X-500621Y1623469D01*
G01X-509989Y1629007D01*
G01X-520700Y1630934D01*
G01X-977900Y1630934D01*
G01X-987397Y1629430D01*
G01X-995965Y1625064D01*
G01X-1002764Y1618265D01*
G01X-1007130Y1609697D01*
G01X-1008634Y1600200D01*
G01X-1210527Y1600200D01*
G01X-1211240Y1607054D01*
G01X-1218847Y1643050D01*
G01X-1230171Y1678055D01*
G01X-1245087Y1711686D01*
G01X-1263433Y1743577D01*
G01X-1285009Y1773378D01*
G01X-1309578Y1800763D01*
G01X-1326368Y1821564D01*
G01X-1340069Y1844518D01*
G01X-1350408Y1869169D01*
G01X-1357182Y1895029D01*
G01X-1360255Y1921584D01*
G01X-1359567Y1948307D01*
G01X-1355131Y1974668D01*
G01X-1347035Y2000145D01*
G01X-1335439Y2024231D01*
G01X-1320575Y2046449D01*
G01X-1302736Y2066359D01*
G01X-1218369Y2117200D01*
G01X-1132021Y2164599D01*
G01X-1043833Y2208477D01*
G01X-953947Y2248765D01*
G01X953946Y2248765D01*
G01X1043751Y2208516D01*
G01X1131862Y2164681D01*
G01X1218136Y2117334D01*
G01X1302433Y2066549D01*
G01X1318878Y2046495D01*
G01X1332434Y2024385D01*
G01X1342847Y2000632D01*
G01X1349922Y1975681D01*
G01X1353527Y1949997D01*
G01X1353594Y1924062D01*
G01X1350123Y1898361D01*
G01X1343177Y1873373D01*
G01X1332888Y1849566D01*
G01X1319447Y1827386D01*
G01X1303106Y1807247D01*
G01X1278536Y1779862D01*
G01X1256960Y1750062D01*
G01X1238613Y1718172D01*
G01X1223696Y1684541D01*
G01X1212372Y1649536D01*
G01X1204764Y1613540D01*
G01X1200956Y1576947D01*
G01X1200989Y1540156D01*
G01X1204864Y1503569D01*
G01X1212537Y1467587D01*
G01X1223925Y1432603D01*
G01X1238903Y1398999D01*
G01X1257308Y1367143D01*
G01X1278939Y1337382D01*
G01X1303558Y1310042D01*
G01X1330897Y1285422D01*
G01X1360657Y1263791D01*
G01X1392514Y1245385D01*
G01X1426117Y1230406D01*
G01X1461101Y1219017D01*
G01X1497083Y1211343D01*
G01X1533669Y1207468D01*
G01X1570460Y1207433D01*
G01X1607054Y1211240D01*
G01X1643050Y1218847D01*
G01X1678055Y1230171D01*
G01X1711687Y1245087D01*
G01X1743577Y1263433D01*
G01X1773378Y1285009D01*
G01X1800763Y1309578D01*
G01X1821564Y1326368D01*
G01X1844518Y1340069D01*
G01X1869169Y1350409D01*
G01X1895028Y1357183D01*
G01X1921583Y1360256D01*
G01X1948306Y1359567D01*
G01X1974668Y1355131D01*
G01X2000144Y1347035D01*
G01X2024230Y1335440D01*
G01X2046448Y1320576D01*
G01X2066358Y1302737D01*
G01X2109825Y1231095D01*
G01X2150810Y1158004D01*
G01X2189264Y1083550D01*
G01X2195072Y1075041D01*
G01X2202998Y1068458D01*
G01X2212429Y1064310D01*
G01X2222637Y1062916D01*
G01X2399986Y1062916D01*
G01X2419596Y1061203D01*
G01X2438610Y1056110D01*
G01X2456450Y1047793D01*
G01X2472575Y1036504D01*
G01X2486495Y1022586D01*
G01X2497786Y1006462D01*
G01X2506105Y988623D01*
G01X2511200Y969609D01*
G01X2512916Y950000D01*
G01X2512916Y-949986D01*
G01X2511202Y-969595D01*
G01X2506110Y-988609D01*
G01X2497792Y-1006450D01*
G01X2486503Y-1022575D01*
G01X2472585Y-1036494D01*
G01X2456462Y-1047785D01*
G01X2438622Y-1056105D01*
G01X2419609Y-1061200D01*
G01X2400000Y-1062915D01*
G01X2315893Y-1062916D01*
G01X2330562Y-1048829D01*
G01X2342658Y-1032480D01*
G01X2351839Y-1014333D01*
G01X2357843Y-994902D01*
G01X2360501Y-974739D01*
G01X2359737Y-954416D01*
G01X2355572Y-934510D01*
G01X2348125Y-915585D01*
G01X2337608Y-898179D01*
G01X2324318Y-882785D01*
G01X2308632Y-869840D01*
G01X2290996Y-859711D01*
G01X2271911Y-852686D01*
G01X2251917Y-848965D01*
G01X2231582Y-848652D01*
G01X2211483Y-851757D01*
G01X2211483Y-598001D01*
G01X2268877Y-598001D01*
G01X2268877Y-688001D01*
G01X2270381Y-697498D01*
G01X2274746Y-706066D01*
G01X2281546Y-712865D01*
G01X2290113Y-717231D01*
G01X2299611Y-718735D01*
G01X2324612Y-718735D01*
G01X2324612Y-718735D01*
G01X2334109Y-717231D01*
G01X2342677Y-712865D01*
G01X2349476Y-706066D01*
G01X2353842Y-697498D01*
G01X2355346Y-688001D01*
G01X2355346Y-598001D01*
G01X2353842Y-588504D01*
G01X2349476Y-579936D01*
G01X2342677Y-573137D01*
G01X2334109Y-568771D01*
G01X2324612Y-567267D01*
G01X2299611Y-567267D01*
G01X2290113Y-568771D01*
G01X2281546Y-573137D01*
G01X2274746Y-579936D01*
G01X2270381Y-588504D01*
G01X2268877Y-598001D01*
G01X2211483Y-598001D01*
G01X2211483Y-543251D01*
G01X2218078Y-548914D01*
G01X2225996Y-552504D01*
G01X2234602Y-553734D01*
G01X2299603Y-553734D01*
G01X2299882Y-553733D01*
G01X2317142Y-553733D01*
G01X2325097Y-552685D01*
G01X2332509Y-549615D01*
G01X2338874Y-544731D01*
G01X2383932Y-499673D01*
G01X2388816Y-493308D01*
G01X2391887Y-485895D01*
G01X2392934Y-477941D01*
G01X2392934Y-266730D01*
G01X2460132Y-199532D01*
G01X2465016Y-193167D01*
G01X2468087Y-185755D01*
G01X2469134Y-177800D01*
G01X2469134Y12700D01*
G01X2467626Y22209D01*
G01X2463249Y30786D01*
G01X2456434Y37587D01*
G01X2456434Y42901D01*
G01X2454930Y52398D01*
G01X2450564Y60966D01*
G01X2443765Y67765D01*
G01X2435197Y72130D01*
G01X2425700Y73635D01*
G01X2346188Y73635D01*
G01X2354085Y91680D01*
G01X2358943Y110769D01*
G01X2360632Y130394D01*
G01X2359107Y150032D01*
G01X2354409Y169162D01*
G01X2346664Y187272D01*
G01X2336076Y203882D01*
G01X2322929Y218550D01*
G01X2307571Y230884D01*
G01X2290413Y240558D01*
G01X2271909Y247312D01*
G01X2252554Y250968D01*
G01X2232862Y251427D01*
G01X2213357Y248679D01*
G01X2194559Y242796D01*
G01X2176967Y233934D01*
G01X2156226Y233934D01*
G01X2156226Y418809D01*
G01X2165914Y422655D01*
G01X2173760Y429519D01*
G01X2178860Y438611D01*
G01X2180628Y448884D01*
G01X2180628Y864903D01*
G01X2179581Y872858D01*
G01X2176511Y880270D01*
G01X2171626Y886635D01*
G01X2109429Y948832D01*
G01X2103064Y953716D01*
G01X2095652Y956787D01*
G01X2087697Y957834D01*
G01X1565413Y957834D01*
G01X1557717Y961188D01*
G01X1549400Y962335D01*
G01X1122837Y962335D01*
G01X1113340Y960831D01*
G01X1104772Y956465D01*
G01X1097973Y949666D01*
G01X1093607Y941098D01*
G01X1092103Y931601D01*
G01X1092103Y863600D01*
G01X1093096Y855851D01*
G01X1096011Y848602D01*
G01X1100659Y842322D01*
G01X1100659Y813587D01*
G01X1102084Y804341D01*
G01X1088898Y804341D01*
G01X1081148Y803347D01*
G01X1073899Y800432D01*
G01X1066650Y803347D01*
G01X1058901Y804341D01*
G01X1023899Y804341D01*
G01X1014402Y802836D01*
G01X1005834Y798471D01*
G01X999035Y791672D01*
G01X994670Y783104D01*
G01X993165Y773607D01*
G01X993165Y703607D01*
G01X995059Y692986D01*
G01X1000506Y683674D01*
G01X1000506Y597575D01*
G01X991299Y595785D01*
G01X983060Y591301D01*
G01X976558Y584541D01*
G01X972397Y576134D01*
G01X970966Y566865D01*
G01X970966Y510299D01*
G01X971959Y502549D01*
G01X974874Y495300D01*
G01X971959Y488051D01*
G01X970966Y480301D01*
G01X970966Y423736D01*
G01X972470Y414238D01*
G01X976835Y405671D01*
G01X983635Y398871D01*
G01X992202Y394506D01*
G01X1001700Y393002D01*
G01X1055700Y393002D01*
G01X1064728Y394357D01*
G01X1072959Y398305D01*
G01X1079667Y404496D01*
G01X1084261Y412384D01*
G01X1086335Y421274D01*
G01X1092784Y425622D01*
G01X1092784Y423736D01*
G01X1094288Y414238D01*
G01X1098654Y405671D01*
G01X1105453Y398871D01*
G01X1114021Y394506D01*
G01X1123518Y393002D01*
G01X1177519Y393002D01*
G01X1186279Y394276D01*
G01X1194312Y397995D01*
G01X1200952Y403850D01*
G01X1205648Y411354D01*
G01X1214667Y413364D01*
G01X1223005Y417348D01*
G01X1230235Y423102D01*
G01X1260816Y453684D01*
G01X1267315Y462153D01*
G01X1271401Y472016D01*
G01X1272794Y482600D01*
G01X1272794Y566166D01*
G01X1396970Y566166D01*
G01X1442347Y520789D01*
G01X1442347Y491472D01*
G01X1438710Y487682D01*
G01X1437386Y482600D01*
G01X1437386Y232354D01*
G01X1428901Y227958D01*
G01X1422177Y221167D01*
G01X1417864Y212640D01*
G01X1416378Y203200D01*
G01X1416378Y-63500D01*
G01X1417882Y-72997D01*
G01X1422248Y-81565D01*
G01X1429047Y-88364D01*
G01X1437615Y-92730D01*
G01X1447112Y-94234D01*
G01X1762265Y-94234D01*
G01X1762265Y-128600D01*
G01X1763769Y-138098D01*
G01X1768134Y-146665D01*
G01X1774934Y-153465D01*
G01X1783501Y-157830D01*
G01X1792999Y-159334D01*
G01X1796505Y-159334D01*
G01X1787541Y-163537D01*
G01X1780378Y-170371D01*
G01X1775759Y-179129D01*
G01X1774165Y-188900D01*
G01X1774165Y-242900D01*
G01X1775949Y-253220D01*
G01X1781095Y-262341D01*
G01X1789005Y-269205D01*
G01X1789005Y-274063D01*
G01X1751471Y-311596D01*
G01X1746265Y-317974D01*
G01X1742442Y-325266D01*
G01X1741387Y-325266D01*
G01X1731890Y-326770D01*
G01X1723322Y-331136D01*
G01X1716523Y-337935D01*
G01X1712157Y-346503D01*
G01X1710653Y-356000D01*
G01X1710653Y-406000D01*
G01X1711892Y-414637D01*
G01X1652669Y-414637D01*
G01X1642084Y-416031D01*
G01X1632222Y-420116D01*
G01X1623752Y-426615D01*
G01X1609384Y-440984D01*
G01X1602885Y-449453D01*
G01X1598799Y-459316D01*
G01X1597406Y-469900D01*
G01X1597406Y-477434D01*
G01X1589121Y-481902D01*
G01X1582576Y-488668D01*
G01X1578387Y-497097D01*
G01X1576945Y-506400D01*
G01X1576945Y-560400D01*
G01X1578449Y-569898D01*
G01X1582815Y-578465D01*
G01X1589614Y-585265D01*
G01X1598182Y-589630D01*
G01X1607679Y-591134D01*
G01X1664245Y-591134D01*
G01X1671995Y-590141D01*
G01X1679244Y-587226D01*
G01X1686492Y-590141D01*
G01X1694242Y-591134D01*
G01X1750808Y-591134D01*
G01X1759166Y-589976D01*
G01X1766895Y-586588D01*
G01X1773410Y-581226D01*
G01X1778222Y-574294D01*
G01X1854200Y-574294D01*
G01X1864784Y-572901D01*
G01X1874647Y-568815D01*
G01X1883116Y-562316D01*
G01X1896539Y-548894D01*
G01X1905335Y-548894D01*
G01X1911102Y-550644D01*
G01X1917099Y-551235D01*
G01X2007099Y-551235D01*
G01X2016596Y-549730D01*
G01X2025164Y-545365D01*
G01X2031963Y-538566D01*
G01X2036329Y-529998D01*
G01X2037833Y-520501D01*
G01X2037833Y-495499D01*
G01X2037162Y-489114D01*
G01X2035179Y-483006D01*
G01X2037162Y-476899D01*
G01X2037833Y-470513D01*
G01X2037833Y-445512D01*
G01X2036329Y-436015D01*
G01X2031963Y-427447D01*
G01X2025164Y-420648D01*
G01X2016596Y-416282D01*
G01X2007099Y-414778D01*
G01X1917099Y-414778D01*
G01X1911102Y-415369D01*
G01X1905335Y-417119D01*
G01X1897352Y-417119D01*
G01X1895094Y-414861D01*
G01X1895094Y-393700D01*
G01X1893701Y-383116D01*
G01X1889615Y-373253D01*
G01X1883116Y-364784D01*
G01X1868748Y-350415D01*
G01X1861705Y-344779D01*
G01X1853597Y-340824D01*
G01X1844820Y-338743D01*
G01X1842728Y-336005D01*
G01X1858815Y-319918D01*
G01X1865314Y-311448D01*
G01X1869399Y-301586D01*
G01X1870793Y-291001D01*
G01X1870793Y-269205D01*
G01X1876880Y-264380D01*
G01X1881564Y-258183D01*
G01X1884543Y-251009D01*
G01X1888549Y-259847D01*
G01X1895109Y-266995D01*
G01X1903571Y-271742D01*
G01X1910272Y-280565D01*
G01X1926884Y-297177D01*
G01X1935353Y-303676D01*
G01X1945216Y-307761D01*
G01X1955800Y-309154D01*
G01X2016621Y-309154D01*
G01X2038854Y-331387D01*
G01X2038854Y-417999D01*
G01X2040358Y-427496D01*
G01X2044724Y-436064D01*
G01X2051523Y-442863D01*
G01X2060091Y-447229D01*
G01X2069588Y-448733D01*
G01X2094589Y-448733D01*
G01X2100982Y-448061D01*
G01X2107095Y-446074D01*
G01X2113208Y-448061D01*
G01X2119601Y-448733D01*
G01X2144602Y-448733D01*
G01X2154099Y-447229D01*
G01X2162667Y-442863D01*
G01X2169466Y-436064D01*
G01X2173832Y-427496D01*
G01X2175336Y-417999D01*
G01X2175336Y-327999D01*
G01X2174354Y-320294D01*
G01X2204860Y-320294D01*
G01X2203878Y-327999D01*
G01X2203878Y-417999D01*
G01X2205382Y-427496D01*
G01X2209748Y-436064D01*
G01X2216547Y-442863D01*
G01X2225115Y-447229D01*
G01X2234612Y-448733D01*
G01X2236903Y-448733D01*
G01X2219276Y-466360D01*
G01X2211079Y-473220D01*
G01X2205727Y-482473D01*
G01X2203868Y-493000D01*
G01X2203868Y-500661D01*
G01X2197272Y-494998D01*
G01X2189355Y-491408D01*
G01X2180749Y-490178D01*
G01X2106902Y-490178D01*
G01X2097405Y-491682D01*
G01X2088837Y-496048D01*
G01X2082038Y-502847D01*
G01X2077672Y-511415D01*
G01X2076168Y-520912D01*
G01X2076168Y-567267D01*
G01X2069588Y-567267D01*
G01X2060091Y-568771D01*
G01X2051523Y-573137D01*
G01X2044724Y-579936D01*
G01X2040358Y-588504D01*
G01X2038854Y-598001D01*
G01X2038854Y-688001D01*
G01X2039627Y-694849D01*
G01X2041906Y-701353D01*
G01X2041906Y-710075D01*
G01X1771555Y-710075D01*
G01X1776959Y-703547D01*
G01X1780374Y-695793D01*
G01X1781542Y-687400D01*
G01X1781542Y-633400D01*
G01X1780038Y-623902D01*
G01X1775672Y-615335D01*
G01X1768873Y-608535D01*
G01X1760305Y-604170D01*
G01X1750808Y-602666D01*
G01X1694242Y-602666D01*
G01X1686492Y-603659D01*
G01X1679244Y-606574D01*
G01X1671995Y-603659D01*
G01X1664245Y-602666D01*
G01X1607679Y-602666D01*
G01X1599321Y-603824D01*
G01X1591592Y-607212D01*
G01X1585077Y-612574D01*
G01X1580265Y-619506D01*
G01X1567434Y-619506D01*
G01X1567434Y-495300D01*
G01X1565930Y-485803D01*
G01X1561564Y-477235D01*
G01X1554765Y-470436D01*
G01X1546197Y-466070D01*
G01X1536700Y-464566D01*
G01X1333530Y-464566D01*
G01X1152032Y-283068D01*
G01X1145667Y-278184D01*
G01X1138255Y-275113D01*
G01X1130300Y-274066D01*
G01X972338Y-274066D01*
G01X962841Y-275570D01*
G01X954273Y-279936D01*
G01X947474Y-286735D01*
G01X943108Y-295303D01*
G01X941604Y-304800D01*
G01X941604Y-451638D01*
G01X942651Y-459592D01*
G01X945721Y-467005D01*
G01X950606Y-473370D01*
G01X1061466Y-584230D01*
G01X1061466Y-731266D01*
G01X651505Y-731266D01*
G01X647453Y-719877D01*
G01X654704Y-715125D01*
G01X660339Y-708536D01*
G01X663910Y-700636D01*
G01X665133Y-692053D01*
G01X665133Y-592054D01*
G01X663629Y-582556D01*
G01X659264Y-573989D01*
G01X652464Y-567189D01*
G01X643897Y-562824D01*
G01X634399Y-561320D01*
G01X614113Y-561320D01*
G01X683728Y-491704D01*
G01X688021Y-486652D01*
G01X691440Y-480973D01*
G01X697847Y-471474D01*
G01X701840Y-460735D01*
G01X703196Y-449359D01*
G01X703196Y-339260D01*
G01X701198Y-325498D01*
G01X695368Y-312873D01*
G01X686188Y-302428D01*
G01X674416Y-295025D01*
G01X661024Y-291276D01*
G01X647119Y-291491D01*
G01X633850Y-295652D01*
G01X622313Y-303415D01*
G01X612624Y-296590D01*
G01X601567Y-292325D01*
G01X589805Y-290876D01*
G01X578043Y-292329D01*
G01X566988Y-296598D01*
G01X557301Y-303427D01*
G01X545765Y-295659D01*
G01X532495Y-291493D01*
G01X518588Y-291275D01*
G01X505194Y-295021D01*
G01X493419Y-302424D01*
G01X484236Y-312870D01*
G01X478404Y-325496D01*
G01X476405Y-339260D01*
G01X476405Y-449359D01*
G01X477255Y-458391D01*
G01X479777Y-467106D01*
G01X330200Y-467106D01*
G01X319616Y-468499D01*
G01X309753Y-472585D01*
G01X301284Y-479084D01*
G01X228973Y-551394D01*
G01X222474Y-559864D01*
G01X218389Y-569727D01*
G01X216995Y-580311D01*
G01X216995Y-731266D01*
G01X-340106Y-731266D01*
G01X-340106Y-724254D01*
G01X-331849Y-712915D01*
G01X-326661Y-699883D01*
G01X-324866Y-685972D01*
G01X-326576Y-672050D01*
G01X-331684Y-658986D01*
G01X-339872Y-647597D01*
G01X-350627Y-638593D01*
G01X-363279Y-632537D01*
G01X-377037Y-629806D01*
G01X-391043Y-630572D01*
G01X-395270Y-620729D01*
G01X-401290Y-611869D01*
G01X-389206Y-602765D01*
G01X-380591Y-592054D01*
G01X-322236Y-592054D01*
G01X-322236Y-692053D01*
G01X-320732Y-701551D01*
G01X-316366Y-710118D01*
G01X-309567Y-716918D01*
G01X-300999Y-721283D01*
G01X-291502Y-722787D01*
G01X-216501Y-722787D01*
G01X-207003Y-721283D01*
G01X-198436Y-716918D01*
G01X-191636Y-710118D01*
G01X-187271Y-701551D01*
G01X-185767Y-692053D01*
G01X-185767Y-592054D01*
G01X-185767Y-592054D01*
G01X-187271Y-582556D01*
G01X-191636Y-573989D01*
G01X-198436Y-567189D01*
G01X-207003Y-562824D01*
G01X-216501Y-561320D01*
G01X-291502Y-561320D01*
G01X-300999Y-562824D01*
G01X-309567Y-567189D01*
G01X-316366Y-573989D01*
G01X-320732Y-582556D01*
G01X-322236Y-592054D01*
G01X-380591Y-592054D01*
G01X-379724Y-590975D01*
G01X-373423Y-577220D01*
G01X-370688Y-562339D01*
G01X-371687Y-547243D01*
G01X-376358Y-532852D01*
G01X-384415Y-520047D01*
G01X-395367Y-509609D01*
G01X-408545Y-502175D01*
G01X-423143Y-498201D01*
G01X-438270Y-497929D01*
G01X-453002Y-501375D01*
G01X-466439Y-508329D01*
G01X-477759Y-518366D01*
G01X-486273Y-530873D01*
G01X-491458Y-545087D01*
G01X-492999Y-560137D01*
G01X-490802Y-575107D01*
G01X-485001Y-589080D01*
G01X-475949Y-601203D01*
G01X-486010Y-609912D01*
G01X-493738Y-620744D01*
G01X-498700Y-633091D01*
G01X-500616Y-646260D01*
G01X-499378Y-659509D01*
G01X-495056Y-672094D01*
G01X-487894Y-683309D01*
G01X-487894Y-797206D01*
G01X-496339Y-808889D01*
G01X-501530Y-822337D01*
G01X-503125Y-836664D01*
G01X-501019Y-850924D01*
G01X-495350Y-864178D01*
G01X-521597Y-864178D01*
G01X-521597Y-503230D01*
G01X-390184Y-371816D01*
G01X-383685Y-363347D01*
G01X-379599Y-353484D01*
G01X-378206Y-342900D01*
G01X-378206Y-279400D01*
G01X-379599Y-268816D01*
G01X-383685Y-258953D01*
G01X-390184Y-250484D01*
G01X-486196Y-154472D01*
G01X-491248Y-150179D01*
G01X-496927Y-146760D01*
G01X-504689Y-141525D01*
G01X-475204Y-141525D01*
G01X-472908Y-155692D01*
G01X-467094Y-168814D01*
G01X-458142Y-180033D01*
G01X-446639Y-188615D01*
G01X-433335Y-193999D01*
G01X-419100Y-195834D01*
G01X-419100Y-195834D01*
G01X-404865Y-193999D01*
G01X-391561Y-188615D01*
G01X-380058Y-180033D01*
G01X-371106Y-168814D01*
G01X-365292Y-155692D01*
G01X-362996Y-141525D01*
G01X-364367Y-127238D01*
G01X-369316Y-113766D01*
G01X-369316Y-83972D01*
G01X-324575Y-83972D01*
G01X-315962Y-88397D01*
G01X-306400Y-89922D01*
G01X-252400Y-89922D01*
G01X-242902Y-88418D01*
G01X-234335Y-84053D01*
G01X-227535Y-77253D01*
G01X-223170Y-68686D01*
G01X-221666Y-59188D01*
G01X-221666Y-13825D01*
G01X-220734Y-13825D01*
G01X-220734Y-38981D01*
G01X-220220Y-44578D01*
G01X-218695Y-49987D01*
G01X-220220Y-55397D01*
G01X-220734Y-60993D01*
G01X-220734Y-88994D01*
G01X-219229Y-98491D01*
G01X-214864Y-107059D01*
G01X-208065Y-113858D01*
G01X-199497Y-118224D01*
G01X-190000Y-119728D01*
G01X-119753Y-119728D01*
G01X-119753Y-190000D01*
G01X-118249Y-199497D01*
G01X-113884Y-208065D01*
G01X-107084Y-214864D01*
G01X-98517Y-219229D01*
G01X-89019Y-220734D01*
G01X-61018Y-220734D01*
G01X-55422Y-220220D01*
G01X-50013Y-218695D01*
G01X-44603Y-220220D01*
G01X-39007Y-220734D01*
G01X-11006Y-220734D01*
G01X-5416Y-220221D01*
G01X-13Y-218700D01*
G01X5391Y-220221D01*
G01X10980Y-220734D01*
G01X38981Y-220734D01*
G01X44578Y-220220D01*
G01X49987Y-218695D01*
G01X55397Y-220220D01*
G01X60993Y-220734D01*
G01X88994Y-220734D01*
G01X99635Y-218833D01*
G01X108959Y-213365D01*
G01X115814Y-205008D01*
G01X129144Y-206093D01*
G01X142352Y-203994D01*
G01X154689Y-198829D01*
G01X165454Y-190894D01*
G01X305247Y-190894D01*
G01X309795Y-198938D01*
G01X316527Y-205266D01*
G01X324837Y-209308D01*
G01X333972Y-210697D01*
G01X387972Y-210697D01*
G01X397470Y-209193D01*
G01X406037Y-204827D01*
G01X412837Y-198028D01*
G01X417202Y-189460D01*
G01X418706Y-179963D01*
G01X418706Y-123397D01*
G01X417713Y-115647D01*
G01X414798Y-108399D01*
G01X417713Y-101150D01*
G01X418706Y-93400D01*
G01X418706Y-36834D01*
G01X417558Y-28510D01*
G01X414197Y-20808D01*
G01X408876Y-14304D01*
G01X401993Y-9484D01*
G01X422616Y11139D01*
G01X429473Y20241D01*
G01X438802Y30082D01*
G01X445500Y41872D01*
G01X449175Y54924D01*
G01X449613Y68477D01*
G01X446788Y81740D01*
G01X440865Y93938D01*
G01X432190Y104360D01*
G01X421269Y112398D01*
G01X408739Y117582D01*
G01X395332Y119610D01*
G01X381829Y118364D01*
G01X369019Y113917D01*
G01X357650Y106528D01*
G01X348384Y96628D01*
G01X341762Y84794D01*
G01X338171Y71719D01*
G01X337820Y58163D01*
G01X340730Y44919D01*
G01X332056Y36244D01*
G01X325557Y27775D01*
G01X321472Y17912D01*
G01X320078Y7328D01*
G01X320078Y-9420D01*
G01X313146Y-14232D01*
G01X307784Y-20747D01*
G01X304396Y-28476D01*
G01X303238Y-36834D01*
G01X303238Y-93400D01*
G01X304231Y-101150D01*
G01X307146Y-108399D01*
G01X306763Y-109106D01*
G01X273180Y-109106D01*
G01X279939Y-97696D01*
G01X283832Y-85018D01*
G01X284642Y-71782D01*
G01X282325Y-58724D01*
G01X277009Y-46575D01*
G01X268991Y-36011D01*
G01X258719Y-27624D01*
G01X246766Y-21880D01*
G01X258055Y-12061D01*
G01X266349Y391D01*
G01X271060Y14592D01*
G01X271851Y29533D01*
G01X268668Y44153D01*
G01X261736Y57412D01*
G01X251547Y68369D01*
G01X238826Y76245D01*
G01X224477Y80481D01*
G01X209518Y80776D01*
G01X195012Y77109D01*
G01X181991Y69741D01*
G01X113222Y69741D01*
G01X113222Y82513D01*
G01X112304Y89969D01*
G01X117812Y99319D01*
G01X119728Y110000D01*
G01X119728Y190000D01*
G01X118224Y199497D01*
G01X113858Y208065D01*
G01X107059Y214864D01*
G01X98491Y219229D01*
G01X88994Y220734D01*
G01X60993Y220734D01*
G01X51496Y219229D01*
G01X42928Y214864D01*
G01X36129Y208065D01*
G01X31763Y199497D01*
G01X30259Y190000D01*
G01X30259Y113247D01*
G01X19728Y113247D01*
G01X19728Y190000D01*
G01X18224Y199497D01*
G01X13859Y208065D01*
G01X7059Y214864D01*
G01X-1508Y219229D01*
G01X-11006Y220734D01*
G01X-22788Y220734D01*
G01X-19508Y232958D01*
G01X-19050Y245606D01*
G01X-21438Y258036D01*
G01X-26549Y269615D01*
G01X-34125Y279754D01*
G01X-34125Y323913D01*
G01X-25400Y327174D01*
G01X-18151Y324259D01*
G01X-10401Y323266D01*
G01X46165Y323266D01*
G01X54523Y324424D01*
G01X62251Y327812D01*
G01X68767Y333174D01*
G01X73579Y340106D01*
G01X253646Y340106D01*
G01X265372Y331638D01*
G01X278872Y326447D01*
G01X293250Y324878D01*
G01X307552Y327035D01*
G01X320829Y332775D01*
G01X332197Y341716D01*
G01X340904Y353266D01*
G01X346371Y366657D01*
G01X348234Y381000D01*
G01X346371Y395343D01*
G01X340904Y408734D01*
G01X332197Y420284D01*
G01X320829Y429225D01*
G01X307552Y434965D01*
G01X293250Y437122D01*
G01X278872Y435553D01*
G01X265372Y430362D01*
G01X253646Y421894D01*
G01X73579Y421894D01*
G01X68767Y428826D01*
G01X62251Y434188D01*
G01X54523Y437576D01*
G01X46165Y438734D01*
G01X-10401Y438734D01*
G01X-18151Y437741D01*
G01X-25400Y434826D01*
G01X-32649Y437741D01*
G01X-40399Y438734D01*
G01X-96964Y438734D01*
G01X-106462Y437230D01*
G01X-115029Y432865D01*
G01X-121829Y426065D01*
G01X-126194Y417498D01*
G01X-127698Y408000D01*
G01X-127698Y354000D01*
G01X-126306Y344854D01*
G01X-122255Y336537D01*
G01X-115913Y329802D01*
G01X-115913Y279754D01*
G01X-124117Y268511D01*
G01X-129302Y255594D01*
G01X-131151Y241799D01*
G01X-129548Y227974D01*
G01X-124593Y214967D01*
G01X-116590Y203580D01*
G01X-118952Y196971D01*
G01X-119753Y190000D01*
G01X-119753Y119753D01*
G01X-190000Y119753D01*
G01X-200447Y117923D01*
G01X-207901Y122278D01*
G01X-216104Y124971D01*
G01X-224688Y125882D01*
G01X-226095Y125882D01*
G01X-232959Y133792D01*
G01X-242080Y138938D01*
G01X-252400Y140722D01*
G01X-306400Y140722D01*
G01X-315962Y139197D01*
G01X-324575Y134772D01*
G01X-397612Y134772D01*
G01X-410497Y133076D01*
G01X-422504Y128103D01*
G01X-432814Y120191D01*
G01X-454303Y98703D01*
G01X-462214Y88392D01*
G01X-467188Y76385D01*
G01X-468884Y63500D01*
G01X-468884Y-113766D01*
G01X-473833Y-127238D01*
G01X-475204Y-141525D01*
G01X-504689Y-141525D01*
G01X-506426Y-140353D01*
G01X-517165Y-136360D01*
G01X-528541Y-135004D01*
G01X-638640Y-135004D01*
G01X-652051Y-136899D01*
G01X-664411Y-142438D01*
G01X-674751Y-151185D01*
G01X-682262Y-162456D01*
G01X-686355Y-175367D01*
G01X-686709Y-188906D01*
G01X-683296Y-202013D01*
G01X-676384Y-213661D01*
G01X-683703Y-219470D01*
G01X-710567Y-246334D01*
G01X-717066Y-254803D01*
G01X-721151Y-264666D01*
G01X-722544Y-275250D01*
G01X-722544Y-410550D01*
G01X-721151Y-421134D01*
G01X-717066Y-430997D01*
G01X-710567Y-439466D01*
G01X-633905Y-516128D01*
G01X-633905Y-705262D01*
G01X-656884Y-682284D01*
G01X-665353Y-675785D01*
G01X-675216Y-671699D01*
G01X-685800Y-670306D01*
G01X-1062067Y-670306D01*
G01X-1062067Y-579354D01*
G01X-1063571Y-569856D01*
G01X-1067936Y-561289D01*
G01X-1074736Y-554489D01*
G01X-1083303Y-550124D01*
G01X-1092801Y-548620D01*
G01X-1167802Y-548620D01*
G01X-1177299Y-550124D01*
G01X-1185867Y-554489D01*
G01X-1192666Y-561289D01*
G01X-1197032Y-569856D01*
G01X-1198536Y-579354D01*
G01X-1198536Y-679353D01*
G01X-1197137Y-688521D01*
G01X-1193067Y-696853D01*
G01X-1186697Y-703593D01*
G01X-1178607Y-708125D01*
G01X-1169533Y-710039D01*
G01X-1165466Y-719374D01*
G01X-1159218Y-727415D01*
G01X-1155367Y-731266D01*
G01X-1219200Y-731266D01*
G01X-1228697Y-732770D01*
G01X-1237265Y-737136D01*
G01X-1244064Y-743935D01*
G01X-1248430Y-752503D01*
G01X-1249934Y-762000D01*
G01X-1249934Y-1000506D01*
G01X-1510946Y-1000506D01*
G01X-1522672Y-992038D01*
G01X-1536172Y-986847D01*
G01X-1550550Y-985278D01*
G01X-1564852Y-987435D01*
G01X-1578129Y-993175D01*
G01X-1589497Y-1002116D01*
G01X-1598204Y-1013666D01*
G01X-1603671Y-1027057D01*
G01X-1605534Y-1041400D01*
G01X-1603671Y-1055743D01*
G01X-1598204Y-1069134D01*
G01X-1589497Y-1080684D01*
G01X-1578129Y-1089625D01*
G01X-1564852Y-1095365D01*
G01X-1550550Y-1097522D01*
G01X-1536172Y-1095953D01*
G01X-1522672Y-1090762D01*
G01X-1510946Y-1082294D01*
G01X-1249934Y-1082294D01*
G01X-1249934Y-1257300D01*
G01X-1248430Y-1266797D01*
G01X-1244064Y-1275365D01*
G01X-1237265Y-1282164D01*
G01X-1228697Y-1286530D01*
G01X-1219200Y-1288034D01*
G01X-1169103Y-1288034D01*
G01X-1170935Y-1291832D01*
G01X-1184906Y-1290066D01*
G01X-1198878Y-1291833D01*
G01X-1211969Y-1297022D01*
G01X-1223358Y-1305306D01*
G01X-1227661Y-1305306D01*
G01X-1380784Y-1152184D01*
G01X-1389253Y-1145685D01*
G01X-1399116Y-1141599D01*
G01X-1409700Y-1140206D01*
G01X-1676400Y-1140206D01*
G01X-1686928Y-1141584D01*
G01X-1696747Y-1145627D01*
G01X-1705193Y-1152061D01*
G01X-1719416Y-1154347D01*
G01X-1732588Y-1160178D01*
G01X-1743842Y-1169168D01*
G01X-1752438Y-1180727D01*
G01X-1757809Y-1194093D01*
G37*
G36*
G01X1807247Y-1303106D02*
G01X1780593Y-1279128D01*
G01X1751637Y-1257986D01*
G01X1720681Y-1239900D01*
G01X1688045Y-1225057D01*
G01X1654069Y-1213613D01*
G01X1619104Y-1205685D01*
G01X1583514Y-1201355D01*
G01X1547668Y-1200670D01*
G01X1511938Y-1203635D01*
G01X1476696Y-1210220D01*
G01X1442306Y-1220358D01*
G01X1409127Y-1233941D01*
G01X1377502Y-1250830D01*
G01X1347759Y-1270850D01*
G01X1320208Y-1293792D01*
G01X1295134Y-1319418D01*
G01X1272797Y-1347462D01*
G01X1253430Y-1377633D01*
G01X1237234Y-1409619D01*
G01X1237234Y-1193800D01*
G01X1235730Y-1184303D01*
G01X1231364Y-1175735D01*
G01X1224565Y-1168936D01*
G01X1215997Y-1164570D01*
G01X1206500Y-1163066D01*
G01X1097534Y-1163066D01*
G01X1097534Y-1039694D01*
G01X1477963Y-1039694D01*
G01X1485900Y-1040737D01*
G01X2142715Y-1040737D01*
G01X2156650Y-1056541D01*
G01X2173120Y-1069683D01*
G01X2191623Y-1079761D01*
G01X2189124Y-1084233D01*
G01X2150921Y-1158174D01*
G01X2110220Y-1230771D01*
G01X2067071Y-1301940D01*
G01X2047026Y-1318499D01*
G01X2024905Y-1332161D01*
G01X2001123Y-1342670D01*
G01X1976127Y-1349827D01*
G01X1950388Y-1353499D01*
G01X1924388Y-1353615D01*
G01X1898616Y-1350175D01*
G01X1873558Y-1343242D01*
G01X1849682Y-1332948D01*
G01X1827439Y-1319485D01*
G01X1807247Y-1303106D01*
G37*
G36*
G01X670560Y-1439433D02*
G01X670560Y-1203960D01*
G01X1196340Y-1203960D01*
G01X1196340Y-1439433D01*
G01X670560Y-1439433D01*
G37*
G54D10*
G01X2170589Y-810260D02*
G01X2170589Y-870242D01*
G03X2123145Y-999843I69310J-98857D01*
G01X1496060Y-999843D01*
G01X1496060Y-810260D01*
G01X2170589Y-810260D01*
G01X2294760Y-332983D02*
G01X2346366Y-332983D01*
G01X2346366Y-418000D01*
G03X2352040Y-435793I30734J0D01*
G01X2352040Y-473732D01*
G01X2312934Y-512839D01*
G01X2245540Y-512839D01*
G01X2245540Y-497929D01*
G01X2291785Y-451684D01*
G03X2294760Y-444500I-7184J7184D01*
G01X2294760Y-332983D01*
G01X2352040Y-99060D02*
G01X2352040Y-310207D01*
G03X2346366Y-328000I25060J-17793D01*
G01X2346366Y-408927D01*
G01X2294760Y-408927D01*
G01X2294760Y-99060D01*
G01X2352040Y-99060D01*
G01X2181860Y15240D02*
G01X2205263Y15240D01*
G03X2239899Y10165I34636J115659D01*
G03X2274535Y15240I0J120734D01*
G01X2352040Y15240D01*
G01X2352040Y-310207D01*
G03X2350466Y-312663I25060J-17793D01*
G01X2294760Y-312663D01*
G01X2294760Y-189100D01*
G03X2291785Y-181916I-10160J0D01*
G01X2267784Y-157916D01*
G03X2260600Y-154940I-7184J-7184D01*
G01X2181860Y-154940D01*
G01X2181860Y15240D01*
G01X2270760Y-160892D02*
G01X2270760Y2540D01*
G01X2428240Y2540D01*
G01X2428240Y-173592D01*
G01X2364342Y-237490D01*
G01X2347358Y-237490D01*
G01X2270760Y-160892D01*
G01X2139734Y860695D02*
G01X2139734Y493014D01*
G01X1483241Y493014D01*
G01X1483241Y533519D01*
G03X1480265Y540704I-10160J0D01*
G01X1395509Y625459D01*
G01X1395509Y916940D01*
G01X2083489Y916940D01*
G01X2139734Y860695D01*
G01X1201393Y879323D02*
G01X1132997Y879323D01*
G01X1132997Y921441D01*
G01X1539240Y921441D01*
G01X1539240Y873760D01*
G01X1219028Y873760D01*
G03X1201393Y879323I-17635J-25171D01*
G01X904240Y1646792D02*
G01X904240Y1143000D01*
G03X907216Y1135816I10160J0D01*
G01X993140Y1049892D01*
G01X993140Y962660D01*
G01X824850Y962660D01*
G01X824850Y1052210D01*
G03X814690Y1062370I-10160J0D01*
G01X626625Y1062370D01*
G01X626625Y1653540D01*
G01X897492Y1653540D01*
G01X904240Y1646792D01*
G01X518160Y1153160D02*
G01X518160Y1653540D01*
G01X891540Y1653540D01*
G01X891540Y1153160D01*
G01X518160Y1153160D01*
G01X268134Y1534700D02*
G03X267797Y1539240I-30734J0D01*
G01X309484Y1539240D01*
G03X350916Y1539240I20716J52172D01*
G01X365037Y1539240D01*
G03X379400Y1535678I14362J27172D01*
G01X433400Y1535678D01*
G03X447763Y1539240I0J30734D01*
G01X586740Y1539240D01*
G01X586740Y1483360D01*
G01X268134Y1483360D01*
G01X268134Y1534700D01*
G01X433400Y1535678D02*
G03X447763Y1539240I0J30734D01*
G01X650240Y1539240D01*
G01X650240Y1419859D01*
G01X342535Y1419859D01*
G03X324899Y1425423I-17636J-25170D01*
G01X268134Y1425423D01*
G01X268134Y1534700D01*
G03X267797Y1539240I-30734J0D01*
G01X309484Y1539240D01*
G03X350916Y1539240I20716J52172D01*
G01X365037Y1539240D01*
G03X379400Y1535678I14362J27172D01*
G01X433400Y1535678D01*
G01X36075Y1591436D02*
G01X36075Y1568477D01*
G03X36075Y1553118I55606J-7680D01*
G01X36075Y1442780D01*
G03X35604Y1432560I55606J-7680D01*
G01X-304337Y1432560D01*
G01X-304337Y1591436D01*
G01X36075Y1591436D01*
G01X-459727Y1419860D02*
G01X-459727Y1616344D01*
G01X-136536Y1616344D01*
G01X-136536Y1419860D01*
G01X-459727Y1419860D01*
G01X-967740Y1432560D02*
G01X-967740Y1590040D01*
G01X-530860Y1590040D01*
G01X-530860Y1432560D01*
G01X-967740Y1432560D01*
G01X1267460Y607060D02*
G01X1267460Y904240D01*
G01X1399540Y904240D01*
G01X1399540Y607060D01*
G01X1267460Y607060D01*
G01X2392934Y-266730D02*
G01X2420904Y-238760D01*
G01X2512916Y-238760D01*
G01X2512916Y-815340D01*
G01X2372360Y-815340D01*
G01X2372360Y-511245D01*
G01X2383932Y-499673D01*
G03X2392934Y-477941I-21732J21732D01*
G01X2392934Y-266730D01*
G01X2211483Y-800100D02*
G03X2207260Y-784552I-30734J0D01*
G01X2207260Y-721360D01*
G01X2504440Y-721360D01*
G01X2504440Y-828040D01*
G01X2211483Y-828040D01*
G01X2211483Y-800100D01*
G01X2245360Y-594360D02*
G01X2269093Y-594360D01*
G03X2268877Y-598001I30518J-3641D01*
G01X2268877Y-688001D01*
G03X2275840Y-707483I30734J0D01*
G01X2275840Y-815340D01*
G01X2245360Y-815340D01*
G01X2245360Y-594360D01*
G01X2021840Y-710075D02*
G01X1800860Y-710075D01*
G01X1800860Y-594360D01*
G01X2021840Y-594360D01*
G01X2021840Y-710075D01*
G01X2022092Y-710075D02*
G01X1888386Y-710075D01*
G01X1888386Y-557046D01*
G01X1896539Y-548894D01*
G01X1905335Y-548894D01*
G03X1917099Y-551235I11764J28393D01*
G01X2007099Y-551235D01*
G03X2022092Y-547329I0J30734D01*
G01X2022092Y-710075D01*
G01X1883116Y-364784D02*
G01X1877060Y-358727D01*
G01X1877060Y-302260D01*
G01X1933077Y-302260D01*
G03X1955800Y-309154I22723J34000D01*
G01X2016621Y-309154D01*
G01X2018155Y-310688D01*
G01X2018155Y-408927D01*
G01X1895094Y-408927D01*
G01X1895094Y-393700D01*
G03X1883116Y-364784I-40894J0D01*
G01X1559411Y-1200492D02*
G01X1559411Y-1040737D01*
G01X2142715Y-1040737D01*
G03X2191623Y-1079761I97184J71638D01*
G03X2189124Y-1084233I31124J-20329D01*
G02X2067071Y-1301940I-2189127J1084227D01*
G02X1807247Y-1303106I-130532J137596D01*
G03X1559411Y-1200492I-248376J-249287D01*
G01X2059940Y1309052D02*
G01X2059940Y1122934D01*
G03X2039366Y1079500I35560J-43434D01*
G03X2059940Y1036066I56134J0D01*
G01X2059940Y963061D01*
G01X1039722Y963061D01*
G01X1039722Y1646992D01*
G01X1211703Y1646992D01*
G03X1800763Y1309578I340689J-88121D01*
G02X2059940Y1309052I129307J-138918D01*
G01X1098189Y949960D02*
G01X1033929Y949960D01*
G03X1034034Y952500I-30629J2540D01*
G01X1034034Y1054100D01*
G03X1026160Y1074643I-30734J0D01*
G01X1026160Y1089926D01*
G03X1023184Y1097110I-10160J0D01*
G01X954721Y1165573D01*
G01X954721Y1653540D01*
G01X1196340Y1653540D01*
G01X1196340Y962335D01*
G01X1122837Y962335D01*
G03X1098189Y949960I0J-30734D01*
G01X78371Y1191260D02*
G03X73660Y1200647I-38603J-13497D01*
G01X73660Y1408528D01*
G03X76969Y1422400I-27425J13872D01*
G01X76969Y1601596D01*
G03X73660Y1615468I-30734J0D01*
G01X73660Y1640840D01*
G01X231140Y1640840D01*
G01X231140Y1569943D01*
G03X223266Y1549400I22860J-20543D01*
G01X223266Y1473200D01*
G03X225017Y1462976I30734J0D01*
G01X225017Y1409699D01*
G03X231140Y1391290I30734J0D01*
G01X231140Y1191260D01*
G01X78371Y1191260D01*
G01X-370840Y1104029D02*
G01X-370840Y1214678D01*
G03X-350266Y1258112I-35560J43434D01*
G03X-370840Y1301546I-56134J0D01*
G01X-370840Y1374140D01*
G01X-134908Y1374140D01*
G01X-134908Y1162516D01*
G03X-146634Y1138365I19008J-24151D01*
G01X-146634Y1104029D01*
G01X-370840Y1104029D01*
G01X1115060Y-716684D02*
G01X1115060Y-505460D01*
G01X1526540Y-505460D01*
G01X1526540Y-716684D01*
G01X1115060Y-716684D01*
G01X-632460Y-1962753D02*
G01X-1196340Y-1962753D01*
G01X-1196340Y-1496060D01*
G01X-632460Y-1496060D01*
G01X-632460Y-1962753D01*
G01X1196340Y-1962753D02*
G01X-1196340Y-1962753D01*
G01X-1196340Y-1605512D01*
G01X1196340Y-1605512D01*
G01X1196340Y-1962753D01*
G01X218440Y-1962753D02*
G01X-345440Y-1962753D01*
G01X-345440Y-1508760D01*
G01X218440Y-1508760D01*
G01X218440Y-1962753D01*
G01X507306Y-1958340D02*
G01X507306Y-1508760D01*
G01X1056640Y-1508760D01*
G01X1056640Y-1958340D01*
G01X507306Y-1958340D01*
G01X-1209040Y-772160D02*
G01X-682673Y-772160D01*
G01X-670560Y-784273D01*
G01X-670560Y-1117203D01*
G03X-703676Y-1168400I23018J-51197D01*
G03X-670560Y-1219597I56134J0D01*
G01X-670560Y-1244600D01*
G03X-660400Y-1254760I10160J0D01*
G01X-384851Y-1254760D01*
G01X-384851Y-1489167D01*
G03X-386334Y-1498600I29251J-9433D01*
G01X-386334Y-1516352D01*
G01X-580039Y-1516352D01*
G01X-580039Y-1458516D01*
G03X-590199Y-1448356I-10160J0D01*
G01X-1031240Y-1448356D01*
G01X-1031240Y-1257300D01*
G03X-1041400Y-1247140I-10160J0D01*
G01X-1209040Y-1247140D01*
G01X-1209040Y-772160D01*
G01X-332740Y-1247140D02*
G01X-332740Y-1067268D01*
G03X-314706Y-977546I-22860J51268D01*
G01X-314706Y-952500D01*
G03X-326684Y-923584I-40894J0D01*
G01X-332740Y-917527D01*
G01X-332740Y-772160D01*
G01X218440Y-772160D01*
G01X218440Y-1244600D01*
G03X228600Y-1254760I10160J0D01*
G01X466049Y-1254760D01*
G01X466049Y-1333381D01*
G03X464566Y-1346200I54651J-12819D01*
G03X466049Y-1359019I56134J0D01*
G01X466049Y-1516352D01*
G01X270861Y-1516352D01*
G01X270861Y-1458516D01*
G03X260701Y-1448356I-10160J0D01*
G01X-180340Y-1448356D01*
G01X-180340Y-1257300D01*
G03X-190500Y-1247140I-10160J0D01*
G01X-332740Y-1247140D01*
G01X670560Y-1257300D02*
G03X660400Y-1247140I-10160J0D01*
G01X518160Y-1247140D01*
G01X518160Y-772160D01*
G01X1056640Y-772160D01*
G01X1056640Y-1422956D01*
G01X670560Y-1422956D01*
G01X670560Y-1257300D01*
G01X-552117Y-1204999D02*
G01X-552117Y-905072D01*
G01X-421894Y-905072D01*
G01X-421894Y-927100D01*
G03X-409916Y-956016I40894J0D01*
G01X-396494Y-969439D01*
G01X-396494Y-977546D01*
G03X-387910Y-1061903I40894J-38454D01*
G01X-387910Y-1204999D01*
G01X-552117Y-1204999D01*
G01X298783Y-1204999D02*
G01X298783Y-905072D01*
G01X462990Y-905072D01*
G01X462990Y-1204999D01*
G01X298783Y-1204999D01*
G01X1102360Y-998800D02*
G01X1102360Y-505460D01*
G01X1526540Y-505460D01*
G01X1526540Y-998800D01*
G01X1102360Y-998800D01*
G01X2125323Y-598001D02*
G03X2117062Y-577035I-30734J0D01*
G01X2117062Y-531072D01*
G01X2170589Y-531072D01*
G01X2170589Y-695652D01*
G03X2166366Y-711200I26511J-15548D01*
G01X2166366Y-838200D01*
G03X2170589Y-853748I30734J0D01*
G01X2170589Y-866140D01*
G01X2117062Y-866140D01*
G01X2117062Y-758926D01*
G03X2123694Y-736600I-34262J22326D01*
G01X2123694Y-697875D01*
G03X2125323Y-688001I-29105J9874D01*
G01X2125323Y-598001D01*
G01X1706436Y-43866D02*
G03X1684241Y-53340I0J-30734D01*
G01X1457272Y-53340D01*
G01X1457272Y193040D01*
G01X2136385Y193040D01*
G03X2310196Y32741I103514J-62141D01*
G01X2415540Y32741D01*
G01X2415540Y-154940D01*
G01X2100859Y-154940D01*
G01X2100859Y-148556D01*
G03X2122871Y-82462I-30759J46956D01*
G03X2063609Y-45843I-52771J-19138D01*
G03X2052765Y-43866I-10844J-28757D01*
G01X1996199Y-43866D01*
G03X1981200Y-47774I0J-30734D01*
G03X1966201Y-43866I-14999J-26826D01*
G01X1909636Y-43866D01*
G03X1887441Y-53340I0J-30734D01*
G01X1871759Y-53340D01*
G03X1849565Y-43866I-22195J-21260D01*
G01X1792999Y-43866D01*
G03X1778000Y-47774I0J-30734D01*
G03X1763001Y-43866I-14999J-26826D01*
G01X1706436Y-43866D01*
G01X1115060Y-679157D02*
G01X1115060Y-584200D01*
G03X1112084Y-577016I-10160J0D01*
G01X982498Y-447429D01*
G01X982498Y-314960D01*
G01X1126092Y-314960D01*
G01X1326316Y-515184D01*
G03X1333500Y-518160I7184J7184D01*
G01X1513840Y-518160D01*
G01X1513840Y-679157D01*
G01X1115060Y-679157D01*
G01X670560Y-712139D02*
G01X670560Y-581660D01*
G01X1027238Y-581660D01*
G01X1027238Y-712139D01*
G01X670560Y-712139D01*
G01X-180340Y-712139D02*
G01X-180340Y-581660D01*
G01X176338Y-581660D01*
G01X176338Y-712139D01*
G01X-180340Y-712139D01*
G01X-695960Y-670306D02*
G01X-1056640Y-670306D01*
G01X-1056640Y-568960D01*
G01X-695960Y-568960D01*
G01X-695960Y-670306D01*
G01X-1757809Y-1194093D02*
G03X-1732215Y-1256383I54341J-14075D01*
G03X-1800769Y-1309584I179822J-302487D01*
G02X-2065338Y-1303755I-129292J138762D01*
G02X-2335276Y-715462I2065336J1303754D01*
G01X-2335276Y716551D01*
G02X-2066550Y1302432I2335275J-716550D01*
G02X-1807246Y1303106I130012J-138088D01*
G03X-1309578Y1800763I248376J249287D01*
G02X-1302736Y2066359I138919J129308D01*
G02X-953947Y2248765I1302735J-2066358D01*
G01X953946Y2248765D01*
G02X1302433Y2066549I-953946J-2248765D01*
G02X1303106Y1807247I-138089J-130011D01*
G03X1800763Y1309578I249287J-248376D01*
G02X2066358Y1302737I129307J-138918D01*
G02X2189264Y1083550I-2066358J-1302737D01*
G03X2222637Y1062916I33236J16450D01*
G01X2399986Y1062916D01*
G02X2512916Y950000I14J-112916D01*
G01X2512916Y-949986D01*
G02X2400000Y-1062915I-112916J-14D01*
G01X2315893Y-1062916D01*
G03X2348125Y-915585I-75994J93817D01*
G03X2211483Y-851757I-108226J-53514D01*
G01X2211483Y-543251D01*
G03X2234602Y-553734I23119J20251D01*
G01X2299603Y-553734D01*
G01X2299882Y-553733D01*
G01X2317142Y-553733D01*
G03X2338874Y-544731I0J30734D01*
G01X2383932Y-499673D01*
G03X2392934Y-477941I-21732J21732D01*
G01X2392934Y-266730D01*
G01X2460132Y-199532D01*
G03X2469134Y-177800I-21732J21732D01*
G01X2469134Y12700D01*
G03X2456434Y37587I-30734J0D01*
G01X2456434Y42901D01*
G03X2425700Y73635I-30734J0D01*
G01X2346188Y73635D01*
G03X2322929Y218550I-106289J57264D01*
G03X2176967Y233934I-83030J-87651D01*
G01X2156226Y233934D01*
G01X2156226Y418809D01*
G03X2180628Y448884I-6332J30075D01*
G01X2180628Y864903D01*
G03X2171626Y886635I-30734J0D01*
G01X2109429Y948832D01*
G03X2087697Y957834I-21732J-21732D01*
G01X1565413Y957834D01*
G03X1549400Y962335I-16013J-26233D01*
G01X1122837Y962335D01*
G03X1092103Y931601I0J-30734D01*
G01X1092103Y863600D01*
G03X1100659Y842322I30734J0D01*
G01X1100659Y813587D01*
G03X1102084Y804341I30734J0D01*
G01X1088898Y804341D01*
G03X1073899Y800432I0J-30734D01*
G03X1058901Y804341I-14999J-26826D01*
G01X1023899Y804341D01*
G03X993165Y773607I0J-30734D01*
G01X993165Y703607D01*
G03X1000506Y683674I30734J0D01*
G01X1000506Y597575D01*
G03X970966Y566865I1194J-30711D01*
G01X970966Y510299D01*
G03X974874Y495300I30734J0D01*
G03X970966Y480301I26826J-14999D01*
G01X970966Y423736D01*
G03X1001700Y393002I30734J0D01*
G01X1055700Y393002D01*
G03X1086335Y421274I0J30734D01*
G03X1092784Y425622I-19535J35926D01*
G01X1092784Y423736D01*
G03X1123518Y393002I30734J0D01*
G01X1177519Y393002D01*
G03X1205648Y411354I0J30734D01*
G03X1230235Y423102I-4330J40664D01*
G01X1260816Y453684D01*
G03X1272794Y482600I-28916J28916D01*
G01X1272794Y566166D01*
G01X1396970Y566166D01*
G01X1442347Y520789D01*
G01X1442347Y491472D01*
G03X1437386Y482600I5453J-8872D01*
G01X1437386Y232354D01*
G03X1416378Y203200I9726J-29154D01*
G01X1416378Y-63500D01*
G03X1447112Y-94234I30734J0D01*
G01X1762265Y-94234D01*
G01X1762265Y-128600D01*
G03X1792999Y-159334I30734J0D01*
G01X1796505Y-159334D01*
G03X1774165Y-188900I8394J-29566D01*
G01X1774165Y-242900D01*
G03X1789005Y-269205I30734J0D01*
G01X1789005Y-274063D01*
G01X1751471Y-311596D01*
G03X1742442Y-325266I28916J-28916D01*
G01X1741387Y-325266D01*
G03X1710653Y-356000I0J-30734D01*
G01X1710653Y-406000D01*
G03X1711892Y-414637I30734J0D01*
G01X1652669Y-414637D01*
G03X1623752Y-426615I0J-40894D01*
G01X1609384Y-440984D01*
G03X1597406Y-469900I28916J-28916D01*
G01X1597406Y-477434D01*
G03X1576945Y-506400I10273J-28966D01*
G01X1576945Y-560400D01*
G03X1607679Y-591134I30734J0D01*
G01X1664245Y-591134D01*
G03X1679244Y-587226I0J30734D01*
G03X1694242Y-591134I14999J26826D01*
G01X1750808Y-591134D01*
G03X1778222Y-574294I0J30734D01*
G01X1854200Y-574294D01*
G03X1883116Y-562316I0J40894D01*
G01X1896539Y-548894D01*
G01X1905335Y-548894D01*
G03X1917099Y-551235I11764J28393D01*
G01X2007099Y-551235D01*
G03X2037833Y-520501I0J30734D01*
G01X2037833Y-495499D01*
G03X2035179Y-483006I-30734J0D01*
G03X2037833Y-470513I-28080J12493D01*
G01X2037833Y-445512D01*
G03X2007099Y-414778I-30734J0D01*
G01X1917099Y-414778D01*
G03X1905335Y-417119I0J-30734D01*
G01X1897352Y-417119D01*
G01X1895094Y-414861D01*
G01X1895094Y-393700D01*
G03X1883116Y-364784I-40894J0D01*
G01X1868748Y-350415D01*
G03X1844820Y-338743I-28916J-28916D01*
G03X1842728Y-336005I-25432J-17257D01*
G01X1858815Y-319918D01*
G03X1870793Y-291001I-28916J28916D01*
G01X1870793Y-269205D01*
G03X1884543Y-251009I-15894J26305D01*
G03X1903571Y-271742I29645J8109D01*
G03X1910272Y-280565I35617J20093D01*
G01X1926884Y-297177D01*
G03X1955800Y-309154I28916J28916D01*
G01X2016621Y-309154D01*
G01X2038854Y-331387D01*
G01X2038854Y-417999D01*
G03X2069588Y-448733I30734J0D01*
G01X2094589Y-448733D01*
G03X2107095Y-446074I0J30734D01*
G03X2119601Y-448733I12506J28075D01*
G01X2144602Y-448733D01*
G03X2175336Y-417999I0J30734D01*
G01X2175336Y-327999D01*
G03X2174354Y-320294I-30734J0D01*
G01X2204860Y-320294D01*
G03X2203878Y-327999I29752J-7705D01*
G01X2203878Y-417999D01*
G03X2234612Y-448733I30734J0D01*
G01X2236903Y-448733D01*
G01X2219276Y-466360D01*
G03X2203868Y-493000I15325J-26640D01*
G01X2203868Y-500661D01*
G03X2180749Y-490178I-23119J-20251D01*
G01X2106902Y-490178D01*
G03X2076168Y-520912I0J-30734D01*
G01X2076168Y-567267D01*
G01X2069588Y-567267D01*
G03X2038854Y-598001I0J-30734D01*
G01X2038854Y-688001D01*
G03X2041906Y-701353I30734J0D01*
G01X2041906Y-710075D01*
G01X1771555Y-710075D01*
G03X1781542Y-687400I-20747J22674D01*
G01X1781542Y-633400D01*
G03X1750808Y-602666I-30734J0D01*
G01X1694242Y-602666D01*
G03X1679244Y-606574I0J-30734D01*
G03X1664245Y-602666I-14999J-26826D01*
G01X1607679Y-602666D01*
G03X1580265Y-619506I0J-30734D01*
G01X1567434Y-619506D01*
G01X1567434Y-495300D01*
G03X1536700Y-464566I-30734J0D01*
G01X1333530Y-464566D01*
G01X1152032Y-283068D01*
G03X1130300Y-274066I-21732J-21732D01*
G01X972338Y-274066D01*
G03X941604Y-304800I0J-30734D01*
G01X941604Y-451638D01*
G03X950606Y-473370I30734J0D01*
G01X1061466Y-584230D01*
G01X1061466Y-731266D01*
G01X651505Y-731266D01*
G03X647453Y-719877I-54605J-13012D01*
G03X665133Y-692053I-13054J27824D01*
G01X665133Y-592054D01*
G03X634399Y-561320I-30734J0D01*
G01X614113Y-561320D01*
G01X683728Y-491704D01*
G03X691440Y-480973I-28916J28916D01*
G03X703196Y-449359I-36628J31614D01*
G01X703196Y-339260D01*
G03X622313Y-303415I-48384J0D01*
G03X557301Y-303427I-32499J-35845D01*
G03X476405Y-339260I-32512J-35833D01*
G01X476405Y-449359D01*
G03X479777Y-467106I48384J0D01*
G01X330200Y-467106D01*
G03X301284Y-479084I0J-40894D01*
G01X228973Y-551394D01*
G03X216995Y-580311I28916J-28916D01*
G01X216995Y-731266D01*
G01X-340106Y-731266D01*
G01X-340106Y-724254D01*
G03X-331684Y-658986I-40894J38454D01*
G03X-391043Y-630572I-49316J-26814D01*
G03X-401290Y-611869I-53457J-17128D01*
G03X-423143Y-498201I-30510J53069D01*
G03X-475949Y-601203I-8657J-60599D01*
G03X-487894Y-683309I31449J-46497D01*
G01X-487894Y-797206D01*
G03X-495350Y-864178I40894J-38454D01*
G01X-521597Y-864178D01*
G01X-521597Y-503230D01*
G01X-390184Y-371816D01*
G03X-378206Y-342900I-28916J28916D01*
G01X-378206Y-279400D01*
G03X-390184Y-250484I-40894J0D01*
G01X-486196Y-154472D01*
G03X-496927Y-146760I-28916J-28916D01*
G03X-528541Y-135004I-31614J-36628D01*
G01X-638640Y-135004D01*
G03X-676384Y-213661I0J-48384D01*
G03X-683703Y-219470I21597J-34726D01*
G01X-710567Y-246334D01*
G03X-722544Y-275250I28916J-28916D01*
G01X-722544Y-410550D01*
G03X-710567Y-439466I40894J0D01*
G01X-633905Y-516128D01*
G01X-633905Y-705262D01*
G01X-656884Y-682284D01*
G03X-685800Y-670306I-28916J-28916D01*
G01X-1062067Y-670306D01*
G01X-1062067Y-579354D01*
G03X-1092801Y-548620I-30734J0D01*
G01X-1167802Y-548620D01*
G03X-1198536Y-579354I0J-30734D01*
G01X-1198536Y-679353D01*
G03X-1169533Y-710039I30734J0D01*
G03X-1159218Y-727415I39232J11540D01*
G01X-1155367Y-731266D01*
G01X-1219200Y-731266D01*
G03X-1249934Y-762000I0J-30734D01*
G01X-1249934Y-1000506D01*
G01X-1510946Y-1000506D01*
G03X-1605534Y-1041400I-38454J-40894D01*
G03X-1510946Y-1082294I56134J0D01*
G01X-1249934Y-1082294D01*
G01X-1249934Y-1257300D01*
G03X-1219200Y-1288034I30734J0D01*
G01X-1169103Y-1288034D01*
G03X-1170935Y-1291832I26701J-15220D01*
G03X-1223358Y-1305306I-13969J-54368D01*
G01X-1227661Y-1305306D01*
G01X-1380784Y-1152184D01*
G03X-1409700Y-1140206I-28916J-28916D01*
G01X-1676400Y-1140206D01*
G03X-1705193Y-1152061I0J-40894D01*
G03X-1757809Y-1194093I1725J-56107D01*
G01X-2202434Y-736600D02*
G03X-2090166Y-736600I56134J0D01*
G03X-2202434Y-736600I-56134J0D01*
G01X-1948273Y-118245D02*
G01X-1818507Y11522D01*
G03X-1769824Y57079I-6517J55754D01*
G01X-1469346Y-243399D01*
G01X-1469346Y-268300D01*
G03X-1454506Y-294605I30734J0D01*
G01X-1454506Y-300035D01*
G03X-1473898Y-328600I11341J-28565D01*
G01X-1473898Y-382600D01*
G03X-1443164Y-413334I30734J0D01*
G01X-1386599Y-413334D01*
G03X-1371600Y-409426I0J30734D01*
G03X-1356601Y-413334I14999J26826D01*
G01X-1300035Y-413334D01*
G03X-1272621Y-396494I0J30734D01*
G01X-1210953Y-396494D01*
G03X-1135376Y-458725I55253J-9906D01*
G03X-1121620Y-361795I-20324J52325D01*
G01X-1113960Y-361795D01*
G03X-1113960Y-265026I0J48384D01*
G01X-1224059Y-265026D01*
G03X-1272426Y-314706I0J-48384D01*
G01X-1272680Y-314706D01*
G03X-1300035Y-297866I-27385J-13846D01*
G01X-1356601Y-297866D01*
G03X-1371600Y-301774I0J-30734D01*
G01X-1372718Y-301179D01*
G01X-1372718Y-294605D01*
G03X-1357878Y-268300I-15894J26305D01*
G01X-1357878Y-214300D01*
G03X-1388612Y-183566I-30734J0D01*
G01X-1413513Y-183566D01*
G01X-1719402Y122323D01*
G03X-1663487Y136729I15947J53821D01*
G03X-1649861Y192839I-39968J39415D01*
G01X-1649861Y698146D01*
G03X-1675239Y790547I-40894J38454D01*
G03X-1745831Y725750I-15517J-53947D01*
G03X-1812094Y704105I-19469J-52650D01*
G03X-1806194Y634646I46794J-31005D01*
G01X-1806194Y254344D01*
G03X-1822667Y225588I38301J-41037D01*
G01X-1877989Y280910D01*
G03X-1906905Y292887I-28916J-28916D01*
G01X-1980846Y292887D01*
G03X-2075434Y251993I-38454J-40894D01*
G03X-1980846Y211099I56134J0D01*
G01X-1923844Y211099D01*
G01X-1880999Y168255D01*
G03X-1937881Y113851I-775J-56129D01*
G01X-2059125Y-7393D01*
G03X-2113530Y-62846I1725J-56107D01*
G03X-2060433Y-119552I56130J-654D01*
G03X-1948273Y-118245I56052J3033D01*
G01X-2019300Y743966D02*
G03X-1978406Y838554I0J56134D01*
G01X-1978406Y1040819D01*
G03X-1900187Y1084568I22606J51381D01*
G03X-1963729Y1147771I-55613J7632D01*
G03X-2036235Y1209218I-55571J7929D01*
G03X-2060194Y1117246I16935J-53518D01*
G01X-2060194Y838554D01*
G03X-2019300Y743966I40894J-38454D01*
G01X-1677240Y-568706D02*
G03X-1744471Y-561404I-38454J-40894D01*
G03X-1769935Y-624053I28777J-48196D01*
G01X-1934315Y-624053D01*
G01X-1963193Y-595175D01*
G03X-2058993Y-557207I-56107J-1725D01*
G03X-2021025Y-653007I39693J-39693D01*
G01X-1980170Y-693863D01*
G03X-1951253Y-705841I28916J28916D01*
G01X-1611002Y-705841D01*
G03X-1525414Y-689623I36202J42901D01*
G03X-1558758Y-609147I-49386J26683D01*
G03X-1592916Y-557507I-56134J-14D01*
G03X-1653808Y-568706I-21977J-51653D01*
G01X-1677240Y-568706D01*
G01X-1872234Y-495300D02*
G03X-1777646Y-536194I56134J0D01*
G01X-1299395Y-536194D01*
G03X-1230391Y-462233I16695J53594D01*
G03X-1331240Y-454406I-52309J-20367D01*
G01X-1777646Y-454406D01*
G03X-1872234Y-495300I-38454J-40894D01*
G01X-1831955Y1092200D02*
G03X-1719687Y1092200I56134J0D01*
G03X-1831955Y1092200I-56134J0D01*
G01X-1563825Y437107D02*
G03X-1601793Y341307I1725J-56107D01*
G03X-1505993Y379275I39693J39693D01*
G01X-1228384Y656884D01*
G03X-1216406Y685800I-28916J28916D01*
G01X-1216406Y774346D01*
G03X-1257300Y868934I-40894J38454D01*
G03X-1298194Y774346I0J-56134D01*
G01X-1298194Y702739D01*
G01X-1563825Y437107D01*
G01X-1559466Y1092200D02*
G03X-1447198Y1092200I56134J0D01*
G03X-1559466Y1092200I-56134J0D01*
G01X-1130654Y1217218D02*
G03X-1036066Y1258112I38454J40894D01*
G03X-1130654Y1299006I-56134J0D01*
G01X-1226426Y1299006D01*
G03X-1321014Y1258112I-38454J-40894D01*
G03X-1226426Y1217218I56134J0D01*
G01X-1130654Y1217218D01*
G01X-899806Y211817D02*
G03X-902179Y292867I-39994J39389D01*
G03X-929011Y368428I-50441J24633D01*
G03X-945540Y438672I-50123J25272D01*
G03X-1017588Y434594I-33594J-44972D01*
G01X-1113901Y434594D01*
G03X-1138606Y442900I-24705J-32588D01*
G01X-1193446Y442900D01*
G03X-1276355Y436281I-38454J-40894D01*
G03X-1261669Y354415I44455J-34275D01*
G03X-1300192Y293156I17069J-53476D01*
G03X-1246325Y244832I55592J7784D01*
G01X-1226426Y224933D01*
G03X-1197510Y212955I28916J28916D01*
G01X-980884Y212955D01*
G03X-899806Y211817I41084J38251D01*
G01X-1224059Y-70005D02*
G03X-1259904Y-150889I0J-48384D01*
G03X-1224059Y-231772I35845J-32499D01*
G01X-1113960Y-231772D01*
G03X-1078115Y-150889I0J48384D01*
G03X-1113960Y-70005I-35845J32499D01*
G01X-1123594Y-70005D01*
G01X-1123594Y-40605D01*
G03X-1112074Y-28194I-15894J26305D01*
G01X-905939Y-28194D01*
G01X-840994Y-93139D01*
G01X-840994Y-101246D01*
G03X-800100Y-195834I40894J-38454D01*
G03X-759206Y-101246I0J56134D01*
G01X-759206Y-76200D01*
G03X-771184Y-47284I-40894J0D01*
G01X-860084Y41616D01*
G03X-889000Y53594I-28916J-28916D01*
G01X-1112074Y53594D01*
G03X-1139488Y70434I-27414J-13894D01*
G01X-1189488Y70434D01*
G03X-1220222Y39700I0J-30734D01*
G01X-1220222Y-14300D01*
G03X-1205382Y-40605I30734J0D01*
G01X-1205382Y-70005D01*
G01X-1224059Y-70005D01*
G01X-957049Y816145D02*
G01X-990797Y816145D01*
G03X-1056249Y824466I-38454J-40894D01*
G03X-1084402Y764794I26999J-49215D01*
G01X-1104546Y764794D01*
G03X-1199134Y723900I-38454J-40894D01*
G03X-1104546Y683006I56134J0D01*
G01X-749654Y683006D01*
G03X-684201Y674685I38454J40894D01*
G03X-656049Y734357I-26999J49215D01*
G01X-597254Y734357D01*
G03X-526644Y729239I38454J40894D01*
G03X-507180Y797306I-32156J46011D01*
G01X-432154Y797306D01*
G03X-337566Y838200I38454J40894D01*
G03X-432154Y879094I-56134J0D01*
G01X-537111Y879094D01*
G01X-588634Y930616D01*
G03X-617550Y942594I-28916J-28916D01*
G01X-863246Y942594D01*
G03X-941221Y941563I-38454J-40894D01*
G03X-942924Y863600I39521J-39863D01*
G03X-957049Y816145I41224J-38100D01*
G01X-96199Y1632330D02*
G03X-126376Y1657238I-30177J-5825D01*
G01X-469887Y1657238D01*
G03X-500621Y1626504I0J-30734D01*
G01X-500621Y1623469D01*
G03X-520700Y1630934I-20079J-23269D01*
G01X-977900Y1630934D01*
G03X-1008634Y1600200I0J-30734D01*
G01X-1008634Y1422400D01*
G03X-977900Y1391666I30734J0D01*
G01X-520700Y1391666D01*
G03X-499194Y1400444I0J30734D01*
G03X-469887Y1378966I29307J9256D01*
G01X-129794Y1378966D01*
G01X-129794Y1165779D01*
G03X-146634Y1138365I13894J-27414D01*
G01X-146634Y1081799D01*
G03X-142726Y1066800I30734J0D01*
G03X-146634Y1051801I26826J-14999D01*
G01X-146634Y995236D01*
G03X-115900Y964502I30734J0D01*
G01X-61900Y964502D01*
G03X-31166Y995236I0J30734D01*
G01X-31166Y1001098D01*
G03X-9184Y1012484I-6934J40302D01*
G01X5185Y1026852D01*
G03X16891Y1051065I-28916J28916D01*
G01X65100Y1051065D01*
G03X95834Y1081799I0J30734D01*
G01X95834Y1138365D01*
G03X80663Y1164867I-30734J0D01*
G01X80663Y1177763D01*
G03X68685Y1206680I-40894J0D01*
G01X54316Y1221048D01*
G03X25400Y1233025I-28916J-28917D01*
G01X-11575Y1233025D01*
G01X-11575Y1328953D01*
G01X42400Y1328953D01*
G03X73134Y1359687I0J30734D01*
G01X73134Y1394689D01*
G03X71426Y1404793I-30734J0D01*
G03X76969Y1422400I-25191J17607D01*
G01X76969Y1601596D01*
G03X46235Y1632330I-30734J0D01*
G01X30820Y1632330D01*
G03X-3948Y1732534I-34769J44070D01*
G03X-38717Y1632330I0J-56134D01*
G01X-96199Y1632330D01*
G01X-853692Y1299006D02*
G03X-948280Y1258112I-38454J-40894D01*
G03X-853692Y1217218I56134J0D01*
G01X-444854Y1217218D01*
G03X-350266Y1258112I38454J40894D01*
G03X-444854Y1299006I-56134J0D01*
G01X-853692Y1299006D01*
G01X-419100Y-195834D02*
G03X-369316Y-113766I0J56134D01*
G01X-369316Y-83972D01*
G01X-324575Y-83972D01*
G03X-306400Y-89922I18175J24784D01*
G01X-252400Y-89922D01*
G03X-221666Y-59188I0J30734D01*
G01X-221666Y-13825D01*
G01X-220734Y-13825D01*
G01X-220734Y-38981D01*
G03X-218695Y-49987I30734J0D01*
G03X-220734Y-60993I28696J-11006D01*
G01X-220734Y-88994D01*
G03X-190000Y-119728I30734J0D01*
G01X-119753Y-119728D01*
G01X-119753Y-190000D01*
G03X-89019Y-220734I30734J0D01*
G01X-61018Y-220734D01*
G03X-50013Y-218695I0J30734D01*
G03X-39007Y-220734I11006J28696D01*
G01X-11006Y-220734D01*
G03X-13Y-218700I0J30734D01*
G03X10980Y-220734I10993J28701D01*
G01X38981Y-220734D01*
G03X49987Y-218695I0J30734D01*
G03X60993Y-220734I11006J28696D01*
G01X88994Y-220734D01*
G03X115814Y-205008I0J30734D01*
G03X165454Y-190894I11186J55008D01*
G01X305247Y-190894D01*
G03X333972Y-210697I28725J10931D01*
G01X387972Y-210697D01*
G03X418706Y-179963I0J30734D01*
G01X418706Y-123397D01*
G03X414798Y-108399I-30734J0D01*
G03X418706Y-93400I-26826J14999D01*
G01X418706Y-36834D01*
G03X401993Y-9484I-30734J0D01*
G01X422616Y11139D01*
G03X429473Y20241I-28916J28916D01*
G03X408739Y117582I-35773J43259D01*
G03X340730Y44919I-15039J-54082D01*
G01X332056Y36244D01*
G03X320078Y7328I28916J-28916D01*
G01X320078Y-9420D01*
G03X303238Y-36834I13894J-27414D01*
G01X303238Y-93400D01*
G03X307146Y-108399I30734J0D01*
G01X306763Y-109106D01*
G01X273180Y-109106D01*
G03X282325Y-58724I-44580J34112D01*
G03X246766Y-21880I-53725J-16269D01*
G03X261736Y57412I-30866J46886D01*
G03X181991Y69741I-45836J-32405D01*
G01X113222Y69741D01*
G01X113222Y82513D01*
G03X112304Y89969I-30734J0D01*
G03X119728Y110000I-23310J20031D01*
G01X119728Y190000D01*
G03X88994Y220734I-30734J0D01*
G01X60993Y220734D01*
G03X30259Y190000I0J-30734D01*
G01X30259Y113247D01*
G01X19728Y113247D01*
G01X19728Y190000D01*
G03X-11006Y220734I-30734J0D01*
G01X-22788Y220734D01*
G03X-34125Y279754I-52231J20566D01*
G01X-34125Y323913D01*
G03X-25400Y327174I-6274J30087D01*
G03X-10401Y323266I14999J26826D01*
G01X46165Y323266D01*
G03X73579Y340106I0J30734D01*
G01X253646Y340106D01*
G03X348234Y381000I38454J40894D01*
G03X253646Y421894I-56134J0D01*
G01X73579Y421894D01*
G03X46165Y438734I-27414J-13894D01*
G01X-10401Y438734D01*
G03X-25400Y434826I0J-30734D01*
G03X-40399Y438734I-14999J-26826D01*
G01X-96964Y438734D01*
G03X-127698Y408000I0J-30734D01*
G01X-127698Y354000D01*
G03X-115913Y329802I30734J0D01*
G01X-115913Y279754D01*
G03X-116590Y203580I40894J-38454D01*
G03X-119753Y190000I27571J-13580D01*
G01X-119753Y119753D01*
G01X-190000Y119753D01*
G03X-200447Y117923I0J-30734D01*
G03X-224688Y125882I-24241J-32935D01*
G01X-226095Y125882D01*
G03X-252400Y140722I-26305J-15894D01*
G01X-306400Y140722D01*
G03X-324575Y134772I0J-30734D01*
G01X-397612Y134772D01*
G03X-432814Y120191I0J-49784D01*
G01X-454303Y98703D01*
G03X-468884Y63500I35203J-35203D01*
G01X-468884Y-113766D01*
G03X-419100Y-195834I49784J-25934D01*
G01X-185767Y-592054D02*
G03X-216501Y-561320I-30734J0D01*
G01X-291502Y-561320D01*
G03X-322236Y-592054I0J-30734D01*
G01X-322236Y-692053D01*
G03X-291502Y-722787I30734J0D01*
G01X-216501Y-722787D01*
G03X-185767Y-692053I0J30734D01*
G01X-185767Y-592054D01*
G01X601624Y907593D02*
G03X588054Y882099I17164J-25495D01*
G01X588054Y828098D01*
G03X601624Y802604I30734J0D01*
G01X601624Y787325D01*
G03X583502Y759297I12611J-28027D01*
G01X583502Y705297D01*
G03X614236Y674563I30734J0D01*
G01X670801Y674563D01*
G03X685800Y678471I0J30734D01*
G03X688188Y677270I14999J26826D01*
G01X688188Y664628D01*
G03X670065Y636600I12611J-28027D01*
G01X670065Y582600D01*
G03X700799Y551866I30734J0D01*
G01X757365Y551866D01*
G03X788099Y582600I0J30734D01*
G01X788099Y636600D01*
G03X769976Y664628I-30734J0D01*
G01X769976Y677270D01*
G03X788099Y705297I-12611J28027D01*
G01X788099Y759297D01*
G03X769976Y787325I-30734J0D01*
G01X769976Y802604D01*
G03X774321Y806146I-17164J25495D01*
G01X778296Y802172D01*
G03X807212Y790194I28916J28916D01*
G01X861474Y790194D01*
G03X881407Y782853I19933J23393D01*
G01X951407Y782853D01*
G03X982141Y813587I0J30734D01*
G01X982141Y848589D01*
G03X978225Y863600I-30734J0D01*
G03X982141Y878611I-26819J15011D01*
G01X982141Y913613D01*
G03X981039Y921766I-30734J0D01*
G01X1003300Y921766D01*
G03X1034034Y952500I0J30734D01*
G01X1034034Y1054100D01*
G03X1025032Y1075832I-30734J0D01*
G01X945134Y1155730D01*
G01X945134Y1651000D01*
G03X936132Y1672732I-30734J0D01*
G01X923432Y1685432D01*
G03X901700Y1694434I-21732J-21732D01*
G01X508000Y1694434D01*
G03X477266Y1663700I0J-30734D01*
G01X477266Y1580134D01*
G01X254000Y1580134D01*
G03X223266Y1549400I0J-30734D01*
G01X223266Y1473200D01*
G03X225017Y1462976I30734J0D01*
G01X225017Y1409699D01*
G03X231666Y1390607I30734J0D01*
G01X231666Y1359687D01*
G03X235567Y1344701I30734J0D01*
G03X231666Y1329715I26833J-14986D01*
G01X231666Y1294714D01*
G03X262400Y1263980I30734J0D01*
G01X324899Y1263980D01*
G03X344832Y1271321I0J30734D01*
G01X348845Y1271321D01*
G03X379400Y1243902I30555J3315D01*
G01X433400Y1243902D01*
G03X464134Y1274636I0J30734D01*
G01X464134Y1331201D01*
G03X460226Y1346200I-30734J0D01*
G03X464134Y1361199I-26826J14999D01*
G01X464134Y1378965D01*
G01X477266Y1378965D01*
G01X477266Y1143000D01*
G03X508000Y1112266I30734J0D01*
G01X585731Y1112266D01*
G01X585731Y1052210D01*
G03X595782Y1029478I30734J0D01*
G03X583502Y1004900I18454J-24577D01*
G01X583502Y950900D01*
G03X601624Y922872I30734J0D01*
G01X601624Y907593D01*
G01X286766Y1676400D02*
G03X399034Y1676400I56134J0D01*
G03X286766Y1676400I-56134J0D01*
G01X521722Y442900D02*
G01X521722Y496900D01*
G03X506882Y523205I-30734J0D01*
G01X506882Y532672D01*
G03X447994Y614174I-49682J26128D01*
G03X418644Y518002I9206J-55374D01*
G03X410254Y496900I22345J-21102D01*
G01X410254Y442900D01*
G03X425094Y416595I30734J0D01*
G01X425094Y398465D01*
G03X405702Y369900I11341J-28565D01*
G01X405702Y315900D01*
G03X436436Y285166I30734J0D01*
G01X483895Y285166D01*
G01X483895Y272019D01*
G03X476405Y246159I40894J-25860D01*
G01X476405Y136060D01*
G03X573174Y136060I48384J0D01*
G01X573174Y246159D01*
G03X565683Y272019I-48384J0D01*
G01X565683Y285166D01*
G01X579565Y285166D01*
G03X610299Y315900I0J30734D01*
G01X610299Y369900D01*
G03X579565Y400634I-30734J0D01*
G01X522999Y400634D01*
G03X508000Y396726I0J-30734D01*
G01X506882Y397321D01*
G01X506882Y416595D01*
G03X521722Y442900I-15894J26305D01*
G01X768195Y136060D02*
G01X768195Y181661D01*
G01X782128Y195594D01*
G03X794106Y224511I-28916J28916D01*
G01X794106Y289512D01*
G03X832896Y343057I-17343J53388D01*
G03X793806Y396384I-56134J-157D01*
G03X778212Y400634I-15595J-26484D01*
G01X728212Y400634D01*
G03X697478Y369900I0J-30734D01*
G01X697478Y315900D01*
G03X707708Y293005I30734J0D01*
G03X687311Y282004I12103J-46846D01*
G03X606428Y246159I-32499J-35845D01*
G01X606428Y136060D01*
G03X687311Y100215I48384J0D01*
G03X768195Y136060I32499J35845D01*
G01X2039366Y1079500D02*
G03X2151634Y1079500I56134J0D01*
G03X2039366Y1079500I-56134J0D01*
G01X2324612Y-718735D02*
G03X2355346Y-688001I0J30734D01*
G01X2355346Y-598001D01*
G03X2324612Y-567267I-30734J0D01*
G01X2299611Y-567267D01*
G03X2268877Y-598001I0J-30734D01*
G01X2268877Y-688001D01*
G03X2299611Y-718735I30734J0D01*
G01X2324612Y-718735D01*
G01X1807247Y-1303106D02*
G03X1237234Y-1409619I-248376J-249287D01*
G01X1237234Y-1193800D01*
G03X1206500Y-1163066I-30734J0D01*
G01X1097534Y-1163066D01*
G01X1097534Y-1039694D01*
G01X1477963Y-1039694D01*
G03X1485900Y-1040737I7937J29691D01*
G01X2142715Y-1040737D01*
G03X2191623Y-1079761I97184J71638D01*
G03X2189124Y-1084233I31124J-20329D01*
G02X2067071Y-1301940I-2189127J1084227D01*
G02X1807247Y-1303106I-130532J137596D01*
G01X670560Y-1439433D02*
G01X670560Y-1203960D01*
G01X1196340Y-1203960D01*
G01X1196340Y-1439433D01*
G01X670560Y-1439433D01*
G04 Copper End*

G04 Pad Start*
G54D11*
G01X-1558869Y1552394D03*
G01X-1552392Y-1558873D03*
G01X1552392Y1558871D03*
G01X1558869Y-1552391D03*
G54D12*
G01X1930400Y1137158D03*
G01X1930400Y818642D03*
G01X1665802Y1137158D03*
G01X1665802Y818642D03*
G54D13*
G01X785303Y1245140D03*
G01X1103819Y1245140D03*
G01X785303Y1528901D03*
G01X1103819Y1528901D03*
G54D14*
G01X-228600Y1509700D03*
G01X-228600Y1309700D03*
G54D15*
G01X-565290Y1524000D03*
G01X-425310Y1524000D03*
G54D16*
G01X2082089Y-643001D03*
G54D17*
G01X2132101Y-605511D03*
G54D16*
G01X2262099Y-643001D03*
G01X2312111Y-643001D03*
G54D18*
G01X2347112Y-372999D03*
G54D16*
G01X2297100Y-372999D03*
G01X2247113Y-372999D03*
G01X2132101Y-372999D03*
G01X2082089Y-372999D03*
G54D20*
G01X1962099Y-458013D03*
G01X1962099Y-508000D03*
G01X1962099Y-558013D03*
G54D21*
G01X2267102Y-508000D03*
G54D22*
G01X1967099Y-643002D03*
G54D23*
G01X1967100Y-373000D03*
G54D24*
G01X2432098Y-532999D03*
G54D25*
G01X2427100Y-373000D03*
G54D26*
G01X2427100Y-643010D03*
G54D27*
G01X-75019Y-150000D03*
G01X-25006Y-150000D03*
G01X24981Y-150000D03*
G01X74994Y-150000D03*
G54D28*
G01X150000Y-74993D03*
G01X150000Y-24981D03*
G01X150000Y25006D03*
G01X150000Y75019D03*
G54D27*
G01X74994Y150000D03*
G01X24981Y150000D03*
G01X-25006Y150000D03*
G01X-75019Y150000D03*
G54D28*
G01X-150000Y75019D03*
G01X-150000Y25006D03*
G01X-150000Y-24981D03*
G01X-150000Y-74993D03*
G54D29*
G01X-13Y13D03*
G54D30*
G01X1166393Y831088D03*
G01X1166393Y896112D03*
G54D31*
G01X1106399Y988593D03*
G01X1041400Y988593D03*
G01X976401Y988593D03*
G54D30*
G01X916407Y896112D03*
G01X916407Y831088D03*
G54D31*
G01X976401Y738607D03*
G01X1041400Y738607D03*
G01X1106399Y738607D03*
G54D32*
G01X152400Y1409700D03*
G54D33*
G01X293649Y1507185D03*
G01X293649Y1442212D03*
G01X293649Y1377188D03*
G01X293649Y1312215D03*
G01X11151Y1312215D03*
G01X11151Y1377188D03*
G01X11151Y1442212D03*
G01X11151Y1507185D03*
G54D34*
G01X1790700Y592900D03*
G01X1790700Y92901D03*
G54D35*
G01X2142388Y-800100D03*
G01X2226412Y-800100D03*
G01X1939188Y-215900D03*
G01X2023212Y-215900D03*
G01X1745875Y-215900D03*
G01X1829899Y-215900D03*
G01X2213712Y-215900D03*
G01X2129688Y-215900D03*
G54D36*
G01X-279400Y84988D03*
G01X-279400Y169012D03*
G01X-279400Y-34188D03*
G01X-279400Y-118212D03*
G01X1333500Y981812D03*
G01X1333500Y897788D03*
G54D35*
G01X643788Y855099D03*
G01X727812Y855099D03*
G54D36*
G01X406400Y1591412D03*
G01X406400Y1507388D03*
G01X1460500Y897788D03*
G01X1460500Y981812D03*
G54D37*
G01X1722525Y-660400D03*
G01X1635962Y-660400D03*
G01X1635962Y-533400D03*
G01X1722525Y-533400D03*
G01X1734718Y-101600D03*
G01X1821282Y-101600D03*
G01X1937918Y-101600D03*
G01X2024482Y-101600D03*
G01X729082Y732297D03*
G01X642518Y732297D03*
G01X642518Y609600D03*
G01X729082Y609600D03*
G01X729082Y977900D03*
G01X642518Y977900D03*
G54D38*
G01X1150518Y452018D03*
G01X1150518Y538582D03*
G01X1028700Y538582D03*
G01X1028700Y452018D03*
G01X38100Y1110082D03*
G01X38100Y1023518D03*
G01X-88900Y1110082D03*
G01X-88900Y1023518D03*
G01X406400Y1302918D03*
G01X406400Y1389482D03*
G54D39*
G01X1239901Y-169100D03*
G01X1239901Y-669099D03*
G54D40*
G01X2239899Y-969099D03*
G01X2239899Y130899D03*
G54D41*
G01X1572412Y-381000D03*
G01X1780388Y-381000D03*
G54D38*
G01X360972Y-151680D03*
G01X360972Y-65117D03*
G54D37*
G01X-68682Y381000D03*
G01X17882Y381000D03*
G54D35*
G01X-1248512Y12700D03*
G01X-1164488Y12700D03*
G01X-1329588Y-241300D03*
G01X-1413612Y-241300D03*
G01X669188Y342900D03*
G01X753212Y342900D03*
G01X550012Y469900D03*
G01X465988Y469900D03*
G54D42*
G01X-1104901Y-1353254D03*
G01X-977901Y-1353254D03*
G01X-850901Y-1353254D03*
G01X-723901Y-1353254D03*
G54D43*
G01X-914401Y-1728254D03*
G54D42*
G01X-1130301Y-629354D03*
G01X-1003301Y-629354D03*
G01X-876301Y-629354D03*
G01X-749301Y-629354D03*
G54D43*
G01X-939801Y-1004354D03*
G54D42*
G01X-254001Y-1353254D03*
G01X-127001Y-1353254D03*
G01X-1Y-1353254D03*
G01X126999Y-1353254D03*
G54D43*
G01X-63501Y-1728254D03*
G54D42*
G01X-254001Y-642054D03*
G01X-127001Y-642054D03*
G01X-1Y-642054D03*
G01X126999Y-642054D03*
G54D43*
G01X-63501Y-1017054D03*
G54D42*
G01X596899Y-1353254D03*
G01X723899Y-1353254D03*
G01X850899Y-1353254D03*
G01X977899Y-1353254D03*
G54D43*
G01X787399Y-1728254D03*
G54D42*
G01X596899Y-642054D03*
G01X723899Y-642054D03*
G01X850899Y-642054D03*
G01X977899Y-642054D03*
G54D43*
G01X787399Y-1017054D03*
G54D37*
G01X464718Y342900D03*
G01X551282Y342900D03*
G54D44*
G01X368300Y-1443279D03*
G01X368300Y-1147521D03*
G54D37*
G01X-1414882Y-355600D03*
G01X-1328318Y-355600D03*
G54D44*
G01X-482600Y-1443279D03*
G01X-482600Y-1147521D03*
G54D45*
G01X-583590Y-313411D03*
G01X-583590Y-248387D03*
G01X-583590Y-183388D03*
G01X-583590Y-118389D03*
G01X-1169010Y-313411D03*
G01X-1169010Y-248387D03*
G01X-1169010Y-183388D03*
G01X-1169010Y-118389D03*
G54D46*
G01X524789Y-394310D03*
G01X589813Y-394310D03*
G01X654812Y-394310D03*
G01X719811Y-394310D03*
G01X524789Y191110D03*
G01X589813Y191110D03*
G01X654812Y191110D03*
G01X719811Y191110D03*
G54D47*
G01X1054100Y97600D03*
G01X1054100Y-402399D03*
G54D48*
G01X1917700Y-889660D03*
G01X1917700Y-1193140D03*
G04 Pad End*

G04 Via Start*
G54D49*
G01X-1766697Y1551703D03*
G01X-1760220Y-1559558D03*
G01X-1706316Y1698860D03*
G01X-1705341Y1404952D03*
G01X-1699834Y-1412401D03*
G01X-1698864Y-1706315D03*
G01X-1559560Y1760222D03*
G01X-1558183Y1344566D03*
G01X-1553083Y-1351045D03*
G01X-1551701Y-1766695D03*
G01X-1412402Y1699836D03*
G01X-1411427Y1405922D03*
G01X-1405925Y-1411426D03*
G01X-1404950Y-1705339D03*
G01X-1351041Y1553085D03*
G01X-1344564Y-1558182D03*
G01X1344564Y1558180D03*
G01X1351041Y-1553081D03*
G01X1404950Y1705337D03*
G01X1405926Y1411429D03*
G01X1411427Y-1405924D03*
G01X1412403Y-1699838D03*
G01X1551701Y1766699D03*
G01X1553083Y1351043D03*
G01X1558178Y-1344563D03*
G01X1559560Y-1760218D03*
G01X1698859Y1706313D03*
G01X1699834Y1412404D03*
G01X1705341Y-1404949D03*
G01X1706316Y-1698862D03*
G01X1760220Y1559562D03*
G01X1766697Y-1551705D03*
G01X-1574800Y-662940D03*
G01X-2019300Y-596900D03*
G01X-1614892Y-609161D03*
G01X-1715694Y-609600D03*
G01X-1282700Y-482600D03*
G01X-1816100Y-495300D03*
G01X546100Y1511300D03*
G01X546100Y1435100D03*
G01X546100Y1358900D03*
G01X546100Y1282700D03*
G01X546100Y1206500D03*
G01X622300Y1511300D03*
G01X622300Y1358900D03*
G01X622300Y1206500D03*
G01X622300Y1435100D03*
G01X622300Y1282700D03*
G01X-75019Y241300D03*
G01X215900Y25006D03*
G01X127000Y-150000D03*
G01X228600Y-74993D03*
G01X-2019300Y800100D03*
G01X-2019300Y1155700D03*
G01X-1181100Y350139D03*
G01X-1231900Y402006D03*
G01X-1244600Y300939D03*
G01X-939800Y251206D03*
G01X-952620Y317500D03*
G01X-979134Y393700D03*
G01X-901700Y825500D03*
G01X-1029251Y775251D03*
G01X-609600Y825500D03*
G01X-558800Y775251D03*
G01X-2019300Y251993D03*
G01X-711200Y723900D03*
G01X-1143000Y723900D03*
G01X-2057400Y-63500D03*
G01X-2004381Y-116519D03*
G01X-1881774Y112126D03*
G01X-1825024Y67276D03*
G01X-1767893Y213307D03*
G01X-1703455Y176145D03*
G01X-1765300Y673100D03*
G01X-1690755Y736600D03*
G01X-1264880Y1258112D03*
G01X-1092200Y1258112D03*
G01X-892146Y1258112D03*
G01X-406400Y1258112D03*
G01X-939800Y1536700D03*
G01X-859367Y1536700D03*
G01X-778933Y1536700D03*
G01X-698500Y1536700D03*
G01X-939800Y1473200D03*
G01X-698500Y1473200D03*
G01X-859367Y1473200D03*
G01X-778933Y1473200D03*
G01X-3948Y1676400D03*
G01X342900Y1676400D03*
G01X-1503332Y1092200D03*
G01X-1775821Y1092200D03*
G01X-1955800Y1092200D03*
G01X-419100Y-139700D03*
G01X-2146300Y-736600D03*
G01X2095500Y1079500D03*
G01X1291699Y800100D03*
G01X1371600Y800100D03*
G01X1291699Y723900D03*
G01X1371600Y723900D03*
G01X1291699Y647003D03*
G01X-2133600Y1028700D03*
G01X-1892300Y1028700D03*
G01X-1722398Y990600D03*
G01X-1447800Y890041D03*
G01X-2065706Y647700D03*
G01X-1878406Y673100D03*
G01X-1613746Y645752D03*
G01X-1511300Y-381000D03*
G01X-2019300Y-863600D03*
G01X-1905000Y-863600D03*
G01X-1587500Y-812394D03*
G01X-279400Y-203200D03*
G01X-279400Y228600D03*
G01X25400Y228600D03*
G01X177800Y152400D03*
G01X1498600Y-381000D03*
G01X1689100Y-215900D03*
G01X2322726Y-736600D03*
G01X2384853Y-736600D03*
G01X2446979Y-736600D03*
G01X2322726Y-800100D03*
G01X2384853Y-800100D03*
G01X2446979Y-800100D03*
G01X2413000Y-279400D03*
G01X2476500Y-279400D03*
G01X2476500Y-342900D03*
G01X2413000Y-457200D03*
G01X2472701Y-457200D03*
G01X1816100Y-635000D03*
G01X1878226Y-635000D03*
G01X1940353Y-635000D03*
G01X1816100Y-698500D03*
G01X1878226Y-698500D03*
G01X1940353Y-698500D03*
G01X1892300Y-342900D03*
G01X1955800Y-342900D03*
G01X2041953Y-1295400D03*
G01X2041953Y-1231900D03*
G01X1979826Y-1231900D03*
G01X1979826Y-1295400D03*
G01X1917700Y-1295400D03*
G01X1917700Y-1231900D03*
G01X1855574Y-1231900D03*
G01X1855574Y-1295400D03*
G01X1793447Y-1231900D03*
G01X642518Y546100D03*
G01X2473063Y978322D03*
G01X330200Y1591412D03*
G01X809803Y1828800D03*
G01X-219875Y1846620D03*
G01X-558800Y-38100D03*
G01X-406400Y168538D03*
G01X-337201Y1200801D03*
G01X-337201Y1143000D03*
G01X-279400Y1143000D03*
G01X-279400Y1200801D03*
G01X-221599Y1143000D03*
G01X-221599Y1200801D03*
G01X-163798Y1143000D03*
G01X-163798Y1200801D03*
G01X91681Y1618599D03*
G01X149482Y1618599D03*
G01X207283Y1618599D03*
G01X91681Y1560798D03*
G01X207283Y1560798D03*
G01X149482Y1560798D03*
G01X149482Y1259700D03*
G01X207283Y1259700D03*
G01X91681Y1201899D03*
G01X207283Y1201899D03*
G01X149482Y1201899D03*
G01X91681Y1259700D03*
G01X149482Y1435100D03*
G01X207283Y1435100D03*
G01X91681Y1377299D03*
G01X207283Y1377299D03*
G01X149482Y1377299D03*
G01X91681Y1435100D03*
G01X38100Y927100D03*
G01X901700Y508000D03*
G01X1397000Y1128786D03*
G01X1459126Y1128786D03*
G01X1521253Y1128786D03*
G01X1905000Y1231900D03*
G01X1905000Y1295400D03*
G01X1967126Y1295400D03*
G01X1967126Y1231900D03*
G01X2029253Y1231900D03*
G01X2029253Y1295400D03*
G01X1776626Y1231900D03*
G01X1838753Y1231900D03*
G01X1200921Y1128786D03*
G01X1263047Y1128786D03*
G01X1325174Y1128786D03*
G01X1200921Y1190912D03*
G01X1459126Y1190912D03*
G01X1397000Y1190912D03*
G01X1325174Y1190912D03*
G01X1263047Y1190912D03*
G01X1200921Y1253039D03*
G01X1263047Y1253039D03*
G01X1200921Y1315165D03*
G01X1200921Y1377292D03*
G01X-1054100Y1028700D03*
G01X-1054100Y952500D03*
G01X-977900Y952500D03*
G01X-977900Y1028700D03*
G01X-977900Y1104900D03*
G01X-774700Y1066800D03*
G01X-774700Y990600D03*
G01X-698500Y990600D03*
G01X-698500Y1066800D03*
G01X-698500Y1143000D03*
G01X-774700Y1143000D03*
G01X-698500Y1346200D03*
G01X-774700Y1346200D03*
G01X-1079500Y1473200D03*
G01X-1079500Y1397000D03*
G01X-1079500Y1549400D03*
G01X-1079500Y1689100D03*
G01X-1079500Y1612900D03*
G01X-1422400Y1003300D03*
G01X-1422400Y1079500D03*
G01X-1841500Y-76200D03*
G01X-1745739Y-76200D03*
G01X-1562100Y88900D03*
G01X-1562100Y167881D03*
G01X-1562100Y249273D03*
G01X-2010748Y-1117600D03*
G01X-2095500Y-1117600D03*
G01X-2095500Y-1046934D03*
G01X-2010748Y-1046934D03*
G01X-2010748Y-976268D03*
G01X-2095500Y-976268D03*
G01X292100Y381000D03*
G54D50*
G01X-1866900Y-406400D03*
G54D51*
G01X-431800Y-558800D03*
G54D49*
G01X393700Y63500D03*
G01X2070100Y-101600D03*
G01X2070100Y863600D03*
G01X-1549400Y-1041400D03*
G01X-1703469Y-1208169D03*
G01X-1184904Y-1346200D03*
G01X520700Y-1346200D03*
G01X508000Y-647700D03*
G01X-254000Y-637388D03*
G01X596900Y-744278D03*
G01X-447000Y-835660D03*
G01X-444500Y-647700D03*
G01X-304800Y-863600D03*
G01X-355600Y-1016000D03*
G01X-381000Y-685800D03*
G01X-1104901Y-1435100D03*
G01X-647542Y-1168400D03*
G01X-1562100Y381000D03*
G01X-1257300Y812800D03*
G01X-901700Y901700D03*
G01X-393700Y838200D03*
G01X457200Y558800D03*
G01X-1329588Y-215900D03*
G01X-800100Y-139700D03*
G01X-1155700Y-406400D03*
G01X776762Y342900D03*
G01X-266700Y-1358900D03*
G01X-877124Y-1926212D03*
G01X-732853Y-1926212D03*
G01X-588583Y-1926212D03*
G01X-444312Y-1926212D03*
G01X-300040Y-1926212D03*
G01X-155769Y-1926212D03*
G01X-11498Y-1926212D03*
G01X132773Y-1926212D03*
G01X277044Y-1926212D03*
G01X421315Y-1926212D03*
G01X565586Y-1926212D03*
G01X709857Y-1926212D03*
G01X854128Y-1926212D03*
G01X998399Y-1926212D03*
G01X-732853Y-1781941D03*
G01X-877124Y-1781941D03*
G01X-588583Y-1781941D03*
G01X-444312Y-1781941D03*
G01X277044Y-1781941D03*
G01X-300040Y-1781941D03*
G01X-155769Y-1781941D03*
G01X-11498Y-1781941D03*
G01X132773Y-1781941D03*
G01X421315Y-1781941D03*
G01X565586Y-1781941D03*
G01X709857Y-1781941D03*
G01X854128Y-1781941D03*
G01X998399Y-1781941D03*
G01X-1384300Y-914400D03*
G01X-1285729Y-914400D03*
G01X-1384300Y-825500D03*
G01X-1285729Y-825500D03*
G01X-727697Y391120D03*
G01X719811Y-279400D03*
G01X-876300Y-257912D03*
G01X-825500Y-330200D03*
G54D51*
G01X-355600Y-369900D03*
G54D49*
G01X952500Y-38100D03*
G01X669188Y406400D03*
G01X596900Y469900D03*
G01X-368300Y-228600D03*
G01X-812800Y2171700D03*
G01X-685800Y2171700D03*
G01X-558800Y2171700D03*
G01X-431800Y2171700D03*
G01X-304800Y2171700D03*
G01X-177800Y2171700D03*
G01X-50800Y2171700D03*
G01X457200Y2171700D03*
G01X584200Y2171700D03*
G01X711200Y2171700D03*
G01X838200Y2171700D03*
G01X-1193800Y2044700D03*
G01X-812800Y2044700D03*
G01X-685800Y2044700D03*
G01X-558800Y2044700D03*
G01X-431800Y2044700D03*
G01X-304800Y2044700D03*
G01X-177800Y2044700D03*
G01X-50800Y2044700D03*
G01X457200Y2044700D03*
G01X584200Y2044700D03*
G01X711200Y2044700D03*
G01X838200Y2044700D03*
G01X1092200Y2044700D03*
G01X1219200Y2044700D03*
G01X-1320800Y1917700D03*
G01X-1193800Y1917700D03*
G01X711200Y1917700D03*
G01X838200Y1917700D03*
G01X1092200Y1917700D03*
G01X1219200Y1917700D03*
G01X-939800Y1790700D03*
G01X965200Y1790700D03*
G01X1092200Y1790700D03*
G01X1219200Y1790700D03*
G01X1092200Y1663700D03*
G01X965200Y1536700D03*
G01X965200Y1409700D03*
G01X-1955800Y1282700D03*
G01X-1828800Y1282700D03*
G01X965200Y1282700D03*
G01X-939800Y1155700D03*
G01X330200Y1155700D03*
G01X-1828800Y1028700D03*
G01X-2209800Y901700D03*
G01X-304800Y901700D03*
G01X-177800Y901700D03*
G01X-50800Y901700D03*
G01X203200Y901700D03*
G01X330200Y901700D03*
G01X457200Y901700D03*
G01X-304800Y774700D03*
G01X-177800Y774700D03*
G01X-50800Y774700D03*
G01X76200Y774700D03*
G01X330200Y774700D03*
G01X457200Y774700D03*
G01X-558800Y647700D03*
G01X-431800Y647700D03*
G01X-304800Y647700D03*
G01X-50800Y647700D03*
G01X76200Y647700D03*
G01X203200Y647700D03*
G01X457200Y647700D03*
G01X584200Y647700D03*
G01X965200Y647700D03*
G01X2235200Y647700D03*
G01X2362200Y647700D03*
G01X2489200Y647700D03*
G01X76200Y520700D03*
G01X203200Y520700D03*
G01X330200Y520700D03*
G01X2235200Y520700D03*
G01X2362200Y520700D03*
G01X2489200Y520700D03*
G01X-1955800Y393700D03*
G01X-431800Y393700D03*
G01X-304800Y393700D03*
G01X1092200Y393700D03*
G01X-177800Y266700D03*
G01X838200Y266700D03*
G01X965200Y266700D03*
G01X330200Y139700D03*
G01X838200Y139700D03*
G01X2489200Y139700D03*
G01X584200Y12700D03*
G01X1346200Y12700D03*
G01X2489200Y12700D03*
G01X457200Y-114300D03*
G01X584200Y-114300D03*
G01X711200Y-114300D03*
G01X1473200Y-114300D03*
G01X1600200Y-114300D03*
G01X2489200Y-114300D03*
G01X-2209800Y-241300D03*
G01X-812800Y-241300D03*
G01X-177800Y-241300D03*
G01X457200Y-241300D03*
G01X584200Y-241300D03*
G01X1092200Y-241300D03*
G01X1473200Y-241300D03*
G01X1600200Y-241300D03*
G01X-2209800Y-368300D03*
G01X330200Y-368300D03*
G01X457200Y-368300D03*
G01X1346200Y-368300D03*
G01X-2209800Y-495300D03*
G01X-2082800Y-495300D03*
G01X-177800Y-495300D03*
G01X-50800Y-495300D03*
G01X711200Y-495300D03*
G01X-2209800Y-622300D03*
G01X-2209800Y-876300D03*
G01X-2082800Y-876300D03*
G01X-1828800Y-876300D03*
G01X2362200Y-876300D03*
G01X2489200Y-876300D03*
G01X-1955800Y-1003300D03*
G01X-1955800Y-1130300D03*
G01X1346200Y-1130300D03*
G01X1473200Y-1130300D03*
G01X1600200Y-1130300D03*
G01X1727200Y-1130300D03*
G01X2108200Y-1130300D03*
G01X-1955800Y-1257300D03*
G01X-1828800Y-1257300D03*
G01X1143000Y-1778000D03*
G04 Via End*

G04 Track Start*
G54D10*
G01X2213712Y-215900D02*
G01X2298700Y-215900D01*
G01X2313069Y-230269D01*
G01X2313069Y-357030D01*
G01X2297100Y-372999D01*
G01X2129688Y-215900D02*
G01X2129688Y-262788D01*
G01X2146300Y-279400D01*
G01X2235200Y-279400D01*
G01X2249569Y-293769D01*
G01X2249569Y-370543D01*
G01X2247113Y-372999D01*
G01X2132101Y-372999D02*
G01X2132101Y-308363D01*
G01X2082089Y-372999D02*
G01X2082089Y-316789D01*
G01X2132101Y-308363D02*
G01X2031425Y-207687D01*
G01X1939188Y-251649D02*
G01X1939188Y-215900D01*
G01X1854200Y-431800D02*
G01X1854200Y-393700D01*
G01X1962099Y-458013D02*
G01X1880413Y-458013D01*
G01X1854200Y-431800D01*
G01X1854200Y-393700D02*
G01X1839831Y-379331D01*
G01X1782056Y-379331D01*
G01X1780388Y-381000D01*
G01X1780388Y-340512D02*
G01X1780388Y-381000D01*
G01X1829899Y-215900D02*
G01X1829899Y-291001D01*
G01X1780388Y-340512D01*
G01X1635962Y-533400D02*
G01X1638300Y-531062D01*
G01X1638300Y-469900D01*
G01X1652669Y-455531D01*
G01X1741569Y-455531D01*
G01X1780388Y-416712D02*
G01X1780388Y-381000D01*
G01X1741569Y-455531D02*
G01X1780388Y-416712D01*
G01X1722525Y-533400D02*
G01X1854200Y-533400D01*
G01X1879600Y-508000D01*
G01X1962099Y-508000D01*
G01X1635962Y-660400D02*
G01X1401001Y-660400D01*
G01X1392301Y-669099D01*
G01X2082089Y-643001D02*
G01X2082800Y-643712D01*
G01X2082800Y-736600D01*
G01X2068431Y-750969D01*
G01X1752600Y-750969D02*
G01X1722525Y-720894D01*
G01X1722525Y-660400D01*
G01X2068431Y-750969D02*
G01X1752600Y-750969D01*
G01X1041400Y738607D02*
G01X1041400Y551282D01*
G01X1028700Y538582D01*
G01X1028700Y452018D02*
G01X1033882Y457200D01*
G01X1066800Y457200D01*
G01X1081169Y471569D01*
G01X1106399Y687299D02*
G01X1106399Y738607D01*
G01X1081169Y471569D02*
G01X1081169Y662069D01*
G01X1106399Y687299D01*
G01X1166393Y831088D02*
G01X1166393Y554457D01*
G01X1150518Y538582D01*
G01X1150518Y452018D02*
G01X1201318Y452018D01*
G01X1173650Y903369D02*
G01X1166393Y896112D01*
G01X727812Y855099D02*
G01X729082Y853829D01*
G01X729082Y732297D01*
G01X729082Y609600D01*
G01X783201Y855099D02*
G01X727812Y855099D01*
G01X916407Y831088D02*
G01X807212Y831088D01*
G01X783201Y855099D01*
G01X642518Y977900D02*
G01X642518Y1214018D01*
G01X673640Y1245140D02*
G01X785303Y1245140D01*
G01X642518Y1214018D02*
G01X673640Y1245140D01*
G01X642518Y977900D02*
G01X642518Y732297D01*
G01X729082Y977900D02*
G01X810870Y896112D01*
G01X916407Y896112D01*
G01X406400Y1507388D02*
G01X406400Y1389482D01*
G01X293649Y1312215D02*
G01X397104Y1312215D01*
G01X406400Y1302918D01*
G01X-88900Y1110082D02*
G01X-88900Y1473200D01*
G01X-54915Y1507185D01*
G01X11151Y1507185D01*
G01X-88900Y1023518D02*
G01X-71018Y1041400D01*
G01X-38100Y1041400D01*
G01X-23731Y1055769D01*
G01X-23731Y1104900D01*
G01X-9363Y1119269D01*
G01X28913Y1119269D01*
G01X38100Y1110082D01*
G01X11151Y1377188D02*
G01X-38100Y1377188D01*
G01X-52469Y1362819D01*
G01X-52469Y1206500D01*
G01X-38100Y1192131D01*
G01X25400Y1192131D01*
G01X39769Y1177763D01*
G01X39769Y1111750D01*
G01X38100Y1110082D01*
G01X-75019Y150000D02*
G01X-75019Y241300D01*
G01X-214719Y75019D02*
G01X-150000Y75019D01*
G01X-279400Y84988D02*
G01X-224688Y84988D01*
G01X-214719Y75019D01*
G01X-279400Y-34188D02*
G01X-279400Y12700D01*
G01X-265031Y27069D01*
G01X-152062Y27069D01*
G01X-150000Y25006D01*
G01X74994Y-150000D02*
G01X127000Y-150000D01*
G01X150000Y-74993D02*
G01X228600Y-74993D01*
G01X-1231900Y402006D02*
G01X-1138606Y402006D01*
G01X-942443Y253849D02*
G01X-939800Y251206D01*
G01X-711200Y723900D02*
G01X-1143000Y723900D01*
G01X-892146Y1258112D02*
G01X-406400Y1258112D01*
G01X-2019300Y800100D02*
G01X-2019300Y1155700D01*
G54D52*
G01X-279400Y-34188D02*
G01X-402488Y-34188D01*
G01X-419100Y-50800D01*
G01X-419100Y-139700D01*
G01X-397612Y84988D02*
G01X-419100Y63500D01*
G01X-279400Y84988D02*
G01X-397612Y84988D01*
G01X-419100Y63500D02*
G01X-419100Y-50800D01*
G54D10*
G01X1212385Y903369D02*
G01X1173650Y903369D01*
G01X1201318Y452018D02*
G01X1231900Y482600D01*
G01X1231900Y883853D01*
G01X1212385Y903369D01*
G01X-279400Y-118212D02*
G01X-279400Y-203200D01*
G01X-279400Y169012D02*
G01X-279400Y228600D01*
G01X24981Y150000D02*
G01X25400Y150419D01*
G01X25400Y228600D01*
G01X150000Y75019D02*
G01X176619Y75019D01*
G01X177800Y76200D01*
G01X177800Y152400D01*
G01X1572412Y-381000D02*
G01X1498600Y-381000D01*
G01X1745875Y-215900D02*
G01X1689100Y-215900D01*
G01X2082089Y-316789D02*
G01X2033560Y-268260D01*
G01X1955800Y-268260D01*
G01X1939188Y-251649D01*
G01X642518Y609600D02*
G01X642518Y546100D01*
G01X406400Y1591412D02*
G01X330200Y1591412D01*
G54D52*
G01X152400Y1409700D02*
G01X152400Y1333500D01*
G01X131115Y1312215D01*
G01X11151Y1312215D01*
G54D10*
G01X38100Y1023518D02*
G01X38100Y927100D01*
G01X976401Y738607D02*
G01X976401Y673100D01*
G01X901700Y598399D01*
G01X901700Y508000D01*
G01X127000Y-150000D02*
G01X359292Y-150000D01*
G01X360972Y-151680D01*
G01X-75019Y241300D02*
G01X-75019Y374663D01*
G01X-68682Y381000D01*
G01X17882Y381000D02*
G01X292100Y381000D01*
G01X-1282700Y-482600D02*
G01X-1295400Y-495300D01*
G01X-1816100Y-495300D01*
G01X-1614892Y-609161D02*
G01X-1615332Y-609600D01*
G01X-1715694Y-609600D01*
G01X-1574800Y-664947D02*
G01X-1951253Y-664947D01*
G01X-2019300Y-596900D01*
G01X150000Y25006D02*
G01X215900Y25006D01*
G01X-1138606Y402006D02*
G01X-1130300Y393700D01*
G01X-979134Y393700D01*
G01X-1244600Y300939D02*
G01X-1197510Y253849D01*
G01X-942443Y253849D01*
G01X-1181100Y350139D02*
G01X-1148461Y317500D01*
G01X-952620Y317500D01*
G01X-1029251Y775251D02*
G01X-558800Y775251D01*
G01X-901700Y825500D02*
G01X-609600Y825500D01*
G01X-1767893Y213307D02*
G01X-1765300Y215900D01*
G01X-1765300Y673100D01*
G01X-1264880Y1258112D02*
G01X-1092200Y1258112D01*
G01X-1703455Y176145D02*
G01X-1690755Y188845D01*
G01X-1690755Y736600D01*
G01X-2004381Y-116519D02*
G01X-1825024Y62838D01*
G01X-1825024Y67276D01*
G01X-2057400Y-63500D02*
G01X-1881774Y112126D01*
G01X1392301Y-669099D02*
G01X1239901Y-669099D01*
G01X360972Y-65117D02*
G01X360972Y7328D01*
G01X312979Y-1443279D02*
G01X368300Y-1443279D01*
G01X368300Y-584200D02*
G01X406400Y-546100D01*
G01X368300Y-584200D02*
G01X368300Y-1147521D01*
G01X1937918Y-101600D02*
G01X1939188Y-102870D01*
G01X1939188Y-215900D01*
G01X1821282Y-101600D02*
G01X1937918Y-101600D01*
G01X2024482Y-101600D02*
G01X2070100Y-101600D01*
G01X-1549400Y-1041400D02*
G01X-951442Y-1041400D01*
G01X-914401Y-1004359D01*
G01X520700Y-1346200D02*
G01X589845Y-1346200D01*
G01X596899Y-1353254D01*
G01X508000Y-647700D02*
G01X591252Y-647700D01*
G01X596899Y-642054D01*
G01X-254000Y-637388D02*
G01X-254000Y-642052D01*
G01X330200Y-508000D02*
G01X257889Y-580311D01*
G01X257889Y-1388189D01*
G01X312979Y-1443279D01*
G01X596900Y-744278D02*
G01X787399Y-934777D01*
G01X787399Y-1017059D01*
G01X-1703469Y-1208169D02*
G01X-1676400Y-1181100D01*
G01X-1409700Y-1181100D01*
G01X-1244600Y-1346200D01*
G01X-1184904Y-1346200D01*
G01X-304800Y-863600D02*
G01X-216960Y-863600D01*
G01X-63501Y-1017059D01*
G01X-355600Y-1016000D02*
G01X-355600Y-952500D01*
G01X-381000Y-927100D01*
G01X-381000Y-685800D01*
G01X-447000Y-835660D02*
G01X-447000Y-650200D01*
G01X-444500Y-647700D01*
G01X-1104901Y-1353254D02*
G01X-1104901Y-1435100D01*
G01X-593011Y-1332868D02*
G01X-482600Y-1443279D01*
G01X-1130301Y-629354D02*
G01X-1130301Y-698499D01*
G01X-1117600Y-711200D01*
G01X-685800Y-711200D01*
G01X-627222Y-769778D01*
G01X-627222Y-1148080D01*
G01X-647542Y-1168400D01*
G01X2024482Y-101600D02*
G01X2024482Y-214630D01*
G01X2023212Y-215900D01*
G01X2031425Y-207687D02*
G01X2024482Y-214630D01*
G01X-562491Y-1126609D02*
G01X-541579Y-1147521D01*
G01X-482600Y-1147521D01*
G01X-562491Y-1126609D02*
G01X-562491Y-486291D01*
G01X-419100Y-342900D01*
G01X-681650Y-410550D02*
G01X-593011Y-499189D01*
G01X-593011Y-1332868D01*
G01X-583590Y-248387D02*
G01X-654787Y-248387D01*
G01X-681650Y-275250D01*
G01X-681650Y-410550D01*
G01X-1413612Y-241300D02*
G01X-1413612Y-354330D01*
G01X-1414882Y-355600D01*
G01X-1413612Y-241300D02*
G01X-1906905Y251993D01*
G01X-2019300Y251993D01*
G01X-1562100Y381000D02*
G01X-1257300Y685800D01*
G01X-1257300Y812800D01*
G01X-554050Y838200D02*
G01X-393700Y838200D01*
G01X457200Y558800D02*
G01X465988Y550012D01*
G01X465988Y469900D01*
G01X465988Y344170D01*
G01X464718Y342900D01*
G01X-1328318Y-355600D02*
G01X-1181100Y-355600D01*
G01X-1166731Y-341231D01*
G01X-1166731Y-315689D01*
G01X-1169010Y-313411D01*
G01X753212Y342900D02*
G01X753212Y224511D01*
G01X719811Y191110D01*
G01X654812Y191110D02*
G01X719811Y191110D01*
G01X551282Y342900D02*
G01X524789Y316408D01*
G01X524789Y191110D01*
G01X-901700Y901700D02*
G01X-617550Y901700D01*
G01X-554050Y838200D01*
G01X719811Y-394310D02*
G01X719811Y-279400D01*
G01X1734718Y-101600D02*
G01X1745875Y-112757D01*
G01X1745875Y-215900D01*
G01X669188Y342900D02*
G01X669188Y406400D01*
G01X550012Y469900D02*
G01X596900Y469900D01*
G01X669188Y342900D02*
G01X631088Y304800D01*
G01X609600Y304800D01*
G01X589813Y285013D01*
G01X589813Y191110D01*
G01X360972Y7328D02*
G01X393700Y40056D01*
G01X393700Y63500D01*
G01X-419100Y-342900D02*
G01X-419100Y-279400D01*
G01X-515112Y-183388D01*
G01X-583590Y-183388D01*
G01X-583590Y-118389D02*
G01X-529311Y-118389D01*
G01X-419100Y-228600D02*
G01X-368300Y-228600D01*
G01X-529311Y-118389D02*
G01X-419100Y-228600D01*
G01X-1248512Y12700D02*
G01X-1320800Y-59588D01*
G01X-1329588Y-215900D02*
G01X-1320800Y-207112D01*
G01X-1320800Y-59588D01*
G01X-1329588Y-241300D02*
G01X-1329588Y-215900D01*
G01X-1169010Y-248387D02*
G01X-1322502Y-248387D01*
G01X-1329588Y-241300D01*
G01X-1169010Y-118389D02*
G01X-1169010Y-183388D01*
G01X-1169010Y-118389D02*
G01X-1164488Y-113868D01*
G01X-1164488Y12700D01*
G01X-889000Y12700D01*
G01X-800100Y-76200D02*
G01X-800100Y-139700D01*
G01X-889000Y12700D02*
G01X-800100Y-76200D01*
G01X654812Y-394310D02*
G01X654812Y-462788D01*
G01X571500Y-546100D01*
G01X406400Y-546100D01*
G01X589813Y-394310D02*
G01X589813Y-464287D01*
G01X546100Y-508000D01*
G01X330200Y-508000D01*
G04 Track End*

M02*

