G04 Layer: BottomLayer*
G04 EasyEDA Pro v3.2.69, 2026-02-24 21:35:43*
G04 Gerber Generator version 0.3*
G04 Scale: 100 percent, Rotated: No, Reflected: No*
G04 Dimensions in millimeters*
G04 Leading zeros omitted, absolute positions, 4 integers and 5 decimals*
G04 Generated by one-click*
%FSLAX45Y45*%
%MOMM*%
%AMPolygonMacro1*4,1,8,0.45,-0.3375,-0.45,-0.3375,-0.45,0.3375,-0.15,0.3375,-0.15,0.21251,0.15,0.21251,0.15,0.3375,0.45,0.3375,0.45,-0.3375,0*%
%AMPolygonMacro2*4,1,8,0.14987,-0.33752,0.14987,-0.2125,-0.14987,-0.2125,-0.14987,-0.33752,-0.4499,-0.33752,-0.4499,0.33752,0.4499,0.33752,0.4499,-0.33752,0.14987,-0.33752,0*%
%AMPolygonMacro3*4,1,8,0.15016,-0.33748,0.15016,-0.21246,-0.14986,-0.21246,-0.14986,-0.33748,-0.45001,-0.33748,-0.45001,0.33748,0.45001,0.33748,0.45001,-0.33748,0.15016,-0.33748,0*%
%ADD10C,0.2032*%
%ADD11C,5.5*%
%ADD12R,1.48501X1.72799*%
%ADD13R,0.86401X0.8*%
%ADD14R,0.8X0.8*%
%ADD15R,2.65001X3.65001*%
%ADD16R,0.28001X0.665*%
%ADD17R,0.665X0.28001*%
%ADD18R,0.57501X0.67501*%
%ADD19C,0.8430*%
%ADD20PolygonMacro1*%
%ADD21PolygonMacro2*%
%ADD22PolygonMacro3*%
%ADD23O,0.58801X2.045*%
%ADD24O,1.8X0.28001*%
%ADD25O,0.28001X1.8*%
%ADD26R,1.15001X1.4*%
%ADD27R,1.7X0.6*%
%ADD28R,2.79999X1.0*%
%ADD29R,1.0X2.79999*%
%ADD30R,0.6X1.7*%
%ADD31R,0.54X0.5*%
%ADD32R,0.5X0.54*%
%ADD33R,0.54X0.56566*%
%ADD34R,0.56566X0.54*%
%ADD35C,2.49999*%
%ADD36C,1.8*%
%ADD37R,0.5X0.78001*%
%ADD38C,1.6*%
%ADD39R,2.69999X1.635*%
%ADD40R,1.35001X1.41*%
%ADD41C,0.508*%
%ADD42C,0.4064*%
%ADD43C,0.6096*%
%ADD44C,0.254*%
%ADD45C,0.381*%
G75*


G04 Copper Start*
G36*
G01X707832Y447115D02*
G01X695960Y455739D01*
G01X695960Y528924D01*
G01X697975Y537407D01*
G01X698652Y546100D01*
G01X697975Y554793D01*
G01X695960Y563276D01*
G01X695960Y770730D01*
G01X904240Y770730D01*
G01X904240Y564077D01*
G01X891341Y563170D01*
G01X878992Y559336D01*
G01X867848Y552778D01*
G01X858500Y543844D01*
G01X851444Y533008D01*
G01X847055Y520845D01*
G01X845566Y508000D01*
G01X847055Y495155D01*
G01X851444Y482992D01*
G01X858500Y472156D01*
G01X867848Y463222D01*
G01X878992Y456664D01*
G01X891341Y452830D01*
G01X904240Y451923D01*
G01X904240Y447115D01*
G01X707832Y447115D01*
G37*
G36*
G01X957834Y508000D02*
G01X956416Y520538D01*
G01X952233Y532442D01*
G01X952233Y593084D01*
G01X966581Y591583D01*
G01X980837Y593788D01*
G01X994060Y599553D01*
G01X1005378Y608498D01*
G01X1014042Y620033D01*
G01X1019480Y633394D01*
G01X1021334Y647700D01*
G01X1019480Y662006D01*
G01X1014042Y675367D01*
G01X1005378Y686902D01*
G01X994060Y695847D01*
G01X980837Y701612D01*
G01X966581Y703817D01*
G01X952233Y702316D01*
G01X952233Y780098D01*
G01X1173300Y780098D01*
G01X1173300Y462239D01*
G01X952233Y462239D01*
G01X952233Y483558D01*
G01X956416Y495462D01*
G01X957834Y508000D01*
G37*
G36*
G01X703837Y1127449D02*
G01X703941Y1124915D01*
G01X520264Y1124915D01*
G01X520264Y1563699D01*
G01X901949Y1563699D01*
G01X901949Y1124915D01*
G01X822700Y1124915D01*
G01X822805Y1127449D01*
G01X822805Y1194949D01*
G01X821301Y1204447D01*
G01X816935Y1213014D01*
G01X810136Y1219814D01*
G01X801568Y1224179D01*
G01X792071Y1225683D01*
G01X734571Y1225683D01*
G01X725073Y1224179D01*
G01X716506Y1219814D01*
G01X709706Y1213014D01*
G01X705341Y1204447D01*
G01X703837Y1194949D01*
G01X703837Y1127449D01*
G37*
G36*
G01X1712831Y1118845D02*
G01X954721Y1118845D01*
G01X954721Y1646118D01*
G01X1211479Y1646118D01*
G01X1204253Y1610187D01*
G01X1200804Y1573700D01*
G01X1201168Y1537052D01*
G01X1205343Y1500640D01*
G01X1213281Y1464860D01*
G01X1224898Y1430100D01*
G01X1240067Y1396737D01*
G01X1258624Y1365132D01*
G01X1280367Y1335629D01*
G01X1305061Y1308547D01*
G01X1332438Y1284181D01*
G01X1362201Y1262794D01*
G01X1394026Y1244618D01*
G01X1427570Y1229851D01*
G01X1462467Y1218653D01*
G01X1498339Y1211145D01*
G01X1534798Y1207409D01*
G01X1571448Y1207486D01*
G01X1607891Y1211373D01*
G01X1643732Y1219030D01*
G01X1678583Y1230373D01*
G01X1712064Y1245279D01*
G01X1743814Y1263587D01*
G01X1773488Y1285098D01*
G01X1800763Y1309578D01*
G01X1821345Y1326215D01*
G01X1844042Y1339828D01*
G01X1868412Y1350150D01*
G01X1893981Y1356983D01*
G01X1920251Y1360191D01*
G01X1946713Y1359714D01*
G01X1972851Y1355561D01*
G01X1998157Y1347812D01*
G01X2022139Y1336618D01*
G01X2044330Y1322196D01*
G01X2064300Y1304828D01*
G01X2064300Y1126165D01*
G01X2053578Y1116830D01*
G01X1725510Y1116830D01*
G01X1712831Y1118845D01*
G37*
G36*
G01X-907422Y-1958340D02*
G01X-907422Y-1699260D01*
G01X1196340Y-1699260D01*
G01X1196340Y-1958340D01*
G01X-907422Y-1958340D01*
G37*
G36*
G01X835660Y-1945640D02*
G01X835660Y-505460D01*
G01X1196340Y-505460D01*
G01X1196340Y-1945640D01*
G01X835660Y-1945640D01*
G37*
G36*
G01X937260Y-835672D02*
G01X937260Y-505460D01*
G01X1424940Y-505460D01*
G01X1424940Y-835672D01*
G01X937260Y-835672D01*
G37*
G36*
G01X-2335276Y-715462D02*
G01X-2335276Y-83047D01*
G01X-2325761Y-87230D01*
G01X-2315499Y-88879D01*
G01X-2316354Y-100718D01*
G01X-2314066Y-112364D01*
G01X-2308795Y-122999D01*
G01X-2314128Y-133820D01*
G01X-2316376Y-145673D01*
G01X-2315375Y-157695D01*
G01X-2311198Y-169012D01*
G01X-2304149Y-178802D01*
G01X-2294740Y-186352D01*
G01X-2283656Y-191114D01*
G01X-2271702Y-192740D01*
G01X-2119704Y-192740D01*
G01X-2109186Y-191486D01*
G01X-2110440Y-202004D01*
G01X-2110440Y-354002D01*
G01X-2108495Y-367052D01*
G01X-2102827Y-378966D01*
G01X-2093930Y-388709D01*
G01X-2082579Y-395433D01*
G01X-2069759Y-398553D01*
G01X-2056587Y-397798D01*
G01X-2056587Y-554939D01*
G01X-2065993Y-565742D01*
G01X-2072358Y-578574D01*
G01X-2075269Y-592598D01*
G01X-2074536Y-606903D01*
G01X-2070206Y-620557D01*
G01X-2062561Y-632670D01*
G01X-2052100Y-642454D01*
G01X-2039503Y-649272D01*
G01X-2052631Y-662400D01*
G01X-2059212Y-670847D01*
G01X-2063526Y-680647D01*
G01X-2067094Y-682904D01*
G01X-2129935Y-682904D01*
G01X-2143910Y-680517D01*
G01X-2158036Y-681707D01*
G01X-2171415Y-686398D01*
G01X-2183191Y-694291D01*
G01X-2192614Y-704883D01*
G01X-2199084Y-717497D01*
G01X-2202186Y-731331D01*
G01X-2201724Y-745500D01*
G01X-2197727Y-759102D01*
G01X-2190449Y-771268D01*
G01X-2180356Y-781223D01*
G01X-2168090Y-788332D01*
G01X-2154434Y-792141D01*
G01X-2140260Y-792408D01*
G01X-2126471Y-789115D01*
G01X-2113947Y-782472D01*
G01X-2067094Y-782472D01*
G01X-2058481Y-786897D01*
G01X-2048919Y-788422D01*
G01X-1994919Y-788422D01*
G01X-1985421Y-786918D01*
G01X-1976854Y-782553D01*
G01X-1970054Y-775753D01*
G01X-1965689Y-767186D01*
G01X-1964185Y-757688D01*
G01X-1964185Y-707688D01*
G01X-1965660Y-698279D01*
G01X-1956458Y-689076D01*
G01X-1961123Y-697867D01*
G01X-1962734Y-707688D01*
G01X-1962734Y-757688D01*
G01X-1961230Y-767186D01*
G01X-1956865Y-775753D01*
G01X-1950065Y-782553D01*
G01X-1941498Y-786918D01*
G01X-1932000Y-788422D01*
G01X-1878000Y-788422D01*
G01X-1868502Y-786918D01*
G01X-1859935Y-782553D01*
G01X-1853135Y-775753D01*
G01X-1848770Y-767186D01*
G01X-1847266Y-757688D01*
G01X-1847266Y-707688D01*
G01X-1848980Y-697568D01*
G01X-1853931Y-688577D01*
G01X-1861566Y-681717D01*
G01X-1861566Y-673100D01*
G01X-1862800Y-662818D01*
G01X-1866434Y-653121D01*
G01X-1872259Y-644559D01*
G01X-1872259Y-364710D01*
G01X-1870959Y-354002D01*
G01X-1870959Y-202004D01*
G01X-1872224Y-191440D01*
G01X-1859163Y-191440D01*
G01X-1860428Y-202004D01*
G01X-1860428Y-354002D01*
G01X-1859561Y-362767D01*
G01X-1856994Y-371191D01*
G01X-1856994Y-384220D01*
G01X-1855840Y-393866D01*
G01X-1855840Y-418934D01*
G01X-1856994Y-428580D01*
G01X-1856994Y-456846D01*
G01X-1865244Y-468173D01*
G01X-1870432Y-481190D01*
G01X-1872234Y-495087D01*
G01X-1870537Y-508996D01*
G01X-1865449Y-522053D01*
G01X-1857285Y-533442D01*
G01X-1846555Y-542454D01*
G01X-1833927Y-548528D01*
G01X-1820188Y-551285D01*
G01X-1806194Y-550553D01*
G01X-1806194Y-736600D01*
G01X-1804801Y-747184D01*
G01X-1800715Y-757047D01*
G01X-1794216Y-765516D01*
G01X-1768816Y-790916D01*
G01X-1760347Y-797415D01*
G01X-1750484Y-801501D01*
G01X-1739900Y-802894D01*
G01X-1547693Y-802894D01*
G01X-1540182Y-806060D01*
G01X-1532104Y-807141D01*
G01X-1465604Y-807141D01*
G01X-1456107Y-805637D01*
G01X-1447539Y-801271D01*
G01X-1440740Y-794472D01*
G01X-1436374Y-785904D01*
G01X-1434870Y-776407D01*
G01X-1434870Y-748406D01*
G01X-1435384Y-742809D01*
G01X-1436908Y-737400D01*
G01X-1435384Y-731991D01*
G01X-1434870Y-726394D01*
G01X-1434870Y-698393D01*
G01X-1435383Y-692804D01*
G01X-1436903Y-687400D01*
G01X-1435383Y-681997D01*
G01X-1434870Y-676407D01*
G01X-1434870Y-648406D01*
G01X-1435384Y-642810D01*
G01X-1436908Y-637400D01*
G01X-1435384Y-631991D01*
G01X-1434870Y-626394D01*
G01X-1434870Y-610643D01*
G01X-1419093Y-610643D01*
G01X-1413503Y-610130D01*
G01X-1408100Y-608609D01*
G01X-1402696Y-610130D01*
G01X-1397107Y-610643D01*
G01X-1369106Y-610643D01*
G01X-1363509Y-610129D01*
G01X-1358100Y-608605D01*
G01X-1352691Y-610129D01*
G01X-1347094Y-610643D01*
G01X-1319093Y-610643D01*
G01X-1313503Y-610130D01*
G01X-1308100Y-608609D01*
G01X-1302697Y-610130D01*
G01X-1297107Y-610643D01*
G01X-1269106Y-610643D01*
G01X-1263509Y-610129D01*
G01X-1258100Y-608605D01*
G01X-1252691Y-610129D01*
G01X-1247094Y-610643D01*
G01X-1219093Y-610643D01*
G01X-1213504Y-610130D01*
G01X-1208100Y-608609D01*
G01X-1202697Y-610130D01*
G01X-1197107Y-610643D01*
G01X-1169106Y-610643D01*
G01X-1159151Y-608986D01*
G01X-1150269Y-604194D01*
G01X-1143419Y-596783D01*
G01X-1139338Y-587553D01*
G01X-978459Y-587553D01*
G01X-975477Y-587444D01*
G01X-1053362Y-665329D01*
G01X-1053362Y-648406D01*
G01X-1054866Y-638909D01*
G01X-1059232Y-630341D01*
G01X-1066031Y-623542D01*
G01X-1074599Y-619176D01*
G01X-1084096Y-617672D01*
G01X-1150596Y-617672D01*
G01X-1160093Y-619176D01*
G01X-1168661Y-623542D01*
G01X-1175460Y-630341D01*
G01X-1179826Y-638909D01*
G01X-1181330Y-648406D01*
G01X-1181330Y-676407D01*
G01X-1180817Y-681997D01*
G01X-1179297Y-687400D01*
G01X-1180817Y-692804D01*
G01X-1181330Y-698393D01*
G01X-1181330Y-726394D01*
G01X-1180816Y-731991D01*
G01X-1179292Y-737400D01*
G01X-1180816Y-742809D01*
G01X-1181330Y-748406D01*
G01X-1181330Y-776407D01*
G01X-1180817Y-781997D01*
G01X-1179297Y-787400D01*
G01X-1180817Y-792803D01*
G01X-1181330Y-798393D01*
G01X-1181330Y-826394D01*
G01X-1180816Y-831991D01*
G01X-1179292Y-837400D01*
G01X-1180816Y-842809D01*
G01X-1181330Y-848406D01*
G01X-1181330Y-876407D01*
G01X-1180817Y-881996D01*
G01X-1179297Y-887400D01*
G01X-1180817Y-892803D01*
G01X-1181330Y-898393D01*
G01X-1181330Y-926394D01*
G01X-1180816Y-931990D01*
G01X-1179292Y-937400D01*
G01X-1180816Y-942809D01*
G01X-1181330Y-948406D01*
G01X-1181330Y-964157D01*
G01X-1197107Y-964157D01*
G01X-1202697Y-964670D01*
G01X-1208100Y-966191D01*
G01X-1213504Y-964670D01*
G01X-1219093Y-964157D01*
G01X-1247094Y-964157D01*
G01X-1252691Y-964671D01*
G01X-1258100Y-966195D01*
G01X-1263509Y-964671D01*
G01X-1269106Y-964157D01*
G01X-1297107Y-964157D01*
G01X-1302697Y-964670D01*
G01X-1308100Y-966191D01*
G01X-1313503Y-964670D01*
G01X-1319093Y-964157D01*
G01X-1347094Y-964157D01*
G01X-1352691Y-964671D01*
G01X-1358100Y-966195D01*
G01X-1363509Y-964671D01*
G01X-1369106Y-964157D01*
G01X-1397107Y-964157D01*
G01X-1402696Y-964670D01*
G01X-1408100Y-966191D01*
G01X-1413503Y-964670D01*
G01X-1419093Y-964157D01*
G01X-1434870Y-964157D01*
G01X-1434870Y-948406D01*
G01X-1435384Y-942809D01*
G01X-1436908Y-937400D01*
G01X-1435384Y-931990D01*
G01X-1434870Y-926394D01*
G01X-1434870Y-898393D01*
G01X-1435383Y-892803D01*
G01X-1436903Y-887400D01*
G01X-1435383Y-881996D01*
G01X-1434870Y-876407D01*
G01X-1434870Y-848406D01*
G01X-1436374Y-838908D01*
G01X-1440740Y-830341D01*
G01X-1447539Y-823541D01*
G01X-1456107Y-819176D01*
G01X-1465604Y-817672D01*
G01X-1532104Y-817672D01*
G01X-1539786Y-818647D01*
G01X-1546981Y-821512D01*
G01X-1743768Y-821512D01*
G01X-1754352Y-822906D01*
G01X-1764215Y-826991D01*
G01X-1772684Y-833490D01*
G01X-1839105Y-899910D01*
G01X-1845604Y-908380D01*
G01X-1849689Y-918243D01*
G01X-1851082Y-928827D01*
G01X-1851082Y-1153973D01*
G01X-1849689Y-1164557D01*
G01X-1845604Y-1174420D01*
G01X-1839105Y-1182890D01*
G01X-1784910Y-1237085D01*
G01X-1776440Y-1243584D01*
G01X-1766577Y-1247669D01*
G01X-1755993Y-1249063D01*
G01X-1741922Y-1249063D01*
G01X-1732215Y-1256383D01*
G01X-1756503Y-1272212D01*
G01X-1779406Y-1289985D01*
G01X-1800769Y-1309584D01*
G01X-1821457Y-1326310D01*
G01X-1844281Y-1339976D01*
G01X-1868794Y-1350315D01*
G01X-1894512Y-1357121D01*
G01X-1920929Y-1360263D01*
G01X-1947526Y-1359677D01*
G01X-1973779Y-1355375D01*
G01X-1999173Y-1347442D01*
G01X-2023206Y-1336034D01*
G01X-2045407Y-1321376D01*
G01X-2065338Y-1303755D01*
G01X-2113342Y-1224413D01*
G01X-2158299Y-1143305D01*
G01X-2200144Y-1060549D01*
G01X-2238818Y-976265D01*
G01X-2274265Y-890572D01*
G01X-2306433Y-803597D01*
G01X-2335276Y-715462D01*
G01X-2335276Y-715462D01*
G37*
G36*
G01X-2191334Y876399D02*
G01X-2328053Y739680D01*
G01X-2299602Y823887D01*
G01X-2268105Y907004D01*
G01X-2233606Y988920D01*
G01X-2196149Y1069526D01*
G01X-2155785Y1148717D01*
G01X-2112566Y1226386D01*
G01X-2066550Y1302432D01*
G01X-2066550Y1302432D01*
G01X-2046496Y1318878D01*
G01X-2024386Y1332434D01*
G01X-2000633Y1342847D01*
G01X-1975681Y1349922D01*
G01X-1949998Y1353527D01*
G01X-1924063Y1353594D01*
G01X-1898361Y1350123D01*
G01X-1873373Y1343178D01*
G01X-1849566Y1332888D01*
G01X-1827386Y1319448D01*
G01X-1807246Y1303106D01*
G01X-1785252Y1282975D01*
G01X-1761631Y1264778D01*
G01X-1736556Y1248646D01*
G01X-1710204Y1234694D01*
G01X-1981200Y1234694D01*
G01X-1991784Y1233301D01*
G01X-2001647Y1229215D01*
G01X-2010116Y1222716D01*
G01X-2021025Y1211807D01*
G01X-2033998Y1209876D01*
G01X-2046168Y1204986D01*
G01X-2056872Y1197406D01*
G01X-2065524Y1187549D01*
G01X-2071653Y1175953D01*
G01X-2074924Y1163252D01*
G01X-2075158Y1150138D01*
G01X-2072342Y1137328D01*
G01X-2066631Y1125521D01*
G01X-2058336Y1115362D01*
G01X-2047910Y1107404D01*
G01X-2035922Y1102084D01*
G01X-2048703Y1089303D01*
G01X-2056615Y1078992D01*
G01X-2061588Y1066985D01*
G01X-2063285Y1054100D01*
G01X-2063285Y1031288D01*
G01X-2067611Y1025139D01*
G01X-2070315Y1018123D01*
G01X-2071235Y1010661D01*
G01X-2071235Y954095D01*
G01X-2070242Y946345D01*
G01X-2067327Y939096D01*
G01X-2070465Y930935D01*
G01X-2080295Y930935D01*
G01X-2087159Y938845D01*
G01X-2096280Y943991D01*
G01X-2106600Y945775D01*
G01X-2160600Y945775D01*
G01X-2170098Y944271D01*
G01X-2178665Y939906D01*
G01X-2185465Y933106D01*
G01X-2189830Y924539D01*
G01X-2191334Y915041D01*
G01X-2191334Y876399D01*
G37*
G36*
G01X-1329192Y1152906D02*
G01X-1318608Y1154299D01*
G01X-1308745Y1158385D01*
G01X-1300276Y1164884D01*
G01X-1263155Y1202005D01*
G01X-1248331Y1204473D01*
G01X-1234694Y1210785D01*
G01X-1234694Y1071039D01*
G01X-1439339Y866394D01*
G01X-1565950Y866394D01*
G01X-1564026Y877098D01*
G01X-1564026Y957097D01*
G01X-1565760Y967276D01*
G01X-1570768Y976306D01*
G01X-1578484Y983168D01*
G01X-1588037Y987087D01*
G01X-1578484Y991006D01*
G01X-1570768Y997868D01*
G01X-1570105Y999065D01*
G01X-1560319Y999065D01*
G01X-1560319Y949065D01*
G01X-1558815Y939567D01*
G01X-1554450Y931000D01*
G01X-1547650Y924200D01*
G01X-1539083Y919835D01*
G01X-1529585Y918331D01*
G01X-1475585Y918331D01*
G01X-1466088Y919835D01*
G01X-1457520Y924200D01*
G01X-1450721Y931000D01*
G01X-1446355Y939567D01*
G01X-1444851Y949065D01*
G01X-1444851Y999065D01*
G01X-1445861Y1006879D01*
G01X-1448825Y1014180D01*
G01X-1453548Y1020487D01*
G01X-1453548Y1066266D01*
G01X-1448598Y1079738D01*
G01X-1447227Y1094025D01*
G01X-1449524Y1108192D01*
G01X-1455338Y1121314D01*
G01X-1464289Y1132533D01*
G01X-1475793Y1141115D01*
G01X-1489097Y1146499D01*
G01X-1503332Y1148334D01*
G01X-1517566Y1146499D01*
G01X-1530870Y1141115D01*
G01X-1542374Y1132533D01*
G01X-1551325Y1121314D01*
G01X-1557139Y1108192D01*
G01X-1559436Y1094025D01*
G01X-1558065Y1079738D01*
G01X-1553116Y1066266D01*
G01X-1553116Y1018836D01*
G01X-1558462Y1009586D01*
G01X-1560319Y999065D01*
G01X-1560319Y999065D01*
G01X-1570105Y999065D01*
G01X-1565760Y1006898D01*
G01X-1564026Y1017077D01*
G01X-1564026Y1097077D01*
G01X-1565530Y1106574D01*
G01X-1569895Y1115142D01*
G01X-1576695Y1121941D01*
G01X-1585262Y1126307D01*
G01X-1594760Y1127811D01*
G01X-1638294Y1127811D01*
G01X-1648527Y1135506D01*
G01X-1660385Y1140337D01*
G01X-1673083Y1141984D01*
G01X-1749887Y1141984D01*
G01X-1763359Y1146933D01*
G01X-1777645Y1148304D01*
G01X-1791813Y1146008D01*
G01X-1804935Y1140194D01*
G01X-1816154Y1131242D01*
G01X-1824736Y1119739D01*
G01X-1830120Y1106435D01*
G01X-1831955Y1092200D01*
G01X-1830120Y1077965D01*
G01X-1824736Y1064661D01*
G01X-1816154Y1053158D01*
G01X-1804935Y1044206D01*
G01X-1791813Y1038392D01*
G01X-1777645Y1036096D01*
G01X-1763359Y1037467D01*
G01X-1749887Y1042416D01*
G01X-1711894Y1042416D01*
G01X-1711894Y1017077D01*
G01X-1710160Y1006898D01*
G01X-1705152Y997868D01*
G01X-1697436Y991006D01*
G01X-1687883Y987087D01*
G01X-1697436Y983168D01*
G01X-1705152Y976306D01*
G01X-1710160Y967276D01*
G01X-1711894Y957097D01*
G01X-1711894Y933475D01*
G01X-1721606Y933475D01*
G01X-1728381Y940084D01*
G01X-1736846Y944318D01*
G01X-1746198Y945775D01*
G01X-1800198Y945775D01*
G01X-1810518Y943991D01*
G01X-1819639Y938845D01*
G01X-1826503Y930935D01*
G01X-1840096Y930935D01*
G01X-1846960Y938845D01*
G01X-1856081Y943991D01*
G01X-1866401Y945775D01*
G01X-1920402Y945775D01*
G01X-1929899Y944271D01*
G01X-1938467Y939906D01*
G01X-1945266Y933106D01*
G01X-1949631Y924539D01*
G01X-1951136Y915041D01*
G01X-1951136Y865041D01*
G01X-1949893Y856389D01*
G01X-1946264Y848437D01*
G01X-1940544Y841828D01*
G01X-1933194Y837096D01*
G01X-1933194Y791639D01*
G01X-1985439Y739394D01*
G01X-2133600Y739394D01*
G01X-2144184Y738001D01*
G01X-2154047Y733915D01*
G01X-2162516Y727416D01*
G01X-2224619Y665313D01*
G01X-2231118Y656844D01*
G01X-2235204Y646981D01*
G01X-2236597Y636397D01*
G01X-2236597Y446740D01*
G01X-2271702Y446740D01*
G01X-2283206Y445236D01*
G01X-2283206Y668861D01*
G01X-2117760Y834307D01*
G01X-2106600Y834307D01*
G01X-2096280Y836092D01*
G01X-2087159Y841238D01*
G01X-2080295Y849147D01*
G01X-2065130Y849147D01*
G01X-2060194Y843936D01*
G01X-2060194Y838554D01*
G01X-2068643Y826864D01*
G01X-2073834Y813406D01*
G01X-2075425Y799071D01*
G01X-2073309Y784803D01*
G01X-2067628Y771545D01*
G01X-2058756Y760172D01*
G01X-2047279Y751436D01*
G01X-2033955Y745913D01*
G01X-2019663Y743967D01*
G01X-2005347Y745728D01*
G01X-1991952Y751078D01*
G01X-1980363Y759666D01*
G01X-1971345Y770923D01*
G01X-1965493Y784106D01*
G01X-1963193Y798345D01*
G01X-1964598Y812700D01*
G01X-1969615Y826224D01*
G01X-1977912Y838022D01*
G01X-1969018Y842255D01*
G01X-1961919Y849084D01*
G01X-1957345Y857809D01*
G01X-1955766Y867532D01*
G01X-1955766Y924098D01*
G01X-1956760Y931847D01*
G01X-1959675Y939096D01*
G01X-1956760Y946345D01*
G01X-1955766Y954095D01*
G01X-1955766Y1010661D01*
G01X-1956686Y1018123D01*
G01X-1959390Y1025139D01*
G01X-1963717Y1031288D01*
G01X-1963717Y1033479D01*
G01X-1960898Y1036298D01*
G01X-1947407Y1036697D01*
G01X-1934401Y1040305D01*
G01X-1922633Y1046912D01*
G01X-1912782Y1056138D01*
G01X-1905418Y1067448D01*
G01X-1900966Y1080190D01*
G01X-1899684Y1093625D01*
G01X-1901646Y1106978D01*
G01X-1906739Y1119477D01*
G01X-1914668Y1130399D01*
G01X-1924975Y1139113D01*
G01X-1937063Y1145115D01*
G01X-1950235Y1148057D01*
G01X-1963729Y1147771D01*
G01X-1963236Y1152906D01*
G01X-1329192Y1152906D01*
G37*
G36*
G01X-2116661Y657606D02*
G01X-1968500Y657606D01*
G01X-1957916Y658999D01*
G01X-1948053Y663085D01*
G01X-1939584Y669584D01*
G01X-1863384Y745784D01*
G01X-1859534Y750231D01*
G01X-1859534Y616901D01*
G01X-1860428Y608002D01*
G01X-1860428Y456004D01*
G01X-1858991Y444755D01*
G01X-1854771Y434230D01*
G01X-1848041Y425103D01*
G01X-1839232Y417962D01*
G01X-1828910Y413266D01*
G01X-1817739Y411316D01*
G01X-1819210Y409916D01*
G01X-1964586Y264540D01*
G01X-1969716Y278309D01*
G01X-1978244Y290274D01*
G01X-1989584Y299617D01*
G01X-2002960Y305697D01*
G01X-2017456Y308097D01*
G01X-2032078Y306654D01*
G01X-2045825Y301465D01*
G01X-2057754Y292887D01*
G01X-2075908Y292887D01*
G01X-2075052Y304722D01*
G01X-2077337Y316366D01*
G01X-2082603Y327000D01*
G01X-2076919Y338930D01*
G01X-2074969Y352001D01*
G01X-2076923Y365071D01*
G01X-2082611Y377000D01*
G01X-2077278Y387820D01*
G01X-2075030Y399673D01*
G01X-2076031Y411695D01*
G01X-2080208Y423012D01*
G01X-2087257Y432802D01*
G01X-2096666Y440352D01*
G01X-2107750Y445114D01*
G01X-2119704Y446740D01*
G01X-2154809Y446740D01*
G01X-2154809Y608002D01*
G01X-2060428Y608002D01*
G01X-2060428Y456004D01*
G01X-2058802Y444052D01*
G01X-2054041Y432969D01*
G01X-2046493Y423561D01*
G01X-2036706Y416512D01*
G01X-2025391Y412333D01*
G01X-2013371Y411329D01*
G01X-2001520Y413574D01*
G01X-1990700Y418903D01*
G01X-1978769Y413219D01*
G01X-1965698Y411269D01*
G01X-1952628Y413223D01*
G01X-1940700Y418911D01*
G01X-1929879Y413578D01*
G01X-1918027Y411330D01*
G01X-1906005Y412331D01*
G01X-1894687Y416508D01*
G01X-1884897Y423557D01*
G01X-1877347Y432966D01*
G01X-1872586Y444050D01*
G01X-1870959Y456004D01*
G01X-1870959Y608002D01*
G01X-1872586Y619956D01*
G01X-1877347Y631040D01*
G01X-1884897Y640449D01*
G01X-1894687Y647498D01*
G01X-1906005Y651675D01*
G01X-1918027Y652676D01*
G01X-1929879Y650428D01*
G01X-1940700Y645095D01*
G01X-1952628Y650783D01*
G01X-1965698Y652737D01*
G01X-1978769Y650787D01*
G01X-1990700Y645103D01*
G01X-2001520Y650432D01*
G01X-2013371Y652677D01*
G01X-2025391Y651673D01*
G01X-2036706Y647494D01*
G01X-2046493Y640445D01*
G01X-2054041Y631037D01*
G01X-2058802Y619954D01*
G01X-2060428Y608002D01*
G01X-2060428Y608002D01*
G01X-2154809Y608002D01*
G01X-2154809Y619458D01*
G01X-2116661Y657606D01*
G37*
G36*
G01X-2019300Y111100D02*
G01X-2008716Y112493D01*
G01X-1998853Y116578D01*
G01X-1990384Y123077D01*
G01X-1773355Y340106D01*
G01X-1600554Y340106D01*
G01X-1589669Y332103D01*
G01X-1577188Y326932D01*
G01X-1563833Y324893D01*
G01X-1550377Y326104D01*
G01X-1537600Y330495D01*
G01X-1526242Y337811D01*
G01X-1516962Y347630D01*
G01X-1510296Y359381D01*
G01X-1506631Y372385D01*
G01X-1506179Y385887D01*
G01X-1508966Y399107D01*
G01X-1514832Y411277D01*
G01X-1505177Y412523D01*
G01X-1506396Y400239D01*
G01X-1504211Y388089D01*
G01X-1498789Y377000D01*
G01X-1504477Y365071D01*
G01X-1506431Y352001D01*
G01X-1504481Y338930D01*
G01X-1498797Y327000D01*
G01X-1504481Y315069D01*
G01X-1506431Y301998D01*
G01X-1504477Y288928D01*
G01X-1498789Y277000D01*
G01X-1504477Y265071D01*
G01X-1506431Y252001D01*
G01X-1504481Y238930D01*
G01X-1498797Y227000D01*
G01X-1504481Y215069D01*
G01X-1506431Y201999D01*
G01X-1504477Y188929D01*
G01X-1498789Y177000D01*
G01X-1504477Y165071D01*
G01X-1506431Y152001D01*
G01X-1504481Y138931D01*
G01X-1498797Y127000D01*
G01X-1504481Y115069D01*
G01X-1506431Y101999D01*
G01X-1504477Y88929D01*
G01X-1498789Y77000D01*
G01X-1504477Y65071D01*
G01X-1506431Y52001D01*
G01X-1504481Y38931D01*
G01X-1498797Y27000D01*
G01X-1504481Y15070D01*
G01X-1506431Y1999D01*
G01X-1504477Y-11071D01*
G01X-1498789Y-23000D01*
G01X-1504477Y-34928D01*
G01X-1506431Y-47998D01*
G01X-1504481Y-61069D01*
G01X-1498797Y-73000D01*
G01X-1503779Y-82821D01*
G01X-1506211Y-93562D01*
G01X-1505944Y-104572D01*
G01X-1900606Y-104572D01*
G01X-1911847Y-106052D01*
G01X-1922323Y-110391D01*
G01X-1931318Y-117293D01*
G01X-1946406Y-132381D01*
G01X-1952394Y-139864D01*
G01X-1956595Y-148479D01*
G01X-1958804Y-157805D01*
G01X-1965774Y-157269D01*
G01X-1957411Y-147258D01*
G01X-1951584Y-135587D01*
G01X-1948609Y-122886D01*
G01X-1948645Y-109841D01*
G01X-1951692Y-97157D01*
G01X-1957584Y-85518D01*
G01X-1966003Y-75554D01*
G01X-1976495Y-67802D01*
G01X-1988492Y-62681D01*
G01X-2001348Y-60467D01*
G01X-2004138Y-45773D01*
G01X-2010710Y-32338D01*
G01X-2020596Y-21115D01*
G01X-2033095Y-12900D01*
G01X-2047320Y-8278D01*
G01X-2062260Y-7577D01*
G01X-2076855Y-10845D01*
G01X-2074969Y2156D01*
G01X-2076942Y15145D01*
G01X-2082603Y27000D01*
G01X-2076919Y38931D01*
G01X-2074969Y52001D01*
G01X-2076923Y65071D01*
G01X-2082611Y77000D01*
G01X-2077343Y87628D01*
G01X-2075053Y99268D01*
G01X-2075852Y110385D01*
G01X-1937881Y110385D01*
G01X-1935518Y95920D01*
G01X-1929491Y82560D01*
G01X-1920211Y71216D01*
G01X-1908311Y62661D01*
G01X-1894601Y57477D01*
G01X-1880018Y56020D01*
G01X-1875197Y42104D01*
G01X-1866924Y29921D01*
G01X-1855767Y20309D01*
G01X-1842494Y13930D01*
G01X-1828018Y11222D01*
G01X-1813336Y12372D01*
G01X-1799459Y17301D01*
G01X-1787342Y25670D01*
G01X-1777817Y36902D01*
G01X-1771542Y50225D01*
G01X-1771542Y50225D01*
G01X-1701730Y120037D01*
G01X-1688628Y122004D01*
G01X-1676352Y126987D01*
G01X-1665586Y134709D01*
G01X-1656930Y144738D01*
G01X-1650865Y156517D01*
G01X-1647729Y169389D01*
G01X-1647698Y182638D01*
G01X-1650773Y195525D01*
G01X-1656782Y207332D01*
G01X-1665392Y217402D01*
G01X-1676121Y225174D01*
G01X-1688374Y230215D01*
G01X-1701466Y232243D01*
G01X-1714669Y231147D01*
G01X-1720767Y243805D01*
G01X-1729816Y254553D01*
G01X-1741251Y262716D01*
G01X-1754356Y267784D01*
G01X-1768308Y269440D01*
G01X-1782234Y267578D01*
G01X-1795262Y262317D01*
G01X-1806575Y253985D01*
G01X-1815465Y243105D01*
G01X-1821374Y230358D01*
G01X-1883499Y168233D01*
G01X-1897965Y165874D01*
G01X-1911326Y159851D01*
G01X-1922673Y150574D01*
G01X-1931232Y138676D01*
G01X-1936419Y124969D01*
G01X-1937881Y110385D01*
G01X-2075852Y110385D01*
G01X-2075903Y111100D01*
G01X-2019300Y111100D01*
G37*
G36*
G01X-1618266Y683006D02*
G01X-1557335Y683006D01*
G01X-1565616Y676616D01*
G01X-1594623Y647610D01*
G01X-1601263Y638894D01*
G01X-1605351Y628728D01*
G01X-1609150Y618673D01*
G01X-1610441Y608002D01*
G01X-1610441Y456004D01*
G01X-1608939Y444507D01*
G01X-1604532Y433782D01*
G01X-1597517Y424551D01*
G01X-1600554Y421894D01*
G01X-1636763Y421894D01*
G01X-1628241Y431559D01*
G01X-1622828Y443252D01*
G01X-1620972Y456004D01*
G01X-1620972Y608002D01*
G01X-1621943Y617271D01*
G01X-1624813Y626137D01*
G01X-1624813Y676460D01*
G01X-1618266Y683006D01*
G37*
G36*
G01X-797306Y364061D02*
G01X-762881Y398486D01*
G01X-637894Y398486D01*
G01X-645282Y393763D01*
G01X-651035Y387146D01*
G01X-654686Y379174D01*
G01X-655937Y370495D01*
G01X-655937Y230495D01*
G01X-654433Y220998D01*
G01X-650068Y212430D01*
G01X-643268Y205631D01*
G01X-634701Y201265D01*
G01X-625203Y199761D01*
G01X-510202Y199761D01*
G01X-500705Y201265D01*
G01X-492137Y205631D01*
G01X-485338Y212430D01*
G01X-480972Y220998D01*
G01X-479468Y230495D01*
G01X-479468Y280518D01*
G01X-459705Y280518D01*
G01X-452841Y272608D01*
G01X-443720Y267462D01*
G01X-433400Y265678D01*
G01X-379400Y265678D01*
G01X-369902Y267182D01*
G01X-361335Y271547D01*
G01X-354535Y278347D01*
G01X-350170Y286914D01*
G01X-348666Y296412D01*
G01X-348666Y346412D01*
G01X-350170Y355909D01*
G01X-354535Y364477D01*
G01X-361335Y371276D01*
G01X-369902Y375641D01*
G01X-379400Y377146D01*
G01X-433400Y377146D01*
G01X-443720Y375361D01*
G01X-452841Y370215D01*
G01X-459705Y362306D01*
G01X-479468Y362306D01*
G01X-479468Y370495D01*
G01X-480972Y379992D01*
G01X-485338Y388560D01*
G01X-492137Y395359D01*
G01X-500705Y399724D01*
G01X-510202Y401229D01*
G01X-516237Y401229D01*
G01X-516237Y404731D01*
G01X-517152Y413330D01*
G01X-519853Y421544D01*
G01X-524221Y429006D01*
G01X-207439Y429006D01*
G01X-115913Y337480D01*
G01X-115913Y279754D01*
G01X-124381Y268028D01*
G01X-129572Y254528D01*
G01X-131141Y240150D01*
G01X-128984Y225848D01*
G01X-123244Y212571D01*
G01X-114303Y201203D01*
G01X-102753Y192496D01*
G01X-89362Y187029D01*
G01X-75019Y185166D01*
G01X-60676Y187029D01*
G01X-47285Y192496D01*
G01X-35735Y201203D01*
G01X-26793Y212571D01*
G01X-21054Y225848D01*
G01X-18897Y240150D01*
G01X-20466Y254528D01*
G01X-25657Y268028D01*
G01X-34125Y279754D01*
G01X-34125Y339530D01*
G01X86106Y219299D01*
G01X86106Y-111546D01*
G01X77638Y-123271D01*
G01X72447Y-136772D01*
G01X70878Y-151150D01*
G01X73035Y-165452D01*
G01X78775Y-178728D01*
G01X87716Y-190097D01*
G01X99266Y-198804D01*
G01X112657Y-204270D01*
G01X127000Y-206134D01*
G01X141343Y-204270D01*
G01X154734Y-198804D01*
G01X166284Y-190097D01*
G01X175225Y-178728D01*
G01X180965Y-165452D01*
G01X183122Y-151150D01*
G01X181553Y-136772D01*
G01X176362Y-123271D01*
G01X167894Y-111546D01*
G01X167894Y-4088D01*
G01X175875Y-14351D01*
G01X186003Y-22503D01*
G01X197734Y-28107D01*
G01X186860Y-37460D01*
G01X178711Y-49263D01*
G01X173818Y-62746D01*
G01X172503Y-77029D01*
G01X174850Y-91178D01*
G01X180706Y-104271D01*
G01X189689Y-115453D01*
G01X201213Y-123993D01*
G01X214524Y-129334D01*
G01X228755Y-131127D01*
G01X242975Y-129256D01*
G01X256257Y-123841D01*
G01X267734Y-115238D01*
G01X276655Y-104007D01*
G01X282439Y-90881D01*
G01X284707Y-76719D01*
G01X303197Y-58230D01*
G01X309695Y-49760D01*
G01X313781Y-39898D01*
G01X315174Y-29313D01*
G01X315174Y63500D01*
G01X337566Y63500D01*
G01X339479Y48971D01*
G01X345087Y35433D01*
G01X354007Y23807D01*
G01X365633Y14887D01*
G01X379171Y9279D01*
G01X393700Y7366D01*
G01X408229Y9279D01*
G01X421767Y14887D01*
G01X433393Y23807D01*
G01X442313Y35433D01*
G01X447921Y48971D01*
G01X449834Y63500D01*
G01X447921Y78029D01*
G01X442313Y91567D01*
G01X433393Y103193D01*
G01X421767Y112113D01*
G01X408229Y117721D01*
G01X393700Y119634D01*
G01X379171Y117721D01*
G01X365633Y112113D01*
G01X354007Y103193D01*
G01X345087Y91567D01*
G01X339479Y78029D01*
G01X337566Y63500D01*
G01X337566Y63500D01*
G01X315174Y63500D01*
G01X315174Y175282D01*
G01X313241Y187706D01*
G01X491061Y187706D01*
G01X758484Y-79716D01*
G01X766953Y-86215D01*
G01X776816Y-90301D01*
G01X787400Y-91694D01*
G01X815421Y-91694D01*
G01X821788Y-100196D01*
G01X830669Y-106023D01*
G01X830669Y-116613D01*
G01X823251Y-121329D01*
G01X817471Y-127952D01*
G01X813803Y-135940D01*
G01X812546Y-144640D01*
G01X812546Y-198641D01*
G01X814050Y-208138D01*
G01X818416Y-216706D01*
G01X825215Y-223505D01*
G01X833783Y-227870D01*
G01X843280Y-229375D01*
G01X899846Y-229375D01*
G01X907596Y-228382D01*
G01X914845Y-225466D01*
G01X917232Y-226668D01*
G01X917232Y-306426D01*
G01X918626Y-317010D01*
G01X922711Y-326873D01*
G01X929210Y-335342D01*
G01X952418Y-358550D01*
G01X946538Y-376084D01*
G01X943659Y-394352D01*
G01X943860Y-412845D01*
G01X947136Y-431046D01*
G01X953395Y-448448D01*
G01X962463Y-464566D01*
G01X825500Y-464566D01*
G01X816003Y-466070D01*
G01X807435Y-470436D01*
G01X800636Y-477235D01*
G01X796270Y-485803D01*
G01X794766Y-495300D01*
G01X794766Y-1658366D01*
G01X-917582Y-1658366D01*
G01X-928415Y-1660338D01*
G01X-937857Y-1666002D01*
G01X-944697Y-1674631D01*
G01X-948057Y-1685116D01*
G01X-951735Y-1675132D01*
G01X-958597Y-1667000D01*
G01X-967820Y-1661695D01*
G01X-978300Y-1659853D01*
G01X-1028300Y-1659853D01*
G01X-1037436Y-1661243D01*
G01X-1045746Y-1665285D01*
G01X-1052479Y-1671615D01*
G01X-1057026Y-1679660D01*
G01X-1058976Y-1688694D01*
G01X-1065355Y-1688694D01*
G01X-1085266Y-1668783D01*
G01X-1085266Y-1640599D01*
G01X-1086259Y-1632849D01*
G01X-1089174Y-1625600D01*
G01X-1086259Y-1618351D01*
G01X-1085266Y-1610601D01*
G01X-1085266Y-1582417D01*
G01X-1065355Y-1562506D01*
G01X-1058976Y-1562506D01*
G01X-1057026Y-1571540D01*
G01X-1052479Y-1579585D01*
G01X-1045746Y-1585915D01*
G01X-1037436Y-1589957D01*
G01X-1028300Y-1591347D01*
G01X-978300Y-1591347D01*
G01X-968803Y-1589843D01*
G01X-960235Y-1585477D01*
G01X-953436Y-1578678D01*
G01X-949070Y-1570110D01*
G01X-947566Y-1560613D01*
G01X-947566Y-1482612D01*
G01X-948868Y-1473760D01*
G01X-952665Y-1465659D01*
G01X-958633Y-1458994D01*
G01X-966269Y-1454331D01*
G01X-972715Y-1445952D01*
G01X-987084Y-1431584D01*
G01X-995553Y-1425085D01*
G01X-1005416Y-1420999D01*
G01X-1016000Y-1419606D01*
G01X-1050948Y-1419606D01*
G01X-1056424Y-1406799D01*
G01X-1064884Y-1395735D01*
G01X-1075807Y-1387094D01*
G01X-673100Y-1387094D01*
G01X-662516Y-1385701D01*
G01X-652653Y-1381615D01*
G01X-644184Y-1375116D01*
G01X-618784Y-1349716D01*
G01X-611624Y-1340057D01*
G01X-604007Y-1335784D01*
G01X-597900Y-1329541D01*
G01X-593795Y-1321833D01*
G01X-592024Y-1313282D01*
G01X-568706Y-1313282D01*
G01X-558122Y-1311888D01*
G01X-548259Y-1307803D01*
G01X-539790Y-1301304D01*
G01X-509184Y-1270698D01*
G01X-481000Y-1270698D01*
G01X-471502Y-1269194D01*
G01X-462935Y-1264829D01*
G01X-456135Y-1258029D01*
G01X-451770Y-1249462D01*
G01X-450266Y-1239964D01*
G01X-450266Y-1183399D01*
G01X-451259Y-1175649D01*
G01X-454174Y-1168400D01*
G01X-451259Y-1161151D01*
G01X-450266Y-1153401D01*
G01X-450266Y-1096835D01*
G01X-451770Y-1087338D01*
G01X-456135Y-1078771D01*
G01X-462935Y-1071971D01*
G01X-471502Y-1067606D01*
G01X-481000Y-1066101D01*
G01X-509184Y-1066101D01*
G01X-518392Y-1056894D01*
G01X-394054Y-1056894D01*
G01X-382266Y-1065396D01*
G01X-368691Y-1070586D01*
G01X-354238Y-1072117D01*
G01X-339876Y-1069887D01*
G01X-326568Y-1064044D01*
G01X-315207Y-1054980D01*
G01X-306553Y-1043303D01*
G01X-301188Y-1029796D01*
G01X-299470Y-1015363D01*
G01X-301514Y-1000974D01*
G01X-153525Y-1000974D01*
G01X-153525Y-1087068D01*
G01X-162276Y-1093899D01*
G01X-168029Y-1103393D01*
G01X-170034Y-1114312D01*
G01X-170034Y-1192313D01*
G01X-168530Y-1201810D01*
G01X-164164Y-1210378D01*
G01X-157365Y-1217177D01*
G01X-148797Y-1221543D01*
G01X-139300Y-1223047D01*
G01X-89300Y-1223047D01*
G01X-80164Y-1221657D01*
G01X-71854Y-1217615D01*
G01X-65121Y-1211285D01*
G01X-60574Y-1203240D01*
G01X-58624Y-1194206D01*
G01X-52245Y-1194206D01*
G01X-32334Y-1214117D01*
G01X-32334Y-1242301D01*
G01X-31341Y-1250051D01*
G01X-28426Y-1257300D01*
G01X-31341Y-1264549D01*
G01X-32334Y-1272299D01*
G01X-32334Y-1300483D01*
G01X-52245Y-1320394D01*
G01X-58624Y-1320394D01*
G01X-60574Y-1311360D01*
G01X-65121Y-1303315D01*
G01X-71854Y-1296985D01*
G01X-80164Y-1292943D01*
G01X-89300Y-1291553D01*
G01X-139300Y-1291553D01*
G01X-148436Y-1292943D01*
G01X-156746Y-1296985D01*
G01X-163479Y-1303315D01*
G01X-168026Y-1311360D01*
G01X-169976Y-1320394D01*
G01X-225855Y-1320394D01*
G01X-237039Y-1311242D01*
G01X-250189Y-1305249D01*
G01X-264433Y-1302812D01*
G01X-278827Y-1304092D01*
G01X-292418Y-1309004D01*
G01X-304304Y-1317223D01*
G01X-313698Y-1328204D01*
G01X-319977Y-1341220D01*
G01X-322725Y-1355407D01*
G01X-321760Y-1369826D01*
G01X-317147Y-1383520D01*
G01X-309189Y-1395583D01*
G01X-298416Y-1405215D01*
G01X-285541Y-1411778D01*
G01X-271418Y-1414835D01*
G01X-256981Y-1414186D01*
G01X-243189Y-1409873D01*
G01X-230955Y-1402182D01*
G01X-169976Y-1402182D01*
G01X-168026Y-1411215D01*
G01X-163479Y-1419260D01*
G01X-156746Y-1425590D01*
G01X-148436Y-1429633D01*
G01X-139300Y-1431022D01*
G01X-89300Y-1431022D01*
G01X-80164Y-1429633D01*
G01X-71854Y-1425590D01*
G01X-65121Y-1419260D01*
G01X-60574Y-1411215D01*
G01X-58624Y-1402182D01*
G01X-35306Y-1402182D01*
G01X-24722Y-1400788D01*
G01X-14859Y-1396703D01*
G01X-6390Y-1390204D01*
G01X24216Y-1359598D01*
G01X52400Y-1359598D01*
G01X61898Y-1358094D01*
G01X70465Y-1353729D01*
G01X77265Y-1346929D01*
G01X81630Y-1338362D01*
G01X83134Y-1328864D01*
G01X83134Y-1272299D01*
G01X82141Y-1264549D01*
G01X79226Y-1257300D01*
G01X82141Y-1250051D01*
G01X83134Y-1242301D01*
G01X83134Y-1185735D01*
G01X81630Y-1176238D01*
G01X77265Y-1167671D01*
G01X70465Y-1160871D01*
G01X61898Y-1156506D01*
G01X52400Y-1155001D01*
G01X24216Y-1155001D01*
G01X-6390Y-1124396D01*
G01X-14859Y-1117897D01*
G01X-24722Y-1113812D01*
G01X-35306Y-1112418D01*
G01X-58624Y-1112418D01*
G01X-60557Y-1103429D01*
G01X-65063Y-1095414D01*
G01X-71737Y-1089090D01*
G01X-71737Y-974449D01*
G01X-73131Y-963865D01*
G01X-77216Y-954002D01*
G01X-83715Y-945532D01*
G01X-98084Y-931164D01*
G01X-106553Y-924665D01*
G01X-116416Y-920580D01*
G01X-127000Y-919186D01*
G01X-296976Y-919186D01*
G01X-282748Y-915221D01*
G01X-270046Y-907682D01*
G01X-259751Y-897090D01*
G01X-252575Y-884180D01*
G01X-249014Y-869845D01*
G01X-249317Y-855077D01*
G01X-253461Y-840900D01*
G01X-261159Y-828294D01*
G01X427561Y-828294D01*
G01X467106Y-867839D01*
G01X467106Y-1126061D01*
G01X445647Y-1147520D01*
G01X437469Y-1143635D01*
G01X428514Y-1142301D01*
G01X400329Y-1142301D01*
G01X369724Y-1111696D01*
G01X361255Y-1105197D01*
G01X351392Y-1101112D01*
G01X340808Y-1099718D01*
G01X312294Y-1099718D01*
G01X310345Y-1090685D01*
G01X305798Y-1082640D01*
G01X299065Y-1076310D01*
G01X290755Y-1072267D01*
G01X281619Y-1070878D01*
G01X231619Y-1070878D01*
G01X222121Y-1072382D01*
G01X213554Y-1076748D01*
G01X206754Y-1083547D01*
G01X202389Y-1092115D01*
G01X200885Y-1101612D01*
G01X200885Y-1179613D01*
G01X202389Y-1189110D01*
G01X206754Y-1197678D01*
G01X213554Y-1204477D01*
G01X222121Y-1208843D01*
G01X231619Y-1210347D01*
G01X281619Y-1210347D01*
G01X290755Y-1208957D01*
G01X299065Y-1204915D01*
G01X305798Y-1198585D01*
G01X310345Y-1190540D01*
G01X312294Y-1181506D01*
G01X323869Y-1181506D01*
G01X343779Y-1201417D01*
G01X343779Y-1229601D01*
G01X344772Y-1237351D01*
G01X347688Y-1244600D01*
G01X344772Y-1251849D01*
G01X343779Y-1259599D01*
G01X343779Y-1287783D01*
G01X323869Y-1307694D01*
G01X312294Y-1307694D01*
G01X310345Y-1298660D01*
G01X305798Y-1290615D01*
G01X299065Y-1284285D01*
G01X290755Y-1280243D01*
G01X281619Y-1278853D01*
G01X231619Y-1278853D01*
G01X222121Y-1280357D01*
G01X213554Y-1284723D01*
G01X206754Y-1291522D01*
G01X202389Y-1300090D01*
G01X200885Y-1309587D01*
G01X200885Y-1387588D01*
G01X202389Y-1397085D01*
G01X206754Y-1405653D01*
G01X213554Y-1412452D01*
G01X222121Y-1416818D01*
G01X231619Y-1418322D01*
G01X281619Y-1418322D01*
G01X290755Y-1416933D01*
G01X299065Y-1412890D01*
G01X305798Y-1406560D01*
G01X310345Y-1398515D01*
G01X312294Y-1389482D01*
G01X340808Y-1389482D01*
G01X351392Y-1388088D01*
G01X361255Y-1384003D01*
G01X369724Y-1377504D01*
G01X400329Y-1346898D01*
G01X428514Y-1346898D01*
G01X437448Y-1345571D01*
G01X445611Y-1341704D01*
G01X452297Y-1335630D01*
G01X464593Y-1347925D01*
G01X466896Y-1362205D01*
G01X472771Y-1375421D01*
G01X481829Y-1386698D01*
G01X493467Y-1395286D01*
G01X506914Y-1400615D01*
G01X521275Y-1402331D01*
G01X535599Y-1400321D01*
G01X548933Y-1394717D01*
G01X560393Y-1385893D01*
G01X569217Y-1374433D01*
G01X574821Y-1361099D01*
G01X576831Y-1346775D01*
G01X575115Y-1332414D01*
G01X569786Y-1318967D01*
G01X561198Y-1307329D01*
G01X549921Y-1298271D01*
G01X536705Y-1292396D01*
G01X522425Y-1290093D01*
G01X491298Y-1258965D01*
G01X482829Y-1252466D01*
G01X472966Y-1248381D01*
G01X462382Y-1246988D01*
G01X456541Y-1246988D01*
G01X455339Y-1244600D01*
G01X456815Y-1241585D01*
G01X468579Y-1237584D01*
G01X478598Y-1230235D01*
G01X536916Y-1171916D01*
G01X543415Y-1163447D01*
G01X547501Y-1153584D01*
G01X548894Y-1143000D01*
G01X548894Y-850900D01*
G01X547501Y-840316D01*
G01X543415Y-830453D01*
G01X536916Y-821984D01*
G01X500105Y-785172D01*
G01X558446Y-785172D01*
G01X570172Y-793640D01*
G01X583672Y-798831D01*
G01X598050Y-800400D01*
G01X612352Y-798243D01*
G01X625629Y-792504D01*
G01X636997Y-783562D01*
G01X645704Y-772012D01*
G01X651171Y-758621D01*
G01X653034Y-744278D01*
G01X651171Y-729935D01*
G01X645704Y-716544D01*
G01X636997Y-704994D01*
G01X625629Y-696053D01*
G01X612352Y-690313D01*
G01X598050Y-688156D01*
G01X583672Y-689725D01*
G01X570172Y-694916D01*
G01X558446Y-703384D01*
G01X515092Y-703384D01*
G01X528703Y-699877D01*
G01X541016Y-693098D01*
G01X551259Y-683473D01*
G01X558790Y-671605D01*
G01X563136Y-658238D01*
G01X564025Y-644211D01*
G01X561402Y-630402D01*
G01X555431Y-617678D01*
G01X546486Y-606836D01*
G01X535128Y-598557D01*
G01X522070Y-593358D01*
G01X508129Y-591566D01*
G01X494180Y-593294D01*
G01X481097Y-598433D01*
G01X459248Y-576583D01*
G01X459248Y-548399D01*
G01X458255Y-540649D01*
G01X455339Y-533400D01*
G01X458255Y-526151D01*
G01X459248Y-518401D01*
G01X459248Y-461835D01*
G01X457744Y-452338D01*
G01X453378Y-443771D01*
G01X446579Y-436971D01*
G01X438011Y-432606D01*
G01X428514Y-431101D01*
G01X400329Y-431101D01*
G01X382424Y-413196D01*
G01X373955Y-406697D01*
G01X364092Y-402612D01*
G01X353508Y-401218D01*
G01X312294Y-401218D01*
G01X310342Y-392178D01*
G01X305789Y-384128D01*
G01X299047Y-377797D01*
G01X290727Y-373759D01*
G01X285535Y-367402D01*
G01X257516Y-339384D01*
G01X249047Y-332885D01*
G01X239184Y-328799D01*
G01X228600Y-327406D01*
G01X-203200Y-327406D01*
G01X-213784Y-328799D01*
G01X-223647Y-332885D01*
G01X-232116Y-339384D01*
G01X-399521Y-506788D01*
G01X-412893Y-500579D01*
G01X-427361Y-497747D01*
G01X-442087Y-498456D01*
G01X-456216Y-502666D01*
G01X-511365Y-502666D01*
G01X-511365Y-499400D01*
G01X-512870Y-489902D01*
G01X-517235Y-481335D01*
G01X-524035Y-474535D01*
G01X-532602Y-470170D01*
G01X-542099Y-468666D01*
G01X-677100Y-468666D01*
G01X-686598Y-470170D01*
G01X-695165Y-474535D01*
G01X-701965Y-481335D01*
G01X-706330Y-489902D01*
G01X-707834Y-499400D01*
G01X-707834Y-520116D01*
G01X-772121Y-520116D01*
G01X-769811Y-513574D01*
G01X-769028Y-506680D01*
G01X-769028Y-450114D01*
G01X-770532Y-440617D01*
G01X-774898Y-432049D01*
G01X-781697Y-425250D01*
G01X-790265Y-420884D01*
G01X-799762Y-419380D01*
G01X-853763Y-419380D01*
G01X-863260Y-420884D01*
G01X-871828Y-425250D01*
G01X-878627Y-432049D01*
G01X-882992Y-440617D01*
G01X-884497Y-450114D01*
G01X-884497Y-506680D01*
G01X-882758Y-516871D01*
G01X-877738Y-525910D01*
G01X-870005Y-532772D01*
G01X-880539Y-543306D01*
G01X-914400Y-543306D01*
G01X-918564Y-543519D01*
G01X-914187Y-534998D01*
G01X-906519Y-530343D01*
G01X-900522Y-523673D01*
G01X-896706Y-515554D01*
G01X-895397Y-506680D01*
G01X-895397Y-450114D01*
G01X-896901Y-440617D01*
G01X-901267Y-432049D01*
G01X-908066Y-425250D01*
G01X-916634Y-420884D01*
G01X-926131Y-419380D01*
G01X-980131Y-419380D01*
G01X-989629Y-420884D01*
G01X-998196Y-425250D01*
G01X-1004996Y-432049D01*
G01X-1009361Y-440617D01*
G01X-1010865Y-450114D01*
G01X-1010865Y-505765D01*
G01X-1021766Y-505765D01*
G01X-1021766Y-450114D01*
G01X-1022759Y-442364D01*
G01X-1025674Y-435115D01*
G01X-1022759Y-427867D01*
G01X-1021766Y-420117D01*
G01X-1021766Y-363551D01*
G01X-1023270Y-354054D01*
G01X-1027635Y-345486D01*
G01X-1034435Y-338687D01*
G01X-1043002Y-334321D01*
G01X-1052500Y-332817D01*
G01X-1106500Y-332817D01*
G01X-1115972Y-334313D01*
G01X-1124522Y-338655D01*
G01X-1131317Y-345421D01*
G01X-1135696Y-353951D01*
G01X-1149188Y-350645D01*
G01X-1163078Y-350753D01*
G01X-1176517Y-354269D01*
G01X-1188681Y-360976D01*
G01X-1198825Y-370466D01*
G01X-1206328Y-382156D01*
G01X-1210732Y-395330D01*
G01X-1211765Y-409182D01*
G01X-1209365Y-422864D01*
G01X-1203679Y-435538D01*
G01X-1233794Y-405424D01*
G01X-1242263Y-398925D01*
G01X-1252126Y-394839D01*
G01X-1262710Y-393446D01*
G01X-1302690Y-393446D01*
G01X-1313274Y-394839D01*
G01X-1323137Y-398925D01*
G01X-1331606Y-405424D01*
G01X-1359876Y-433694D01*
G01X-1361241Y-435126D01*
G01X-1380784Y-415584D01*
G01X-1389253Y-409085D01*
G01X-1399116Y-404999D01*
G01X-1409700Y-403606D01*
G01X-1507061Y-403606D01*
G01X-1524813Y-385854D01*
G01X-1524813Y-372137D01*
G01X-1521943Y-363271D01*
G01X-1520972Y-354002D01*
G01X-1520972Y-202004D01*
G01X-1522238Y-191440D01*
G01X-1472404Y-191440D01*
G01X-1461696Y-192740D01*
G01X-1309698Y-192740D01*
G01X-1298990Y-191440D01*
G01X-1216185Y-191440D01*
G01X-1199112Y-208512D01*
G01X-1190117Y-215415D01*
G01X-1179642Y-219754D01*
G01X-1168400Y-221234D01*
G01X-1114901Y-221234D01*
G01X-1108656Y-225793D01*
G01X-1101471Y-228650D01*
G01X-1093800Y-229622D01*
G01X-1039800Y-229622D01*
G01X-1030302Y-228118D01*
G01X-1021735Y-223753D01*
G01X-1014935Y-216953D01*
G01X-1010570Y-208386D01*
G01X-1009066Y-198888D01*
G01X-1009066Y-148888D01*
G01X-1010739Y-138887D01*
G01X-995861Y-138887D01*
G01X-997534Y-148888D01*
G01X-997534Y-198888D01*
G01X-996030Y-208386D01*
G01X-991665Y-216953D01*
G01X-984865Y-223753D01*
G01X-976298Y-228118D01*
G01X-966800Y-229622D01*
G01X-912800Y-229622D01*
G01X-902480Y-227838D01*
G01X-893359Y-222692D01*
G01X-886495Y-214782D01*
G01X-834288Y-214782D01*
G01X-823704Y-213389D01*
G01X-813841Y-209304D01*
G01X-805372Y-202805D01*
G01X-798375Y-195807D01*
G01X-784362Y-193583D01*
G01X-771354Y-187915D01*
G01X-760183Y-179167D01*
G01X-751562Y-167898D01*
G01X-746043Y-154827D01*
G01X-743977Y-140790D01*
G01X-745496Y-126683D01*
G01X-750504Y-113408D01*
G01X-758681Y-101812D01*
G01X-769504Y-92637D01*
G01X-782281Y-86469D01*
G01X-796197Y-83702D01*
G01X-810363Y-84512D01*
G01X-823872Y-88848D01*
G01X-835863Y-96433D01*
G01X-845569Y-106782D01*
G01X-852370Y-119235D01*
G01X-855832Y-132994D01*
G01X-886495Y-132994D01*
G01X-892057Y-126210D01*
G01X-899309Y-121274D01*
G01X-901462Y-112768D01*
G01X-905381Y-104918D01*
G01X-910884Y-98084D01*
G01X-922664Y-86303D01*
G01X-914874Y-82394D01*
G01X-908090Y-76922D01*
G01X-815932Y15235D01*
G01X-815932Y10505D01*
G01X-814428Y1008D01*
G01X-810062Y-7560D01*
G01X-803263Y-14359D01*
G01X-794695Y-18724D01*
G01X-785198Y-20229D01*
G01X-760789Y-20229D01*
G01X-756614Y-25119D01*
G01X-663916Y-117816D01*
G01X-655447Y-124315D01*
G01X-645584Y-128401D01*
G01X-635000Y-129794D01*
G01X-482600Y-129794D01*
G01X-474189Y-128920D01*
G01X-475157Y-142636D01*
G01X-472761Y-156177D01*
G01X-467146Y-168728D01*
G01X-458647Y-179538D01*
G01X-447775Y-187957D01*
G01X-435182Y-193481D01*
G01X-421624Y-195777D01*
G01X-407915Y-194708D01*
G01X-394877Y-190339D01*
G01X-383293Y-182930D01*
G01X-373857Y-172928D01*
G01X-367136Y-160932D01*
G01X-363533Y-147661D01*
G01X-363265Y-133913D01*
G01X-366347Y-120512D01*
G01X-372595Y-108263D01*
G01X-381633Y-97900D01*
G01X-392920Y-90045D01*
G01X-405777Y-85170D01*
G01X-419434Y-83567D01*
G01X-377484Y-41616D01*
G01X-370932Y-33056D01*
G01X-361995Y-28842D01*
G01X-354856Y-22009D01*
G01X-350254Y-13265D01*
G01X-348666Y-3512D01*
G01X-348666Y46488D01*
G01X-350170Y55986D01*
G01X-354535Y64553D01*
G01X-361335Y71353D01*
G01X-369902Y75718D01*
G01X-379400Y77222D01*
G01X-433400Y77222D01*
G01X-442898Y75718D01*
G01X-451465Y71353D01*
G01X-458265Y64553D01*
G01X-462630Y55986D01*
G01X-464134Y46488D01*
G01X-464134Y-3512D01*
G01X-463068Y-11535D01*
G01X-499539Y-48006D01*
G01X-618061Y-48006D01*
G01X-651888Y-14180D01*
G01X-645214Y-7396D01*
G01X-640936Y1104D01*
G01X-639463Y10505D01*
G01X-639463Y150505D01*
G01X-640967Y160002D01*
G01X-645332Y168570D01*
G01X-652132Y175369D01*
G01X-660699Y179735D01*
G01X-670197Y181239D01*
G01X-785198Y181239D01*
G01X-792470Y180366D01*
G01X-799329Y177798D01*
G01X-797815Y184069D01*
G01X-797306Y190500D01*
G01X-797306Y364061D01*
G37*
G36*
G01X-1234694Y1752600D02*
G01X-1234694Y1689302D01*
G01X-1249307Y1719740D01*
G01X-1266770Y1748637D01*
G01X-1286922Y1775728D01*
G01X-1309578Y1800763D01*
G01X-1326368Y1821564D01*
G01X-1340069Y1844518D01*
G01X-1350408Y1869169D01*
G01X-1357182Y1895029D01*
G01X-1360255Y1921584D01*
G01X-1359567Y1948307D01*
G01X-1355131Y1974668D01*
G01X-1347035Y2000145D01*
G01X-1335439Y2024231D01*
G01X-1320575Y2046449D01*
G01X-1302736Y2066359D01*
G01X-1239813Y2104714D01*
G01X-1175762Y2141155D01*
G01X-1110640Y2175646D01*
G01X-1110640Y1907101D01*
G01X-1110093Y1901328D01*
G01X-1108472Y1895761D01*
G01X-1222716Y1781516D01*
G01X-1229215Y1773047D01*
G01X-1233301Y1763184D01*
G01X-1234694Y1752600D01*
G37*
G36*
G01X-1122386Y1210785D02*
G01X-1108965Y1204540D01*
G01X-1094377Y1202020D01*
G01X-1079639Y1203402D01*
G01X-1065773Y1208588D01*
G01X-1053746Y1217218D01*
G01X-930600Y1217218D01*
G01X-919418Y1209048D01*
G01X-906577Y1203865D01*
G01X-892857Y1201983D01*
G01X-879094Y1203517D01*
G01X-879094Y953081D01*
G01X-891614Y956921D01*
G01X-904683Y957755D01*
G01X-917590Y955538D01*
G01X-929632Y950391D01*
G01X-940154Y942594D01*
G01X-1168400Y942594D01*
G01X-1178984Y941201D01*
G01X-1188847Y937115D01*
G01X-1197316Y930616D01*
G01X-1259025Y868907D01*
G01X-1272826Y866744D01*
G01X-1285666Y861240D01*
G01X-1134364Y1012542D01*
G01X-1127865Y1021011D01*
G01X-1123780Y1030874D01*
G01X-1122386Y1041458D01*
G01X-1122386Y1210785D01*
G37*
G36*
G01X-1122386Y1723019D02*
G01X-1035079Y1810327D01*
G01X-902635Y1810327D01*
G01X-904870Y1803880D01*
G01X-905627Y1797100D01*
G01X-905627Y1752994D01*
G01X-911546Y1752994D01*
G01X-922130Y1751600D01*
G01X-931993Y1747515D01*
G01X-940462Y1741016D01*
G01X-1019516Y1661962D01*
G01X-1026015Y1653492D01*
G01X-1030101Y1643629D01*
G01X-1031494Y1633045D01*
G01X-1031494Y1435100D01*
G01X-1030101Y1424516D01*
G01X-1026015Y1414653D01*
G01X-1019516Y1406184D01*
G01X-920115Y1306782D01*
G01X-930600Y1299006D01*
G01X-1053746Y1299006D01*
G01X-1065773Y1307636D01*
G01X-1079639Y1312823D01*
G01X-1094377Y1314204D01*
G01X-1108965Y1311684D01*
G01X-1122386Y1305439D01*
G01X-1122386Y1723019D01*
G37*
G36*
G01X-979907Y2217834D02*
G01X-1023802Y2217834D01*
G01X-953947Y2248765D01*
G01X953946Y2248765D01*
G01X1043751Y2208516D01*
G01X1131862Y2164681D01*
G01X1218136Y2117334D01*
G01X1302433Y2066549D01*
G01X1318878Y2046495D01*
G01X1332434Y2024385D01*
G01X1342847Y2000632D01*
G01X1349922Y1975681D01*
G01X1353527Y1949997D01*
G01X1353594Y1924062D01*
G01X1350123Y1898361D01*
G01X1343177Y1873373D01*
G01X1332888Y1849566D01*
G01X1319447Y1827386D01*
G01X1303106Y1807247D01*
G01X1278536Y1779862D01*
G01X1256960Y1750062D01*
G01X1238613Y1718172D01*
G01X1223696Y1684541D01*
G01X1212372Y1649536D01*
G01X1204764Y1613540D01*
G01X1200956Y1576947D01*
G01X1200989Y1540156D01*
G01X1204864Y1503569D01*
G01X1212537Y1467587D01*
G01X1223925Y1432603D01*
G01X1238903Y1398999D01*
G01X1257308Y1367143D01*
G01X1278939Y1337382D01*
G01X1303558Y1310042D01*
G01X1330897Y1285422D01*
G01X1360657Y1263791D01*
G01X1392514Y1245385D01*
G01X1426117Y1230406D01*
G01X1461101Y1219017D01*
G01X1497083Y1211343D01*
G01X1533669Y1207468D01*
G01X1570460Y1207433D01*
G01X1607054Y1211240D01*
G01X1643050Y1218847D01*
G01X1678055Y1230171D01*
G01X1711687Y1245087D01*
G01X1743577Y1263433D01*
G01X1773378Y1285009D01*
G01X1800763Y1309578D01*
G01X1821564Y1326368D01*
G01X1844518Y1340069D01*
G01X1869169Y1350409D01*
G01X1895028Y1357183D01*
G01X1921583Y1360256D01*
G01X1948306Y1359567D01*
G01X1974668Y1355131D01*
G01X2000144Y1347035D01*
G01X2024230Y1335440D01*
G01X2046448Y1320576D01*
G01X2066358Y1302737D01*
G01X2109825Y1231095D01*
G01X2150810Y1158004D01*
G01X2189264Y1083550D01*
G01X2195072Y1075041D01*
G01X2202998Y1068458D01*
G01X2212429Y1064310D01*
G01X2222637Y1062916D01*
G01X2399986Y1062916D01*
G01X2419596Y1061203D01*
G01X2438610Y1056110D01*
G01X2456450Y1047793D01*
G01X2472575Y1036504D01*
G01X2486495Y1022586D01*
G01X2497786Y1006462D01*
G01X2506105Y988623D01*
G01X2511200Y969609D01*
G01X2512916Y950000D01*
G01X2512916Y-949986D01*
G01X2511202Y-969595D01*
G01X2506110Y-988609D01*
G01X2497792Y-1006450D01*
G01X2486503Y-1022575D01*
G01X2472585Y-1036494D01*
G01X2456462Y-1047785D01*
G01X2438622Y-1056105D01*
G01X2419609Y-1061200D01*
G01X2400000Y-1062915D01*
G01X2315893Y-1062916D01*
G01X2330911Y-1048431D01*
G01X2343210Y-1031576D01*
G01X2352424Y-1012856D01*
G01X2358278Y-992829D01*
G01X2360596Y-972093D01*
G01X2359309Y-951268D01*
G01X2354456Y-930975D01*
G01X2346181Y-911821D01*
G01X2334733Y-894378D01*
G01X2320452Y-879166D01*
G01X2303765Y-866640D01*
G01X2285171Y-857174D01*
G01X2265224Y-851051D01*
G01X2244522Y-848454D01*
G01X2223681Y-849459D01*
G01X2203325Y-854038D01*
G01X2184061Y-862053D01*
G01X2166464Y-873266D01*
G01X2151061Y-887340D01*
G01X2138311Y-903856D01*
G01X2128595Y-922321D01*
G01X2122204Y-942183D01*
G01X2119327Y-962849D01*
G01X2120051Y-983701D01*
G01X2124355Y-1004117D01*
G01X2132110Y-1023488D01*
G01X2143084Y-1041234D01*
G01X2156949Y-1056825D01*
G01X2173291Y-1069797D01*
G01X2191623Y-1079761D01*
G01X2189124Y-1084233D01*
G01X2150921Y-1158174D01*
G01X2110220Y-1230771D01*
G01X2067071Y-1301940D01*
G01X2067071Y-1301940D01*
G01X2047026Y-1318499D01*
G01X2024905Y-1332161D01*
G01X2001123Y-1342670D01*
G01X1976127Y-1349827D01*
G01X1950388Y-1353499D01*
G01X1924388Y-1353615D01*
G01X1898616Y-1350175D01*
G01X1873558Y-1343242D01*
G01X1849682Y-1332948D01*
G01X1827439Y-1319485D01*
G01X1807247Y-1303106D01*
G01X1780593Y-1279128D01*
G01X1751637Y-1257986D01*
G01X1720681Y-1239900D01*
G01X1688045Y-1225057D01*
G01X1654069Y-1213613D01*
G01X1619104Y-1205685D01*
G01X1583514Y-1201355D01*
G01X1547668Y-1200670D01*
G01X1511938Y-1203635D01*
G01X1476696Y-1210220D01*
G01X1442306Y-1220358D01*
G01X1409127Y-1233941D01*
G01X1377502Y-1250830D01*
G01X1347759Y-1270850D01*
G01X1320208Y-1293792D01*
G01X1295134Y-1319418D01*
G01X1272797Y-1347462D01*
G01X1253430Y-1377633D01*
G01X1237234Y-1409619D01*
G01X1237234Y-876566D01*
G01X1435100Y-876566D01*
G01X1444597Y-875061D01*
G01X1453165Y-870696D01*
G01X1459964Y-863897D01*
G01X1464330Y-855329D01*
G01X1465834Y-845832D01*
G01X1465834Y-495300D01*
G01X1464330Y-485803D01*
G01X1459964Y-477235D01*
G01X1453165Y-470436D01*
G01X1444597Y-466070D01*
G01X1435100Y-464566D01*
G01X1145737Y-464566D01*
G01X1155558Y-446765D01*
G01X1161959Y-427468D01*
G01X1164724Y-407326D01*
G01X1163760Y-387018D01*
G01X1159100Y-367229D01*
G01X1150900Y-348625D01*
G01X1139438Y-331834D01*
G01X1125098Y-317422D01*
G01X1108365Y-305874D01*
G01X1089804Y-297579D01*
G01X1070038Y-292819D01*
G01X1049735Y-291752D01*
G01X1029580Y-294415D01*
G01X1010251Y-300717D01*
G01X999020Y-289487D01*
G01X999020Y-226668D01*
G01X1006438Y-221952D01*
G01X1012218Y-215329D01*
G01X1015886Y-207341D01*
G01X1017143Y-198641D01*
G01X1017143Y-144640D01*
G01X1015639Y-135143D01*
G01X1011273Y-126575D01*
G01X1004474Y-119776D01*
G01X995906Y-115411D01*
G01X986409Y-113906D01*
G01X929843Y-113906D01*
G01X922093Y-114899D01*
G01X914845Y-117815D01*
G01X912457Y-116613D01*
G01X912457Y-105623D01*
G01X919707Y-100871D01*
G01X925342Y-94282D01*
G01X928913Y-86383D01*
G01X930135Y-77800D01*
G01X930135Y-23800D01*
G01X928631Y-14302D01*
G01X924266Y-5735D01*
G01X917466Y1065D01*
G01X908899Y5430D01*
G01X899401Y6934D01*
G01X842836Y6934D01*
G01X834477Y5776D01*
G01X826749Y2388D01*
G01X820233Y-2974D01*
G01X815421Y-9906D01*
G01X804339Y-9906D01*
G01X536916Y257516D01*
G01X528447Y264015D01*
G01X518584Y268101D01*
G01X508000Y269494D01*
G01X309039Y269494D01*
G01X197533Y381000D01*
G01X235966Y381000D01*
G01X237879Y366471D01*
G01X243487Y352933D01*
G01X252407Y341307D01*
G01X264033Y332387D01*
G01X277571Y326779D01*
G01X292100Y324866D01*
G01X306629Y326779D01*
G01X320167Y332387D01*
G01X331793Y341307D01*
G01X340713Y352933D01*
G01X346321Y366471D01*
G01X348234Y381000D01*
G01X346321Y395529D01*
G01X340713Y409067D01*
G01X331793Y420693D01*
G01X320167Y429613D01*
G01X306629Y435221D01*
G01X292100Y437134D01*
G01X277571Y435221D01*
G01X264033Y429613D01*
G01X252407Y420693D01*
G01X243487Y409067D01*
G01X237879Y395529D01*
G01X235966Y381000D01*
G01X235966Y381000D01*
G01X197533Y381000D01*
G01X-174284Y752816D01*
G01X-182753Y759315D01*
G01X-192616Y763401D01*
G01X-203200Y764794D01*
G01X-503649Y764794D01*
G01X-502693Y773525D01*
G01X-448791Y827427D01*
G01X-444008Y813297D01*
G01X-435672Y800925D01*
G01X-424372Y791186D01*
G01X-410905Y784768D01*
G01X-396224Y782123D01*
G01X-381364Y783438D01*
G01X-367375Y788621D01*
G01X-355246Y797306D01*
G01X160861Y797306D01*
G01X401093Y557075D01*
G01X403396Y542795D01*
G01X409271Y529579D01*
G01X418329Y518302D01*
G01X429967Y509714D01*
G01X443414Y504385D01*
G01X457775Y502669D01*
G01X472099Y504679D01*
G01X485433Y510283D01*
G01X496893Y519107D01*
G01X505717Y530567D01*
G01X511321Y543901D01*
G01X513331Y558225D01*
G01X511615Y572586D01*
G01X506286Y586033D01*
G01X497698Y597671D01*
G01X486421Y606729D01*
G01X473205Y612604D01*
G01X458925Y614907D01*
G01X206716Y867116D01*
G01X198247Y873615D01*
G01X188384Y877701D01*
G01X177800Y879094D01*
G01X-355246Y879094D01*
G01X-363528Y885536D01*
G01X-372864Y890324D01*
G01X-382927Y893291D01*
G01X-326512Y949706D01*
G01X1286066Y949706D01*
G01X1286066Y877491D01*
G01X1287047Y866673D01*
G01X1289958Y856207D01*
G01X1277290Y854353D01*
G01X1265371Y849677D01*
G01X1254822Y842421D01*
G01X1246191Y832964D01*
G01X1239928Y821798D01*
G01X1236358Y809502D01*
G01X1235667Y796718D01*
G01X1237891Y784109D01*
G01X1242914Y772332D01*
G01X1250475Y762000D01*
G01X1242328Y750612D01*
G01X1237253Y737562D01*
G01X1235566Y723662D01*
G01X1237371Y709776D01*
G01X1242557Y696770D01*
G01X1250800Y685451D01*
G01X1242474Y673982D01*
G01X1237285Y660793D01*
G01X1235566Y646724D01*
G01X1237425Y632674D01*
G01X1242744Y619536D01*
G01X1251184Y608150D01*
G01X1243183Y600149D01*
G01X1233257Y592462D01*
G01X1214194Y573399D01*
G01X1214194Y790258D01*
G01X1212689Y799755D01*
G01X1208324Y808322D01*
G01X1201525Y815122D01*
G01X1192957Y819487D01*
G01X1183460Y820992D01*
G01X942073Y820992D01*
G01X933760Y819846D01*
G01X926067Y816494D01*
G01X919567Y811187D01*
G01X914400Y811624D01*
G01X685800Y811624D01*
G01X676303Y810120D01*
G01X667735Y805754D01*
G01X660936Y798955D01*
G01X656570Y790387D01*
G01X655066Y780890D01*
G01X655066Y436955D01*
G01X656570Y427457D01*
G01X660936Y418890D01*
G01X667735Y412090D01*
G01X676303Y407725D01*
G01X685800Y406221D01*
G01X755274Y406221D01*
G01X763944Y397551D01*
G01X750042Y392267D01*
G01X738016Y383517D01*
G01X728709Y371916D01*
G01X722776Y358278D01*
G01X720632Y343561D01*
G01X722429Y328798D01*
G01X728039Y315024D01*
G01X737069Y303207D01*
G01X748886Y294177D01*
G01X762660Y288566D01*
G01X777424Y286770D01*
G01X792141Y288914D01*
G01X805778Y294847D01*
G01X817379Y304153D01*
G01X826129Y316180D01*
G01X831413Y330082D01*
G01X853797Y307697D01*
G01X864108Y299786D01*
G01X876115Y294812D01*
G01X889000Y293116D01*
G01X1033479Y293116D01*
G01X1158597Y167997D01*
G01X1168908Y160086D01*
G01X1180915Y155112D01*
G01X1193800Y153416D01*
G01X1663700Y153416D01*
G01X1676585Y155112D01*
G01X1688592Y160086D01*
G01X1698903Y167997D01*
G01X1762403Y231497D01*
G01X1770314Y241808D01*
G01X1775288Y253815D01*
G01X1776984Y266700D01*
G01X1776984Y289279D01*
G01X1782658Y299759D01*
G01X1786154Y311151D01*
G01X1787335Y323009D01*
G01X1787335Y468709D01*
G01X1785349Y484034D01*
G01X1779523Y498348D01*
G01X1770242Y510704D01*
G01X1758118Y520286D01*
G01X1743952Y526463D01*
G01X1728680Y528825D01*
G01X1713310Y527217D01*
G01X1698858Y521745D01*
G01X1694563Y533740D01*
G01X1686973Y543973D01*
G01X1656312Y574634D01*
G01X1647317Y581536D01*
G01X1636841Y585875D01*
G01X1625600Y587355D01*
G01X1618234Y587355D01*
G01X1618234Y591609D01*
G01X1624541Y597916D01*
G01X1644650Y597916D01*
G01X1655892Y599396D01*
G01X1666367Y603735D01*
G01X1675362Y610638D01*
G01X1694391Y629666D01*
G01X1709209Y629666D01*
G01X1721888Y616988D01*
G01X1730883Y610085D01*
G01X1741358Y605746D01*
G01X1752600Y604266D01*
G01X1803400Y604266D01*
G01X1814155Y605619D01*
G01X1824240Y609592D01*
G01X1833027Y615940D01*
G01X1836166Y613664D01*
G01X1836166Y534403D01*
G01X1837646Y523162D01*
G01X1841985Y512686D01*
G01X1848888Y503691D01*
G01X1861588Y490991D01*
G01X1870583Y484088D01*
G01X1881058Y479749D01*
G01X1892300Y478269D01*
G01X1926749Y478269D01*
G01X1931530Y471162D01*
G01X1938087Y465651D01*
G01X1945910Y462163D01*
G01X1954392Y460969D01*
G01X2071689Y460969D01*
G01X2041184Y430464D01*
G01X2034685Y421995D01*
G01X2030599Y412132D01*
G01X2029206Y401548D01*
G01X2029206Y-63146D01*
G01X2020738Y-74872D01*
G01X2015547Y-88372D01*
G01X2013978Y-102750D01*
G01X2016135Y-117052D01*
G01X2021875Y-130329D01*
G01X2030816Y-141697D01*
G01X2042366Y-150404D01*
G01X2055757Y-155871D01*
G01X2070100Y-157734D01*
G01X2084443Y-155871D01*
G01X2097834Y-150404D01*
G01X2109384Y-141697D01*
G01X2118325Y-130329D01*
G01X2124065Y-117052D01*
G01X2126222Y-102750D01*
G01X2124653Y-88372D01*
G01X2119462Y-74872D01*
G01X2110994Y-63146D01*
G01X2110994Y130899D01*
G01X2119165Y130899D01*
G01X2120999Y109934D01*
G01X2126446Y89606D01*
G01X2135340Y70532D01*
G01X2147412Y53293D01*
G01X2162293Y38411D01*
G01X2179532Y26340D01*
G01X2198606Y17446D01*
G01X2218934Y11999D01*
G01X2239899Y10165D01*
G01X2260864Y11999D01*
G01X2281192Y17446D01*
G01X2300266Y26340D01*
G01X2317505Y38411D01*
G01X2332386Y53293D01*
G01X2344458Y70532D01*
G01X2353352Y89606D01*
G01X2358799Y109934D01*
G01X2360633Y130899D01*
G01X2358799Y151864D01*
G01X2353352Y172192D01*
G01X2344458Y191266D01*
G01X2332386Y208505D01*
G01X2317505Y223386D01*
G01X2300266Y235457D01*
G01X2281192Y244352D01*
G01X2260864Y249799D01*
G01X2239899Y251633D01*
G01X2239899Y251633D01*
G01X2218934Y249799D01*
G01X2198606Y244352D01*
G01X2179532Y235457D01*
G01X2162293Y223386D01*
G01X2147412Y208505D01*
G01X2135340Y191266D01*
G01X2126446Y172192D01*
G01X2120999Y151864D01*
G01X2119165Y130899D01*
G01X2110994Y130899D01*
G01X2110994Y384609D01*
G01X2113075Y386690D01*
G01X2158649Y386690D01*
G01X2158649Y286690D01*
G01X2160154Y277192D01*
G01X2164519Y268625D01*
G01X2171318Y261825D01*
G01X2179886Y257460D01*
G01X2189383Y255956D01*
G01X2469383Y255956D01*
G01X2478880Y257460D01*
G01X2487448Y261825D01*
G01X2494247Y268625D01*
G01X2498613Y277192D01*
G01X2500117Y286690D01*
G01X2500117Y386690D01*
G01X2498613Y396187D01*
G01X2494247Y404755D01*
G01X2487448Y411554D01*
G01X2478880Y415919D01*
G01X2469383Y417424D01*
G01X2189383Y417424D01*
G01X2189383Y417424D01*
G01X2179886Y415919D01*
G01X2171318Y411554D01*
G01X2164519Y404755D01*
G01X2160154Y396187D01*
G01X2158649Y386690D01*
G01X2113075Y386690D01*
G01X2178668Y452283D01*
G01X2185167Y460752D01*
G01X2189252Y470615D01*
G01X2190645Y481199D01*
G01X2190645Y687201D01*
G01X2189252Y697785D01*
G01X2185167Y707648D01*
G01X2178668Y716117D01*
G01X2161794Y732991D01*
G01X2161794Y768142D01*
G01X2166583Y761077D01*
G01X2173130Y755601D01*
G01X2180931Y752136D01*
G01X2189383Y750951D01*
G01X2469383Y750951D01*
G01X2478880Y752455D01*
G01X2487448Y756821D01*
G01X2494247Y763620D01*
G01X2498613Y772188D01*
G01X2500117Y781685D01*
G01X2500117Y881685D01*
G01X2498613Y891182D01*
G01X2494247Y899750D01*
G01X2487448Y906549D01*
G01X2478880Y910915D01*
G01X2469383Y912419D01*
G01X2300817Y912419D01*
G01X2308335Y919274D01*
G01X2313203Y928209D01*
G01X2314887Y938243D01*
G01X2314887Y1018243D01*
G01X2313383Y1027740D01*
G01X2309018Y1036308D01*
G01X2302218Y1043107D01*
G01X2293651Y1047473D01*
G01X2284153Y1048977D01*
G01X2204154Y1048977D01*
G01X2194642Y1047468D01*
G01X2186065Y1043090D01*
G01X2179263Y1036272D01*
G01X2174906Y1027684D01*
G01X2162292Y1027684D01*
G01X2156142Y1032011D01*
G01X2149127Y1034715D01*
G01X2141665Y1035634D01*
G01X2136592Y1035634D01*
G01X2140610Y1042679D01*
G01X2143431Y1050283D01*
G01X2149416Y1063877D01*
G01X2151626Y1078564D01*
G01X2149907Y1093317D01*
G01X2144379Y1107103D01*
G01X2135428Y1118956D01*
G01X2123683Y1128047D01*
G01X2109964Y1133739D01*
G01X2095232Y1135633D01*
G01X2080520Y1133598D01*
G01X2066856Y1127776D01*
G01X2055197Y1118573D01*
G01X2046360Y1106635D01*
G01X2040964Y1092798D01*
G01X2039385Y1078029D01*
G01X2015646Y1054290D01*
G01X2008725Y1045621D01*
G01X2003895Y1035634D01*
G01X1998536Y1035634D01*
G01X1989038Y1034130D01*
G01X1980471Y1029765D01*
G01X1973671Y1022965D01*
G01X1969306Y1014398D01*
G01X1967802Y1004900D01*
G01X1967802Y950900D01*
G01X1969306Y941402D01*
G01X1973671Y932835D01*
G01X1980471Y926035D01*
G01X1989038Y921670D01*
G01X1998536Y920166D01*
G01X2055101Y920166D01*
G01X2062851Y921159D01*
G01X2070100Y924074D01*
G01X2077349Y921159D01*
G01X2085099Y920166D01*
G01X2141665Y920166D01*
G01X2149127Y921085D01*
G01X2156142Y923789D01*
G01X2162292Y928116D01*
G01X2175136Y928116D01*
G01X2180032Y919197D01*
G01X2187573Y912365D01*
G01X2178519Y910434D01*
G01X2170450Y905895D01*
G01X2164100Y899158D01*
G01X2160044Y890837D01*
G01X2158649Y881685D01*
G01X2158649Y828526D01*
G01X2154879Y835554D01*
G01X2149816Y841716D01*
G01X2126207Y865325D01*
G01X2123904Y879605D01*
G01X2118029Y892821D01*
G01X2108971Y904098D01*
G01X2097333Y912686D01*
G01X2083886Y918015D01*
G01X2069525Y919731D01*
G01X2055201Y917721D01*
G01X2041867Y912117D01*
G01X2030407Y903293D01*
G01X2021583Y891833D01*
G01X2015979Y878499D01*
G01X2013969Y864175D01*
G01X2015685Y849814D01*
G01X2021014Y836367D01*
G01X2029602Y824729D01*
G01X2040879Y815671D01*
G01X2054095Y809796D01*
G01X2068375Y807493D01*
G01X2080006Y795861D01*
G01X2080006Y716052D01*
G01X2080925Y707431D01*
G01X2075434Y707431D01*
G01X2075434Y723900D01*
G01X2073954Y735142D01*
G01X2069615Y745617D01*
G01X2062712Y754612D01*
G01X2032131Y785194D01*
G01X2023135Y792097D01*
G01X2012660Y796436D01*
G01X2001418Y797916D01*
G01X1933340Y797916D01*
G01X1926482Y806201D01*
G01X1917190Y811617D01*
G01X1906600Y813499D01*
G01X1852600Y813499D01*
G01X1842010Y811617D01*
G01X1832718Y806201D01*
G01X1825860Y797916D01*
G01X1649984Y797916D01*
G01X1649984Y843761D01*
G01X1655658Y854241D01*
G01X1659154Y865633D01*
G01X1660335Y877491D01*
G01X1660335Y1023191D01*
G01X1658714Y1037057D01*
G01X1668686Y1037057D01*
G01X1667066Y1023191D01*
G01X1667066Y877491D01*
G01X1668813Y863100D01*
G01X1673954Y849545D01*
G01X1682189Y837615D01*
G01X1693040Y828002D01*
G01X1705876Y821265D01*
G01X1719952Y817795D01*
G01X1734448Y817795D01*
G01X1748524Y821265D01*
G01X1761360Y828002D01*
G01X1772211Y837615D01*
G01X1780446Y849545D01*
G01X1785587Y863100D01*
G01X1787335Y877491D01*
G01X1787335Y1023191D01*
G01X1786053Y1035537D01*
G01X1782265Y1047357D01*
G01X1776130Y1058148D01*
G01X1767911Y1067449D01*
G01X1765954Y1076638D01*
G01X1761952Y1085137D01*
G01X1756116Y1092499D01*
G01X1741748Y1106868D01*
G01X1733278Y1113367D01*
G01X1723416Y1117452D01*
G01X1712831Y1118845D01*
G01X942843Y1118845D01*
G01X942843Y1573859D01*
G01X941339Y1583357D01*
G01X936973Y1591924D01*
G01X930174Y1598724D01*
G01X921606Y1603089D01*
G01X912109Y1604593D01*
G01X744686Y1604593D01*
G01X745518Y1611695D01*
G01X745518Y1781694D01*
G01X744206Y1790577D01*
G01X740383Y1798702D01*
G01X734375Y1805375D01*
G01X726694Y1810027D01*
G01X726694Y1841500D01*
G01X725301Y1852084D01*
G01X721215Y1861947D01*
G01X714716Y1870416D01*
G01X713427Y1871706D01*
G01X914057Y1871706D01*
G01X915561Y1862208D01*
G01X919927Y1853641D01*
G01X926726Y1846841D01*
G01X935294Y1842476D01*
G01X944791Y1840972D01*
G01X1044791Y1840972D01*
G01X1054288Y1842476D01*
G01X1062856Y1846841D01*
G01X1069655Y1853641D01*
G01X1074021Y1862208D01*
G01X1075525Y1871706D01*
G01X1075525Y2151705D01*
G01X1074021Y2161202D01*
G01X1069655Y2169770D01*
G01X1062856Y2176569D01*
G01X1054288Y2180935D01*
G01X1044791Y2182439D01*
G01X944791Y2182439D01*
G01X935294Y2180935D01*
G01X926726Y2176569D01*
G01X919927Y2169770D01*
G01X915561Y2161202D01*
G01X914057Y2151705D01*
G01X914057Y1871706D01*
G01X914057Y1871706D01*
G01X713427Y1871706D01*
G01X651216Y1933916D01*
G01X642747Y1940415D01*
G01X632884Y1944501D01*
G01X622300Y1945894D01*
G01X368968Y1945894D01*
G01X358384Y1944501D01*
G01X348521Y1940415D01*
G01X340051Y1933916D01*
G01X330543Y1924408D01*
G01X330543Y2151705D01*
G01X329039Y2161202D01*
G01X324673Y2169770D01*
G01X317874Y2176569D01*
G01X309306Y2180935D01*
G01X299809Y2182439D01*
G01X199809Y2182439D01*
G01X190505Y2180997D01*
G01X182074Y2176806D01*
G01X175308Y2170259D01*
G01X170840Y2161971D01*
G01X170840Y2187100D01*
G01X169336Y2196597D01*
G01X164971Y2205165D01*
G01X158171Y2211964D01*
G01X149604Y2216330D01*
G01X140106Y2217834D01*
G01X40107Y2217834D01*
G01X30609Y2216330D01*
G01X22042Y2211964D01*
G01X15242Y2205165D01*
G01X10877Y2196597D01*
G01X9373Y2187100D01*
G01X9373Y1907101D01*
G01X10800Y1897842D01*
G01X14951Y1889444D01*
G01X-90302Y1994697D01*
G01X-98771Y2001195D01*
G01X-108634Y2005281D01*
G01X-119218Y2006674D01*
G01X-322302Y2006674D01*
G01X-332886Y2005281D01*
G01X-342749Y2001195D01*
G01X-351219Y1994697D01*
G01X-423281Y1922634D01*
G01X-949173Y1922634D01*
G01X-949173Y2187100D01*
G01X-950677Y2196597D01*
G01X-955042Y2205165D01*
G01X-961842Y2211964D01*
G01X-970409Y2216330D01*
G01X-979907Y2217834D01*
G37*
G36*
G01X-918807Y1421139D02*
G01X-908523Y1426587D01*
G01X-899583Y1434038D01*
G01X-887863Y1424837D01*
G01X-874135Y1419044D01*
G01X-859367Y1417066D01*
G01X-844598Y1419044D01*
G01X-830870Y1424837D01*
G01X-819150Y1434038D01*
G01X-807430Y1424837D01*
G01X-793702Y1419044D01*
G01X-778933Y1417066D01*
G01X-764165Y1419044D01*
G01X-750437Y1424837D01*
G01X-738717Y1434038D01*
G01X-728130Y1425523D01*
G01X-715807Y1419801D01*
G01X-702470Y1417207D01*
G01X-688901Y1417893D01*
G01X-675894Y1421819D01*
G01X-675894Y989777D01*
G01X-797306Y868365D01*
G01X-797306Y1282700D01*
G01X-798699Y1293284D01*
G01X-802785Y1303147D01*
G01X-809284Y1311616D01*
G01X-918807Y1421139D01*
G37*
G36*
G01X-761705Y699400D02*
G01X-753426Y686914D01*
G01X-742140Y677062D01*
G01X-728649Y670547D01*
G01X-713916Y667832D01*
G01X-698989Y669110D01*
G01X-684932Y674291D01*
G01X-672746Y683006D01*
G01X-220139Y683006D01*
G01X-139486Y602354D01*
G01X-858752Y602354D01*
G01X-761705Y699400D01*
G37*
G36*
G01X-428993Y1206726D02*
G01X-416777Y1202945D01*
G01X-404022Y1202028D01*
G01X-391390Y1204022D01*
G01X-379537Y1208823D01*
G01X-369079Y1216182D01*
G01X-360557Y1225716D01*
G01X-354415Y1236933D01*
G01X-350970Y1249248D01*
G01X-350402Y1262023D01*
G01X-352741Y1274596D01*
G01X-357864Y1286313D01*
G01X-365506Y1296566D01*
G01X-365506Y1494361D01*
G01X-315952Y1543915D01*
G01X-309453Y1552385D01*
G01X-305368Y1562247D01*
G01X-303974Y1572832D01*
G01X-303974Y1598361D01*
G01X-295917Y1602904D01*
G01X-289576Y1609639D01*
G01X-285527Y1617955D01*
G01X-284135Y1627100D01*
G01X-284135Y1797100D01*
G01X-285639Y1806597D01*
G01X-290004Y1815165D01*
G01X-296804Y1821964D01*
G01X-305371Y1826329D01*
G01X-314869Y1827834D01*
G01X-359254Y1827834D01*
G01X-292721Y1894366D01*
G01X-148799Y1894366D01*
G01X-82266Y1827834D01*
G01X-124882Y1827834D01*
G01X-134379Y1826329D01*
G01X-142947Y1821964D01*
G01X-149746Y1815165D01*
G01X-154111Y1806597D01*
G01X-155616Y1797100D01*
G01X-155616Y1627100D01*
G01X-154111Y1617603D01*
G01X-149746Y1609035D01*
G01X-142947Y1602236D01*
G01X-134379Y1597870D01*
G01X-124882Y1596366D01*
G01X-64882Y1596366D01*
G01X-55477Y1597840D01*
G01X-46974Y1602122D01*
G01X-40189Y1608801D01*
G01X-35774Y1617235D01*
G01X-34152Y1626616D01*
G01X-29882Y1626616D01*
G01X-16410Y1621667D01*
G01X-2124Y1620296D01*
G01X12044Y1622592D01*
G01X25166Y1628406D01*
G01X36384Y1637358D01*
G01X44967Y1648861D01*
G01X50351Y1662165D01*
G01X52186Y1676400D01*
G01X50351Y1690635D01*
G01X44967Y1703939D01*
G01X36384Y1715442D01*
G01X25166Y1724394D01*
G01X12044Y1730208D01*
G01X-2124Y1732504D01*
G01X-16410Y1731133D01*
G01X-29882Y1726184D01*
G01X-34148Y1726184D01*
G01X-34148Y1779715D01*
G01X1603Y1743964D01*
G01X10073Y1737465D01*
G01X19936Y1733380D01*
G01X30520Y1731986D01*
G01X286980Y1731986D01*
G01X297564Y1733380D01*
G01X307427Y1737465D01*
G01X315897Y1743964D01*
G01X385239Y1813306D01*
G01X478361Y1813306D01*
G01X500540Y1791127D01*
G01X499057Y1781694D01*
G01X499057Y1611695D01*
G01X500314Y1602992D01*
G01X492946Y1599358D01*
G01X494878Y1605392D01*
G01X495531Y1611695D01*
G01X495531Y1781694D01*
G01X494027Y1791192D01*
G01X489661Y1799759D01*
G01X482862Y1806559D01*
G01X474294Y1810924D01*
G01X464797Y1812428D01*
G01X404797Y1812428D01*
G01X395300Y1810924D01*
G01X386732Y1806559D01*
G01X379933Y1799759D01*
G01X375567Y1791192D01*
G01X374063Y1781694D01*
G01X374063Y1726184D01*
G01X368834Y1726184D01*
G01X355362Y1731133D01*
G01X341075Y1732504D01*
G01X326908Y1730208D01*
G01X313786Y1724394D01*
G01X302567Y1715442D01*
G01X293985Y1703939D01*
G01X288601Y1690635D01*
G01X286766Y1676400D01*
G01X288601Y1662165D01*
G01X293985Y1648861D01*
G01X302567Y1637358D01*
G01X313786Y1628406D01*
G01X326908Y1622592D01*
G01X341075Y1620296D01*
G01X355362Y1621667D01*
G01X368834Y1626616D01*
G01X374063Y1626616D01*
G01X374063Y1611695D01*
G01X375567Y1602197D01*
G01X379933Y1593630D01*
G01X386732Y1586830D01*
G01X395300Y1582465D01*
G01X404797Y1580961D01*
G01X464797Y1580961D01*
G01X473766Y1582299D01*
G01X481955Y1586196D01*
G01X480023Y1580161D01*
G01X479370Y1573859D01*
G01X479370Y1118845D01*
G01X-357149Y1118845D01*
G01X-367733Y1117452D01*
G01X-377596Y1113367D01*
G01X-386065Y1106868D01*
G01X-428993Y1063940D01*
G01X-428993Y1206726D01*
G37*
G36*
G01X-169976Y-483006D02*
G01X-168026Y-492040D01*
G01X-163479Y-500085D01*
G01X-156746Y-506415D01*
G01X-148436Y-510457D01*
G01X-139300Y-511847D01*
G01X-89300Y-511847D01*
G01X-80164Y-510457D01*
G01X-71854Y-506415D01*
G01X-65121Y-500085D01*
G01X-60574Y-492040D01*
G01X-58624Y-483006D01*
G01X-52245Y-483006D01*
G01X-32334Y-502917D01*
G01X-32334Y-531101D01*
G01X-31341Y-538851D01*
G01X-28426Y-546100D01*
G01X-31341Y-553349D01*
G01X-32334Y-561099D01*
G01X-32334Y-589283D01*
G01X-52245Y-609194D01*
G01X-58624Y-609194D01*
G01X-60574Y-600160D01*
G01X-65121Y-592115D01*
G01X-71854Y-585785D01*
G01X-80164Y-581743D01*
G01X-89300Y-580353D01*
G01X-139300Y-580353D01*
G01X-150089Y-582309D01*
G01X-159504Y-587927D01*
G01X-166348Y-596494D01*
G01X-215546Y-596494D01*
G01X-225980Y-588747D01*
G01X-237915Y-583607D01*
G01X-250713Y-581350D01*
G01X-263686Y-582096D01*
G01X-276141Y-585805D01*
G01X-287409Y-592278D01*
G01X-296886Y-601169D01*
G01X-296886Y-583319D01*
G01X-196574Y-483006D01*
G01X-169976Y-483006D01*
G37*
G36*
G01X40107Y1876367D02*
G01X140106Y1876367D01*
G01X149410Y1877809D01*
G01X157841Y1882000D01*
G01X164608Y1888547D01*
G01X169075Y1896834D01*
G01X169075Y1871706D01*
G01X170233Y1863349D01*
G01X173620Y1855621D01*
G01X178980Y1849106D01*
G01X185910Y1844294D01*
G01X60101Y1844294D01*
G01X22450Y1881945D01*
G01X30848Y1877794D01*
G01X40107Y1876367D01*
G37*
G36*
G01X176327Y172240D02*
G01X179772Y163390D01*
G01X185166Y155573D01*
G01X185166Y71979D01*
G01X175528Y64008D01*
G01X167894Y54100D01*
G01X167894Y180673D01*
G01X176327Y172240D01*
G37*
G36*
G01X896085Y406221D02*
G01X914400Y406221D01*
G01X924832Y408045D01*
G01X934025Y413303D01*
G01X940889Y421368D01*
G01X942073Y421345D01*
G01X1183460Y421345D01*
G01X1193799Y423137D01*
G01X1202934Y428302D01*
G01X1209798Y436240D01*
G01X1213591Y446024D01*
G01X1225720Y449376D01*
G01X1225720Y252984D01*
G01X1214421Y252984D01*
G01X1089303Y378103D01*
G01X1078992Y386014D01*
G01X1066985Y390988D01*
G01X1054100Y392684D01*
G01X909621Y392684D01*
G01X896085Y406221D01*
G37*
G54D10*
G01X707832Y447115D02*
G03X695960Y455739I-38644J-40715D01*
G01X695960Y528924D01*
G03X698652Y546100I-53442J17176D01*
G03X695960Y563276I-56134J0D01*
G01X695960Y770730D01*
G01X904240Y770730D01*
G01X904240Y564077D01*
G03X845566Y508000I-2540J-56077D01*
G03X904240Y451923I56134J0D01*
G01X904240Y447115D01*
G01X707832Y447115D01*
G01X957834Y508000D02*
G03X952233Y532442I-56134J0D01*
G01X952233Y593084D01*
G03X1021334Y647700I12967J54616D01*
G03X952233Y702316I-56134J0D01*
G01X952233Y780098D01*
G01X1173300Y780098D01*
G01X1173300Y462239D01*
G01X952233Y462239D01*
G01X952233Y483558D01*
G03X957834Y508000I-50533J24442D01*
G01X703837Y1127449D02*
G01X703941Y1124915D01*
G01X520264Y1124915D01*
G01X520264Y1563699D01*
G01X901949Y1563699D01*
G01X901949Y1124915D01*
G01X822700Y1124915D01*
G01X822805Y1127449D01*
G01X822805Y1194949D01*
G03X792071Y1225683I-30734J0D01*
G01X734571Y1225683D01*
G03X703837Y1194949I0J-30734D01*
G01X703837Y1127449D01*
G01X1712831Y1118845D02*
G01X954721Y1118845D01*
G01X954721Y1646118D01*
G01X1211479Y1646118D01*
G03X1800763Y1309578I340914J-87247D01*
G02X2064300Y1304828I129307J-138918D01*
G01X2064300Y1126165D01*
G03X2053578Y1116830I31200J-46665D01*
G01X1725510Y1116830D01*
G03X1712831Y1118845I-12678J-38879D01*
G01X-907422Y-1958340D02*
G01X-907422Y-1699260D01*
G01X1196340Y-1699260D01*
G01X1196340Y-1958340D01*
G01X-907422Y-1958340D01*
G01X835660Y-1945640D02*
G01X835660Y-505460D01*
G01X1196340Y-505460D01*
G01X1196340Y-1945640D01*
G01X835660Y-1945640D01*
G01X937260Y-835672D02*
G01X937260Y-505460D01*
G01X1424940Y-505460D01*
G01X1424940Y-835672D01*
G01X937260Y-835672D01*
G01X-2335276Y-715462D02*
G01X-2335276Y-83047D01*
G03X-2315499Y-88879I21082J35041D01*
G03X-2308795Y-122999I43796J-9114D01*
G03X-2271702Y-192740I37093J-25006D01*
G01X-2119704Y-192740D01*
G03X-2109186Y-191486I0J44734D01*
G03X-2110440Y-202004I43481J-10517D01*
G01X-2110440Y-354002D01*
G03X-2056587Y-397798I44734J0D01*
G01X-2056587Y-554939D01*
G03X-2039503Y-649272I37287J-41961D01*
G01X-2052631Y-662400D01*
G03X-2063526Y-680647I30712J-30712D01*
G03X-2067094Y-682904I14607J-27041D01*
G01X-2129935Y-682904D01*
G03X-2201724Y-745500I-16365J-53696D01*
G03X-2113947Y-782472I55424J8900D01*
G01X-2067094Y-782472D01*
G03X-2048919Y-788422I18175J24784D01*
G01X-1994919Y-788422D01*
G03X-1964185Y-757688I0J30734D01*
G01X-1964185Y-707688D01*
G03X-1965660Y-698279I-30734J0D01*
G01X-1956458Y-689076D01*
G03X-1962734Y-707688I24457J-18612D01*
G01X-1962734Y-757688D01*
G03X-1932000Y-788422I30734J0D01*
G01X-1878000Y-788422D01*
G03X-1847266Y-757688I0J30734D01*
G01X-1847266Y-707688D01*
G03X-1861566Y-681717I-30734J0D01*
G01X-1861566Y-673100D01*
G03X-1872259Y-644559I-43434J0D01*
G01X-1872259Y-364710D01*
G03X-1870959Y-354002I-43434J10708D01*
G01X-1870959Y-202004D01*
G03X-1872224Y-191440I-44734J0D01*
G01X-1859163Y-191440D01*
G03X-1860428Y-202004I43469J-10564D01*
G01X-1860428Y-354002D01*
G03X-1856994Y-371191I44734J0D01*
G01X-1856994Y-384220D01*
G03X-1855840Y-393866I40894J0D01*
G01X-1855840Y-418934D01*
G03X-1856994Y-428580I39740J-9646D01*
G01X-1856994Y-456846D01*
G03X-1865449Y-522053I40894J-38454D01*
G03X-1806194Y-550553I49349J26753D01*
G01X-1806194Y-736600D01*
G03X-1794216Y-765516I40894J0D01*
G01X-1768816Y-790916D01*
G03X-1739900Y-802894I28916J28916D01*
G01X-1547693Y-802894D01*
G03X-1532104Y-807141I15589J26487D01*
G01X-1465604Y-807141D01*
G03X-1434870Y-776407I0J30734D01*
G01X-1434870Y-748406D01*
G03X-1436908Y-737400I-30734J0D01*
G03X-1434870Y-726394I-28696J11006D01*
G01X-1434870Y-698393D01*
G03X-1436903Y-687400I-30734J0D01*
G03X-1434870Y-676407I-28701J10993D01*
G01X-1434870Y-648406D01*
G03X-1436908Y-637400I-30734J0D01*
G03X-1434870Y-626394I-28696J11006D01*
G01X-1434870Y-610643D01*
G01X-1419093Y-610643D01*
G03X-1408100Y-608609I0J30734D01*
G03X-1397107Y-610643I10993J28701D01*
G01X-1369106Y-610643D01*
G03X-1358100Y-608605I0J30734D01*
G03X-1347094Y-610643I11006J28696D01*
G01X-1319093Y-610643D01*
G03X-1308100Y-608609I0J30734D01*
G03X-1297107Y-610643I10993J28701D01*
G01X-1269106Y-610643D01*
G03X-1258100Y-608605I0J30734D01*
G03X-1247094Y-610643I11006J28696D01*
G01X-1219093Y-610643D01*
G03X-1208100Y-608609I0J30734D01*
G03X-1197107Y-610643I10993J28701D01*
G01X-1169106Y-610643D01*
G03X-1139338Y-587553I0J30734D01*
G01X-978459Y-587553D01*
G03X-975477Y-587444I0J40894D01*
G01X-1053362Y-665329D01*
G01X-1053362Y-648406D01*
G03X-1084096Y-617672I-30734J0D01*
G01X-1150596Y-617672D01*
G03X-1181330Y-648406I0J-30734D01*
G01X-1181330Y-676407D01*
G03X-1179297Y-687400I30734J0D01*
G03X-1181330Y-698393I28701J-10993D01*
G01X-1181330Y-726394D01*
G03X-1179292Y-737400I30734J0D01*
G03X-1181330Y-748406I28696J-11006D01*
G01X-1181330Y-776407D01*
G03X-1179297Y-787400I30734J0D01*
G03X-1181330Y-798393I28701J-10993D01*
G01X-1181330Y-826394D01*
G03X-1179292Y-837400I30734J0D01*
G03X-1181330Y-848406I28696J-11006D01*
G01X-1181330Y-876407D01*
G03X-1179297Y-887400I30734J0D01*
G03X-1181330Y-898393I28701J-10993D01*
G01X-1181330Y-926394D01*
G03X-1179292Y-937400I30734J0D01*
G03X-1181330Y-948406I28696J-11006D01*
G01X-1181330Y-964157D01*
G01X-1197107Y-964157D01*
G03X-1208100Y-966191I0J-30734D01*
G03X-1219093Y-964157I-10993J-28701D01*
G01X-1247094Y-964157D01*
G03X-1258100Y-966195I0J-30734D01*
G03X-1269106Y-964157I-11006J-28696D01*
G01X-1297107Y-964157D01*
G03X-1308100Y-966191I0J-30734D01*
G03X-1319093Y-964157I-10993J-28701D01*
G01X-1347094Y-964157D01*
G03X-1358100Y-966195I0J-30734D01*
G03X-1369106Y-964157I-11006J-28696D01*
G01X-1397107Y-964157D01*
G03X-1408100Y-966191I0J-30734D01*
G03X-1419093Y-964157I-10993J-28701D01*
G01X-1434870Y-964157D01*
G01X-1434870Y-948406D01*
G03X-1436908Y-937400I-30734J0D01*
G03X-1434870Y-926394I-28696J11006D01*
G01X-1434870Y-898393D01*
G03X-1436903Y-887400I-30734J0D01*
G03X-1434870Y-876407I-28701J10993D01*
G01X-1434870Y-848406D01*
G03X-1465604Y-817672I-30734J0D01*
G01X-1532104Y-817672D01*
G03X-1546981Y-821512I0J-30734D01*
G01X-1743768Y-821512D01*
G03X-1772684Y-833490I0J-40894D01*
G01X-1839105Y-899910D01*
G03X-1851082Y-928827I28916J-28916D01*
G01X-1851082Y-1153973D01*
G03X-1839105Y-1182890I40894J0D01*
G01X-1784910Y-1237085D01*
G03X-1755993Y-1249063I28916J28916D01*
G01X-1741922Y-1249063D01*
G03X-1732215Y-1256383I38454J40894D01*
G03X-1800769Y-1309584I179822J-302487D01*
G02X-2065338Y-1303755I-129292J138762D01*
G02X-2335276Y-715462I2065336J1303754D01*
G01X-2191334Y876399D02*
G01X-2328053Y739680D01*
G02X-2066550Y1302432I2328053J-739679D01*
G02X-1807246Y1303106I130012J-138088D01*
G03X-1710204Y1234694I248376J249287D01*
G01X-1981200Y1234694D01*
G03X-2010116Y1222716I0J-40894D01*
G01X-2021025Y1211807D01*
G03X-2074924Y1163252I1725J-56107D01*
G03X-2035922Y1102084I55624J-7552D01*
G01X-2048703Y1089303D01*
G03X-2063285Y1054100I35203J-35203D01*
G01X-2063285Y1031288D01*
G03X-2071235Y1010661I22784J-20627D01*
G01X-2071235Y954095D01*
G03X-2067327Y939096I30734J0D01*
G03X-2070465Y930935I26826J-14999D01*
G01X-2080295Y930935D01*
G03X-2106600Y945775I-26305J-15894D01*
G01X-2160600Y945775D01*
G03X-2191334Y915041I0J-30734D01*
G01X-2191334Y876399D01*
G01X-1329192Y1152906D02*
G03X-1300276Y1164884I0J40894D01*
G01X-1263155Y1202005D01*
G03X-1234694Y1210785I-1725J56107D01*
G01X-1234694Y1071039D01*
G01X-1439339Y866394D01*
G01X-1565950Y866394D01*
G03X-1564026Y877098I-28810J10704D01*
G01X-1564026Y957097D01*
G03X-1588037Y987087I-30734J0D01*
G03X-1564026Y1017077I-6722J29990D01*
G01X-1564026Y1097077D01*
G03X-1594760Y1127811I-30734J0D01*
G01X-1638294Y1127811D01*
G03X-1673083Y1141984I-34790J-35611D01*
G01X-1749887Y1141984D01*
G03X-1831955Y1092200I-25934J-49784D01*
G03X-1749887Y1042416I56134J0D01*
G01X-1711894Y1042416D01*
G01X-1711894Y1017077D01*
G03X-1687883Y987087I30734J0D01*
G03X-1711894Y957097I6722J-29990D01*
G01X-1711894Y933475D01*
G01X-1721606Y933475D01*
G03X-1746198Y945775I-24592J-18434D01*
G01X-1800198Y945775D01*
G03X-1826503Y930935I0J-30734D01*
G01X-1840096Y930935D01*
G03X-1866401Y945775I-26305J-15894D01*
G01X-1920402Y945775D01*
G03X-1951136Y915041I0J-30734D01*
G01X-1951136Y865041D01*
G03X-1933194Y837096I30734J0D01*
G01X-1933194Y791639D01*
G01X-1985439Y739394D01*
G01X-2133600Y739394D01*
G03X-2162516Y727416I0J-40894D01*
G01X-2224619Y665313D01*
G03X-2236597Y636397I28916J-28916D01*
G01X-2236597Y446740D01*
G01X-2271702Y446740D01*
G03X-2283206Y445236I0J-44734D01*
G01X-2283206Y668861D01*
G01X-2117760Y834307D01*
G01X-2106600Y834307D01*
G03X-2080295Y849147I0J30734D01*
G01X-2065130Y849147D01*
G03X-2060194Y843936I24629J18385D01*
G01X-2060194Y838554D01*
G03X-2019663Y743967I40894J-38454D01*
G03X-1977912Y838022I363J56133D01*
G03X-1955766Y867532I-8588J29510D01*
G01X-1955766Y924098D01*
G03X-1959675Y939096I-30734J0D01*
G03X-1955766Y954095I-26826J14999D01*
G01X-1955766Y1010661D01*
G03X-1963717Y1031288I-30734J0D01*
G01X-1963717Y1033479D01*
G01X-1960898Y1036298D01*
G03X-1899684Y1093625I5098J55902D01*
G03X-1963729Y1147771I-56116J-1425D01*
G03X-1963236Y1152906I-55571J7929D01*
G01X-1329192Y1152906D01*
G01X-1560319Y999065D02*
G01X-1560319Y949065D01*
G03X-1529585Y918331I30734J0D01*
G01X-1475585Y918331D01*
G03X-1444851Y949065I0J30734D01*
G01X-1444851Y999065D01*
G03X-1453548Y1020487I-30734J0D01*
G01X-1453548Y1066266D01*
G03X-1503332Y1148334I-49784J25934D01*
G03X-1553116Y1066266I0J-56134D01*
G01X-1553116Y1018836D01*
G03X-1560319Y999065I23530J-19772D01*
G01X-2116661Y657606D02*
G01X-1968500Y657606D01*
G03X-1939584Y669584I0J40894D01*
G01X-1863384Y745784D01*
G03X-1859534Y750231I-28916J28916D01*
G01X-1859534Y616901D01*
G03X-1860428Y608002I43840J-8899D01*
G01X-1860428Y456004D01*
G03X-1817739Y411316I44734J0D01*
G01X-1819210Y409916D01*
G01X-1964586Y264540D01*
G03X-2057754Y292887I-54714J-12547D01*
G01X-2075908Y292887D01*
G03X-2082603Y327000I-43795J9119D01*
G03X-2082611Y377000I-37101J24994D01*
G03X-2119704Y446740I-37093J25006D01*
G01X-2154809Y446740D01*
G01X-2154809Y619458D01*
G01X-2116661Y657606D01*
G01X-2060428Y608002D02*
G01X-2060428Y456004D01*
G03X-1990700Y418903I44734J0D01*
G03X-1940700Y418911I24994J37101D01*
G03X-1870959Y456004I25006J37093D01*
G01X-1870959Y608002D01*
G03X-1940700Y645095I-44734J0D01*
G03X-1990700Y645103I-25006J-37093D01*
G03X-2060428Y608002I-24994J-37101D01*
G01X-2019300Y111100D02*
G03X-1990384Y123077I0J40894D01*
G01X-1773355Y340106D01*
G01X-1600554Y340106D01*
G03X-1526242Y337811I38454J40894D01*
G03X-1514832Y411277I-35858J43189D01*
G03X-1505177Y412523I-863J44726D01*
G03X-1498789Y377000I43481J-10517D01*
G03X-1498797Y327000I37093J-25006D01*
G03X-1498789Y277000I37101J-24994D01*
G03X-1498797Y227000I37093J-25006D01*
G03X-1498789Y177000I37101J-24994D01*
G03X-1498797Y127000I37093J-25006D01*
G03X-1498789Y77000I37101J-24994D01*
G03X-1498797Y27000I37093J-25006D01*
G03X-1498789Y-23000I37101J-24994D01*
G03X-1498797Y-73000I37093J-25006D01*
G03X-1505944Y-104572I37101J-24994D01*
G01X-1900606Y-104572D01*
G03X-1931318Y-117293I0J-43434D01*
G01X-1946406Y-132381D01*
G03X-1958804Y-157805I30712J-30712D01*
G03X-1965774Y-157269I-6902J-44199D01*
G03X-1951692Y-97157I-38606J40750D01*
G03X-2001348Y-60467I-52689J-19363D01*
G03X-2076855Y-10845I-56052J-3033D01*
G03X-2082603Y27000I-42849J12852D01*
G03X-2082611Y77000I-37101J24994D01*
G03X-2075903Y111100I-37093J25006D01*
G01X-2019300Y111100D01*
G01X-1771542Y50225D02*
G01X-1701730Y120037D01*
G03X-1647698Y182638I-1725J56107D01*
G03X-1714669Y231147I-55757J-6493D01*
G03X-1821374Y230358I-53224J-17840D01*
G01X-1883499Y168233D01*
G03X-1937881Y110385I1725J-56107D01*
G03X-1880018Y56020I56107J1741D01*
G03X-1771542Y50225I54994J11257D01*
G01X-1618266Y683006D02*
G01X-1557335Y683006D01*
G03X-1565616Y676616I20635J-35306D01*
G01X-1594623Y647610D01*
G03X-1605351Y628728I28916J-28916D01*
G03X-1610441Y608002I39644J-20726D01*
G01X-1610441Y456004D01*
G03X-1597517Y424551I44734J0D01*
G03X-1600554Y421894I35417J-43551D01*
G01X-1636763Y421894D01*
G03X-1620972Y456004I-28943J34110D01*
G01X-1620972Y608002D01*
G03X-1624813Y626137I-44734J0D01*
G01X-1624813Y676460D01*
G01X-1618266Y683006D01*
G01X-797306Y364061D02*
G01X-762881Y398486D01*
G01X-637894Y398486D01*
G03X-655937Y370495I12691J-27992D01*
G01X-655937Y230495D01*
G03X-625203Y199761I30734J0D01*
G01X-510202Y199761D01*
G03X-479468Y230495I0J30734D01*
G01X-479468Y280518D01*
G01X-459705Y280518D01*
G03X-433400Y265678I26305J15894D01*
G01X-379400Y265678D01*
G03X-348666Y296412I0J30734D01*
G01X-348666Y346412D01*
G03X-379400Y377146I-30734J0D01*
G01X-433400Y377146D01*
G03X-459705Y362306I0J-30734D01*
G01X-479468Y362306D01*
G01X-479468Y370495D01*
G03X-510202Y401229I-30734J0D01*
G01X-516237Y401229D01*
G01X-516237Y404731D01*
G03X-524221Y429006I-40894J0D01*
G01X-207439Y429006D01*
G01X-115913Y337480D01*
G01X-115913Y279754D01*
G03X-75019Y185166I40894J-38454D01*
G03X-34125Y279754I0J56134D01*
G01X-34125Y339530D01*
G01X86106Y219299D01*
G01X86106Y-111546D01*
G03X127000Y-206134I40894J-38454D01*
G03X167894Y-111546I0J56134D01*
G01X167894Y-4088D01*
G03X197734Y-28107I48006J29094D01*
G03X201213Y-123993I30866J-46886D01*
G03X284707Y-76719I27387J49000D01*
G01X303197Y-58230D01*
G03X315174Y-29313I-28916J28916D01*
G01X315174Y175282D01*
G03X313241Y187706I-40894J0D01*
G01X491061Y187706D01*
G01X758484Y-79716D01*
G03X787400Y-91694I28916J28916D01*
G01X815421Y-91694D01*
G03X830669Y-106023I27414J13894D01*
G01X830669Y-116613D01*
G03X812546Y-144640I12611J-28027D01*
G01X812546Y-198641D01*
G03X843280Y-229375I30734J0D01*
G01X899846Y-229375D01*
G03X914845Y-225466I0J30734D01*
G03X917232Y-226668I14999J26826D01*
G01X917232Y-306426D01*
G03X929210Y-335342I40894J0D01*
G01X952418Y-358550D01*
G03X962463Y-464566I101682J-43849D01*
G01X825500Y-464566D01*
G03X794766Y-495300I0J-30734D01*
G01X794766Y-1658366D01*
G01X-917582Y-1658366D01*
G03X-948057Y-1685116I0J-30734D01*
G03X-978300Y-1659853I-30243J-5471D01*
G01X-1028300Y-1659853D01*
G03X-1058976Y-1688694I0J-30734D01*
G01X-1065355Y-1688694D01*
G01X-1085266Y-1668783D01*
G01X-1085266Y-1640599D01*
G03X-1089174Y-1625600I-30734J0D01*
G03X-1085266Y-1610601I-26826J14999D01*
G01X-1085266Y-1582417D01*
G01X-1065355Y-1562506D01*
G01X-1058976Y-1562506D01*
G03X-1028300Y-1591347I30676J1894D01*
G01X-978300Y-1591347D01*
G03X-947566Y-1560613I0J30734D01*
G01X-947566Y-1482612D01*
G03X-966269Y-1454331I-30734J0D01*
G03X-972715Y-1445952I-35363J-20538D01*
G01X-987084Y-1431584D01*
G03X-1016000Y-1419606I-28916J-28916D01*
G01X-1050948Y-1419606D01*
G03X-1075807Y-1387094I-53953J-15494D01*
G01X-673100Y-1387094D01*
G03X-644184Y-1375116I0J40894D01*
G01X-618784Y-1349716D01*
G03X-611624Y-1340057I-28916J28916D01*
G03X-592024Y-1313282I-11076J28669D01*
G01X-568706Y-1313282D01*
G03X-539790Y-1301304I0J40894D01*
G01X-509184Y-1270698D01*
G01X-481000Y-1270698D01*
G03X-450266Y-1239964I0J30734D01*
G01X-450266Y-1183399D01*
G03X-454174Y-1168400I-30734J0D01*
G03X-450266Y-1153401I-26826J14999D01*
G01X-450266Y-1096835D01*
G03X-481000Y-1066101I-30734J0D01*
G01X-509184Y-1066101D01*
G01X-518392Y-1056894D01*
G01X-394054Y-1056894D01*
G03X-326568Y-1064044I38454J40894D01*
G03X-301514Y-1000974I-29032J48044D01*
G01X-153525Y-1000974D01*
G01X-153525Y-1087068D01*
G03X-170034Y-1114312I14226J-27244D01*
G01X-170034Y-1192313D01*
G03X-139300Y-1223047I30734J0D01*
G01X-89300Y-1223047D01*
G03X-58624Y-1194206I0J30734D01*
G01X-52245Y-1194206D01*
G01X-32334Y-1214117D01*
G01X-32334Y-1242301D01*
G03X-28426Y-1257300I30734J0D01*
G03X-32334Y-1272299I26826J-14999D01*
G01X-32334Y-1300483D01*
G01X-52245Y-1320394D01*
G01X-58624Y-1320394D01*
G03X-89300Y-1291553I-30676J-1894D01*
G01X-139300Y-1291553D01*
G03X-169976Y-1320394I0J-30734D01*
G01X-225855Y-1320394D01*
G03X-322725Y-1355407I-40845J-38506D01*
G03X-230955Y-1402182I56025J-3493D01*
G01X-169976Y-1402182D01*
G03X-139300Y-1431022I30676J1894D01*
G01X-89300Y-1431022D01*
G03X-58624Y-1402182I0J30734D01*
G01X-35306Y-1402182D01*
G03X-6390Y-1390204I0J40894D01*
G01X24216Y-1359598D01*
G01X52400Y-1359598D01*
G03X83134Y-1328864I0J30734D01*
G01X83134Y-1272299D01*
G03X79226Y-1257300I-30734J0D01*
G03X83134Y-1242301I-26826J14999D01*
G01X83134Y-1185735D01*
G03X52400Y-1155001I-30734J0D01*
G01X24216Y-1155001D01*
G01X-6390Y-1124396D01*
G03X-35306Y-1112418I-28916J-28916D01*
G01X-58624Y-1112418D01*
G03X-71737Y-1089090I-30676J-1894D01*
G01X-71737Y-974449D01*
G03X-83715Y-945532I-40894J0D01*
G01X-98084Y-931164D01*
G03X-127000Y-919186I-28916J-28916D01*
G01X-296976Y-919186D01*
G03X-252575Y-884180I-7824J55586D01*
G03X-261159Y-828294I-52225J20580D01*
G01X427561Y-828294D01*
G01X467106Y-867839D01*
G01X467106Y-1126061D01*
G01X445647Y-1147520D01*
G03X428514Y-1142301I-17133J-25515D01*
G01X400329Y-1142301D01*
G01X369724Y-1111696D01*
G03X340808Y-1099718I-28916J-28916D01*
G01X312294Y-1099718D01*
G03X281619Y-1070878I-30676J-1894D01*
G01X231619Y-1070878D01*
G03X200885Y-1101612I0J-30734D01*
G01X200885Y-1179613D01*
G03X231619Y-1210347I30734J0D01*
G01X281619Y-1210347D01*
G03X312294Y-1181506I0J30734D01*
G01X323869Y-1181506D01*
G01X343779Y-1201417D01*
G01X343779Y-1229601D01*
G03X347688Y-1244600I30734J0D01*
G03X343779Y-1259599I26826J-14999D01*
G01X343779Y-1287783D01*
G01X323869Y-1307694D01*
G01X312294Y-1307694D01*
G03X281619Y-1278853I-30676J-1894D01*
G01X231619Y-1278853D01*
G03X200885Y-1309587I0J-30734D01*
G01X200885Y-1387588D01*
G03X231619Y-1418322I30734J0D01*
G01X281619Y-1418322D01*
G03X312294Y-1389482I0J30734D01*
G01X340808Y-1389482D01*
G03X369724Y-1377504I0J40894D01*
G01X400329Y-1346898D01*
G01X428514Y-1346898D01*
G03X452297Y-1335630I0J30734D01*
G01X464593Y-1347925D01*
G03X560393Y-1385893I56107J1725D01*
G03X522425Y-1290093I-39693J39693D01*
G01X491298Y-1258965D01*
G03X462382Y-1246988I-28916J-28916D01*
G01X456541Y-1246988D01*
G03X455339Y-1244600I-28027J-12611D01*
G03X456815Y-1241585I-26826J14999D01*
G03X478598Y-1230235I-7133J40267D01*
G01X536916Y-1171916D01*
G03X548894Y-1143000I-28916J28916D01*
G01X548894Y-850900D01*
G03X536916Y-821984I-40894J0D01*
G01X500105Y-785172D01*
G01X558446Y-785172D01*
G03X653034Y-744278I38454J40894D01*
G03X558446Y-703384I-56134J0D01*
G01X515092Y-703384D01*
G03X561402Y-630402I-7092J55684D01*
G03X481097Y-598433I-53402J-17298D01*
G01X459248Y-576583D01*
G01X459248Y-548399D01*
G03X455339Y-533400I-30734J0D01*
G03X459248Y-518401I-26826J14999D01*
G01X459248Y-461835D01*
G03X428514Y-431101I-30734J0D01*
G01X400329Y-431101D01*
G01X382424Y-413196D01*
G03X353508Y-401218I-28916J-28916D01*
G01X312294Y-401218D01*
G03X290727Y-373759I-30676J-1894D01*
G03X285535Y-367402I-34108J-22560D01*
G01X257516Y-339384D01*
G03X228600Y-327406I-28916J-28916D01*
G01X-203200Y-327406D01*
G03X-232116Y-339384I0J-40894D01*
G01X-399521Y-506788D01*
G03X-456216Y-502666I-32279J-52012D01*
G01X-511365Y-502666D01*
G01X-511365Y-499400D01*
G03X-542099Y-468666I-30734J0D01*
G01X-677100Y-468666D01*
G03X-707834Y-499400I0J-30734D01*
G01X-707834Y-520116D01*
G01X-772121Y-520116D01*
G03X-769028Y-506680I-27642J13436D01*
G01X-769028Y-450114D01*
G03X-799762Y-419380I-30734J0D01*
G01X-853763Y-419380D01*
G03X-884497Y-450114I0J-30734D01*
G01X-884497Y-506680D01*
G03X-870005Y-532772I30734J0D01*
G01X-880539Y-543306D01*
G01X-914400Y-543306D01*
G03X-918564Y-543519I0J-40894D01*
G03X-914187Y-534998I-33936J22819D01*
G03X-895397Y-506680I-11944J28318D01*
G01X-895397Y-450114D01*
G03X-926131Y-419380I-30734J0D01*
G01X-980131Y-419380D01*
G03X-1010865Y-450114I0J-30734D01*
G01X-1010865Y-505765D01*
G01X-1021766Y-505765D01*
G01X-1021766Y-450114D01*
G03X-1025674Y-435115I-30734J0D01*
G03X-1021766Y-420117I-26826J14999D01*
G01X-1021766Y-363551D01*
G03X-1052500Y-332817I-30734J0D01*
G01X-1106500Y-332817D01*
G03X-1135696Y-353951I0J-30734D01*
G03X-1198825Y-370466I-20004J-52449D01*
G03X-1203679Y-435538I43125J-35934D01*
G01X-1233794Y-405424D01*
G03X-1262710Y-393446I-28916J-28916D01*
G01X-1302690Y-393446D01*
G03X-1331606Y-405424I0J-40894D01*
G01X-1359876Y-433694D01*
G01X-1361241Y-435126D01*
G01X-1380784Y-415584D01*
G03X-1409700Y-403606I-28916J-28916D01*
G01X-1507061Y-403606D01*
G01X-1524813Y-385854D01*
G01X-1524813Y-372137D01*
G03X-1520972Y-354002I-40894J18134D01*
G01X-1520972Y-202004D01*
G03X-1522238Y-191440I-44734J0D01*
G01X-1472404Y-191440D01*
G03X-1461696Y-192740I10708J43434D01*
G01X-1309698Y-192740D01*
G03X-1298990Y-191440I0J44734D01*
G01X-1216185Y-191440D01*
G01X-1199112Y-208512D01*
G03X-1168400Y-221234I30712J30712D01*
G01X-1114901Y-221234D01*
G03X-1093800Y-229622I21101J22346D01*
G01X-1039800Y-229622D01*
G03X-1009066Y-198888I0J30734D01*
G01X-1009066Y-148888D01*
G03X-1010739Y-138887I-30734J0D01*
G01X-995861Y-138887D01*
G03X-997534Y-148888I29061J-10001D01*
G01X-997534Y-198888D01*
G03X-966800Y-229622I30734J0D01*
G01X-912800Y-229622D01*
G03X-886495Y-214782I0J30734D01*
G01X-834288Y-214782D01*
G03X-805372Y-202805I0J40894D01*
G01X-798375Y-195807D01*
G03X-758681Y-101812I-1725J56107D01*
G03X-855832Y-132994I-41419J-37888D01*
G01X-886495Y-132994D01*
G03X-899309Y-121274I-26305J-15894D01*
G03X-910884Y-98084I-40491J-5726D01*
G01X-922664Y-86303D01*
G03X-908090Y-76922I-14342J38297D01*
G01X-815932Y15235D01*
G01X-815932Y10505D01*
G03X-785198Y-20229I30734J0D01*
G01X-760789Y-20229D01*
G03X-756614Y-25119I33092J24026D01*
G01X-663916Y-117816D01*
G03X-635000Y-129794I28916J28916D01*
G01X-482600Y-129794D01*
G03X-474189Y-128920I0J40894D01*
G03X-383293Y-182930I55089J-10780D01*
G03X-419434Y-83567I-35807J43230D01*
G01X-377484Y-41616D01*
G03X-370932Y-33056I-28916J28916D01*
G03X-348666Y-3512I-8467J29545D01*
G01X-348666Y46488D01*
G03X-379400Y77222I-30734J0D01*
G01X-433400Y77222D01*
G03X-464134Y46488I0J-30734D01*
G01X-464134Y-3512D01*
G03X-463068Y-11535I30734J0D01*
G01X-499539Y-48006D01*
G01X-618061Y-48006D01*
G01X-651888Y-14180D01*
G03X-639463Y10505I-18309J24685D01*
G01X-639463Y150505D01*
G03X-670197Y181239I-30734J0D01*
G01X-785198Y181239D01*
G03X-799329Y177798I0J-30734D01*
G03X-797306Y190500I-38871J12702D01*
G01X-797306Y364061D01*
G01X337566Y63500D02*
G03X449834Y63500I56134J0D01*
G03X337566Y63500I-56134J0D01*
G01X-1234694Y1752600D02*
G01X-1234694Y1689302D01*
G03X-1309578Y1800763I-324176J-136909D01*
G02X-1302736Y2066359I138919J129308D01*
G02X-1110640Y2175646I1302735J-2066358D01*
G01X-1110640Y1907101D01*
G03X-1108472Y1895761I30734J0D01*
G01X-1222716Y1781516D01*
G03X-1234694Y1752600I28916J-28916D01*
G01X-1122386Y1210785D02*
G03X-1053746Y1217218I30186J47327D01*
G01X-930600Y1217218D01*
G03X-879094Y1203517I38454J40894D01*
G01X-879094Y953081D01*
G03X-940154Y942594I-22606J-51381D01*
G01X-1168400Y942594D01*
G03X-1197316Y930616I0J-40894D01*
G01X-1259025Y868907D01*
G03X-1285666Y861240I1725J-56107D01*
G01X-1134364Y1012542D01*
G03X-1122386Y1041458I-28916J28916D01*
G01X-1122386Y1210785D01*
G01X-1122386Y1723019D02*
G01X-1035079Y1810327D01*
G01X-902635Y1810327D01*
G03X-905627Y1797100I27742J-13227D01*
G01X-905627Y1752994D01*
G01X-911546Y1752994D01*
G03X-940462Y1741016I0J-40894D01*
G01X-1019516Y1661962D01*
G03X-1031494Y1633045I28916J-28916D01*
G01X-1031494Y1435100D01*
G03X-1019516Y1406184I40894J0D01*
G01X-920115Y1306782D01*
G03X-930600Y1299006I27969J-48670D01*
G01X-1053746Y1299006D01*
G03X-1122386Y1305439I-38454J-40894D01*
G01X-1122386Y1723019D01*
G01X-979907Y2217834D02*
G01X-1023802Y2217834D01*
G02X-953947Y2248765I1023801J-2217833D01*
G01X953946Y2248765D01*
G02X1302433Y2066549I-953946J-2248765D01*
G02X1303106Y1807247I-138089J-130011D01*
G03X1800763Y1309578I249287J-248376D01*
G02X2066358Y1302737I129307J-138918D01*
G02X2189264Y1083550I-2066358J-1302737D01*
G03X2222637Y1062916I33236J16450D01*
G01X2399986Y1062916D01*
G02X2512916Y950000I14J-112916D01*
G01X2512916Y-949986D01*
G02X2400000Y-1062915I-112916J-14D01*
G01X2315893Y-1062916D01*
G03X2223681Y-849459I-75994J93817D01*
G03X2191623Y-1079761I16218J-119640D01*
G03X2189124Y-1084233I31124J-20329D01*
G02X2067071Y-1301940I-2189127J1084227D01*
G02X1807247Y-1303106I-130532J137596D01*
G03X1237234Y-1409619I-248376J-249287D01*
G01X1237234Y-876566D01*
G01X1435100Y-876566D01*
G03X1465834Y-845832I0J30734D01*
G01X1465834Y-495300D01*
G03X1435100Y-464566I-30734J0D01*
G01X1145737Y-464566D01*
G03X1010251Y-300717I-91637J62167D01*
G01X999020Y-289487D01*
G01X999020Y-226668D01*
G03X1017143Y-198641I-12611J28027D01*
G01X1017143Y-144640D01*
G03X986409Y-113906I-30734J0D01*
G01X929843Y-113906D01*
G03X914845Y-117815I0J-30734D01*
G03X912457Y-116613I-14999J-26826D01*
G01X912457Y-105623D01*
G03X930135Y-77800I-13056J27823D01*
G01X930135Y-23800D01*
G03X899401Y6934I-30734J0D01*
G01X842836Y6934D01*
G03X815421Y-9906I0J-30734D01*
G01X804339Y-9906D01*
G01X536916Y257516D01*
G03X508000Y269494I-28916J-28916D01*
G01X309039Y269494D01*
G01X-174284Y752816D01*
G03X-203200Y764794I-28916J-28916D01*
G01X-503649Y764794D01*
G03X-502693Y773525I-55151J10457D01*
G01X-448791Y827427D01*
G03X-355246Y797306I55091J10773D01*
G01X160861Y797306D01*
G01X401093Y557075D01*
G03X496893Y519107I56107J1725D01*
G03X458925Y614907I-39693J39693D01*
G01X206716Y867116D01*
G03X177800Y879094I-28916J-28916D01*
G01X-355246Y879094D01*
G03X-382927Y893291I-38454J-40894D01*
G01X-326512Y949706D01*
G01X1286066Y949706D01*
G01X1286066Y877491D01*
G03X1289958Y856207I60135J0D01*
G03X1239928Y821798I1741J-56107D01*
G03X1250475Y762000I51771J-21698D01*
G03X1250800Y685451I41224J-38100D01*
G03X1251184Y608150I40899J-38449D01*
G01X1243183Y600149D01*
G03X1233257Y592462I25277J-42890D01*
G01X1214194Y573399D01*
G01X1214194Y790258D01*
G03X1183460Y820992I-30734J0D01*
G01X942073Y820992D01*
G03X919567Y811187I0J-30734D01*
G03X914400Y811624I-5167J-30297D01*
G01X685800Y811624D01*
G03X655066Y780890I0J-30734D01*
G01X655066Y436955D01*
G03X685800Y406221I30734J0D01*
G01X755274Y406221D01*
G01X763944Y397551D01*
G03X737069Y303207I12818J-54651D01*
G03X831413Y330082I39693J39693D01*
G01X853797Y307697D01*
G03X889000Y293116I35203J35203D01*
G01X1033479Y293116D01*
G01X1158597Y167997D01*
G03X1193800Y153416I35203J35203D01*
G01X1663700Y153416D01*
G03X1698903Y167997I0J49784D01*
G01X1762403Y231497D01*
G03X1776984Y266700I-35203J35203D01*
G01X1776984Y289279D01*
G03X1787335Y323009I-49784J33730D01*
G01X1787335Y468709D01*
G03X1698858Y521745I-60134J0D01*
G03X1686973Y543973I-42597J-8485D01*
G01X1656312Y574634D01*
G03X1625600Y587355I-30712J-30713D01*
G01X1618234Y587355D01*
G01X1618234Y591609D01*
G01X1624541Y597916D01*
G01X1644650Y597916D01*
G03X1675362Y610638I0J43434D01*
G01X1694391Y629666D01*
G01X1709209Y629666D01*
G01X1721888Y616988D01*
G03X1752600Y604266I30712J30712D01*
G01X1803400Y604266D01*
G03X1833027Y615940I0J43434D01*
G03X1836166Y613664I19572J23696D01*
G01X1836166Y534403D01*
G03X1848888Y503691I43434J0D01*
G01X1861588Y490991D01*
G03X1892300Y478269I30712J30712D01*
G01X1926749Y478269D01*
G03X1954392Y460969I27642J13434D01*
G01X2071689Y460969D01*
G01X2041184Y430464D01*
G03X2029206Y401548I28916J-28916D01*
G01X2029206Y-63146D01*
G03X2070100Y-157734I40894J-38454D01*
G03X2110994Y-63146I0J56134D01*
G01X2110994Y384609D01*
G01X2178668Y452283D01*
G03X2190645Y481199I-28916J28916D01*
G01X2190645Y687201D01*
G03X2178668Y716117I-40894J0D01*
G01X2161794Y732991D01*
G01X2161794Y768142D01*
G03X2189383Y750951I27589J13543D01*
G01X2469383Y750951D01*
G03X2500117Y781685I0J30734D01*
G01X2500117Y881685D01*
G03X2469383Y912419I-30734J0D01*
G01X2300817Y912419D01*
G03X2314887Y938243I-16664J25824D01*
G01X2314887Y1018243D01*
G03X2284153Y1048977I-30734J0D01*
G01X2204154Y1048977D01*
G03X2174906Y1027684I0J-30734D01*
G01X2162292Y1027684D01*
G03X2141665Y1035634I-20627J-22784D01*
G01X2136592Y1035634D01*
G03X2143431Y1050283I-41092J28104D01*
G03X2109964Y1133739I-47931J29217D01*
G03X2039385Y1078029I-14464J-54239D01*
G01X2015646Y1054290D01*
G03X2003895Y1035634I35203J-35203D01*
G01X1998536Y1035634D01*
G03X1967802Y1004900I0J-30734D01*
G01X1967802Y950900D01*
G03X1998536Y920166I30734J0D01*
G01X2055101Y920166D01*
G03X2070100Y924074I0J30734D01*
G03X2085099Y920166I14999J26826D01*
G01X2141665Y920166D01*
G03X2162292Y928116I0J30734D01*
G01X2175136Y928116D01*
G03X2187573Y912365I29018J10127D01*
G03X2158649Y881685I1811J-30681D01*
G01X2158649Y828526D01*
G03X2149816Y841716I-37749J-15726D01*
G01X2126207Y865325D01*
G03X2030407Y903293I-56107J-1725D01*
G03X2068375Y807493I39693J-39693D01*
G01X2080006Y795861D01*
G01X2080006Y716052D01*
G03X2080925Y707431I40894J0D01*
G01X2075434Y707431D01*
G01X2075434Y723900D01*
G03X2062712Y754612I-43434J0D01*
G01X2032131Y785194D01*
G03X2001418Y797916I-30712J-30712D01*
G01X1933340Y797916D01*
G03X1906600Y813499I-26740J-15151D01*
G01X1852600Y813499D01*
G03X1825860Y797916I0J-30734D01*
G01X1649984Y797916D01*
G01X1649984Y843761D01*
G03X1660335Y877491I-49784J33730D01*
G01X1660335Y1023191D01*
G03X1658714Y1037057I-60134J0D01*
G01X1668686Y1037057D01*
G03X1667066Y1023191I58514J-13867D01*
G01X1667066Y877491D01*
G03X1787335Y877491I60135J0D01*
G01X1787335Y1023191D01*
G03X1767911Y1067449I-60134J0D01*
G03X1756116Y1092499I-40711J-3866D01*
G01X1741748Y1106868D01*
G03X1712831Y1118845I-28916J-28916D01*
G01X942843Y1118845D01*
G01X942843Y1573859D01*
G03X912109Y1604593I-30734J0D01*
G01X744686Y1604593D01*
G03X745518Y1611695I-29902J7102D01*
G01X745518Y1781694D01*
G03X726694Y1810027I-30734J0D01*
G01X726694Y1841500D01*
G03X714716Y1870416I-40894J0D01*
G01X651216Y1933916D01*
G03X622300Y1945894I-28916J-28916D01*
G01X368968Y1945894D01*
G03X340051Y1933916I0J-40894D01*
G01X330543Y1924408D01*
G01X330543Y2151705D01*
G03X299809Y2182439I-30734J0D01*
G01X199809Y2182439D01*
G03X170840Y2161971I0J-30734D01*
G01X170840Y2187100D01*
G03X140106Y2217834I-30734J0D01*
G01X40107Y2217834D01*
G03X9373Y2187100I0J-30734D01*
G01X9373Y1907101D01*
G03X14951Y1889444I30734J0D01*
G01X-90302Y1994697D01*
G03X-119218Y2006674I-28916J-28916D01*
G01X-322302Y2006674D01*
G03X-351219Y1994697I0J-40894D01*
G01X-423281Y1922634D01*
G01X-949173Y1922634D01*
G01X-949173Y2187100D01*
G03X-979907Y2217834I-30734J0D01*
G01X235966Y381000D02*
G03X348234Y381000I56134J0D01*
G03X235966Y381000I-56134J0D01*
G01X914057Y1871706D02*
G03X944791Y1840972I30734J0D01*
G01X1044791Y1840972D01*
G03X1075525Y1871706I0J30734D01*
G01X1075525Y2151705D01*
G03X1044791Y2182439I-30734J0D01*
G01X944791Y2182439D01*
G03X914057Y2151705I0J-30734D01*
G01X914057Y1871706D01*
G01X2239899Y251633D02*
G03X2239899Y10165I0J-120734D01*
G03X2239899Y251633I0J120734D01*
G01X2189383Y417424D02*
G03X2158649Y386690I0J-30734D01*
G01X2158649Y286690D01*
G03X2189383Y255956I30734J0D01*
G01X2469383Y255956D01*
G03X2500117Y286690I0J30734D01*
G01X2500117Y386690D01*
G03X2469383Y417424I-30734J0D01*
G01X2189383Y417424D01*
G01X-918807Y1421139D02*
G03X-899583Y1434038I-20993J52061D01*
G03X-859367Y1417066I40217J39162D01*
G03X-819150Y1434038I0J56134D01*
G03X-778933Y1417066I40217J39162D01*
G03X-738717Y1434038I0J56134D01*
G03X-675894Y1421819I40217J39162D01*
G01X-675894Y989777D01*
G01X-797306Y868365D01*
G01X-797306Y1282700D01*
G03X-809284Y1311616I-40894J0D01*
G01X-918807Y1421139D01*
G01X-761705Y699400D02*
G03X-672746Y683006I50505J24500D01*
G01X-220139Y683006D01*
G01X-139486Y602354D01*
G01X-858752Y602354D01*
G01X-761705Y699400D01*
G01X-428993Y1206726D02*
G03X-360557Y1225716I22593J51386D01*
G03X-365506Y1296566I-45843J32396D01*
G01X-365506Y1494361D01*
G01X-315952Y1543915D01*
G03X-303974Y1572832I-28916J28916D01*
G01X-303974Y1598361D01*
G03X-284135Y1627100I-10894J28738D01*
G01X-284135Y1797100D01*
G03X-314869Y1827834I-30734J0D01*
G01X-359254Y1827834D01*
G01X-292721Y1894366D01*
G01X-148799Y1894366D01*
G01X-82266Y1827834D01*
G01X-124882Y1827834D01*
G03X-155616Y1797100I0J-30734D01*
G01X-155616Y1627100D01*
G03X-124882Y1596366I30734J0D01*
G01X-64882Y1596366D01*
G03X-34152Y1626616I0J30734D01*
G01X-29882Y1626616D01*
G03X52186Y1676400I25934J49784D01*
G03X-29882Y1726184I-56134J0D01*
G01X-34148Y1726184D01*
G01X-34148Y1779715D01*
G01X1603Y1743964D01*
G03X30520Y1731986I28916J28916D01*
G01X286980Y1731986D01*
G03X315897Y1743964I0J40894D01*
G01X385239Y1813306D01*
G01X478361Y1813306D01*
G01X500540Y1791127D01*
G03X499057Y1781694I29251J-9433D01*
G01X499057Y1611695D01*
G03X500314Y1602992I30734J0D01*
G03X492946Y1599358I9790J-29133D01*
G03X495531Y1611695I-28149J12337D01*
G01X495531Y1781694D01*
G03X464797Y1812428I-30734J0D01*
G01X404797Y1812428D01*
G03X374063Y1781694I0J-30734D01*
G01X374063Y1726184D01*
G01X368834Y1726184D01*
G03X286766Y1676400I-25934J-49784D01*
G03X368834Y1626616I56134J0D01*
G01X374063Y1626616D01*
G01X374063Y1611695D01*
G03X404797Y1580961I30734J0D01*
G01X464797Y1580961D01*
G03X481955Y1586196I0J30734D01*
G03X479370Y1573859I28149J-12337D01*
G01X479370Y1118845D01*
G01X-357149Y1118845D01*
G03X-386065Y1106868I0J-40894D01*
G01X-428993Y1063940D01*
G01X-428993Y1206726D01*
G01X-169976Y-483006D02*
G03X-139300Y-511847I30676J1894D01*
G01X-89300Y-511847D01*
G03X-58624Y-483006I0J30734D01*
G01X-52245Y-483006D01*
G01X-32334Y-502917D01*
G01X-32334Y-531101D01*
G03X-28426Y-546100I30734J0D01*
G03X-32334Y-561099I26826J-14999D01*
G01X-32334Y-589283D01*
G01X-52245Y-609194D01*
G01X-58624Y-609194D01*
G03X-89300Y-580353I-30676J-1894D01*
G01X-139300Y-580353D01*
G03X-166348Y-596494I0J-30734D01*
G01X-215546Y-596494D01*
G03X-296886Y-601169I-38454J-40894D01*
G01X-296886Y-583319D01*
G01X-196574Y-483006D01*
G01X-169976Y-483006D01*
G01X40107Y1876367D02*
G01X140106Y1876367D01*
G03X169075Y1896834I0J30734D01*
G01X169075Y1871706D01*
G03X185910Y1844294I30734J0D01*
G01X60101Y1844294D01*
G01X22450Y1881945D01*
G03X40107Y1876367I17657J25156D01*
G01X176327Y172240D02*
G03X185166Y155573I39573J10310D01*
G01X185166Y71979D01*
G03X167894Y54100I30734J-46973D01*
G01X167894Y180673D01*
G01X176327Y172240D01*
G01X896085Y406221D02*
G01X914400Y406221D01*
G03X940889Y421368I0J30734D01*
G01X942073Y421345D01*
G01X1183460Y421345D01*
G03X1213591Y446024I0J30734D01*
G03X1225720Y449376I-7091J49276D01*
G01X1225720Y252984D01*
G01X1214421Y252984D01*
G01X1089303Y378103D01*
G03X1054100Y392684I-35203J-35203D01*
G01X909621Y392684D01*
G01X896085Y406221D01*
G04 Copper End*

G04 Pad Start*
G54D11*
G01X-1558869Y1552394D03*
G01X-1552392Y-1558873D03*
G01X1552392Y1558871D03*
G01X1558869Y-1552391D03*
G54D12*
G01X1086358Y1354762D03*
G01X767842Y1354762D03*
G01X1086358Y546100D03*
G01X767842Y546100D03*
G54D13*
G01X-1637960Y1057077D03*
G01X-1637960Y917097D03*
G54D14*
G01X2404047Y977557D03*
G01X2244154Y978243D03*
G54D15*
G01X-1308100Y-787400D03*
G54D16*
G01X-1183107Y-546659D03*
G01X-1233094Y-546659D03*
G01X-1283106Y-546659D03*
G01X-1333094Y-546659D03*
G01X-1383106Y-546659D03*
G01X-1433093Y-546659D03*
G54D17*
G01X-1498854Y-612394D03*
G01X-1498854Y-662407D03*
G01X-1498854Y-712394D03*
G01X-1498854Y-762406D03*
G01X-1498854Y-812394D03*
G01X-1498854Y-862406D03*
G01X-1498854Y-912393D03*
G01X-1498854Y-962406D03*
G54D16*
G01X-1433093Y-1028141D03*
G01X-1383106Y-1028141D03*
G01X-1333094Y-1028141D03*
G01X-1283106Y-1028141D03*
G01X-1233094Y-1028141D03*
G01X-1183107Y-1028141D03*
G54D17*
G01X-1117346Y-962406D03*
G01X-1117346Y-912393D03*
G01X-1117346Y-862406D03*
G01X-1117346Y-812394D03*
G01X-1117346Y-762406D03*
G01X-1117346Y-712394D03*
G01X-1117346Y-662407D03*
G01X-1117346Y-612394D03*
G54D18*
G01X1090905Y1161199D03*
G54D20*
G01X987109Y1161205D03*
G01X867109Y1161205D03*
G54D18*
G01X763321Y1161199D03*
G01X763295Y743801D03*
G54D21*
G01X867081Y743801D03*
G54D22*
G01X987074Y743810D03*
G54D18*
G01X1090879Y743801D03*
G54D23*
G01X1346200Y950341D03*
G01X1473200Y950341D03*
G01X1600200Y950341D03*
G01X1727200Y950341D03*
G01X1346200Y395859D03*
G01X1473200Y395859D03*
G01X1600200Y395859D03*
G01X1727200Y395859D03*
G54D24*
G01X-2195703Y-148006D03*
G01X-2195703Y-97993D03*
G01X-2195703Y-48006D03*
G01X-2195703Y2007D03*
G01X-2195703Y51994D03*
G01X-2195703Y102006D03*
G01X-2195703Y151994D03*
G01X-2195703Y202006D03*
G01X-2195703Y251993D03*
G01X-2195703Y302006D03*
G01X-2195703Y351993D03*
G01X-2195703Y402006D03*
G54D25*
G01X-2065706Y532003D03*
G01X-2015693Y532003D03*
G01X-1965706Y532003D03*
G01X-1915693Y532003D03*
G01X-1865706Y532003D03*
G01X-1815694Y532003D03*
G01X-1765706Y532003D03*
G01X-1715694Y532003D03*
G01X-1665707Y532003D03*
G01X-1615694Y532003D03*
G01X-1565707Y532003D03*
G01X-1515694Y532003D03*
G54D24*
G01X-1385697Y402006D03*
G01X-1385697Y351993D03*
G01X-1385697Y302006D03*
G01X-1385697Y251993D03*
G01X-1385697Y202006D03*
G01X-1385697Y151994D03*
G01X-1385697Y102006D03*
G01X-1385697Y51994D03*
G01X-1385697Y2007D03*
G01X-1385697Y-48006D03*
G01X-1385697Y-97993D03*
G01X-1385697Y-148006D03*
G54D25*
G01X-1515694Y-278003D03*
G01X-1565707Y-278003D03*
G01X-1615694Y-278003D03*
G01X-1665707Y-278003D03*
G01X-1715694Y-278003D03*
G01X-1765706Y-278003D03*
G01X-1815694Y-278003D03*
G01X-1865706Y-278003D03*
G01X-1915693Y-278003D03*
G01X-1965706Y-278003D03*
G01X-2015693Y-278003D03*
G01X-2065706Y-278003D03*
G54D26*
G01X-567703Y80505D03*
G01X-567703Y300495D03*
G01X-727697Y300495D03*
G01X-727697Y80505D03*
G54D27*
G01X2039391Y646697D03*
G01X2039391Y521703D03*
G54D28*
G01X2329383Y831685D03*
G01X2329383Y336690D03*
G54D29*
G01X-1029906Y2047100D03*
G54D30*
G01X-469887Y1712100D03*
G01X-594881Y1712100D03*
G01X-719874Y1712100D03*
G01X-844893Y1712100D03*
G01X-344868Y1712100D03*
G01X-219875Y1712100D03*
G01X-94882Y1712100D03*
G54D29*
G01X90107Y2047100D03*
G01X249809Y2011705D03*
G54D30*
G01X809803Y1696695D03*
G01X684784Y1696695D03*
G01X559791Y1696695D03*
G01X434797Y1696695D03*
G54D29*
G01X994791Y2011705D03*
G54D31*
G01X-939800Y-173888D03*
G01X-939800Y-257912D03*
G01X-939800Y-846988D03*
G01X-939800Y-931012D03*
G54D32*
G01X-1126388Y-1155700D03*
G01X-1210412Y-1155700D03*
G54D31*
G01X-1638300Y-1045312D03*
G01X-1638300Y-961288D03*
G01X-1502585Y974065D03*
G01X-1502585Y890041D03*
G01X-406400Y321412D03*
G01X-406400Y237388D03*
G01X-406400Y21488D03*
G01X-406400Y105512D03*
G01X-2133600Y974065D03*
G01X-2133600Y890041D03*
G01X-1905000Y-816712D03*
G01X-1905000Y-732688D03*
G01X-1066800Y-173888D03*
G01X-1066800Y-257912D03*
G01X-2021919Y-816712D03*
G01X-2021919Y-732688D03*
G01X-1773198Y974065D03*
G01X-1773198Y890041D03*
G01X-1893401Y974065D03*
G01X-1893401Y890041D03*
G54D33*
G01X-953131Y-391834D03*
G01X-953131Y-478397D03*
G01X1879600Y754482D03*
G01X1879600Y667918D03*
G01X-2013501Y982378D03*
G01X-2013501Y895815D03*
G54D34*
G01X2026818Y977900D03*
G01X2113382Y977900D03*
G01X958126Y-171640D03*
G01X871563Y-171640D03*
G01X871118Y-50800D03*
G01X957682Y-50800D03*
G54D35*
G01X1239901Y-169100D03*
G01X1239901Y-669099D03*
G54D36*
G01X2239899Y-969099D03*
G01X2239899Y130899D03*
G54D37*
G01X-647700Y-1064412D03*
G01X-647700Y-1272388D03*
G01X-1003300Y-1521612D03*
G01X-1003300Y-1729588D03*
G01X-114300Y-650088D03*
G01X-114300Y-442112D03*
G01X-114300Y-1361288D03*
G01X-114300Y-1153312D03*
G01X256619Y-1348588D03*
G01X256619Y-1140612D03*
G01X256619Y-650088D03*
G01X256619Y-442112D03*
G54D33*
G01X-1143000Y-1668882D03*
G01X-1143000Y-1582318D03*
G01X-508000Y-1211682D03*
G01X-508000Y-1125118D03*
G01X401514Y-1201318D03*
G01X401514Y-1287882D03*
G01X401514Y-490118D03*
G01X401514Y-576682D03*
G01X25400Y-1214018D03*
G01X25400Y-1300582D03*
G01X25400Y-502818D03*
G01X25400Y-589382D03*
G54D38*
G01X1054100Y97600D03*
G01X1054100Y-402399D03*
G54D33*
G01X-1079500Y-391834D03*
G01X-1079500Y-478397D03*
G01X-826762Y-478397D03*
G01X-826762Y-391834D03*
G54D39*
G01X612423Y-1840840D03*
G01X612423Y-1537360D03*
G01X272346Y-1840840D03*
G01X272346Y-1537360D03*
G01X-67731Y-1840840D03*
G01X-67731Y-1537360D03*
G01X-747885Y-1840840D03*
G01X-747885Y-1537360D03*
G01X-407808Y-1840840D03*
G01X-407808Y-1537360D03*
G54D40*
G01X-609600Y-569900D03*
G01X-609600Y-369900D03*
G04 Pad End*

G04 Via Start*
G54D41*
G01X-1766697Y1551703D03*
G01X-1760220Y-1559558D03*
G01X-1706316Y1698860D03*
G01X-1705341Y1404952D03*
G01X-1699834Y-1412401D03*
G01X-1698864Y-1706315D03*
G01X-1559560Y1760222D03*
G01X-1558183Y1344566D03*
G01X-1553083Y-1351045D03*
G01X-1551701Y-1766695D03*
G01X-1412402Y1699836D03*
G01X-1411427Y1405922D03*
G01X-1405925Y-1411426D03*
G01X-1404950Y-1705339D03*
G01X-1351041Y1553085D03*
G01X-1344564Y-1558182D03*
G01X1344564Y1558180D03*
G01X1351041Y-1553081D03*
G01X1404950Y1705337D03*
G01X1405926Y1411429D03*
G01X1411427Y-1405924D03*
G01X1412403Y-1699838D03*
G01X1551701Y1766699D03*
G01X1553083Y1351043D03*
G01X1558178Y-1344563D03*
G01X1559560Y-1760218D03*
G01X1698859Y1706313D03*
G01X1699834Y1412404D03*
G01X1705341Y-1404949D03*
G01X1706316Y-1698862D03*
G01X1760220Y1559562D03*
G01X1766697Y-1551705D03*
G01X-1574800Y-662940D03*
G01X-2019300Y-596900D03*
G01X-1614892Y-609161D03*
G01X-1715694Y-609600D03*
G01X-1282700Y-482600D03*
G01X-1816100Y-495300D03*
G01X546100Y1511300D03*
G01X546100Y1435100D03*
G01X546100Y1358900D03*
G01X546100Y1282700D03*
G01X546100Y1206500D03*
G01X622300Y1511300D03*
G01X622300Y1358900D03*
G01X622300Y1206500D03*
G01X622300Y1435100D03*
G01X622300Y1282700D03*
G01X-75019Y241300D03*
G01X215900Y25006D03*
G01X127000Y-150000D03*
G01X228600Y-74993D03*
G01X-2019300Y800100D03*
G01X-2019300Y1155700D03*
G01X-1181100Y350139D03*
G01X-1231900Y402006D03*
G01X-1244600Y300939D03*
G01X-939800Y251206D03*
G01X-952620Y317500D03*
G01X-979134Y393700D03*
G01X-901700Y825500D03*
G01X-1029251Y775251D03*
G01X-609600Y825500D03*
G01X-558800Y775251D03*
G01X-2019300Y251993D03*
G01X-711200Y723900D03*
G01X-1143000Y723900D03*
G01X-2057400Y-63500D03*
G01X-2004381Y-116519D03*
G01X-1881774Y112126D03*
G01X-1825024Y67276D03*
G01X-1767893Y213307D03*
G01X-1703455Y176145D03*
G01X-1765300Y673100D03*
G01X-1690755Y736600D03*
G01X-1264880Y1258112D03*
G01X-1092200Y1258112D03*
G01X-892146Y1258112D03*
G01X-406400Y1258112D03*
G01X-939800Y1536700D03*
G01X-859367Y1536700D03*
G01X-778933Y1536700D03*
G01X-698500Y1536700D03*
G01X-939800Y1473200D03*
G01X-698500Y1473200D03*
G01X-859367Y1473200D03*
G01X-778933Y1473200D03*
G01X-3948Y1676400D03*
G01X342900Y1676400D03*
G01X-1503332Y1092200D03*
G01X-1775821Y1092200D03*
G01X-1955800Y1092200D03*
G01X-419100Y-139700D03*
G01X-2146300Y-736600D03*
G01X2095500Y1079500D03*
G01X1291699Y800100D03*
G01X1371600Y800100D03*
G01X1291699Y723900D03*
G01X1371600Y723900D03*
G01X1291699Y647003D03*
G01X-2133600Y1028700D03*
G01X-1892300Y1028700D03*
G01X-1722398Y990600D03*
G01X-1447800Y890041D03*
G01X-2065706Y647700D03*
G01X-1878406Y673100D03*
G01X-1613746Y645752D03*
G01X-1511300Y-381000D03*
G01X-2019300Y-863600D03*
G01X-1905000Y-863600D03*
G01X-1587500Y-812394D03*
G01X-279400Y-203200D03*
G01X-279400Y228600D03*
G01X25400Y228600D03*
G01X177800Y152400D03*
G01X1498600Y-381000D03*
G01X1689100Y-215900D03*
G01X2322726Y-736600D03*
G01X2384853Y-736600D03*
G01X2446979Y-736600D03*
G01X2322726Y-800100D03*
G01X2384853Y-800100D03*
G01X2446979Y-800100D03*
G01X2413000Y-279400D03*
G01X2476500Y-279400D03*
G01X2476500Y-342900D03*
G01X2413000Y-457200D03*
G01X2472701Y-457200D03*
G01X1816100Y-635000D03*
G01X1878226Y-635000D03*
G01X1940353Y-635000D03*
G01X1816100Y-698500D03*
G01X1878226Y-698500D03*
G01X1940353Y-698500D03*
G01X1892300Y-342900D03*
G01X1955800Y-342900D03*
G01X2041953Y-1295400D03*
G01X2041953Y-1231900D03*
G01X1979826Y-1231900D03*
G01X1979826Y-1295400D03*
G01X1917700Y-1295400D03*
G01X1917700Y-1231900D03*
G01X1855574Y-1231900D03*
G01X1855574Y-1295400D03*
G01X1793447Y-1231900D03*
G01X642518Y546100D03*
G01X2473063Y978322D03*
G01X330200Y1591412D03*
G01X809803Y1828800D03*
G01X-219875Y1846620D03*
G01X-558800Y-38100D03*
G01X-406400Y168538D03*
G01X-337201Y1200801D03*
G01X-337201Y1143000D03*
G01X-279400Y1143000D03*
G01X-279400Y1200801D03*
G01X-221599Y1143000D03*
G01X-221599Y1200801D03*
G01X-163798Y1143000D03*
G01X-163798Y1200801D03*
G01X91681Y1618599D03*
G01X149482Y1618599D03*
G01X207283Y1618599D03*
G01X91681Y1560798D03*
G01X207283Y1560798D03*
G01X149482Y1560798D03*
G01X149482Y1259700D03*
G01X207283Y1259700D03*
G01X91681Y1201899D03*
G01X207283Y1201899D03*
G01X149482Y1201899D03*
G01X91681Y1259700D03*
G01X149482Y1435100D03*
G01X207283Y1435100D03*
G01X91681Y1377299D03*
G01X207283Y1377299D03*
G01X149482Y1377299D03*
G01X91681Y1435100D03*
G01X38100Y927100D03*
G01X901700Y508000D03*
G01X1397000Y1128786D03*
G01X1459126Y1128786D03*
G01X1521253Y1128786D03*
G01X1905000Y1231900D03*
G01X1905000Y1295400D03*
G01X1967126Y1295400D03*
G01X1967126Y1231900D03*
G01X2029253Y1231900D03*
G01X2029253Y1295400D03*
G01X1776626Y1231900D03*
G01X1838753Y1231900D03*
G01X1200921Y1128786D03*
G01X1263047Y1128786D03*
G01X1325174Y1128786D03*
G01X1200921Y1190912D03*
G01X1459126Y1190912D03*
G01X1397000Y1190912D03*
G01X1325174Y1190912D03*
G01X1263047Y1190912D03*
G01X1200921Y1253039D03*
G01X1263047Y1253039D03*
G01X1200921Y1315165D03*
G01X1200921Y1377292D03*
G01X-1054100Y1028700D03*
G01X-1054100Y952500D03*
G01X-977900Y952500D03*
G01X-977900Y1028700D03*
G01X-977900Y1104900D03*
G01X-774700Y1066800D03*
G01X-774700Y990600D03*
G01X-698500Y990600D03*
G01X-698500Y1066800D03*
G01X-698500Y1143000D03*
G01X-774700Y1143000D03*
G01X-698500Y1346200D03*
G01X-774700Y1346200D03*
G01X-1079500Y1473200D03*
G01X-1079500Y1397000D03*
G01X-1079500Y1549400D03*
G01X-1079500Y1689100D03*
G01X-1079500Y1612900D03*
G01X-1422400Y1003300D03*
G01X-1422400Y1079500D03*
G01X-1841500Y-76200D03*
G01X-1745739Y-76200D03*
G01X-1562100Y88900D03*
G01X-1562100Y167881D03*
G01X-1562100Y249273D03*
G01X-2010748Y-1117600D03*
G01X-2095500Y-1117600D03*
G01X-2095500Y-1046934D03*
G01X-2010748Y-1046934D03*
G01X-2010748Y-976268D03*
G01X-2095500Y-976268D03*
G01X292100Y381000D03*
G54D42*
G01X-1866900Y-406400D03*
G54D43*
G01X-431800Y-558800D03*
G54D41*
G01X393700Y63500D03*
G01X2070100Y-101600D03*
G01X2070100Y863600D03*
G01X-1549400Y-1041400D03*
G01X-1703469Y-1208169D03*
G01X-1184904Y-1346200D03*
G01X520700Y-1346200D03*
G01X508000Y-647700D03*
G01X-254000Y-637388D03*
G01X596900Y-744278D03*
G01X-447000Y-835660D03*
G01X-444500Y-647700D03*
G01X-304800Y-863600D03*
G01X-355600Y-1016000D03*
G01X-381000Y-685800D03*
G01X-1104901Y-1435100D03*
G01X-647542Y-1168400D03*
G01X-1562100Y381000D03*
G01X-1257300Y812800D03*
G01X-901700Y901700D03*
G01X-393700Y838200D03*
G01X457200Y558800D03*
G01X-1329588Y-215900D03*
G01X-800100Y-139700D03*
G01X-1155700Y-406400D03*
G01X776762Y342900D03*
G01X-266700Y-1358900D03*
G01X-877124Y-1926212D03*
G01X-732853Y-1926212D03*
G01X-588583Y-1926212D03*
G01X-444312Y-1926212D03*
G01X-300040Y-1926212D03*
G01X-155769Y-1926212D03*
G01X-11498Y-1926212D03*
G01X132773Y-1926212D03*
G01X277044Y-1926212D03*
G01X421315Y-1926212D03*
G01X565586Y-1926212D03*
G01X709857Y-1926212D03*
G01X854128Y-1926212D03*
G01X998399Y-1926212D03*
G01X-732853Y-1781941D03*
G01X-877124Y-1781941D03*
G01X-588583Y-1781941D03*
G01X-444312Y-1781941D03*
G01X277044Y-1781941D03*
G01X-300040Y-1781941D03*
G01X-155769Y-1781941D03*
G01X-11498Y-1781941D03*
G01X132773Y-1781941D03*
G01X421315Y-1781941D03*
G01X565586Y-1781941D03*
G01X709857Y-1781941D03*
G01X854128Y-1781941D03*
G01X998399Y-1781941D03*
G01X-1384300Y-914400D03*
G01X-1285729Y-914400D03*
G01X-1384300Y-825500D03*
G01X-1285729Y-825500D03*
G01X-727697Y391120D03*
G01X719811Y-279400D03*
G01X-876300Y-257912D03*
G01X-825500Y-330200D03*
G54D43*
G01X-355600Y-369900D03*
G54D41*
G01X952500Y-38100D03*
G01X669188Y406400D03*
G01X596900Y469900D03*
G01X-368300Y-228600D03*
G01X-812800Y2171700D03*
G01X-685800Y2171700D03*
G01X-558800Y2171700D03*
G01X-431800Y2171700D03*
G01X-304800Y2171700D03*
G01X-177800Y2171700D03*
G01X-50800Y2171700D03*
G01X457200Y2171700D03*
G01X584200Y2171700D03*
G01X711200Y2171700D03*
G01X838200Y2171700D03*
G01X-1193800Y2044700D03*
G01X-812800Y2044700D03*
G01X-685800Y2044700D03*
G01X-558800Y2044700D03*
G01X-431800Y2044700D03*
G01X-304800Y2044700D03*
G01X-177800Y2044700D03*
G01X-50800Y2044700D03*
G01X457200Y2044700D03*
G01X584200Y2044700D03*
G01X711200Y2044700D03*
G01X838200Y2044700D03*
G01X1092200Y2044700D03*
G01X1219200Y2044700D03*
G01X-1320800Y1917700D03*
G01X-1193800Y1917700D03*
G01X711200Y1917700D03*
G01X838200Y1917700D03*
G01X1092200Y1917700D03*
G01X1219200Y1917700D03*
G01X-939800Y1790700D03*
G01X965200Y1790700D03*
G01X1092200Y1790700D03*
G01X1219200Y1790700D03*
G01X1092200Y1663700D03*
G01X965200Y1536700D03*
G01X965200Y1409700D03*
G01X-1955800Y1282700D03*
G01X-1828800Y1282700D03*
G01X965200Y1282700D03*
G01X-939800Y1155700D03*
G01X330200Y1155700D03*
G01X-1828800Y1028700D03*
G01X-2209800Y901700D03*
G01X-304800Y901700D03*
G01X-177800Y901700D03*
G01X-50800Y901700D03*
G01X203200Y901700D03*
G01X330200Y901700D03*
G01X457200Y901700D03*
G01X-304800Y774700D03*
G01X-177800Y774700D03*
G01X-50800Y774700D03*
G01X76200Y774700D03*
G01X330200Y774700D03*
G01X457200Y774700D03*
G01X-558800Y647700D03*
G01X-431800Y647700D03*
G01X-304800Y647700D03*
G01X-50800Y647700D03*
G01X76200Y647700D03*
G01X203200Y647700D03*
G01X457200Y647700D03*
G01X584200Y647700D03*
G01X965200Y647700D03*
G01X2235200Y647700D03*
G01X2362200Y647700D03*
G01X2489200Y647700D03*
G01X76200Y520700D03*
G01X203200Y520700D03*
G01X330200Y520700D03*
G01X2235200Y520700D03*
G01X2362200Y520700D03*
G01X2489200Y520700D03*
G01X-1955800Y393700D03*
G01X-431800Y393700D03*
G01X-304800Y393700D03*
G01X1092200Y393700D03*
G01X-177800Y266700D03*
G01X838200Y266700D03*
G01X965200Y266700D03*
G01X330200Y139700D03*
G01X838200Y139700D03*
G01X2489200Y139700D03*
G01X584200Y12700D03*
G01X1346200Y12700D03*
G01X2489200Y12700D03*
G01X457200Y-114300D03*
G01X584200Y-114300D03*
G01X711200Y-114300D03*
G01X1473200Y-114300D03*
G01X1600200Y-114300D03*
G01X2489200Y-114300D03*
G01X-2209800Y-241300D03*
G01X-812800Y-241300D03*
G01X-177800Y-241300D03*
G01X457200Y-241300D03*
G01X584200Y-241300D03*
G01X1092200Y-241300D03*
G01X1473200Y-241300D03*
G01X1600200Y-241300D03*
G01X-2209800Y-368300D03*
G01X330200Y-368300D03*
G01X457200Y-368300D03*
G01X1346200Y-368300D03*
G01X-2209800Y-495300D03*
G01X-2082800Y-495300D03*
G01X-177800Y-495300D03*
G01X-50800Y-495300D03*
G01X711200Y-495300D03*
G01X-2209800Y-622300D03*
G01X-2209800Y-876300D03*
G01X-2082800Y-876300D03*
G01X-1828800Y-876300D03*
G01X2362200Y-876300D03*
G01X2489200Y-876300D03*
G01X-1955800Y-1003300D03*
G01X-1955800Y-1130300D03*
G01X1346200Y-1130300D03*
G01X1473200Y-1130300D03*
G01X1600200Y-1130300D03*
G01X1727200Y-1130300D03*
G01X2108200Y-1130300D03*
G01X-1955800Y-1257300D03*
G01X-1828800Y-1257300D03*
G01X1143000Y-1778000D03*
G04 Via End*

G04 Track Start*
G54D10*
G01X-838200Y190500D02*
G01X-838200Y381000D01*
G01X-557131Y404731D02*
G01X-557131Y311066D01*
G01X-567703Y300495D01*
G01X-406400Y321412D02*
G01X-546786Y321412D01*
G01X-557131Y311066D01*
G01X-406400Y21488D02*
G01X-406400Y-12700D01*
G01X-727697Y3797D02*
G01X-727697Y80505D01*
G01X-1615694Y-278003D02*
G01X-1615694Y-492506D01*
G01X-1562100Y-546100D01*
G01X-1433652Y-546100D01*
G01X-1433093Y-546659D01*
G01X-1565707Y-278003D02*
G01X-1565707Y-402793D01*
G01X-1524000Y-444500D01*
G01X-1409700Y-444500D01*
G01X-1383106Y-471094D01*
G01X-1383106Y-546659D01*
G01X-1612900Y-711200D02*
G01X-1500048Y-711200D01*
G01X-1498854Y-712394D01*
G01X-1765706Y-278003D02*
G01X-1765300Y-278409D01*
G01X-1499260Y-762000D02*
G01X-1498854Y-762406D01*
G01X-1665707Y-658393D02*
G01X-1612900Y-711200D01*
G01X-1765300Y-278409D02*
G01X-1765300Y-736600D01*
G01X-1739900Y-762000D01*
G01X-1499260Y-762000D01*
G01X-1665707Y-658393D02*
G01X-1665707Y-278003D01*
G01X-1283106Y-546659D02*
G01X-1282700Y-546252D01*
G01X-1282700Y-482600D01*
G01X1346200Y950341D02*
G01X1305941Y990600D01*
G54D44*
G01X1473200Y395859D02*
G01X1473200Y596900D01*
G01X1630782Y754482D01*
G01X1879600Y754482D01*
G54D45*
G01X1663700Y203200D02*
G01X1727200Y266700D01*
G01X1727200Y395859D01*
G54D10*
G01X-1117346Y-862406D02*
G01X-929818Y-862406D01*
G01X-1117346Y-912393D02*
G01X-1005307Y-912393D01*
G54D44*
G01X-2021919Y-693112D02*
G01X-2021919Y-732688D01*
G01X-1965706Y-636900D02*
G01X-2021919Y-693112D01*
G01X-1965706Y-636900D02*
G01X-1965706Y-278003D01*
G01X-1915693Y-278003D02*
G01X-1915693Y-662407D01*
G01X-1905000Y-673100D01*
G01X-1905000Y-732688D01*
G54D10*
G01X-1026693Y2007D02*
G01X-1385697Y2007D01*
G01X-1026693Y2007D02*
G01X-838200Y190500D01*
G01X-1385697Y-48006D02*
G01X-937006Y-48006D01*
G01X-808495Y80505D02*
G01X-727697Y80505D01*
G01X-937006Y-48006D02*
G01X-808495Y80505D01*
G01X-1385697Y102006D02*
G01X-1066394Y102006D01*
G54D44*
G01X-1773198Y890041D02*
G01X-1665016Y890041D01*
G01X-1637960Y917097D01*
G54D10*
G01X-2195703Y-48006D02*
G01X-2314194Y-48006D01*
G01X-2324100Y-38100D01*
G01X-2324100Y685800D01*
G01X-2133600Y876300D01*
G01X-2133600Y890041D02*
G01X-2019274Y890041D01*
G01X-2013501Y895815D01*
G01X-2019300Y800100D02*
G01X-2019300Y890015D01*
G54D44*
G01X-1776959Y890041D02*
G01X-1773198Y890041D01*
G54D10*
G01X-2133600Y876300D02*
G01X-2133600Y890041D01*
G54D44*
G01X-1816100Y532409D02*
G01X-1815694Y532003D01*
G54D10*
G01X-1385697Y51994D02*
G01X-1040206Y51994D01*
G01X-1385697Y402006D02*
G01X-1231900Y402006D01*
G01X-792462Y469900D02*
G01X-190500Y469900D01*
G01X-75019Y354419D01*
G01X-75019Y241300D01*
G01X-1040206Y51994D02*
G01X-868720Y223480D01*
G01X-868720Y393642D01*
G01X-792462Y469900D01*
G01X-899240Y406283D02*
G01X-805103Y500420D01*
G01X-594881Y967219D02*
G01X-594881Y1712100D01*
G01X-469887Y1712100D02*
G01X-469887Y1049051D01*
G01X-899240Y266700D02*
G01X-914734Y251206D01*
G01X-939800Y251206D01*
G01X-899240Y266700D02*
G01X-899240Y406283D01*
G01X-1385697Y251993D02*
G01X-1143040Y251993D01*
G01X-1122720Y272313D01*
G01X-1122720Y528280D01*
G01X-1385697Y202006D02*
G01X-1112520Y202006D01*
G01X-1092200Y222326D01*
G01X-1092200Y515638D01*
G01X-1385697Y151994D02*
G01X-1082000Y151994D01*
G01X-1061680Y172314D01*
G01X-1061680Y500420D01*
G01X-594881Y967219D01*
G01X-469887Y1049051D02*
G01X-1031160Y487778D01*
G01X-1031160Y137240D01*
G01X-1066394Y102006D01*
G01X274280Y-29313D02*
G01X228600Y-74993D01*
G01X-805103Y500420D02*
G01X-137182Y500420D01*
G01X127000Y236238D01*
G01X127000Y-150000D01*
G01X274280Y175282D02*
G01X274280Y-29313D01*
G01X-111898Y561460D02*
G01X274280Y175282D01*
G01X-886340Y561460D02*
G01X-111898Y561460D01*
G01X-1515694Y532003D02*
G01X-1195197Y532003D01*
G01X-901700Y825500D01*
G01X-2195703Y402006D02*
G01X-2195703Y636397D01*
G01X-2133600Y698500D01*
G01X-1968500Y698500D01*
G01X-1892300Y774700D01*
G01X-1892300Y888940D01*
G01X-1893401Y890041D01*
G01X-1776959Y890041D01*
G01X-2195703Y251993D02*
G01X-2019300Y251993D01*
G01X292100Y228600D02*
G01X-203200Y723900D01*
G01X-711200Y723900D01*
G54D44*
G01X-1915693Y-278003D02*
G01X-1915693Y-163093D01*
G01X-1900606Y-148006D01*
G01X-1385697Y-148006D01*
G54D10*
G01X622300Y1905000D02*
G01X685800Y1841500D01*
G01X685800Y1697711D01*
G01X684784Y1696695D01*
G01X267368Y1803400D02*
G01X368968Y1905000D01*
G01X622300Y1905000D01*
G01X559791Y1696695D02*
G01X559791Y1789709D01*
G01X495300Y1854200D01*
G01X368300Y1854200D01*
G01X286980Y1772880D01*
G01X-1422400Y825500D02*
G01X-1193800Y1054100D01*
G01X-1193800Y1752600D01*
G01X-1163280Y1739958D02*
G01X-1163280Y1041458D01*
G01X-1409758Y794980D01*
G01X-406400Y1258112D02*
G01X-406400Y1511300D01*
G01X-344868Y1572832D02*
G01X-344868Y1712100D01*
G01X-406400Y1511300D02*
G01X-344868Y1572832D01*
G01X-911546Y1712100D02*
G01X-844893Y1712100D01*
G01X-838200Y812800D02*
G01X-1122720Y528280D01*
G01X-635000Y972838D02*
G01X-635000Y1562100D01*
G01X-660400Y1587500D01*
G01X-660400Y1652626D02*
G01X-719874Y1712100D01*
G01X-635000Y972838D02*
G01X-1092200Y515638D01*
G01X-660400Y1587500D02*
G01X-660400Y1652626D01*
G01X-990600Y1633045D02*
G01X-911546Y1712100D01*
G01X-838200Y812800D02*
G01X-838200Y1282700D01*
G01X-990600Y1435100D01*
G01X-990600Y1633045D01*
G54D45*
G01X-3948Y1676400D02*
G01X-59182Y1676400D01*
G01X-94882Y1712100D01*
G01X434797Y1696695D02*
G01X414503Y1676400D01*
G01X342900Y1676400D01*
G54D10*
G01X-2019300Y1155700D02*
G01X-1981200Y1193800D01*
G54D45*
G01X-2013501Y982378D02*
G01X-2013501Y1054100D01*
G01X-1975401Y1092200D01*
G01X-1955800Y1092200D01*
G01X-1775821Y1092200D02*
G01X-1673083Y1092200D01*
G01X-1637960Y1057077D01*
G01X-1503332Y1092200D02*
G01X-1503332Y974811D01*
G01X-1502585Y974065D01*
G54D44*
G01X-1385697Y-148006D02*
G01X-1198194Y-148006D01*
G01X-1168400Y-177800D01*
G01X-1070712Y-177800D01*
G01X-1066800Y-173888D01*
G54D10*
G01X-1385697Y-97993D02*
G01X-968807Y-97993D01*
G01X-939800Y-127000D01*
G01X-939800Y-173888D01*
G54D45*
G01X-2021919Y-732688D02*
G01X-2142388Y-732688D01*
G01X-2146300Y-736600D01*
G54D44*
G01X1879600Y754482D02*
G01X2001418Y754482D01*
G01X2032000Y723900D01*
G01X2032000Y654088D01*
G01X2039391Y646697D01*
G01X1879600Y667918D02*
G01X1879600Y534403D01*
G01X1892300Y521703D01*
G01X2039391Y521703D01*
G01X1879600Y667918D02*
G01X1823618Y667918D01*
G01X1803400Y647700D01*
G01X1752600Y647700D01*
G01X1727200Y673100D01*
G01X1676400Y673100D01*
G01X1644650Y641350D01*
G01X1606550Y641350D02*
G01X1574800Y609600D01*
G01X1574800Y558800D01*
G01X1589679Y543921D01*
G01X1625600Y543921D01*
G01X1656261Y513261D01*
G01X1656261Y495300D01*
G01X1600200Y439239D01*
G01X1600200Y395859D01*
G01X1644650Y641350D02*
G01X1606550Y641350D01*
G54D45*
G01X2113382Y977900D02*
G01X2243811Y977900D01*
G01X2244154Y978243D01*
G01X1319835Y532359D02*
G01X1319335Y531859D01*
G01X1600200Y787400D02*
G01X1600200Y950341D01*
G01X1319335Y531859D02*
G01X1313604Y531859D01*
G01X1275504Y493759D01*
G01X1275504Y203200D01*
G01X1663700Y203200D01*
G01X1206500Y495300D02*
G01X1113299Y495300D01*
G01X1086358Y522241D01*
G01X1086358Y647700D01*
G01X1600200Y787400D02*
G01X1431250Y618450D01*
G01X1431250Y532359D01*
G01X1319835Y532359D01*
G01X1473200Y950341D02*
G01X1473200Y728706D01*
G01X1206500Y495300D02*
G01X1268459Y557259D01*
G01X1270698Y557259D01*
G01X1294098Y580659D01*
G01X1342659Y580659D01*
G01X1382950Y620950D01*
G01X1382950Y638457D01*
G01X1473200Y728706D01*
G54D10*
G01X-2133600Y974065D02*
G01X-2133600Y1028700D01*
G01X-1893401Y974065D02*
G01X-1892300Y975166D01*
G01X-1892300Y1028700D01*
G01X-1773198Y974065D02*
G01X-1756662Y990600D01*
G01X-1722398Y990600D01*
G01X-1502585Y890041D02*
G01X-1447800Y890041D01*
G01X-2065706Y532003D02*
G01X-2065706Y647700D01*
G01X-1565707Y532003D02*
G01X-1565707Y618693D01*
G01X-1536700Y647700D01*
G01X-1615694Y532003D02*
G01X-1613746Y533951D01*
G01X-1613746Y645752D01*
G01X-1865706Y-278003D02*
G01X-1865706Y-406400D01*
G01X-2021919Y-816712D02*
G01X-2019300Y-819330D01*
G01X-2019300Y-863600D01*
G01X-1905000Y-816712D02*
G01X-1905000Y-863600D01*
G54D45*
G01X2404047Y977557D02*
G01X2463457Y977557D01*
G01X2463800Y977900D01*
G01X809803Y1696695D02*
G01X809803Y1828800D01*
G54D10*
G01X-1193800Y1752600D02*
G01X-1064660Y1881740D01*
G01X-1052018Y1851221D02*
G01X-1163280Y1739958D01*
G01X-1052018Y1851221D02*
G01X-393700Y1851221D01*
G01X-309660Y1935260D01*
G01X30520Y1772880D02*
G01X286980Y1772880D01*
G01X-322302Y1965780D02*
G01X-406342Y1881740D01*
G01X-1064660Y1881740D01*
G01X-131860Y1935260D02*
G01X30520Y1772880D01*
G01X-131860Y1935260D02*
G01X-309660Y1935260D01*
G01X267368Y1803400D02*
G01X43162Y1803400D01*
G01X-119218Y1965780D01*
G01X-322302Y1965780D01*
G54D45*
G01X-219875Y1712100D02*
G01X-219875Y1846620D01*
G54D10*
G01X-406400Y-12700D02*
G01X-482600Y-88900D01*
G01X-635000Y-88900D01*
G01X-727697Y3797D01*
G01X-567703Y80505D02*
G01X-558800Y71603D01*
G01X-558800Y-38100D01*
G01X-406400Y105512D02*
G01X-406400Y168538D01*
G01X-406400Y237388D01*
G01X-1005307Y-912393D02*
G01X-977900Y-939800D01*
G01X1712831Y1077951D02*
G01X1727200Y1063583D01*
G01X1727200Y950341D01*
G54D45*
G01X2026818Y977900D02*
G01X2050849Y1001930D01*
G01X2050849Y1019087D01*
G01X2095500Y1063739D01*
G01X2095500Y1079500D01*
G54D10*
G01X-2015693Y-278003D02*
G01X-2015693Y-593293D01*
G01X-2019300Y-596900D01*
G01X-1816100Y-278409D02*
G01X-1815694Y-278003D01*
G01X-1816100Y-495300D02*
G01X-1816100Y-428580D01*
G01X-1814946Y-427426D01*
G01X-1814946Y-385374D01*
G01X-1816100Y-384220D01*
G01X-1816100Y-278409D01*
G01X-1715694Y-278003D02*
G01X-1715694Y-609600D01*
G01X-1614892Y-609161D02*
G01X-1502087Y-609161D01*
G01X-1498854Y-612394D01*
G01X-1498854Y-662407D02*
G01X-1501394Y-664947D01*
G01X-1574800Y-664947D01*
G01X-124540Y530940D02*
G01X215900Y190500D01*
G01X215900Y182550D01*
G01X226060Y172390D01*
G01X226060Y35166D01*
G01X215900Y25006D01*
G01X-557131Y404731D02*
G01X-591780Y439380D01*
G01X-779820Y439380D01*
G01X-838200Y381000D01*
G01X-952620Y317500D02*
G01X-929760Y340360D01*
G01X-929760Y418925D01*
G01X-817745Y530940D01*
G01X-124540Y530940D01*
G01X-979134Y393700D02*
G01X-979134Y468666D01*
G01X-886340Y561460D01*
G01X-1385697Y302006D02*
G01X-1384630Y300939D01*
G01X-1244600Y300939D01*
G01X-1385697Y351993D02*
G01X-1383843Y350139D01*
G01X-1181100Y350139D01*
G01X-1029251Y769399D02*
G01X-1029251Y775251D01*
G01X-558800Y775251D02*
G01X-343451Y990600D01*
G01X1305941Y990600D01*
G01X-609600Y825500D02*
G01X-357149Y1077951D01*
G01X1712831Y1077951D01*
G01X-1536700Y647700D02*
G01X-1150950Y647700D01*
G01X-1029251Y769399D01*
G01X-1865706Y532003D02*
G01X-1865706Y660400D01*
G01X-1878406Y673100D01*
G54D44*
G01X-1773198Y890041D02*
G01X-1773198Y804902D01*
G01X-1816100Y762000D01*
G01X-1816100Y532409D01*
G54D10*
G01X-1765300Y673100D02*
G01X-1765300Y766046D01*
G01X-1705846Y825500D01*
G01X-1422400Y825500D01*
G01X-1690755Y736600D02*
G01X-1632375Y794980D01*
G01X-1409758Y794980D01*
G01X-1143000Y723900D02*
G01X-1635205Y723900D01*
G01X-1665707Y693399D01*
G01X-1665707Y532003D01*
G01X-1092200Y1258112D02*
G01X-892146Y1258112D01*
G01X-1981200Y1193800D02*
G01X-1329192Y1193800D01*
G01X-1264880Y1258112D01*
G01X-1825024Y67276D02*
G01X-1812324Y67276D01*
G01X-1703455Y176145D01*
G01X-1881774Y112126D02*
G01X-1780593Y213307D01*
G01X-1767893Y213307D01*
G01X-2195703Y-148006D02*
G01X-2035868Y-148006D01*
G01X-2004381Y-116519D01*
G01X-2195703Y-97993D02*
G01X-2091893Y-97993D01*
G01X-2057400Y-63500D01*
G01X-1302690Y-434340D02*
G01X-1262710Y-434340D01*
G01X-1218653Y-478397D01*
G01X-1079500Y-478397D01*
G01X-1333094Y-546659D02*
G01X-1330960Y-544525D01*
G01X-1330960Y-462610D01*
G01X-1302690Y-434340D01*
G01X-1183107Y-546659D02*
G01X-978459Y-546659D01*
G01X-952500Y-520700D01*
G01X-952500Y-479028D01*
G01X-953131Y-478397D01*
G01X-1117346Y-712394D02*
G01X-1042594Y-712394D01*
G01X-823831Y-481328D02*
G01X-826762Y-478397D01*
G01X-1042594Y-712394D02*
G01X-914400Y-584200D01*
G01X-863600Y-584200D01*
G01X-823831Y-544431D01*
G01X-823831Y-481328D01*
G54D45*
G01X-1117346Y-812394D02*
G01X-1028294Y-812394D01*
G01X-785800Y-569900D02*
G01X-609600Y-569900D01*
G01X-1028294Y-812394D02*
G01X-785800Y-569900D01*
G54D10*
G01X2120900Y812800D02*
G01X2070100Y863600D01*
G01X2149751Y687201D02*
G01X2120900Y716052D01*
G01X2120900Y812800D01*
G01X2149751Y481199D02*
G01X2149751Y687201D01*
G01X2070100Y-101600D02*
G01X2070100Y401548D01*
G01X2149751Y481199D01*
G01X-1233094Y-1028141D02*
G01X-1233094Y-1065606D01*
G01X-1206500Y-1092200D01*
G01X-1143000Y-1092200D01*
G01X-1128631Y-1106569D01*
G01X-1128631Y-1153457D01*
G01X-1126388Y-1155700D01*
G01X-1638300Y-961288D02*
G01X-1499972Y-961288D01*
G01X-1498854Y-962406D01*
G01X-1433093Y-1028141D02*
G01X-1509852Y-1104900D01*
G01X-1578712Y-1104900D01*
G01X-1638300Y-1045312D01*
G01X-1498854Y-962406D02*
G01X-1498854Y-990854D01*
G01X-1549400Y-1041400D01*
G01X-1283106Y-1028141D02*
G01X-1283106Y-1142594D01*
G01X-1270000Y-1155700D01*
G01X-1210412Y-1155700D01*
G01X-923188Y-939800D02*
G01X-931977Y-931012D01*
G01X-929818Y-862406D02*
G01X-929818Y-856971D01*
G01X-939800Y-846988D01*
G01X-1117346Y-962406D02*
G01X-998456Y-962406D01*
G01X-979490Y-981372D01*
G01X-977900Y-939800D02*
G01X-923188Y-939800D01*
G01X-1333094Y-1028141D02*
G01X-1322467Y-1038768D01*
G01X-1383106Y-1028141D02*
G01X-1372454Y-1038793D01*
G01X-1779669Y-941469D02*
G01X-1739900Y-901700D01*
G01X-1574800Y-901700D01*
G01X-1564107Y-912393D01*
G01X-1498854Y-912393D01*
G01X-1810188Y-928827D02*
G01X-1810188Y-1153973D01*
G01X-1779669Y-1126963D02*
G01X-1779669Y-941469D01*
G01X-114300Y-1361288D02*
G01X-35306Y-1361288D01*
G01X25400Y-1300582D01*
G01X-114300Y-1153312D02*
G01X-35306Y-1153312D01*
G01X25400Y-1214018D01*
G01X256619Y-1140612D02*
G01X340808Y-1140612D01*
G01X401514Y-1201318D01*
G01X401514Y-1287882D02*
G01X340808Y-1348588D01*
G01X256619Y-1348588D01*
G01X401514Y-1287882D02*
G01X462382Y-1287882D01*
G01X520700Y-1346200D01*
G01X256619Y-650088D02*
G01X328108Y-650088D01*
G01X401514Y-576682D01*
G01X256619Y-442112D02*
G01X353508Y-442112D01*
G01X401514Y-490118D01*
G01X401514Y-576682D02*
G01X472532Y-647700D01*
G01X508000Y-647700D01*
G01X-114300Y-650088D02*
G01X-35306Y-650088D01*
G01X25400Y-589382D01*
G01X-114300Y-442112D02*
G01X-35306Y-442112D01*
G01X25400Y-502818D01*
G01X-114300Y-650088D02*
G01X-127000Y-637388D01*
G01X-254000Y-637388D01*
G01X-939800Y-931012D02*
G01X-931977Y-931012D01*
G01X401514Y-1201318D02*
G01X449682Y-1201318D01*
G01X508000Y-1143000D01*
G01X508000Y-850900D01*
G01X444500Y-787400D01*
G54D41*
G01X-431800Y-558800D02*
G01X-598500Y-558800D01*
G01X-609600Y-569900D01*
G54D10*
G01X-203200Y-368300D02*
G01X228600Y-368300D01*
G01X256619Y-396319D01*
G01X256619Y-442112D01*
G01X596900Y-744278D02*
G01X-693478Y-744278D01*
G01X-880212Y-931012D01*
G01X-931977Y-931012D01*
G01X444500Y-787400D02*
G01X-693438Y-787400D01*
G01X-887410Y-981372D01*
G01X-979490Y-981372D01*
G01X-1183107Y-1028141D02*
G01X-891018Y-1028141D01*
G01X-701077Y-838200D01*
G01X-1810188Y-1153973D02*
G01X-1755993Y-1208169D01*
G01X-1703469Y-1208169D01*
G01X-1746723Y-1159909D02*
G01X-1779669Y-1126963D01*
G01X-1449341Y-1159909D02*
G01X-1746723Y-1159909D01*
G01X-1743768Y-862406D02*
G01X-1810188Y-928827D01*
G01X-1743768Y-862406D02*
G01X-1498854Y-862406D01*
G01X-1372454Y-1038793D02*
G01X-1372454Y-1193634D01*
G01X-1268148Y-1297940D01*
G01X-1322467Y-1038768D02*
G01X-1322467Y-1200459D01*
G01X-1255506Y-1267420D01*
G01X-929582Y-1267420D01*
G01X-1210412Y-1155700D02*
G01X-1210412Y-1215288D01*
G01X-1193800Y-1231900D01*
G01X-939800Y-1231900D01*
G01X-1268148Y-1297940D02*
G01X-916940Y-1297940D01*
G01X-698060Y-1079060D01*
G01X-929582Y-1267420D02*
G01X-728580Y-1066418D01*
G01X-112631Y-1151644D02*
G01X-114300Y-1153312D01*
G01X-939800Y-1231900D02*
G01X-760758Y-1052858D01*
G01X-1184904Y-1346200D02*
G01X-673100Y-1346200D01*
G01X-647700Y-1320800D01*
G01X-647700Y-1272388D01*
G01X-698060Y-1079060D02*
G01X-698060Y-1014908D01*
G01X-728580Y-1066418D02*
G01X-728580Y-1002266D01*
G01X-686394Y-960080D01*
G01X-127000Y-960080D01*
G01X-112631Y-974449D01*
G01X-112631Y-1151644D01*
G01X-454564Y-926674D02*
G01X-383540Y-855650D01*
G01X-701077Y-838200D02*
G01X-449540Y-838200D01*
G01X-447000Y-835660D01*
G01X-383540Y-855650D02*
G01X-312750Y-855650D01*
G01X-304800Y-863600D01*
G01X-760758Y-1052858D02*
G01X-760758Y-991282D01*
G01X-696150Y-926674D01*
G01X-454564Y-926674D01*
G01X-698060Y-1014908D02*
G01X-683204Y-1000052D01*
G01X-612196Y-1000052D01*
G01X-596247Y-1016000D01*
G01X-355600Y-1016000D01*
G01X-213512Y-442112D02*
G01X-114300Y-442112D01*
G01X-337780Y-566380D02*
G01X-213512Y-442112D01*
G01X-378460Y-543560D02*
G01X-203200Y-368300D01*
G01X-381000Y-685800D02*
G01X-337780Y-642580D01*
G01X-337780Y-566380D01*
G01X-444500Y-647700D02*
G01X-378460Y-581660D01*
G01X-378460Y-543560D01*
G01X-1143000Y-1668882D02*
G01X-1148034Y-1673916D01*
G01X-1158184Y-1673916D01*
G01X-1197415Y-1634685D01*
G01X-1197415Y-1411834D01*
G01X-1449341Y-1159909D01*
G01X-1143000Y-1668882D02*
G01X-1082294Y-1729588D01*
G01X-1003300Y-1729588D01*
G01X-1143000Y-1582318D02*
G01X-1082294Y-1521612D01*
G01X-1003300Y-1521612D01*
G01X-1104901Y-1435100D02*
G01X-1079501Y-1460500D01*
G01X-1016000Y-1460500D01*
G01X-1001631Y-1474869D01*
G01X-1001631Y-1519944D01*
G01X-1003300Y-1521612D01*
G01X-508000Y-1211682D02*
G01X-568706Y-1272388D01*
G01X-647700Y-1272388D01*
G01X-647700Y-1064412D02*
G01X-568706Y-1064412D01*
G01X-508000Y-1125118D01*
G01X-647700Y-1064412D02*
G01X-647700Y-1168242D01*
G54D45*
G01X1054100Y342900D02*
G01X1193800Y203200D01*
G01X1275504Y203200D01*
G54D10*
G01X508000Y228600D02*
G01X292100Y228600D01*
G01X-2195703Y151994D02*
G01X-2019300Y151994D01*
G01X-1790294Y381000D01*
G01X-1562100Y381000D01*
G01X-393700Y838200D02*
G01X177800Y838200D01*
G01X457200Y558800D01*
G01X-1515694Y-278003D02*
G01X-1515694Y-376606D01*
G01X-1511300Y-381000D01*
G01X-1079500Y-391834D02*
G01X-1094066Y-406400D01*
G01X-1155700Y-406400D01*
G54D45*
G01X767842Y546100D02*
G01X767842Y464058D01*
G01X889000Y342900D01*
G01X1054100Y342900D01*
G54D10*
G01X-1257300Y812800D02*
G01X-1168400Y901700D01*
G01X-901700Y901700D01*
G01X-114300Y-1361288D02*
G01X-264312Y-1361288D01*
G01X-266700Y-1358900D01*
G01X-1498854Y-812394D02*
G01X-1587500Y-812394D01*
G01X-727697Y300495D02*
G01X-727697Y391120D01*
G01X-1333094Y-812394D02*
G01X-1308100Y-787400D01*
G01X-1498854Y-812394D02*
G01X-1333094Y-812394D01*
G01X-1117346Y-612394D02*
G01X-1247394Y-612394D01*
G01X-1365250Y-730250D01*
G01X-1308100Y-787400D01*
G01X-1066800Y-257912D02*
G01X-939800Y-257912D01*
G01X-876300Y-257912D01*
G01X-953131Y-391834D02*
G01X-826762Y-391834D01*
G01X-825500Y-390571D01*
G01X-825500Y-330200D01*
G54D45*
G01X-609600Y-369900D02*
G01X-355600Y-369900D01*
G54D10*
G01X-939800Y-173888D02*
G01X-834288Y-173888D01*
G01X-800100Y-139700D01*
G01X787400Y-50800D02*
G01X871118Y-50800D01*
G01X787400Y-50800D02*
G01X508000Y228600D01*
G01X871118Y-50800D02*
G01X871563Y-51244D01*
G01X871563Y-171640D01*
G01X958126Y-171640D02*
G01X958126Y-306426D01*
G01X1054100Y-402399D01*
G04 Track End*

M02*

